G04 #@! TF.GenerationSoftware,KiCad,Pcbnew,(6.0.8)*
G04 #@! TF.CreationDate,2022-10-29T17:31:59+02:00*
G04 #@! TF.ProjectId,magic_counter,6d616769-635f-4636-9f75-6e7465722e6b,rev?*
G04 #@! TF.SameCoordinates,Original*
G04 #@! TF.FileFunction,Copper,L4,Bot*
G04 #@! TF.FilePolarity,Positive*
%FSLAX46Y46*%
G04 Gerber Fmt 4.6, Leading zero omitted, Abs format (unit mm)*
G04 Created by KiCad (PCBNEW (6.0.8)) date 2022-10-29 17:31:59*
%MOMM*%
%LPD*%
G01*
G04 APERTURE LIST*
G04 Aperture macros list*
%AMRoundRect*
0 Rectangle with rounded corners*
0 $1 Rounding radius*
0 $2 $3 $4 $5 $6 $7 $8 $9 X,Y pos of 4 corners*
0 Add a 4 corners polygon primitive as box body*
4,1,4,$2,$3,$4,$5,$6,$7,$8,$9,$2,$3,0*
0 Add four circle primitives for the rounded corners*
1,1,$1+$1,$2,$3*
1,1,$1+$1,$4,$5*
1,1,$1+$1,$6,$7*
1,1,$1+$1,$8,$9*
0 Add four rect primitives between the rounded corners*
20,1,$1+$1,$2,$3,$4,$5,0*
20,1,$1+$1,$4,$5,$6,$7,0*
20,1,$1+$1,$6,$7,$8,$9,0*
20,1,$1+$1,$8,$9,$2,$3,0*%
G04 Aperture macros list end*
G04 #@! TA.AperFunction,ComponentPad*
%ADD10C,1.600000*%
G04 #@! TD*
G04 #@! TA.AperFunction,ComponentPad*
%ADD11O,1.600000X1.600000*%
G04 #@! TD*
G04 #@! TA.AperFunction,ComponentPad*
%ADD12C,2.000000*%
G04 #@! TD*
G04 #@! TA.AperFunction,ComponentPad*
%ADD13O,1.800000X1.800000*%
G04 #@! TD*
G04 #@! TA.AperFunction,ComponentPad*
%ADD14C,1.800000*%
G04 #@! TD*
G04 #@! TA.AperFunction,ComponentPad*
%ADD15O,1.700000X1.700000*%
G04 #@! TD*
G04 #@! TA.AperFunction,ComponentPad*
%ADD16C,5.600000*%
G04 #@! TD*
G04 #@! TA.AperFunction,ComponentPad*
%ADD17C,1.500000*%
G04 #@! TD*
G04 #@! TA.AperFunction,ComponentPad*
%ADD18O,1.500000X1.500000*%
G04 #@! TD*
G04 #@! TA.AperFunction,ComponentPad*
%ADD19RoundRect,0.875000X-0.875000X-0.875000X0.875000X-0.875000X0.875000X0.875000X-0.875000X0.875000X0*%
G04 #@! TD*
G04 #@! TA.AperFunction,ComponentPad*
%ADD20RoundRect,0.750000X-0.750000X-1.000000X0.750000X-1.000000X0.750000X1.000000X-0.750000X1.000000X0*%
G04 #@! TD*
G04 #@! TA.AperFunction,ComponentPad*
%ADD21C,1.700000*%
G04 #@! TD*
G04 #@! TA.AperFunction,ComponentPad*
%ADD22C,3.500000*%
G04 #@! TD*
G04 #@! TA.AperFunction,ComponentPad*
%ADD23O,1.600000X2.400000*%
G04 #@! TD*
G04 #@! TA.AperFunction,ComponentPad*
%ADD24O,2.400000X1.600000*%
G04 #@! TD*
G04 #@! TA.AperFunction,ComponentPad*
%ADD25O,2.400000X2.400000*%
G04 #@! TD*
G04 #@! TA.AperFunction,ComponentPad*
%ADD26C,2.400000*%
G04 #@! TD*
G04 #@! TA.AperFunction,ViaPad*
%ADD27C,0.800000*%
G04 #@! TD*
G04 #@! TA.AperFunction,Conductor*
%ADD28C,0.250000*%
G04 #@! TD*
G04 APERTURE END LIST*
D10*
X103660000Y-43740000D03*
D11*
X113820000Y-43740000D03*
D10*
X88660000Y-138954000D03*
D11*
X98820000Y-138954000D03*
D10*
X93740000Y-69980000D03*
D11*
X103900000Y-69980000D03*
D10*
X51250000Y-147850000D03*
D11*
X61410000Y-147850000D03*
D10*
X119210000Y-124551500D03*
D11*
X129370000Y-124551500D03*
D12*
X99124664Y-202350000D03*
X92624664Y-202350000D03*
X99124664Y-197850000D03*
X92624664Y-197850000D03*
X151803334Y-177434000D03*
X158303334Y-177434000D03*
X151803334Y-181934000D03*
X158303334Y-181934000D03*
X184623334Y-177434000D03*
X178123334Y-177434000D03*
X184623334Y-181934000D03*
X178123334Y-181934000D03*
D10*
X174463334Y-58360000D03*
D11*
X184623334Y-58360000D03*
D13*
X51250000Y-142850000D03*
D14*
X53790000Y-142850000D03*
D15*
X86235000Y-154574000D03*
X86235000Y-157114000D03*
X86235000Y-159654000D03*
X86235000Y-162194000D03*
D12*
X184623334Y-202350000D03*
X178123334Y-202350000D03*
X184623334Y-197850000D03*
X178123334Y-197850000D03*
X171463334Y-162194000D03*
X164963334Y-162194000D03*
X171463334Y-166694000D03*
X164963334Y-166694000D03*
D10*
X79540000Y-29580000D03*
X77040000Y-29580000D03*
X148343332Y-124551500D03*
D11*
X158503332Y-124551500D03*
D16*
X37892700Y-29848300D03*
D10*
X79620000Y-158194000D03*
X82120000Y-158194000D03*
X110440000Y-127374000D03*
X110440000Y-129874000D03*
D17*
X168505000Y-104116500D03*
X168505000Y-108996500D03*
D16*
X37892900Y-124848250D03*
D12*
X127624216Y-202350000D03*
X121124216Y-202350000D03*
X127624216Y-197850000D03*
X121124216Y-197850000D03*
D10*
X103660000Y-48820000D03*
D11*
X113820000Y-48820000D03*
D12*
X171463334Y-62360000D03*
X164963334Y-62360000D03*
X164963334Y-66860000D03*
X171463334Y-66860000D03*
D10*
X93740000Y-80140000D03*
D11*
X103900000Y-80140000D03*
D10*
X88660000Y-144034000D03*
D11*
X98820000Y-144034000D03*
D12*
X151803334Y-62360000D03*
X158303334Y-62360000D03*
X151803334Y-66860000D03*
X158303334Y-66860000D03*
D10*
X120415000Y-93740000D03*
D11*
X120415000Y-83580000D03*
D10*
X133776666Y-124551500D03*
D11*
X143936666Y-124551500D03*
D15*
X119300000Y-131334000D03*
X119300000Y-133874000D03*
X119300000Y-136414000D03*
X119300000Y-138954000D03*
X119300000Y-141494000D03*
X119300000Y-144034000D03*
X119300000Y-146574000D03*
X119300000Y-149114000D03*
X119300000Y-151654000D03*
X119300000Y-154194000D03*
D18*
X143936666Y-128366500D03*
D17*
X141396666Y-128366500D03*
X138856666Y-128366500D03*
D10*
X51250000Y-87850000D03*
D11*
X61410000Y-87850000D03*
D12*
X145143334Y-162194000D03*
X138643334Y-162194000D03*
X138643334Y-166694000D03*
X145143334Y-166694000D03*
D15*
X119250000Y-28500000D03*
X119250000Y-31040000D03*
X119250000Y-33580000D03*
X119250000Y-36120000D03*
X119250000Y-38660000D03*
X119250000Y-41200000D03*
X119250000Y-43740000D03*
X119250000Y-46280000D03*
X119250000Y-48820000D03*
X119250000Y-51360000D03*
D10*
X111320000Y-158194000D03*
X113820000Y-158194000D03*
X84660000Y-101616500D03*
D11*
X74500000Y-101616500D03*
D10*
X79620000Y-122254000D03*
X82120000Y-122254000D03*
X148143334Y-185934000D03*
D11*
X158303334Y-185934000D03*
D10*
X133025000Y-119966500D03*
X135525000Y-119966500D03*
X88749776Y-197850000D03*
D11*
X88749776Y-208010000D03*
D10*
X51250000Y-157850000D03*
D11*
X61410000Y-157850000D03*
D10*
X51250000Y-127850000D03*
D11*
X61410000Y-127850000D03*
D16*
X182892700Y-219848300D03*
D10*
X77000000Y-158194000D03*
X74500000Y-158194000D03*
X161303334Y-86100000D03*
D11*
X171463334Y-86100000D03*
D10*
X131499104Y-197850000D03*
D11*
X131499104Y-208010000D03*
D10*
X93740000Y-75060000D03*
D11*
X103900000Y-75060000D03*
D10*
X51250000Y-177850000D03*
D11*
X61410000Y-177850000D03*
D10*
X51250000Y-117850000D03*
D11*
X61410000Y-117850000D03*
D10*
X163505000Y-108996500D03*
X163505000Y-111496500D03*
D19*
X45770000Y-41052500D03*
D20*
X39770000Y-41052500D03*
D19*
X42770000Y-45752500D03*
D10*
X148143334Y-58360000D03*
D11*
X158303334Y-58360000D03*
D12*
X158303334Y-162194000D03*
X151803334Y-162194000D03*
X158303334Y-166694000D03*
X151803334Y-166694000D03*
D21*
X47217500Y-76620000D03*
X47217500Y-74120000D03*
X45217500Y-74120000D03*
X45217500Y-76620000D03*
D22*
X42507500Y-69350000D03*
X42507500Y-81390000D03*
D10*
X88660000Y-41200000D03*
D11*
X98820000Y-41200000D03*
D13*
X82120000Y-109236500D03*
D14*
X84660000Y-109236500D03*
D12*
X163873544Y-202350000D03*
X170373544Y-202350000D03*
X170373544Y-197850000D03*
X163873544Y-197850000D03*
D10*
X108700000Y-158194000D03*
X106200000Y-158194000D03*
D13*
X51250000Y-152850000D03*
D14*
X53790000Y-152850000D03*
D10*
X51250000Y-167850000D03*
D11*
X61410000Y-167850000D03*
D10*
X51250000Y-97850000D03*
D11*
X61410000Y-97850000D03*
D13*
X51250000Y-182850000D03*
D14*
X53790000Y-182850000D03*
D10*
X161303334Y-58360000D03*
D11*
X171463334Y-58360000D03*
D12*
X184623334Y-62360000D03*
X178123334Y-62360000D03*
X184623334Y-66860000D03*
X178123334Y-66860000D03*
D23*
X110165000Y-116856500D03*
X112705000Y-116856500D03*
X115245000Y-116856500D03*
X117785000Y-116856500D03*
X120325000Y-116856500D03*
X122865000Y-116856500D03*
X125405000Y-116856500D03*
X127945000Y-116856500D03*
X130485000Y-116856500D03*
X133025000Y-116856500D03*
X135565000Y-116856500D03*
X138105000Y-116856500D03*
X140645000Y-116856500D03*
X143185000Y-116856500D03*
X145725000Y-116856500D03*
X148265000Y-116856500D03*
X150805000Y-116856500D03*
X153345000Y-116856500D03*
X155885000Y-116856500D03*
X158425000Y-116856500D03*
X158425000Y-101616500D03*
X155885000Y-101616500D03*
X153345000Y-101616500D03*
X150805000Y-101616500D03*
X148265000Y-101616500D03*
X145725000Y-101616500D03*
X143185000Y-101616500D03*
X140645000Y-101616500D03*
X138105000Y-101616500D03*
X135565000Y-101616500D03*
X133025000Y-101616500D03*
X130485000Y-101616500D03*
X127945000Y-101616500D03*
X125405000Y-101616500D03*
X122865000Y-101616500D03*
X120325000Y-101616500D03*
X117785000Y-101616500D03*
X115245000Y-101616500D03*
X112705000Y-101616500D03*
X110165000Y-101616500D03*
D12*
X84874888Y-202350000D03*
X78374888Y-202350000D03*
X84874888Y-197850000D03*
X78374888Y-197850000D03*
D18*
X154250000Y-149114000D03*
D17*
X156790000Y-149114000D03*
X159330000Y-149114000D03*
X161870000Y-149114000D03*
X164410000Y-149114000D03*
X166950000Y-149114000D03*
X166950000Y-133874000D03*
X164410000Y-133874000D03*
X161870000Y-133874000D03*
X159330000Y-133874000D03*
X156790000Y-133874000D03*
X154250000Y-133874000D03*
D24*
X74500000Y-126254000D03*
X74500000Y-128794000D03*
X74500000Y-131334000D03*
X74500000Y-133874000D03*
X74500000Y-136414000D03*
X74500000Y-138954000D03*
X74500000Y-141494000D03*
X74500000Y-144034000D03*
X82120000Y-144034000D03*
X82120000Y-141494000D03*
X82120000Y-138954000D03*
X82120000Y-136414000D03*
X82120000Y-133874000D03*
X82120000Y-131334000D03*
X82120000Y-128794000D03*
X82120000Y-126254000D03*
D25*
X36710000Y-58360000D03*
D26*
X36710000Y-61860000D03*
D10*
X148143334Y-86100000D03*
D11*
X158303334Y-86100000D03*
D10*
X77000000Y-122254000D03*
X74500000Y-122254000D03*
X88660000Y-46280000D03*
D11*
X98820000Y-46280000D03*
D10*
X130485000Y-119966500D03*
X127985000Y-119966500D03*
D13*
X51250000Y-102850000D03*
D14*
X53790000Y-102850000D03*
D10*
X74500000Y-116856500D03*
D11*
X84660000Y-116856500D03*
D10*
X102999552Y-197850000D03*
D11*
X102999552Y-208010000D03*
D12*
X171463334Y-77600000D03*
X164963334Y-77600000D03*
X164963334Y-82100000D03*
X171463334Y-82100000D03*
D10*
X51250000Y-187850000D03*
D11*
X61410000Y-187850000D03*
D10*
X103660000Y-136414000D03*
D11*
X113820000Y-136414000D03*
D15*
X100090000Y-116856500D03*
X97550000Y-116856500D03*
X95010000Y-116856500D03*
D10*
X117863500Y-58360000D03*
X120363500Y-58360000D03*
D15*
X88660000Y-51360000D03*
X91200000Y-51360000D03*
X93740000Y-51360000D03*
D10*
X51250000Y-197850000D03*
D11*
X61410000Y-197850000D03*
D24*
X74500000Y-162194000D03*
X74500000Y-164734000D03*
X74500000Y-167274000D03*
X74500000Y-169814000D03*
X74500000Y-172354000D03*
X74500000Y-174894000D03*
X74500000Y-177434000D03*
X74500000Y-179974000D03*
X82120000Y-179974000D03*
X82120000Y-177434000D03*
X82120000Y-174894000D03*
X82120000Y-172354000D03*
X82120000Y-169814000D03*
X82120000Y-167274000D03*
X82120000Y-164734000D03*
X82120000Y-162194000D03*
X112795000Y-62360000D03*
X112795000Y-64900000D03*
X112795000Y-67440000D03*
X112795000Y-69980000D03*
X112795000Y-72520000D03*
X112795000Y-75060000D03*
X112795000Y-77600000D03*
X112795000Y-80140000D03*
X120415000Y-80140000D03*
X120415000Y-77600000D03*
X120415000Y-75060000D03*
X120415000Y-72520000D03*
X120415000Y-69980000D03*
X120415000Y-67440000D03*
X120415000Y-64900000D03*
X120415000Y-62360000D03*
D10*
X88660000Y-133874000D03*
D11*
X98820000Y-133874000D03*
D12*
X138643334Y-66860000D03*
X145143334Y-66860000D03*
X145143334Y-62360000D03*
X138643334Y-62360000D03*
D24*
X90350000Y-162194000D03*
X90350000Y-164734000D03*
X90350000Y-167274000D03*
X90350000Y-169814000D03*
X90350000Y-172354000D03*
X90350000Y-174894000D03*
X90350000Y-177434000D03*
X90350000Y-179974000D03*
X97970000Y-179974000D03*
X97970000Y-177434000D03*
X97970000Y-174894000D03*
X97970000Y-172354000D03*
X97970000Y-169814000D03*
X97970000Y-167274000D03*
X97970000Y-164734000D03*
X97970000Y-162194000D03*
D23*
X88660000Y-129874000D03*
X91200000Y-129874000D03*
X93740000Y-129874000D03*
X96280000Y-129874000D03*
X98820000Y-129874000D03*
X101360000Y-129874000D03*
X103900000Y-129874000D03*
X106440000Y-129874000D03*
X106440000Y-122254000D03*
X103900000Y-122254000D03*
X101360000Y-122254000D03*
X98820000Y-122254000D03*
X96280000Y-122254000D03*
X93740000Y-122254000D03*
X91200000Y-122254000D03*
X88660000Y-122254000D03*
D16*
X182892900Y-29848200D03*
D10*
X134983334Y-58360000D03*
D11*
X145143334Y-58360000D03*
D13*
X51250000Y-112850000D03*
D14*
X53790000Y-112850000D03*
D24*
X77040000Y-33580000D03*
X77040000Y-36120000D03*
X77040000Y-38660000D03*
X77040000Y-41200000D03*
X77040000Y-43740000D03*
X77040000Y-46280000D03*
X77040000Y-48820000D03*
X77040000Y-51360000D03*
X84660000Y-51360000D03*
X84660000Y-48820000D03*
X84660000Y-46280000D03*
X84660000Y-43740000D03*
X84660000Y-41200000D03*
X84660000Y-38660000D03*
X84660000Y-36120000D03*
X84660000Y-33580000D03*
D10*
X93740000Y-64900000D03*
D11*
X103900000Y-64900000D03*
D10*
X103660000Y-38660000D03*
D11*
X113820000Y-38660000D03*
D15*
X72435000Y-50740000D03*
X72435000Y-53280000D03*
X72435000Y-55820000D03*
X72435000Y-58360000D03*
D12*
X156123768Y-202350000D03*
X149623768Y-202350000D03*
X156123768Y-197850000D03*
X149623768Y-197850000D03*
D11*
X145143334Y-158194000D03*
D10*
X134983334Y-158194000D03*
D18*
X153423332Y-129086500D03*
D17*
X155963332Y-129086500D03*
X158503332Y-129086500D03*
D10*
X79540000Y-58360000D03*
X77040000Y-58360000D03*
X51250000Y-107850000D03*
D11*
X61410000Y-107850000D03*
D18*
X93740000Y-58360000D03*
D17*
X91200000Y-58360000D03*
X88660000Y-58360000D03*
D12*
X138643334Y-77600000D03*
X145143334Y-77600000D03*
X145143334Y-82100000D03*
X138643334Y-82100000D03*
D13*
X74500000Y-109236500D03*
D14*
X77040000Y-109236500D03*
D15*
X77040000Y-93140000D03*
X79580000Y-93140000D03*
X82120000Y-93140000D03*
X84660000Y-93140000D03*
D10*
X82160000Y-58360000D03*
X84660000Y-58360000D03*
D12*
X138643334Y-177434000D03*
X145143334Y-177434000D03*
X138643334Y-181934000D03*
X145143334Y-181934000D03*
D16*
X182892700Y-124848250D03*
D13*
X51250000Y-122850000D03*
D14*
X53790000Y-122850000D03*
D12*
X151803334Y-77600000D03*
X158303334Y-77600000D03*
X151803334Y-82100000D03*
X158303334Y-82100000D03*
D10*
X84660000Y-89030000D03*
D11*
X74500000Y-89030000D03*
D10*
X82160000Y-29580000D03*
X84660000Y-29580000D03*
X162910000Y-124551500D03*
D11*
X173070000Y-124551500D03*
D10*
X161303334Y-158194000D03*
D11*
X171463334Y-158194000D03*
D10*
X145748880Y-197850000D03*
D11*
X145748880Y-208010000D03*
D18*
X101360000Y-58360000D03*
D17*
X98820000Y-58360000D03*
X96280000Y-58360000D03*
D10*
X92850000Y-158194000D03*
X90350000Y-158194000D03*
X103660000Y-141494000D03*
D11*
X113820000Y-141494000D03*
D10*
X174463334Y-86100000D03*
D11*
X184623334Y-86100000D03*
D15*
X108147500Y-80140000D03*
X108147500Y-77600000D03*
X108147500Y-75060000D03*
X108147500Y-72520000D03*
X108147500Y-69980000D03*
X108147500Y-67440000D03*
X108147500Y-64900000D03*
D13*
X51250000Y-192850000D03*
D14*
X53790000Y-192850000D03*
D10*
X174463334Y-185934000D03*
D11*
X184623334Y-185934000D03*
D24*
X77040000Y-62360000D03*
X77040000Y-64900000D03*
X77040000Y-67440000D03*
X77040000Y-69980000D03*
X77040000Y-72520000D03*
X77040000Y-75060000D03*
X77040000Y-77600000D03*
X77040000Y-80140000D03*
X84660000Y-80140000D03*
X84660000Y-77600000D03*
X84660000Y-75060000D03*
X84660000Y-72520000D03*
X84660000Y-69980000D03*
X84660000Y-67440000D03*
X84660000Y-64900000D03*
X84660000Y-62360000D03*
D10*
X51250000Y-137850000D03*
D11*
X61410000Y-137850000D03*
D10*
X103660000Y-33580000D03*
D11*
X113820000Y-33580000D03*
D10*
X161303334Y-185934000D03*
D11*
X171463334Y-185934000D03*
D18*
X108980000Y-58360000D03*
D17*
X106440000Y-58360000D03*
X103900000Y-58360000D03*
D15*
X88660000Y-85220000D03*
X88660000Y-82680000D03*
X88660000Y-80140000D03*
X88660000Y-77600000D03*
D10*
X134983334Y-86100000D03*
D11*
X145143334Y-86100000D03*
D10*
X88660000Y-36120000D03*
D11*
X98820000Y-36120000D03*
D10*
X115243500Y-58360000D03*
X112743500Y-58360000D03*
X159998656Y-197850000D03*
D11*
X159998656Y-208010000D03*
D13*
X51250000Y-202850000D03*
D14*
X53790000Y-202850000D03*
D10*
X117249328Y-197850000D03*
D11*
X117249328Y-208010000D03*
D16*
X37892900Y-219848200D03*
D10*
X88660000Y-31040000D03*
D11*
X98820000Y-31040000D03*
D10*
X84660000Y-85220000D03*
D11*
X74500000Y-85220000D03*
D12*
X184623334Y-77600000D03*
X178123334Y-77600000D03*
X178123334Y-82100000D03*
X184623334Y-82100000D03*
X135373992Y-202350000D03*
X141873992Y-202350000D03*
X135373992Y-197850000D03*
X141873992Y-197850000D03*
D24*
X106200000Y-162194000D03*
X106200000Y-164734000D03*
X106200000Y-167274000D03*
X106200000Y-169814000D03*
X106200000Y-172354000D03*
X106200000Y-174894000D03*
X106200000Y-177434000D03*
X106200000Y-179974000D03*
X113820000Y-179974000D03*
X113820000Y-177434000D03*
X113820000Y-174894000D03*
X113820000Y-172354000D03*
X113820000Y-169814000D03*
X113820000Y-167274000D03*
X113820000Y-164734000D03*
X113820000Y-162194000D03*
D15*
X86100000Y-167274000D03*
X86100000Y-169814000D03*
X86100000Y-172354000D03*
X86100000Y-174894000D03*
X86100000Y-177434000D03*
X86100000Y-179974000D03*
D13*
X51250000Y-162850000D03*
D14*
X53790000Y-162850000D03*
D10*
X95470000Y-158194000D03*
X97970000Y-158194000D03*
D12*
X178123334Y-162194000D03*
X184623334Y-162194000D03*
X178123334Y-166694000D03*
X184623334Y-166694000D03*
D10*
X88660000Y-149114000D03*
D11*
X98820000Y-149114000D03*
D18*
X129370000Y-128366500D03*
D17*
X126830000Y-128366500D03*
X124290000Y-128366500D03*
D10*
X103660000Y-151654000D03*
D11*
X113820000Y-151654000D03*
D12*
X171463334Y-177434000D03*
X164963334Y-177434000D03*
X164963334Y-181934000D03*
X171463334Y-181934000D03*
D15*
X96370000Y-88060000D03*
D21*
X98910000Y-88060000D03*
X96370000Y-90600000D03*
X98910000Y-90600000D03*
X96370000Y-93140000D03*
X98910000Y-93140000D03*
D18*
X154250000Y-51360000D03*
D17*
X156790000Y-51360000D03*
X159330000Y-51360000D03*
X161870000Y-51360000D03*
X164410000Y-51360000D03*
X166950000Y-51360000D03*
X166950000Y-36120000D03*
X164410000Y-36120000D03*
X161870000Y-36120000D03*
X159330000Y-36120000D03*
X156790000Y-36120000D03*
X154250000Y-36120000D03*
D18*
X167990000Y-129086500D03*
D17*
X170530000Y-129086500D03*
X173070000Y-129086500D03*
D10*
X103660000Y-146574000D03*
D11*
X113820000Y-146574000D03*
D15*
X89400000Y-64900000D03*
X89400000Y-67440000D03*
X89400000Y-69980000D03*
X89400000Y-72520000D03*
D12*
X106295000Y-92560000D03*
X112795000Y-92560000D03*
X106295000Y-88060000D03*
X112795000Y-88060000D03*
D13*
X51250000Y-132850000D03*
D14*
X53790000Y-132850000D03*
D10*
X174463334Y-158194000D03*
D11*
X184623334Y-158194000D03*
D10*
X110440000Y-124754000D03*
X110440000Y-122254000D03*
D18*
X108980000Y-53360000D03*
D17*
X106440000Y-53360000D03*
X103900000Y-53360000D03*
D11*
X145143334Y-185934000D03*
D10*
X134983334Y-185934000D03*
D12*
X106874440Y-202350000D03*
X113374440Y-202350000D03*
X106874440Y-197850000D03*
X113374440Y-197850000D03*
D13*
X51250000Y-92850000D03*
D14*
X53790000Y-92850000D03*
D10*
X148143334Y-158194000D03*
D11*
X158303334Y-158194000D03*
D10*
X74500000Y-197850000D03*
D11*
X74500000Y-208010000D03*
D13*
X51250000Y-172850000D03*
D14*
X53790000Y-172850000D03*
D10*
X163505000Y-104116500D03*
X163505000Y-101616500D03*
X174248432Y-197850000D03*
D11*
X174248432Y-208010000D03*
D27*
X59692300Y-72587700D03*
X129618500Y-152570000D03*
X124819701Y-156344201D03*
X97117893Y-108484107D03*
X92006394Y-99470000D03*
X102690501Y-159739499D03*
X66580500Y-77270000D03*
X60577200Y-66410000D03*
X68330000Y-73270000D03*
X62028133Y-66410000D03*
X56513333Y-53430000D03*
X58880000Y-54460000D03*
X72435000Y-73270000D03*
X57696666Y-54460000D03*
X57690000Y-55540000D03*
X58310000Y-64660000D03*
X61240000Y-55540000D03*
X60056666Y-55540000D03*
X55330000Y-54460000D03*
X57690000Y-56570000D03*
X57696666Y-53430000D03*
X55330000Y-53430000D03*
X58880000Y-53430000D03*
X58873333Y-55540000D03*
X59126267Y-66410000D03*
X61240000Y-56570000D03*
X63479066Y-66410000D03*
X56513333Y-54460000D03*
X60056666Y-56570000D03*
X64310000Y-64660000D03*
X58873333Y-56570000D03*
X57675334Y-66410000D03*
X64930000Y-66410000D03*
X66922500Y-57603333D03*
X63227500Y-55540000D03*
X68770000Y-57603333D03*
X66922500Y-61730000D03*
X68770000Y-61730000D03*
X51980000Y-64660000D03*
X51370000Y-54530000D03*
X68770000Y-55540000D03*
X65075000Y-55540000D03*
X55800000Y-75520000D03*
X66922500Y-55540000D03*
X68770000Y-59666666D03*
X66580500Y-72925000D03*
X66922500Y-59666666D03*
X55800000Y-70330000D03*
X66580500Y-74225000D03*
X146800000Y-94174500D03*
X154000000Y-95780000D03*
X90556394Y-105883606D03*
X90556394Y-98022208D03*
X91281894Y-98748106D03*
X90556394Y-108512000D03*
X89831894Y-106644932D03*
X89831894Y-97298106D03*
X143600000Y-135674500D03*
X127590000Y-53720943D03*
X136151701Y-36120000D03*
X148142701Y-46277299D03*
X125805049Y-39110451D03*
X102084500Y-118500000D03*
X103850000Y-119224500D03*
X102800000Y-119224500D03*
X136974325Y-191076500D03*
X151950000Y-191801000D03*
X166922877Y-192525500D03*
X66580500Y-76175000D03*
X68640000Y-76170000D03*
D28*
X88660000Y-32120000D02*
X88660000Y-31040000D01*
X125119500Y-157069000D02*
X129618500Y-152570000D01*
X99495000Y-161775000D02*
X104925799Y-156344201D01*
X99495000Y-163209000D02*
X99495000Y-161775000D01*
X104925799Y-156344201D02*
X124819701Y-156344201D01*
X97970000Y-164734000D02*
X99495000Y-163209000D01*
X105701000Y-157069000D02*
X117579000Y-157069000D01*
X125119500Y-157069000D02*
X117579000Y-157069000D01*
X104675000Y-158095000D02*
X105701000Y-157069000D01*
X104675000Y-173269000D02*
X104675000Y-158095000D01*
X97970000Y-179974000D02*
X104675000Y-173269000D01*
X97117893Y-108484107D02*
X105490286Y-116856500D01*
X105490286Y-116856500D02*
X110165000Y-116856500D01*
X92006394Y-96740000D02*
X92006394Y-99470000D01*
X92006394Y-77187206D02*
X92006394Y-96740000D01*
X91731894Y-76912706D02*
X92006394Y-77187206D01*
X87560000Y-63010000D02*
X87560000Y-72740812D01*
X93740000Y-51360000D02*
X87560000Y-57540000D01*
X87560000Y-57540000D02*
X87560000Y-63010000D01*
X87560000Y-72740812D02*
X91731894Y-76912706D01*
X102690501Y-159739499D02*
X100770000Y-161660000D01*
X100770000Y-161660000D02*
X100770000Y-163924990D01*
X98824990Y-165870000D02*
X91486000Y-165870000D01*
X100770000Y-163924990D02*
X98824990Y-165870000D01*
X91486000Y-165870000D02*
X90350000Y-164734000D01*
X148505000Y-108996500D02*
X140645000Y-116856500D01*
X168505000Y-108996500D02*
X148505000Y-108996500D01*
X74500000Y-89030000D02*
X71040000Y-85570000D01*
X71040000Y-81729500D02*
X66580500Y-77270000D01*
X71040000Y-85570000D02*
X71040000Y-81729500D01*
X168505000Y-104116500D02*
X150845000Y-104116500D01*
X150845000Y-104116500D02*
X138105000Y-116856500D01*
X74500000Y-81004695D02*
X74500000Y-85220000D01*
X67720305Y-74225000D02*
X74500000Y-81004695D01*
X66580500Y-74225000D02*
X67720305Y-74225000D01*
X155885000Y-95185000D02*
X155885000Y-101616500D01*
X132450000Y-67400000D02*
X132450000Y-91550000D01*
X133900000Y-93000000D02*
X153700000Y-93000000D01*
X128679999Y-63629999D02*
X132450000Y-67400000D01*
X153700000Y-93000000D02*
X155885000Y-95185000D01*
X114065001Y-63629999D02*
X128679999Y-63629999D01*
X112795000Y-64900000D02*
X114065001Y-63629999D01*
X132450000Y-91550000D02*
X133900000Y-93000000D01*
X132713604Y-93086396D02*
X133801708Y-94174500D01*
X109417499Y-71249999D02*
X110599999Y-71249999D01*
X122355000Y-71249999D02*
X128699999Y-71249999D01*
X110599999Y-71249999D02*
X122355000Y-71249999D01*
X131550000Y-91922792D02*
X132713604Y-93086396D01*
X131550000Y-80450000D02*
X131550000Y-91922792D01*
X131550000Y-74100000D02*
X131550000Y-80450000D01*
X133801708Y-94174500D02*
X146800000Y-94174500D01*
X108147500Y-69980000D02*
X109417499Y-71249999D01*
X128699999Y-71249999D02*
X131550000Y-74100000D01*
X132000000Y-91736396D02*
X133713604Y-93450000D01*
X150805000Y-98975000D02*
X154000000Y-95780000D01*
X150805000Y-101616500D02*
X150805000Y-98975000D01*
X132000000Y-67586396D02*
X132000000Y-91736396D01*
X149070000Y-93450000D02*
X150805000Y-95185000D01*
X129313604Y-64900000D02*
X132000000Y-67586396D01*
X133713604Y-93450000D02*
X149070000Y-93450000D01*
X150805000Y-95185000D02*
X150805000Y-101616500D01*
X120415000Y-64900000D02*
X129313604Y-64900000D01*
X131100000Y-92109188D02*
X133615312Y-94624500D01*
X133615312Y-94624500D02*
X145000000Y-94624500D01*
X131100000Y-83100000D02*
X131100000Y-92109188D01*
X106972500Y-76115000D02*
X106972500Y-78086701D01*
X128140000Y-80140000D02*
X131100000Y-83100000D01*
X106972500Y-78086701D02*
X107755798Y-78869999D01*
X108147500Y-74940000D02*
X106972500Y-76115000D01*
X145000000Y-94624500D02*
X148265000Y-97889500D01*
X119144999Y-78869999D02*
X120415000Y-80140000D01*
X120415000Y-80140000D02*
X128140000Y-80140000D01*
X148265000Y-97889500D02*
X148265000Y-101616500D01*
X107755798Y-78869999D02*
X119144999Y-78869999D01*
X86635000Y-40635000D02*
X86635000Y-46982208D01*
X86635000Y-46982208D02*
X88516396Y-48863604D01*
X84660000Y-38660000D02*
X86635000Y-40635000D01*
X88516396Y-48863604D02*
X91243604Y-48863604D01*
X91243604Y-48863604D02*
X93740000Y-51360000D01*
X87535000Y-96025812D02*
X87535000Y-86345000D01*
X115360000Y-99191500D02*
X109326218Y-99191500D01*
X87535000Y-86345000D02*
X88660000Y-85220000D01*
X109326218Y-99191500D02*
X108251218Y-100266500D01*
X108251218Y-100266500D02*
X91775688Y-100266500D01*
X117785000Y-101616500D02*
X115360000Y-99191500D01*
X91775688Y-100266500D02*
X87535000Y-96025812D01*
X109512614Y-99641500D02*
X108437614Y-100716500D01*
X87085000Y-84255000D02*
X88660000Y-82680000D01*
X87085000Y-96212208D02*
X87085000Y-84255000D01*
X108437614Y-100716500D02*
X91589292Y-100716500D01*
X113270000Y-99641500D02*
X109512614Y-99641500D01*
X91589292Y-100716500D02*
X87085000Y-96212208D01*
X115245000Y-101616500D02*
X113270000Y-99641500D01*
X111180000Y-100091500D02*
X109699010Y-100091500D01*
X108624010Y-101166500D02*
X91402896Y-101166500D01*
X86635000Y-82165000D02*
X88660000Y-80140000D01*
X86635000Y-96398604D02*
X86635000Y-82165000D01*
X112705000Y-101616500D02*
X111180000Y-100091500D01*
X91402896Y-101166500D02*
X86635000Y-96398604D01*
X109699010Y-100091500D02*
X108624010Y-101166500D01*
X86185000Y-79125000D02*
X84660000Y-77600000D01*
X86185000Y-96585000D02*
X86185000Y-79125000D01*
X91216500Y-101616500D02*
X86185000Y-96585000D01*
X84660000Y-77600000D02*
X88660000Y-77600000D01*
X110165000Y-101616500D02*
X91216500Y-101616500D01*
X80849999Y-93877207D02*
X80849999Y-73789999D01*
X106801792Y-119829000D02*
X80849999Y-93877207D01*
X118907792Y-122976500D02*
X115760292Y-119829000D01*
X80849999Y-73789999D02*
X77040000Y-69980000D01*
X146768332Y-122976500D02*
X118907792Y-122976500D01*
X115760292Y-119829000D02*
X106801792Y-119829000D01*
X148343332Y-124551500D02*
X146768332Y-122976500D01*
X77040000Y-75060000D02*
X75515000Y-76585000D01*
X115387500Y-120729000D02*
X119210000Y-124551500D01*
X75515000Y-76585000D02*
X75515000Y-84644009D01*
X75625000Y-84754009D02*
X75625000Y-93465000D01*
X80465000Y-94765000D02*
X106429000Y-120729000D01*
X76925000Y-94765000D02*
X80465000Y-94765000D01*
X75625000Y-93465000D02*
X76925000Y-94765000D01*
X75515000Y-84644009D02*
X75625000Y-84754009D01*
X106429000Y-120729000D02*
X115387500Y-120729000D01*
X132651666Y-123426500D02*
X133776666Y-124551500D01*
X79023298Y-94315000D02*
X80651396Y-94315000D01*
X115573896Y-120279000D02*
X118721396Y-123426500D01*
X78565000Y-79125000D02*
X78565000Y-80605990D01*
X80651396Y-94315000D02*
X106615396Y-120279000D01*
X118721396Y-123426500D02*
X132651666Y-123426500D01*
X78309999Y-80860991D02*
X78309999Y-93601701D01*
X106615396Y-120279000D02*
X115573896Y-120279000D01*
X78309999Y-93601701D02*
X79023298Y-94315000D01*
X77040000Y-77600000D02*
X78565000Y-79125000D01*
X78565000Y-80605990D02*
X78309999Y-80860991D01*
X83389999Y-81410001D02*
X84660000Y-80140000D01*
X83389999Y-95780811D02*
X83389999Y-81410001D01*
X160885000Y-122526500D02*
X119094188Y-122526500D01*
X119094188Y-122526500D02*
X115946688Y-119379000D01*
X106988188Y-119379000D02*
X83389999Y-95780811D01*
X115946688Y-119379000D02*
X106988188Y-119379000D01*
X162910000Y-124551500D02*
X160885000Y-122526500D01*
X88660000Y-51360000D02*
X88660000Y-50280000D01*
X88660000Y-51360000D02*
X86660000Y-53360000D01*
X86660000Y-56650000D02*
X86660000Y-73113604D01*
X86660000Y-73113604D02*
X90285000Y-76738604D01*
X86660000Y-53360000D02*
X86660000Y-56650000D01*
X90285000Y-76738604D02*
X90556394Y-77009998D01*
X90556394Y-77009998D02*
X90556394Y-98022208D01*
X90556394Y-107322894D02*
X100090000Y-116856500D01*
X88660000Y-50280000D02*
X84660000Y-46280000D01*
X90556394Y-105883606D02*
X90556394Y-107322894D01*
X87110000Y-72927208D02*
X91006394Y-76823602D01*
X91281894Y-77099102D02*
X91281894Y-98748106D01*
X88333198Y-49316802D02*
X89156802Y-49316802D01*
X90556394Y-109406394D02*
X90556394Y-108512000D01*
X97550000Y-116856500D02*
X90556394Y-109862894D01*
X87110000Y-55450000D02*
X87110000Y-57380000D01*
X86185000Y-45265000D02*
X86185000Y-47168604D01*
X90556394Y-109862894D02*
X90556394Y-109406394D01*
X91006394Y-76823602D02*
X91281894Y-77099102D01*
X89156802Y-49316802D02*
X91200000Y-51360000D01*
X91200000Y-51360000D02*
X87110000Y-55450000D01*
X87110000Y-57380000D02*
X87110000Y-72927208D01*
X84660000Y-43740000D02*
X86185000Y-45265000D01*
X86185000Y-47168604D02*
X88333198Y-49316802D01*
X89831894Y-111678394D02*
X95010000Y-116856500D01*
X86185000Y-52885000D02*
X86210000Y-52910000D01*
X89835000Y-76925000D02*
X89835000Y-86575000D01*
X84660000Y-51360000D02*
X86185000Y-52885000D01*
X86210000Y-52910000D02*
X86210000Y-73300000D01*
X89831894Y-106644932D02*
X89831894Y-111678394D01*
X89835000Y-97295000D02*
X89831894Y-97298106D01*
X89835000Y-86575000D02*
X89835000Y-97295000D01*
X86210000Y-73300000D02*
X89835000Y-76925000D01*
X120375000Y-150189000D02*
X163335000Y-150189000D01*
X119300000Y-149114000D02*
X120375000Y-150189000D01*
X163335000Y-150189000D02*
X164410000Y-149114000D01*
X143600000Y-135674500D02*
X130199500Y-135674500D01*
X130199500Y-135674500D02*
X119300000Y-146574000D01*
X95280000Y-59900000D02*
X121410000Y-59900000D01*
X121410000Y-59900000D02*
X127589057Y-53720943D01*
X127589057Y-53720943D02*
X127590000Y-53720943D01*
X93740000Y-58360000D02*
X95280000Y-59900000D01*
X161260000Y-32970000D02*
X145673604Y-32970000D01*
X145673604Y-32970000D02*
X122283604Y-56360000D01*
X164410000Y-36120000D02*
X161260000Y-32970000D01*
X103360000Y-56360000D02*
X101360000Y-58360000D01*
X122283604Y-56360000D02*
X103360000Y-56360000D01*
X108147500Y-77480000D02*
X109297501Y-76329999D01*
X109297501Y-76329999D02*
X119144999Y-76329999D01*
X119144999Y-76329999D02*
X120415000Y-77600000D01*
X145860000Y-33420000D02*
X159170000Y-33420000D01*
X110530000Y-56810000D02*
X122470000Y-56810000D01*
X159170000Y-33420000D02*
X161870000Y-36120000D01*
X122470000Y-56810000D02*
X145860000Y-33420000D01*
X108980000Y-58360000D02*
X110530000Y-56810000D01*
X118911701Y-53360000D02*
X136151701Y-36120000D01*
X108980000Y-53360000D02*
X118911701Y-53360000D01*
X88660000Y-32120000D02*
X84660000Y-36120000D01*
X89929999Y-123524001D02*
X91200000Y-122254000D01*
X89929999Y-132604001D02*
X89929999Y-123524001D01*
X88660000Y-133874000D02*
X89929999Y-132604001D01*
X159327299Y-46277299D02*
X164410000Y-51360000D01*
X148142701Y-46277299D02*
X159327299Y-46277299D01*
X119250000Y-43740000D02*
X121175500Y-43740000D01*
X121175500Y-43740000D02*
X125805049Y-39110451D01*
X102084500Y-118500000D02*
X86450000Y-118500000D01*
X83645000Y-121305000D02*
X83645000Y-129809000D01*
X86450000Y-118500000D02*
X83645000Y-121305000D01*
X83645000Y-129809000D02*
X82120000Y-131334000D01*
X84545000Y-136529000D02*
X82120000Y-138954000D01*
X83645000Y-140479000D02*
X83645000Y-173369000D01*
X103124500Y-119950000D02*
X103850000Y-119224500D01*
X84545000Y-121677792D02*
X84545000Y-136529000D01*
X83645000Y-173369000D02*
X82120000Y-174894000D01*
X86272792Y-119950000D02*
X84545000Y-121677792D01*
X82120000Y-138954000D02*
X83645000Y-140479000D01*
X86272792Y-119950000D02*
X103124500Y-119950000D01*
X86361896Y-119224500D02*
X102800000Y-119224500D01*
X84095000Y-121491396D02*
X84095000Y-134439000D01*
X84095000Y-134439000D02*
X82120000Y-136414000D01*
X86361896Y-119224500D02*
X84095000Y-121491396D01*
X82120000Y-136414000D02*
X78309999Y-140224001D01*
X78309999Y-140224001D02*
X78309999Y-168543999D01*
X78309999Y-168543999D02*
X82120000Y-172354000D01*
X97035688Y-191076500D02*
X136974325Y-191076500D01*
X90350000Y-167274000D02*
X93225000Y-170149000D01*
X93225000Y-187265812D02*
X97035688Y-191076500D01*
X93225000Y-170149000D02*
X93225000Y-187265812D01*
X97123792Y-191801000D02*
X151950000Y-191801000D01*
X90350000Y-169814000D02*
X92775000Y-172239000D01*
X92775000Y-172239000D02*
X92775000Y-187452208D01*
X92775000Y-187452208D02*
X97123792Y-191801000D01*
X92325000Y-187638604D02*
X97211896Y-192525500D01*
X92325000Y-174329000D02*
X92325000Y-187638604D01*
X90350000Y-172354000D02*
X92325000Y-174329000D01*
X97211896Y-192525500D02*
X166922877Y-192525500D01*
X91875000Y-176419000D02*
X91875000Y-187825000D01*
X186000000Y-197352833D02*
X186000000Y-200973334D01*
X91875000Y-187825000D02*
X97300000Y-193250000D01*
X97300000Y-193250000D02*
X181897167Y-193250000D01*
X90350000Y-174894000D02*
X91875000Y-176419000D01*
X181897167Y-193250000D02*
X186000000Y-197352833D01*
X186000000Y-200973334D02*
X184623334Y-202350000D01*
X86235000Y-159654000D02*
X92890000Y-159654000D01*
X92890000Y-159654000D02*
X97970000Y-164734000D01*
X66580500Y-76175000D02*
X68635000Y-76175000D01*
X68635000Y-76175000D02*
X68640000Y-76170000D01*
M02*
