M48
; DRILL file {KiCad (6.0.7)} date 2022-08-11T21:26:58 CEST
; FORMAT={-:-/ absolute / metric / decimal}
; #@! TF.CreationDate,2022-08-11T21:26:58+02:00
; #@! TF.GenerationSoftware,Kicad,Pcbnew,(6.0.7)
; #@! TF.FileFunction,Plated,1,2,PTH
FMAT,2
METRIC
; #@! TA.AperFunction,Plated,PTH,ViaDrill
T1C0.400
; #@! TA.AperFunction,Plated,PTH,ComponentDrill
T2C0.800
; #@! TA.AperFunction,Plated,PTH,ComponentDrill
T3C0.900
; #@! TA.AperFunction,Plated,PTH,ComponentDrill
T4C1.000
; #@! TA.AperFunction,Plated,PTH,ComponentDrill
T5C1.100
; #@! TA.AperFunction,Plated,PTH,ComponentDrill
T6C1.200
; #@! TA.AperFunction,Plated,PTH,ComponentDrill
T7C3.200
%
G90
G05
T1
X53.046Y-169.424
X54.776Y-80.61
X56.83Y-162.55
X57.75Y-120.61
X59.81Y-78.63
X60.21Y-112.43
X61.633Y-112.897
X61.722Y-53.193
X62.93Y-169.25
X63.9Y-112.09
X64.45Y-171.03
X65.28Y-115.52
X70.97Y-167.465
X70.97Y-170.79
X71.33Y-101.31
X73.3Y-170.29
X73.92Y-137.847
X75.92Y-170.28
X76.32Y-94.66
X78.65Y-116.25
X86.88Y-169.31
X87.94Y-104.515
X90.32Y-91.0
X92.45Y-95.72
X92.45Y-104.254
X99.828Y-90.132
X99.97Y-49.177
X102.76Y-98.53
X103.48Y-127.347
X106.49Y-59.92
X108.25Y-30.121
X109.16Y-181.744
X112.38Y-103.53
X114.355Y-73.82
X114.885Y-37.463
X118.55Y-143.33
X120.22Y-69.28
X133.918Y-104.337
X133.929Y-105.785
X134.615Y-105.058
X134.62Y-106.51
X138.704Y-97.775
X138.714Y-95.736
X139.704Y-97.775
T2
X40.455Y-72.692
X40.455Y-80.312
X40.455Y-84.008
X40.455Y-91.628
X40.455Y-95.323
X40.455Y-102.944
X40.455Y-106.639
X40.455Y-114.259
X40.455Y-117.954
X40.455Y-125.575
X40.455Y-129.27
X40.455Y-136.89
X40.455Y-140.585
X40.455Y-148.206
X40.455Y-151.901
X40.455Y-159.521
X40.455Y-163.216
X40.455Y-170.837
X40.455Y-174.532
X40.455Y-182.152
X40.455Y-185.847
X40.455Y-193.468
X40.455Y-197.163
X40.455Y-204.784
X57.34Y-204.784
X57.995Y-29.212
X57.995Y-33.212
X57.995Y-35.752
X57.995Y-38.292
X57.995Y-40.832
X57.995Y-43.372
X57.995Y-45.913
X57.995Y-48.453
X57.995Y-50.992
X57.995Y-55.992
X57.995Y-59.992
X57.995Y-62.532
X57.995Y-65.072
X57.995Y-67.612
X57.995Y-70.153
X57.995Y-72.692
X57.995Y-75.233
X57.995Y-77.772
X57.995Y-124.087
X57.995Y-128.088
X57.995Y-130.627
X57.995Y-133.167
X57.995Y-135.707
X57.995Y-138.248
X57.995Y-140.787
X57.995Y-143.327
X57.995Y-145.868
X57.995Y-150.868
X57.995Y-153.368
X57.995Y-155.987
X57.995Y-158.487
X57.995Y-165.52
X57.995Y-168.02
X57.995Y-171.03
X57.995Y-173.53
X57.995Y-178.227
X57.995Y-180.727
X57.995Y-183.347
X57.995Y-185.847
X60.495Y-29.212
X60.495Y-55.992
X60.495Y-124.087
X61.995Y-150.868
X61.995Y-158.487
X61.995Y-165.607
X61.995Y-173.227
X61.995Y-178.227
X61.995Y-185.847
X63.115Y-29.212
X63.115Y-55.992
X63.115Y-124.087
X64.535Y-150.868
X64.535Y-158.487
X64.535Y-165.607
X64.535Y-173.227
X64.535Y-178.227
X64.535Y-185.847
X64.96Y-204.784
X65.615Y-29.212
X65.615Y-33.212
X65.615Y-35.752
X65.615Y-38.292
X65.615Y-40.832
X65.615Y-43.372
X65.615Y-45.913
X65.615Y-48.453
X65.615Y-50.992
X65.615Y-55.992
X65.615Y-59.992
X65.615Y-62.532
X65.615Y-65.072
X65.615Y-67.612
X65.615Y-70.153
X65.615Y-72.692
X65.615Y-75.233
X65.615Y-77.772
X65.615Y-124.087
X65.615Y-128.088
X65.615Y-130.627
X65.615Y-133.167
X65.615Y-135.707
X65.615Y-138.248
X65.615Y-140.787
X65.615Y-143.327
X65.615Y-145.868
X65.995Y-98.53
X65.995Y-103.53
X67.075Y-150.868
X67.075Y-158.487
X67.075Y-165.607
X67.075Y-173.227
X67.075Y-178.227
X67.075Y-185.847
X69.615Y-150.868
X69.615Y-158.487
X69.615Y-165.607
X69.615Y-173.227
X69.615Y-178.227
X69.615Y-185.847
X70.44Y-204.784
X70.93Y-30.672
X70.93Y-35.752
X70.93Y-40.832
X70.93Y-45.913
X70.93Y-125.547
X70.93Y-130.627
X70.93Y-135.707
X70.93Y-140.787
X72.155Y-150.868
X72.155Y-158.487
X72.155Y-165.607
X72.155Y-173.227
X72.155Y-178.227
X72.155Y-185.847
X73.615Y-56.532
X73.615Y-62.532
X73.615Y-67.612
X73.615Y-72.692
X73.615Y-77.772
X73.615Y-83.34
X73.615Y-90.96
X73.615Y-98.53
X73.615Y-103.53
X74.695Y-150.868
X74.695Y-158.487
X74.695Y-165.607
X74.695Y-173.227
X74.695Y-178.227
X74.695Y-185.847
X76.155Y-56.532
X77.235Y-150.868
X77.235Y-158.487
X77.235Y-165.607
X77.235Y-173.227
X77.235Y-178.227
X77.235Y-185.847
X78.06Y-204.784
X78.55Y-30.672
X78.55Y-35.752
X78.55Y-40.832
X78.55Y-45.913
X78.55Y-125.547
X78.55Y-130.627
X78.55Y-135.707
X78.55Y-140.787
X78.695Y-56.532
X79.775Y-150.868
X79.775Y-158.487
X79.775Y-165.607
X79.775Y-173.227
X79.775Y-178.227
X79.775Y-185.847
X81.235Y-62.532
X81.235Y-67.612
X81.235Y-72.692
X81.235Y-77.772
X81.49Y-33.212
X81.49Y-38.292
X81.49Y-43.372
X81.49Y-48.453
X81.49Y-128.088
X81.49Y-133.167
X81.49Y-138.248
X81.49Y-143.327
X83.445Y-93.29
X83.445Y-108.53
X83.54Y-204.784
X83.695Y-56.532
X85.985Y-93.29
X85.985Y-108.53
X86.235Y-56.532
X87.055Y-62.532
X87.055Y-65.072
X87.055Y-67.612
X87.055Y-72.692
X87.055Y-75.233
X87.055Y-77.772
X88.525Y-93.29
X88.525Y-108.53
X88.775Y-56.532
X89.11Y-33.212
X89.11Y-38.292
X89.11Y-43.372
X89.11Y-48.453
X89.11Y-128.088
X89.11Y-133.167
X89.11Y-138.248
X89.11Y-143.327
X91.065Y-93.29
X91.065Y-108.53
X91.16Y-204.784
X92.49Y-116.225
X93.605Y-93.29
X93.605Y-108.53
X94.06Y-178.227
X94.06Y-180.727
X94.06Y-183.347
X94.06Y-185.847
X94.56Y-55.992
X94.56Y-63.612
X94.56Y-67.6
X94.56Y-75.22
X94.56Y-80.22
X94.56Y-82.72
X94.56Y-85.34
X94.56Y-87.84
X94.56Y-150.868
X94.56Y-158.487
X94.56Y-162.487
X94.56Y-170.107
X96.145Y-93.29
X96.145Y-108.53
X96.64Y-204.784
X97.57Y-120.38
X98.06Y-178.227
X98.06Y-185.847
X98.56Y-80.22
X98.56Y-87.84
X98.685Y-93.29
X98.685Y-108.53
X100.11Y-116.225
X100.11Y-120.38
X100.6Y-178.227
X100.6Y-185.847
X101.1Y-80.22
X101.1Y-87.84
X101.225Y-93.29
X101.225Y-108.53
X101.265Y-112.53
X102.65Y-120.38
X103.14Y-178.227
X103.14Y-185.847
X103.64Y-80.22
X103.64Y-87.84
X103.765Y-93.29
X103.765Y-108.53
X103.765Y-112.53
X104.26Y-204.784
X105.68Y-178.227
X105.68Y-185.847
X106.18Y-80.22
X106.18Y-87.84
X106.305Y-93.29
X106.305Y-108.53
X106.345Y-112.53
X107.057Y-116.225
X108.22Y-178.227
X108.22Y-185.847
X108.327Y-55.992
X108.327Y-63.612
X108.327Y-67.6
X108.327Y-75.22
X108.327Y-150.868
X108.327Y-158.487
X108.327Y-162.487
X108.327Y-170.107
X108.72Y-80.22
X108.72Y-87.84
X108.845Y-93.29
X108.845Y-108.53
X108.845Y-112.53
X109.74Y-204.784
X110.76Y-178.227
X110.76Y-185.847
X111.26Y-80.22
X111.26Y-87.84
X111.385Y-93.29
X111.385Y-108.53
X112.137Y-120.19
X113.3Y-178.227
X113.3Y-185.847
X113.8Y-80.22
X113.8Y-87.84
X113.925Y-93.29
X113.925Y-108.53
X114.677Y-116.225
X114.677Y-120.19
X115.84Y-178.227
X115.84Y-185.847
X116.34Y-80.22
X116.34Y-87.84
X116.465Y-93.29
X116.465Y-108.53
X117.217Y-120.19
X117.36Y-204.784
X119.005Y-93.29
X119.005Y-108.53
X121.545Y-93.29
X121.545Y-108.53
X121.623Y-116.225
X122.093Y-55.992
X122.093Y-63.612
X122.093Y-67.6
X122.093Y-75.22
X122.093Y-150.868
X122.093Y-158.487
X122.093Y-162.487
X122.093Y-170.107
X122.84Y-204.784
X124.085Y-93.29
X124.085Y-108.53
X126.625Y-93.29
X126.625Y-108.53
X126.703Y-120.66
X129.165Y-93.29
X129.165Y-108.53
X129.243Y-116.225
X129.243Y-120.66
X130.46Y-204.784
X131.705Y-93.29
X131.705Y-108.53
X131.783Y-120.66
X135.86Y-55.992
X135.86Y-63.612
X135.86Y-67.6
X135.86Y-75.22
X135.86Y-150.868
X135.86Y-158.487
X135.86Y-162.487
X135.86Y-170.107
X135.94Y-204.784
X136.19Y-116.225
X141.27Y-120.76
X143.56Y-204.784
X143.81Y-116.225
X143.81Y-120.76
X144.705Y-96.0
X144.705Y-98.5
X144.705Y-103.38
X144.705Y-105.88
X146.35Y-120.76
X149.04Y-204.784
X151.705Y-98.5
X151.705Y-103.38
X156.66Y-204.784
T3
X45.455Y-72.692
X45.455Y-84.008
X45.455Y-95.323
X45.455Y-106.639
X45.455Y-117.954
X45.455Y-129.27
X45.455Y-140.585
X45.455Y-151.901
X45.455Y-163.216
X45.455Y-174.532
X45.455Y-185.847
X45.455Y-197.163
X47.995Y-72.692
X47.995Y-84.008
X47.995Y-95.323
X47.995Y-106.639
X47.995Y-117.954
X47.995Y-129.27
X47.995Y-140.585
X47.995Y-151.901
X47.995Y-163.216
X47.995Y-174.532
X47.995Y-185.847
X47.995Y-197.163
T4
X53.83Y-128.088
X53.83Y-130.627
X53.83Y-133.167
X53.83Y-135.707
X53.83Y-138.248
X53.83Y-140.787
X53.83Y-143.327
X57.995Y-81.772
X60.535Y-81.772
X60.535Y-88.42
X60.535Y-90.96
X60.535Y-98.53
X60.535Y-101.07
X60.535Y-103.61
X60.535Y-106.15
X63.075Y-81.772
X63.075Y-88.42
X63.075Y-90.96
X65.615Y-81.772
X65.615Y-88.42
X65.615Y-90.96
X65.995Y-108.53
X68.535Y-108.53
X69.615Y-55.992
X69.615Y-58.532
X69.615Y-61.072
X69.615Y-63.612
X70.93Y-50.992
X70.93Y-145.868
X71.075Y-108.53
X73.47Y-50.992
X73.47Y-145.868
X73.615Y-108.53
X76.01Y-50.992
X76.01Y-145.868
X86.88Y-173.227
X86.88Y-175.767
X86.88Y-178.308
X86.88Y-180.847
X86.88Y-183.387
X86.88Y-185.927
X92.58Y-28.133
X92.58Y-30.672
X92.58Y-33.212
X92.58Y-35.752
X92.58Y-38.292
X92.58Y-40.832
X92.58Y-43.372
X92.58Y-45.913
X92.58Y-48.453
X92.58Y-50.992
X92.58Y-123.007
X92.58Y-125.547
X92.58Y-128.088
X92.58Y-130.627
X92.58Y-133.167
X92.58Y-135.707
X92.58Y-138.248
X92.58Y-140.787
X92.58Y-143.327
X92.58Y-145.868
X115.61Y-31.032
X115.61Y-46.273
X115.61Y-125.547
X115.61Y-140.787
X118.15Y-31.032
X118.15Y-46.273
X118.15Y-125.547
X118.15Y-140.787
X120.69Y-31.032
X120.69Y-46.273
X120.69Y-125.547
X120.69Y-140.787
X123.23Y-31.032
X123.23Y-46.273
X123.23Y-125.547
X123.23Y-140.787
X125.77Y-31.032
X125.77Y-46.273
X125.77Y-125.547
X125.77Y-140.787
X128.31Y-31.032
X128.31Y-46.273
X128.31Y-125.547
X128.31Y-140.787
T5
X57.9Y-192.663
X57.9Y-197.163
X64.4Y-192.663
X64.4Y-197.163
X71.0Y-192.663
X71.0Y-197.163
X77.5Y-192.663
X77.5Y-197.163
X80.555Y-83.34
X80.555Y-87.84
X84.1Y-192.663
X84.1Y-197.163
X87.055Y-83.34
X87.055Y-87.84
X90.6Y-192.663
X90.6Y-197.163
X97.2Y-192.663
X97.2Y-197.163
X98.06Y-55.992
X98.06Y-60.492
X98.06Y-70.72
X98.06Y-75.22
X98.06Y-150.868
X98.06Y-155.368
X98.06Y-165.607
X98.06Y-170.107
X103.7Y-192.663
X103.7Y-197.163
X104.56Y-55.992
X104.56Y-60.492
X104.56Y-70.72
X104.56Y-75.22
X104.56Y-150.868
X104.56Y-155.368
X104.56Y-165.607
X104.56Y-170.107
X110.3Y-192.663
X110.3Y-197.163
X111.827Y-55.992
X111.827Y-60.492
X111.827Y-70.72
X111.827Y-75.22
X111.827Y-150.868
X111.827Y-155.368
X111.827Y-165.607
X111.827Y-170.107
X116.8Y-192.663
X116.8Y-197.163
X118.327Y-55.992
X118.327Y-60.492
X118.327Y-70.72
X118.327Y-75.22
X118.327Y-150.868
X118.327Y-155.368
X118.327Y-165.607
X118.327Y-170.107
X123.4Y-192.663
X123.4Y-197.163
X125.593Y-55.992
X125.593Y-60.492
X125.593Y-70.72
X125.593Y-75.22
X125.593Y-150.868
X125.593Y-155.368
X125.593Y-165.607
X125.593Y-170.107
X129.9Y-192.663
X129.9Y-197.163
X132.093Y-55.992
X132.093Y-60.492
X132.093Y-70.72
X132.093Y-75.22
X132.093Y-150.868
X132.093Y-155.368
X132.093Y-165.607
X132.093Y-170.107
X136.5Y-192.663
X136.5Y-197.163
X139.36Y-55.992
X139.36Y-60.492
X139.36Y-70.72
X139.36Y-75.22
X139.36Y-150.868
X139.36Y-155.368
X139.36Y-165.607
X139.36Y-170.107
X143.0Y-192.663
X143.0Y-197.163
X145.86Y-55.992
X145.86Y-60.492
X145.86Y-70.72
X145.86Y-75.22
X145.86Y-150.868
X145.86Y-155.368
X145.86Y-165.607
X145.86Y-170.107
X149.6Y-192.663
X149.6Y-197.163
X156.1Y-192.663
X156.1Y-197.163
T6
X36.72Y-42.926
X36.72Y-46.426
T7
X37.893Y-29.848
X37.893Y-219.848
X152.893Y-219.848
X152.893Y-29.848
T4
X39.73Y-55.7G85X39.73Y-57.7
G05
X41.73Y-61.4G85X43.73Y-61.4
G05
X45.73Y-55.7G85X45.73Y-57.7
G05
T0
M30
