G04 #@! TF.GenerationSoftware,KiCad,Pcbnew,(6.0.7)*
G04 #@! TF.CreationDate,2022-08-23T22:23:51+02:00*
G04 #@! TF.ProjectId,magic_counter,6d616769-635f-4636-9f75-6e7465722e6b,rev?*
G04 #@! TF.SameCoordinates,Original*
G04 #@! TF.FileFunction,Soldermask,Bot*
G04 #@! TF.FilePolarity,Negative*
%FSLAX46Y46*%
G04 Gerber Fmt 4.6, Leading zero omitted, Abs format (unit mm)*
G04 Created by KiCad (PCBNEW (6.0.7)) date 2022-08-23 22:23:51*
%MOMM*%
%LPD*%
G01*
G04 APERTURE LIST*
G04 Aperture macros list*
%AMRoundRect*
0 Rectangle with rounded corners*
0 $1 Rounding radius*
0 $2 $3 $4 $5 $6 $7 $8 $9 X,Y pos of 4 corners*
0 Add a 4 corners polygon primitive as box body*
4,1,4,$2,$3,$4,$5,$6,$7,$8,$9,$2,$3,0*
0 Add four circle primitives for the rounded corners*
1,1,$1+$1,$2,$3*
1,1,$1+$1,$4,$5*
1,1,$1+$1,$6,$7*
1,1,$1+$1,$8,$9*
0 Add four rect primitives between the rounded corners*
20,1,$1+$1,$2,$3,$4,$5,0*
20,1,$1+$1,$4,$5,$6,$7,0*
20,1,$1+$1,$6,$7,$8,$9,0*
20,1,$1+$1,$8,$9,$2,$3,0*%
G04 Aperture macros list end*
%ADD10C,1.600000*%
%ADD11O,1.600000X1.600000*%
%ADD12C,2.000000*%
%ADD13O,1.800000X1.800000*%
%ADD14C,1.800000*%
%ADD15O,1.700000X1.700000*%
%ADD16C,5.600000*%
%ADD17C,1.500000*%
%ADD18O,1.500000X1.500000*%
%ADD19O,3.500000X3.500000*%
%ADD20O,1.905000X2.000000*%
%ADD21RoundRect,0.875000X-0.875000X-0.875000X0.875000X-0.875000X0.875000X0.875000X-0.875000X0.875000X0*%
%ADD22RoundRect,0.750000X-0.750000X-1.000000X0.750000X-1.000000X0.750000X1.000000X-0.750000X1.000000X0*%
%ADD23O,1.600000X2.400000*%
%ADD24O,2.400000X2.400000*%
%ADD25C,2.400000*%
%ADD26O,2.400000X1.600000*%
%ADD27RoundRect,0.250000X0.600000X-0.600000X0.600000X0.600000X-0.600000X0.600000X-0.600000X-0.600000X0*%
%ADD28C,1.700000*%
G04 APERTURE END LIST*
D10*
X81470000Y-50712500D03*
D11*
X89090000Y-50712500D03*
D10*
X70910000Y-137967500D03*
D11*
X78530000Y-137967500D03*
D10*
X73595000Y-74952500D03*
D11*
X81215000Y-74952500D03*
D10*
X40435000Y-147925500D03*
D11*
X40435000Y-155545500D03*
D10*
X92470000Y-123565000D03*
D11*
X100090000Y-123565000D03*
D12*
X77480000Y-204503500D03*
X70980000Y-204503500D03*
X77480000Y-200003500D03*
X70980000Y-200003500D03*
X111806666Y-172947500D03*
X118306666Y-172947500D03*
X111806666Y-177447500D03*
X118306666Y-177447500D03*
X145840000Y-172947500D03*
X139340000Y-172947500D03*
X145840000Y-177447500D03*
X139340000Y-177447500D03*
D10*
X135840000Y-70952500D03*
D11*
X135840000Y-63332500D03*
D13*
X45435000Y-136610000D03*
D14*
X47975000Y-136610000D03*
D15*
X123380000Y-193187500D03*
X123380000Y-190647500D03*
X123380000Y-188107500D03*
X123380000Y-185567500D03*
D12*
X156080000Y-204503500D03*
X149580000Y-204503500D03*
X156080000Y-200003500D03*
X149580000Y-200003500D03*
X132073332Y-158207500D03*
X125573332Y-158207500D03*
X132073332Y-162707500D03*
X125573332Y-162707500D03*
D10*
X60475000Y-36552500D03*
X57975000Y-36552500D03*
X121603332Y-123565000D03*
D11*
X129223332Y-123565000D03*
D16*
X37892700Y-29848300D03*
D10*
X57975000Y-188067500D03*
X57975000Y-185567500D03*
X63095000Y-131427500D03*
X65595000Y-131427500D03*
D17*
X141765000Y-103130000D03*
X141765000Y-108010000D03*
D16*
X35420000Y-129220000D03*
D12*
X103680000Y-204503500D03*
X97180000Y-204503500D03*
X103680000Y-200003500D03*
X97180000Y-200003500D03*
D10*
X81470000Y-55792500D03*
D11*
X89090000Y-55792500D03*
D12*
X132073332Y-63332500D03*
X125573332Y-63332500D03*
X125573332Y-67832500D03*
X132073332Y-67832500D03*
D10*
X73595000Y-85112500D03*
D11*
X81215000Y-85112500D03*
D10*
X70910000Y-143047500D03*
D11*
X78530000Y-143047500D03*
D12*
X111806666Y-63332500D03*
X118306666Y-63332500D03*
X111806666Y-67832500D03*
X118306666Y-67832500D03*
D10*
X73595000Y-90680000D03*
D11*
X73595000Y-98300000D03*
D10*
X107036666Y-123565000D03*
D11*
X114656666Y-123565000D03*
D15*
X92560000Y-130347500D03*
X92560000Y-132887500D03*
X92560000Y-135427500D03*
X92560000Y-137967500D03*
X92560000Y-140507500D03*
X92560000Y-143047500D03*
X92560000Y-145587500D03*
X92560000Y-148127500D03*
X92560000Y-150667500D03*
X92560000Y-153207500D03*
D18*
X117196666Y-127380000D03*
D17*
X114656666Y-127380000D03*
X112116666Y-127380000D03*
D10*
X40435000Y-80032500D03*
D11*
X40435000Y-87652500D03*
D19*
X49276000Y-38036000D03*
D20*
X46736000Y-54696000D03*
X49276000Y-54696000D03*
X51816000Y-54696000D03*
D12*
X104540000Y-158207500D03*
X98040000Y-158207500D03*
X98040000Y-162707500D03*
X104540000Y-162707500D03*
D15*
X92560000Y-35472500D03*
X92560000Y-38012500D03*
X92560000Y-40552500D03*
X92560000Y-43092500D03*
X92560000Y-45632500D03*
X92560000Y-48172500D03*
X92560000Y-50712500D03*
X92560000Y-53252500D03*
X92560000Y-55792500D03*
X92560000Y-58332500D03*
D10*
X57975000Y-160707500D03*
X57975000Y-158207500D03*
X85090000Y-123807500D03*
D11*
X85090000Y-131427500D03*
D10*
X57975000Y-175360000D03*
X57975000Y-172860000D03*
X108306666Y-177447500D03*
D11*
X108306666Y-169827500D03*
D10*
X106285000Y-118980000D03*
X108785000Y-118980000D03*
X67680000Y-200003500D03*
D11*
X67680000Y-207623500D03*
D10*
X40435000Y-159241000D03*
D11*
X40435000Y-166861000D03*
D10*
X40435000Y-125294500D03*
D11*
X40435000Y-132914500D03*
D16*
X152892700Y-219848300D03*
D10*
X57975000Y-190687500D03*
X57975000Y-193187500D03*
X122073332Y-82560000D03*
D11*
X122073332Y-74940000D03*
D10*
X106980000Y-200003500D03*
D11*
X106980000Y-207623500D03*
D10*
X73595000Y-80032500D03*
D11*
X81215000Y-80032500D03*
D10*
X40435000Y-181872000D03*
D11*
X40435000Y-189492000D03*
D10*
X40435000Y-113979000D03*
D11*
X40435000Y-121599000D03*
D10*
X136765000Y-108010000D03*
X136765000Y-110510000D03*
D21*
X45710000Y-64040500D03*
D22*
X39710000Y-64040500D03*
D21*
X42710000Y-68740500D03*
D10*
X108306666Y-70952500D03*
D11*
X108306666Y-63332500D03*
D12*
X118306666Y-158207500D03*
X111806666Y-158207500D03*
X118306666Y-162707500D03*
X111806666Y-162707500D03*
D10*
X70910000Y-48172500D03*
D11*
X78530000Y-48172500D03*
D13*
X75990000Y-125294500D03*
D14*
X78530000Y-125294500D03*
D12*
X136480000Y-204503500D03*
X142980000Y-204503500D03*
X142980000Y-200003500D03*
X136480000Y-200003500D03*
D10*
X57975000Y-163327500D03*
X57975000Y-165827500D03*
D13*
X45435000Y-147925500D03*
D14*
X47975000Y-147925500D03*
D10*
X40435000Y-170556500D03*
D11*
X40435000Y-178176500D03*
D10*
X40435000Y-91348000D03*
D11*
X40435000Y-98968000D03*
D13*
X45435000Y-181872000D03*
D14*
X47975000Y-181872000D03*
D10*
X122073332Y-70952500D03*
D11*
X122073332Y-63332500D03*
D12*
X145840000Y-63332500D03*
X139340000Y-63332500D03*
X145840000Y-67832500D03*
X139340000Y-67832500D03*
D23*
X83425000Y-115870000D03*
X85965000Y-115870000D03*
X88505000Y-115870000D03*
X91045000Y-115870000D03*
X93585000Y-115870000D03*
X96125000Y-115870000D03*
X98665000Y-115870000D03*
X101205000Y-115870000D03*
X103745000Y-115870000D03*
X106285000Y-115870000D03*
X108825000Y-115870000D03*
X111365000Y-115870000D03*
X113905000Y-115870000D03*
X116445000Y-115870000D03*
X118985000Y-115870000D03*
X121525000Y-115870000D03*
X124065000Y-115870000D03*
X126605000Y-115870000D03*
X129145000Y-115870000D03*
X131685000Y-115870000D03*
X131685000Y-100630000D03*
X129145000Y-100630000D03*
X126605000Y-100630000D03*
X124065000Y-100630000D03*
X121525000Y-100630000D03*
X118985000Y-100630000D03*
X116445000Y-100630000D03*
X113905000Y-100630000D03*
X111365000Y-100630000D03*
X108825000Y-100630000D03*
X106285000Y-100630000D03*
X103745000Y-100630000D03*
X101205000Y-100630000D03*
X98665000Y-100630000D03*
X96125000Y-100630000D03*
X93585000Y-100630000D03*
X91045000Y-100630000D03*
X88505000Y-100630000D03*
X85965000Y-100630000D03*
X83425000Y-100630000D03*
D12*
X64380000Y-204503500D03*
X57880000Y-204503500D03*
X64380000Y-200003500D03*
X57880000Y-200003500D03*
D18*
X115590000Y-148127500D03*
D17*
X118130000Y-148127500D03*
X120670000Y-148127500D03*
X123210000Y-148127500D03*
X125750000Y-148127500D03*
X128290000Y-148127500D03*
X128290000Y-132887500D03*
X125750000Y-132887500D03*
X123210000Y-132887500D03*
X120670000Y-132887500D03*
X118130000Y-132887500D03*
X115590000Y-132887500D03*
D23*
X61975000Y-180567500D03*
X64515000Y-180567500D03*
X67055000Y-180567500D03*
X69595000Y-180567500D03*
X72135000Y-180567500D03*
X74675000Y-180567500D03*
X77215000Y-180567500D03*
X79755000Y-180567500D03*
X79755000Y-172947500D03*
X77215000Y-172947500D03*
X74675000Y-172947500D03*
X72135000Y-172947500D03*
X69595000Y-172947500D03*
X67055000Y-172947500D03*
X64515000Y-172947500D03*
X61975000Y-172947500D03*
D24*
X36700000Y-50266000D03*
D25*
X36700000Y-53766000D03*
D10*
X108306666Y-82560000D03*
D11*
X108306666Y-74940000D03*
D10*
X57975000Y-178370000D03*
X57975000Y-180870000D03*
X70910000Y-53252500D03*
D11*
X78530000Y-53252500D03*
D10*
X103745000Y-118980000D03*
X101245000Y-118980000D03*
D13*
X45435000Y-91348000D03*
D14*
X47975000Y-91348000D03*
D10*
X89090000Y-131427500D03*
D11*
X89090000Y-123807500D03*
D10*
X80780000Y-200003500D03*
D11*
X80780000Y-207623500D03*
D12*
X132073332Y-78060000D03*
X125573332Y-78060000D03*
X125573332Y-82560000D03*
X132073332Y-82560000D03*
D10*
X40435000Y-193187500D03*
D11*
X40435000Y-200807500D03*
D10*
X81470000Y-135427500D03*
D11*
X89090000Y-135427500D03*
D15*
X57975000Y-125294500D03*
X60515000Y-125294500D03*
X63055000Y-125294500D03*
D10*
X94540000Y-90060000D03*
X94540000Y-87560000D03*
D15*
X71135000Y-58166000D03*
X73675000Y-58166000D03*
X76215000Y-58166000D03*
D10*
X40435000Y-204503500D03*
D11*
X40435000Y-212123500D03*
D23*
X61975000Y-193187500D03*
X64515000Y-193187500D03*
X67055000Y-193187500D03*
X69595000Y-193187500D03*
X72135000Y-193187500D03*
X74675000Y-193187500D03*
X77215000Y-193187500D03*
X79755000Y-193187500D03*
X79755000Y-185567500D03*
X77215000Y-185567500D03*
X74675000Y-185567500D03*
X72135000Y-185567500D03*
X69595000Y-185567500D03*
X67055000Y-185567500D03*
X64515000Y-185567500D03*
X61975000Y-185567500D03*
X98540000Y-95180000D03*
X101080000Y-95180000D03*
X103620000Y-95180000D03*
X106160000Y-95180000D03*
X108700000Y-95180000D03*
X111240000Y-95180000D03*
X113780000Y-95180000D03*
X116320000Y-95180000D03*
X116320000Y-87560000D03*
X113780000Y-87560000D03*
X111240000Y-87560000D03*
X108700000Y-87560000D03*
X106160000Y-87560000D03*
X103620000Y-87560000D03*
X101080000Y-87560000D03*
X98540000Y-87560000D03*
D10*
X70910000Y-132887500D03*
D11*
X78530000Y-132887500D03*
D12*
X98040000Y-63332500D03*
X104540000Y-63332500D03*
X104540000Y-67832500D03*
X98040000Y-67832500D03*
D23*
X98040000Y-193187500D03*
X100580000Y-193187500D03*
X103120000Y-193187500D03*
X105660000Y-193187500D03*
X108200000Y-193187500D03*
X110740000Y-193187500D03*
X113280000Y-193187500D03*
X115820000Y-193187500D03*
X115820000Y-185567500D03*
X113280000Y-185567500D03*
X110740000Y-185567500D03*
X108200000Y-185567500D03*
X105660000Y-185567500D03*
X103120000Y-185567500D03*
X100580000Y-185567500D03*
X98040000Y-185567500D03*
D26*
X57975000Y-135427500D03*
X57975000Y-137967500D03*
X57975000Y-140507500D03*
X57975000Y-143047500D03*
X57975000Y-145587500D03*
X57975000Y-148127500D03*
X57975000Y-150667500D03*
X57975000Y-153207500D03*
X65595000Y-153207500D03*
X65595000Y-150667500D03*
X65595000Y-148127500D03*
X65595000Y-145587500D03*
X65595000Y-143047500D03*
X65595000Y-140507500D03*
X65595000Y-137967500D03*
X65595000Y-135427500D03*
D16*
X152892900Y-29848200D03*
D10*
X94540000Y-70952500D03*
D11*
X94540000Y-63332500D03*
D13*
X45435000Y-102663500D03*
D14*
X47975000Y-102663500D03*
D26*
X57975000Y-40552500D03*
X57975000Y-43092500D03*
X57975000Y-45632500D03*
X57975000Y-48172500D03*
X57975000Y-50712500D03*
X57975000Y-53252500D03*
X57975000Y-55792500D03*
X57975000Y-58332500D03*
X65595000Y-58332500D03*
X65595000Y-55792500D03*
X65595000Y-53252500D03*
X65595000Y-50712500D03*
X65595000Y-48172500D03*
X65595000Y-45632500D03*
X65595000Y-43092500D03*
X65595000Y-40552500D03*
D10*
X73595000Y-69872500D03*
D11*
X81215000Y-69872500D03*
D10*
X81470000Y-45632500D03*
D11*
X89090000Y-45632500D03*
D15*
X60515000Y-105870000D03*
X60515000Y-108410000D03*
X60515000Y-110950000D03*
X60515000Y-113490000D03*
D12*
X129880000Y-204503500D03*
X123380000Y-204503500D03*
X129880000Y-200003500D03*
X123380000Y-200003500D03*
D10*
X94540000Y-165827500D03*
D11*
X94540000Y-158207500D03*
D18*
X126683332Y-128100000D03*
D17*
X129223332Y-128100000D03*
X131763332Y-128100000D03*
D10*
X60475000Y-63332500D03*
X57975000Y-63332500D03*
X40435000Y-102663500D03*
D11*
X40435000Y-110283500D03*
D18*
X78675000Y-63872500D03*
D17*
X76135000Y-63872500D03*
X73595000Y-63872500D03*
D12*
X98040000Y-78060000D03*
X104540000Y-78060000D03*
X104540000Y-82560000D03*
X98040000Y-82560000D03*
D13*
X68370000Y-125294500D03*
D14*
X70910000Y-125294500D03*
D15*
X73595000Y-115870000D03*
X71055000Y-115870000D03*
X68515000Y-115870000D03*
X65975000Y-115870000D03*
D10*
X63095000Y-63332500D03*
X65595000Y-63332500D03*
D12*
X98040000Y-172947500D03*
X104540000Y-172947500D03*
X98040000Y-177447500D03*
X104540000Y-177447500D03*
D16*
X151765000Y-108010000D03*
D13*
X45435000Y-113979000D03*
D14*
X47975000Y-113979000D03*
D12*
X111806666Y-78060000D03*
X118306666Y-78060000D03*
X111806666Y-82560000D03*
X118306666Y-82560000D03*
D10*
X73595000Y-105870000D03*
D11*
X65975000Y-105870000D03*
D10*
X63095000Y-36552500D03*
X65595000Y-36552500D03*
X136170000Y-123565000D03*
D11*
X143790000Y-123565000D03*
D10*
X122073332Y-165827500D03*
D11*
X122073332Y-158207500D03*
D10*
X120080000Y-200003500D03*
D11*
X120080000Y-207623500D03*
D18*
X88755000Y-63872500D03*
D17*
X86215000Y-63872500D03*
X83675000Y-63872500D03*
D10*
X94040000Y-190687500D03*
X94040000Y-193187500D03*
X81470000Y-140507500D03*
D11*
X89090000Y-140507500D03*
D10*
X135840000Y-82560000D03*
D11*
X135840000Y-74940000D03*
D15*
X121525000Y-95180000D03*
X124065000Y-95180000D03*
X126605000Y-95180000D03*
X129145000Y-95180000D03*
X131685000Y-95180000D03*
X134225000Y-95180000D03*
X136765000Y-95180000D03*
D13*
X45435000Y-193187500D03*
D14*
X47975000Y-193187500D03*
D10*
X135840000Y-177447500D03*
D11*
X135840000Y-169827500D03*
D26*
X57975000Y-67332500D03*
X57975000Y-69872500D03*
X57975000Y-72412500D03*
X57975000Y-74952500D03*
X57975000Y-77492500D03*
X57975000Y-80032500D03*
X57975000Y-82572500D03*
X57975000Y-85112500D03*
X65595000Y-85112500D03*
X65595000Y-82572500D03*
X65595000Y-80032500D03*
X65595000Y-77492500D03*
X65595000Y-74952500D03*
X65595000Y-72412500D03*
X65595000Y-69872500D03*
X65595000Y-67332500D03*
D10*
X40435000Y-136610000D03*
D11*
X40435000Y-144230000D03*
D10*
X81470000Y-40552500D03*
D11*
X89090000Y-40552500D03*
D10*
X122073332Y-177447500D03*
D11*
X122073332Y-169827500D03*
D18*
X87035000Y-80032500D03*
D17*
X87035000Y-82572500D03*
X87035000Y-85112500D03*
D15*
X65595000Y-89112500D03*
X63055000Y-89112500D03*
X60515000Y-89112500D03*
X57975000Y-89112500D03*
D10*
X94540000Y-82560000D03*
D11*
X94540000Y-74940000D03*
D10*
X70910000Y-43092500D03*
D11*
X78530000Y-43092500D03*
D10*
X94540000Y-92680000D03*
X94540000Y-95180000D03*
X133180000Y-200003500D03*
D11*
X133180000Y-207623500D03*
D13*
X45435000Y-204503500D03*
D14*
X47975000Y-204503500D03*
D10*
X93880000Y-200003500D03*
D11*
X93880000Y-207623500D03*
D16*
X37892900Y-219848200D03*
D10*
X70910000Y-38012500D03*
D11*
X78530000Y-38012500D03*
D10*
X73595000Y-110950000D03*
D11*
X65975000Y-110950000D03*
D12*
X145840000Y-78060000D03*
X139340000Y-78060000D03*
X139340000Y-82560000D03*
X145840000Y-82560000D03*
X110280000Y-204503500D03*
X116780000Y-204503500D03*
X110280000Y-200003500D03*
X116780000Y-200003500D03*
D23*
X61975000Y-165827500D03*
X64515000Y-165827500D03*
X67055000Y-165827500D03*
X69595000Y-165827500D03*
X72135000Y-165827500D03*
X74675000Y-165827500D03*
X77215000Y-165827500D03*
X79755000Y-165827500D03*
X79755000Y-158207500D03*
X77215000Y-158207500D03*
X74675000Y-158207500D03*
X72135000Y-158207500D03*
X69595000Y-158207500D03*
X67055000Y-158207500D03*
X64515000Y-158207500D03*
X61975000Y-158207500D03*
D15*
X86860000Y-180567500D03*
X86860000Y-183107500D03*
X86860000Y-185647500D03*
X86860000Y-188187500D03*
X86860000Y-190727500D03*
X86860000Y-193267500D03*
D13*
X45435000Y-159241000D03*
D14*
X47975000Y-159241000D03*
D10*
X94040000Y-188067500D03*
X94040000Y-185567500D03*
D12*
X139340000Y-158207500D03*
X145840000Y-158207500D03*
X139340000Y-162707500D03*
X145840000Y-162707500D03*
D10*
X70910000Y-148127500D03*
D11*
X78530000Y-148127500D03*
D18*
X102630000Y-127380000D03*
D17*
X100090000Y-127380000D03*
X97550000Y-127380000D03*
D10*
X81470000Y-150667500D03*
D11*
X89090000Y-150667500D03*
D12*
X132073332Y-172947500D03*
X125573332Y-172947500D03*
X125573332Y-177447500D03*
X132073332Y-177447500D03*
D27*
X60515000Y-98300000D03*
D28*
X60515000Y-95760000D03*
X63055000Y-98300000D03*
X63055000Y-95760000D03*
X65595000Y-98300000D03*
X65595000Y-95760000D03*
D18*
X115590000Y-53612500D03*
D17*
X118130000Y-53612500D03*
X120670000Y-53612500D03*
X123210000Y-53612500D03*
X125750000Y-53612500D03*
X128290000Y-53612500D03*
X128290000Y-38372500D03*
X125750000Y-38372500D03*
X123210000Y-38372500D03*
X120670000Y-38372500D03*
X118130000Y-38372500D03*
X115590000Y-38372500D03*
D18*
X141250000Y-128100000D03*
D17*
X143790000Y-128100000D03*
X146330000Y-128100000D03*
D10*
X81470000Y-145587500D03*
D11*
X89090000Y-145587500D03*
D15*
X69595000Y-69872500D03*
X69595000Y-72412500D03*
X69595000Y-74952500D03*
X69595000Y-77492500D03*
D12*
X80535000Y-95180000D03*
X87035000Y-95180000D03*
X80535000Y-90680000D03*
X87035000Y-90680000D03*
D13*
X45435000Y-125294500D03*
D14*
X47975000Y-125294500D03*
D10*
X135840000Y-165827500D03*
D11*
X135840000Y-158207500D03*
D10*
X60475000Y-131427500D03*
X57975000Y-131427500D03*
D18*
X87035000Y-69872500D03*
D17*
X87035000Y-72412500D03*
X87035000Y-74952500D03*
D10*
X94540000Y-177447500D03*
D11*
X94540000Y-169827500D03*
D12*
X84080000Y-204503500D03*
X90580000Y-204503500D03*
X84080000Y-200003500D03*
X90580000Y-200003500D03*
D13*
X45435000Y-80032500D03*
D14*
X47975000Y-80032500D03*
D10*
X108306666Y-165827500D03*
D11*
X108306666Y-158207500D03*
D10*
X54580000Y-200003500D03*
D11*
X54580000Y-207623500D03*
D13*
X45435000Y-170556500D03*
D14*
X47975000Y-170556500D03*
D10*
X136765000Y-103130000D03*
X136765000Y-100630000D03*
X146280000Y-200003500D03*
D11*
X146280000Y-207623500D03*
M02*
