  0
SECTION
  2
HEADER
  9
$ANGBASE
  50
0.0
  9
$ANGDIR
  70
1
  9
$MEASUREMENT
  70
1
  0
ENDSEC
  0
SECTION
  2
TABLES
  0
TABLE
  2
LTYPE
  70
4
  0
LTYPE
  5
40F
  2
CONTINUOUS
  70
0
  3
Solid line
  72
65
  73
0
  40
0.0
  0
LTYPE
  5
410
  2
DASHDOT
 70
0
  3
Dash Dot ____ _ ____ _
 72
65
 73
4
 40
2.0
 49
1.25
 49
-0.25
 49
0.25
 49
-0.25
  0
LTYPE
  5
411
  2
DASHED
 70
0
  3
Dashed __ __ __ __ __
 72
65
 73
2
 40
0.75
 49
0.5
 49
-0.25
  0
LTYPE
  5
43B
  2
DOTTED
 70
0
  3
Dotted .  .  .  .
 72
65
 73
2
 40
0.2
 49
0.0
 49
-0.2
  0
ENDTAB
  0
TABLE
  2
STYLE
  70
4
  0
STYLE
  2
KICAD
  70
0
  40
0
  41
1
  42
1
  50
0
  71
0
  3
isocp.shx
  0
STYLE
  2
KICADB
  70
0
  40
0
  41
1
  42
1
  50
0
  71
0
  3
isocp.shx
  0
STYLE
  2
KICADI
  70
0
  40
0
  41
1
  42
1
  50
15
  71
0
  3
isocp.shx
  0
STYLE
  2
KICADBI
  70
0
  40
0
  41
1
  42
1
  50
15
  71
0
  3
isocp.shx
  0
ENDTAB
  0
TABLE
  2
LAYER
  70
1
  0
LAYER
  2
BLACK
  70
0
  62
7
  6
CONTINUOUS
  0
ENDTAB
  0
ENDSEC
  0
SECTION
  2
ENTITIES
0
ARC
8
BLACK
10
187.893
20
-24.8483
40
1.1961
50
-3.20227
51
86.8
0
LINE
8
BLACK
6
CONTINUOUS
10
32.826
20
-226.043
11
187.826
21
-226.043
0
ARC
8
BLACK
10
32.8927
20
-24.8483
40
1.19605
50
86.7952
51
176.799
0
LINE
8
BLACK
6
CONTINUOUS
10
187.96
20
-23.6541
11
32.9596
21
-23.6541
0
ARC
8
BLACK
10
187.893
20
-224.848
40
1.19609
50
-93.2028
51
-3.20227
0
LINE
8
BLACK
6
CONTINUOUS
10
189.087
20
-24.9151
11
189.087
21
-224.915
0
ARC
8
BLACK
10
32.8929
20
-224.848
40
1.19625
50
-183.195
51
-93.2073
0
LINE
8
BLACK
6
CONTINUOUS
10
31.6985
20
-24.7815
11
31.6985
21
-224.782
0
LINE
8
BLACK
6
CONTINUOUS
10
34.2228
20
-229.199
11
34.2228
21
-227.199
0
LINE
8
BLACK
6
CONTINUOUS
10
34.2228
20
-227.199
11
34.699
21
-227.199
0
LINE
8
BLACK
6
CONTINUOUS
10
34.699
20
-227.199
11
34.9847
21
-227.294
0
LINE
8
BLACK
6
CONTINUOUS
10
34.9847
20
-227.294
11
35.1752
21
-227.485
0
LINE
8
BLACK
6
CONTINUOUS
10
35.1752
20
-227.485
11
35.2705
21
-227.675
0
LINE
8
BLACK
6
CONTINUOUS
10
35.2705
20
-227.675
11
35.3657
21
-228.056
0
LINE
8
BLACK
6
CONTINUOUS
10
35.3657
20
-228.056
11
35.3657
21
-228.342
0
LINE
8
BLACK
6
CONTINUOUS
10
35.3657
20
-228.342
11
35.2705
21
-228.723
0
LINE
8
BLACK
6
CONTINUOUS
10
35.2705
20
-228.723
11
35.1752
21
-228.913
0
LINE
8
BLACK
6
CONTINUOUS
10
35.1752
20
-228.913
11
34.9847
21
-229.104
0
LINE
8
BLACK
6
CONTINUOUS
10
34.9847
20
-229.104
11
34.699
21
-229.199
0
LINE
8
BLACK
6
CONTINUOUS
10
34.699
20
-229.199
11
34.2228
21
-229.199
0
LINE
8
BLACK
6
CONTINUOUS
10
36.2228
20
-229.199
11
36.2228
21
-227.866
0
LINE
8
BLACK
6
CONTINUOUS
10
36.2228
20
-228.247
11
36.3181
21
-228.056
0
LINE
8
BLACK
6
CONTINUOUS
10
36.3181
20
-228.056
11
36.4133
21
-227.961
0
LINE
8
BLACK
6
CONTINUOUS
10
36.4133
20
-227.961
11
36.6038
21
-227.866
0
LINE
8
BLACK
6
CONTINUOUS
10
36.6038
20
-227.866
11
36.7943
21
-227.866
0
LINE
8
BLACK
6
CONTINUOUS
10
37.4609
20
-229.199
11
37.4609
21
-227.866
0
LINE
8
BLACK
6
CONTINUOUS
10
37.4609
20
-227.199
11
37.3657
21
-227.294
0
LINE
8
BLACK
6
CONTINUOUS
10
37.3657
20
-227.294
11
37.4609
21
-227.39
0
LINE
8
BLACK
6
CONTINUOUS
10
37.4609
20
-227.39
11
37.5562
21
-227.294
0
LINE
8
BLACK
6
CONTINUOUS
10
37.5562
20
-227.294
11
37.4609
21
-227.199
0
LINE
8
BLACK
6
CONTINUOUS
10
37.4609
20
-227.199
11
37.4609
21
-227.39
0
LINE
8
BLACK
6
CONTINUOUS
10
38.699
20
-229.199
11
38.5086
21
-229.104
0
LINE
8
BLACK
6
CONTINUOUS
10
38.5086
20
-229.104
11
38.4133
21
-228.913
0
LINE
8
BLACK
6
CONTINUOUS
10
38.4133
20
-228.913
11
38.4133
21
-227.199
0
LINE
8
BLACK
6
CONTINUOUS
10
39.7467
20
-229.199
11
39.5562
21
-229.104
0
LINE
8
BLACK
6
CONTINUOUS
10
39.5562
20
-229.104
11
39.4609
21
-228.913
0
LINE
8
BLACK
6
CONTINUOUS
10
39.4609
20
-228.913
11
39.4609
21
-227.199
0
LINE
8
BLACK
6
CONTINUOUS
10
42.0324
20
-229.199
11
42.0324
21
-227.199
0
LINE
8
BLACK
6
CONTINUOUS
10
42.0324
20
-227.199
11
42.699
21
-228.628
0
LINE
8
BLACK
6
CONTINUOUS
10
42.699
20
-228.628
11
43.3657
21
-227.199
0
LINE
8
BLACK
6
CONTINUOUS
10
43.3657
20
-227.199
11
43.3657
21
-229.199
0
LINE
8
BLACK
6
CONTINUOUS
10
45.1752
20
-229.199
11
45.1752
21
-228.152
0
LINE
8
BLACK
6
CONTINUOUS
10
45.1752
20
-228.152
11
45.08
21
-227.961
0
LINE
8
BLACK
6
CONTINUOUS
10
45.08
20
-227.961
11
44.8895
21
-227.866
0
LINE
8
BLACK
6
CONTINUOUS
10
44.8895
20
-227.866
11
44.5086
21
-227.866
0
LINE
8
BLACK
6
CONTINUOUS
10
44.5086
20
-227.866
11
44.3181
21
-227.961
0
LINE
8
BLACK
6
CONTINUOUS
10
45.1752
20
-229.104
11
44.9847
21
-229.199
0
LINE
8
BLACK
6
CONTINUOUS
10
44.9847
20
-229.199
11
44.5086
21
-229.199
0
LINE
8
BLACK
6
CONTINUOUS
10
44.5086
20
-229.199
11
44.3181
21
-229.104
0
LINE
8
BLACK
6
CONTINUOUS
10
44.3181
20
-229.104
11
44.2228
21
-228.913
0
LINE
8
BLACK
6
CONTINUOUS
10
44.2228
20
-228.913
11
44.2228
21
-228.723
0
LINE
8
BLACK
6
CONTINUOUS
10
44.2228
20
-228.723
11
44.3181
21
-228.532
0
LINE
8
BLACK
6
CONTINUOUS
10
44.3181
20
-228.532
11
44.5086
21
-228.437
0
LINE
8
BLACK
6
CONTINUOUS
10
44.5086
20
-228.437
11
44.9847
21
-228.437
0
LINE
8
BLACK
6
CONTINUOUS
10
44.9847
20
-228.437
11
45.1752
21
-228.342
0
LINE
8
BLACK
6
CONTINUOUS
10
46.1276
20
-227.866
11
46.1276
21
-229.866
0
LINE
8
BLACK
6
CONTINUOUS
10
46.1276
20
-227.961
11
46.3181
21
-227.866
0
LINE
8
BLACK
6
CONTINUOUS
10
46.3181
20
-227.866
11
46.699
21
-227.866
0
LINE
8
BLACK
6
CONTINUOUS
10
46.699
20
-227.866
11
46.8895
21
-227.961
0
LINE
8
BLACK
6
CONTINUOUS
10
46.8895
20
-227.961
11
46.9847
21
-228.056
0
LINE
8
BLACK
6
CONTINUOUS
10
46.9847
20
-228.056
11
47.08
21
-228.247
0
LINE
8
BLACK
6
CONTINUOUS
10
47.08
20
-228.247
11
47.08
21
-228.818
0
LINE
8
BLACK
6
CONTINUOUS
10
47.08
20
-228.818
11
46.9847
21
-229.009
0
LINE
8
BLACK
6
CONTINUOUS
10
46.9847
20
-229.009
11
46.8895
21
-229.104
0
LINE
8
BLACK
6
CONTINUOUS
10
46.8895
20
-229.104
11
46.699
21
-229.199
0
LINE
8
BLACK
6
CONTINUOUS
10
46.699
20
-229.199
11
46.3181
21
-229.199
0
LINE
8
BLACK
6
CONTINUOUS
10
46.3181
20
-229.199
11
46.1276
21
-229.104
0
LINE
8
BLACK
6
CONTINUOUS
10
47.9371
20
-229.009
11
48.0324
21
-229.104
0
LINE
8
BLACK
6
CONTINUOUS
10
48.0324
20
-229.104
11
47.9371
21
-229.199
0
LINE
8
BLACK
6
CONTINUOUS
10
47.9371
20
-229.199
11
47.8419
21
-229.104
0
LINE
8
BLACK
6
CONTINUOUS
10
47.8419
20
-229.104
11
47.9371
21
-229.009
0
LINE
8
BLACK
6
CONTINUOUS
10
47.9371
20
-229.009
11
47.9371
21
-229.199
0
LINE
8
BLACK
6
CONTINUOUS
10
47.9371
20
-227.961
11
48.0324
21
-228.056
0
LINE
8
BLACK
6
CONTINUOUS
10
48.0324
20
-228.056
11
47.9371
21
-228.152
0
LINE
8
BLACK
6
CONTINUOUS
10
47.9371
20
-228.152
11
47.8419
21
-228.056
0
LINE
8
BLACK
6
CONTINUOUS
10
47.8419
20
-228.056
11
47.9371
21
-227.961
0
LINE
8
BLACK
6
CONTINUOUS
10
47.9371
20
-227.961
11
47.9371
21
-228.152
  0
ENDSEC
  0
EOF
