G04 #@! TF.GenerationSoftware,KiCad,Pcbnew,(6.0.8)*
G04 #@! TF.CreationDate,2022-10-29T17:31:59+02:00*
G04 #@! TF.ProjectId,magic_counter,6d616769-635f-4636-9f75-6e7465722e6b,rev?*
G04 #@! TF.SameCoordinates,Original*
G04 #@! TF.FileFunction,Copper,L1,Top*
G04 #@! TF.FilePolarity,Positive*
%FSLAX46Y46*%
G04 Gerber Fmt 4.6, Leading zero omitted, Abs format (unit mm)*
G04 Created by KiCad (PCBNEW (6.0.8)) date 2022-10-29 17:31:59*
%MOMM*%
%LPD*%
G01*
G04 APERTURE LIST*
G04 Aperture macros list*
%AMRoundRect*
0 Rectangle with rounded corners*
0 $1 Rounding radius*
0 $2 $3 $4 $5 $6 $7 $8 $9 X,Y pos of 4 corners*
0 Add a 4 corners polygon primitive as box body*
4,1,4,$2,$3,$4,$5,$6,$7,$8,$9,$2,$3,0*
0 Add four circle primitives for the rounded corners*
1,1,$1+$1,$2,$3*
1,1,$1+$1,$4,$5*
1,1,$1+$1,$6,$7*
1,1,$1+$1,$8,$9*
0 Add four rect primitives between the rounded corners*
20,1,$1+$1,$2,$3,$4,$5,0*
20,1,$1+$1,$4,$5,$6,$7,0*
20,1,$1+$1,$6,$7,$8,$9,0*
20,1,$1+$1,$8,$9,$2,$3,0*%
G04 Aperture macros list end*
G04 #@! TA.AperFunction,ComponentPad*
%ADD10C,1.600000*%
G04 #@! TD*
G04 #@! TA.AperFunction,ComponentPad*
%ADD11O,1.600000X1.600000*%
G04 #@! TD*
G04 #@! TA.AperFunction,ComponentPad*
%ADD12C,2.000000*%
G04 #@! TD*
G04 #@! TA.AperFunction,ComponentPad*
%ADD13O,1.800000X1.800000*%
G04 #@! TD*
G04 #@! TA.AperFunction,ComponentPad*
%ADD14C,1.800000*%
G04 #@! TD*
G04 #@! TA.AperFunction,ComponentPad*
%ADD15O,1.700000X1.700000*%
G04 #@! TD*
G04 #@! TA.AperFunction,ComponentPad*
%ADD16C,5.600000*%
G04 #@! TD*
G04 #@! TA.AperFunction,ComponentPad*
%ADD17C,1.500000*%
G04 #@! TD*
G04 #@! TA.AperFunction,SMDPad,CuDef*
%ADD18RoundRect,0.250000X-0.337500X-0.475000X0.337500X-0.475000X0.337500X0.475000X-0.337500X0.475000X0*%
G04 #@! TD*
G04 #@! TA.AperFunction,ComponentPad*
%ADD19O,1.500000X1.500000*%
G04 #@! TD*
G04 #@! TA.AperFunction,SMDPad,CuDef*
%ADD20R,1.200000X0.900000*%
G04 #@! TD*
G04 #@! TA.AperFunction,SMDPad,CuDef*
%ADD21RoundRect,0.250000X0.475000X-0.337500X0.475000X0.337500X-0.475000X0.337500X-0.475000X-0.337500X0*%
G04 #@! TD*
G04 #@! TA.AperFunction,ComponentPad*
%ADD22RoundRect,0.875000X-0.875000X-0.875000X0.875000X-0.875000X0.875000X0.875000X-0.875000X0.875000X0*%
G04 #@! TD*
G04 #@! TA.AperFunction,ComponentPad*
%ADD23RoundRect,0.750000X-0.750000X-1.000000X0.750000X-1.000000X0.750000X1.000000X-0.750000X1.000000X0*%
G04 #@! TD*
G04 #@! TA.AperFunction,ComponentPad*
%ADD24C,1.700000*%
G04 #@! TD*
G04 #@! TA.AperFunction,ComponentPad*
%ADD25C,3.500000*%
G04 #@! TD*
G04 #@! TA.AperFunction,SMDPad,CuDef*
%ADD26R,1.500000X2.000000*%
G04 #@! TD*
G04 #@! TA.AperFunction,SMDPad,CuDef*
%ADD27R,3.800000X2.000000*%
G04 #@! TD*
G04 #@! TA.AperFunction,ComponentPad*
%ADD28O,1.600000X2.400000*%
G04 #@! TD*
G04 #@! TA.AperFunction,ComponentPad*
%ADD29O,2.400000X1.600000*%
G04 #@! TD*
G04 #@! TA.AperFunction,ComponentPad*
%ADD30O,2.400000X2.400000*%
G04 #@! TD*
G04 #@! TA.AperFunction,ComponentPad*
%ADD31C,2.400000*%
G04 #@! TD*
G04 #@! TA.AperFunction,SMDPad,CuDef*
%ADD32RoundRect,0.250000X0.350000X0.450000X-0.350000X0.450000X-0.350000X-0.450000X0.350000X-0.450000X0*%
G04 #@! TD*
G04 #@! TA.AperFunction,SMDPad,CuDef*
%ADD33RoundRect,0.250000X0.450000X-0.350000X0.450000X0.350000X-0.450000X0.350000X-0.450000X-0.350000X0*%
G04 #@! TD*
G04 #@! TA.AperFunction,SMDPad,CuDef*
%ADD34R,1.750000X0.450000*%
G04 #@! TD*
G04 #@! TA.AperFunction,SMDPad,CuDef*
%ADD35RoundRect,0.250000X-0.450000X0.325000X-0.450000X-0.325000X0.450000X-0.325000X0.450000X0.325000X0*%
G04 #@! TD*
G04 #@! TA.AperFunction,SMDPad,CuDef*
%ADD36RoundRect,0.250000X0.337500X0.475000X-0.337500X0.475000X-0.337500X-0.475000X0.337500X-0.475000X0*%
G04 #@! TD*
G04 #@! TA.AperFunction,SMDPad,CuDef*
%ADD37RoundRect,0.250000X-0.325000X-0.450000X0.325000X-0.450000X0.325000X0.450000X-0.325000X0.450000X0*%
G04 #@! TD*
G04 #@! TA.AperFunction,ViaPad*
%ADD38C,0.800000*%
G04 #@! TD*
G04 #@! TA.AperFunction,Conductor*
%ADD39C,0.250000*%
G04 #@! TD*
G04 #@! TA.AperFunction,Conductor*
%ADD40C,0.500000*%
G04 #@! TD*
G04 #@! TA.AperFunction,Conductor*
%ADD41C,1.000000*%
G04 #@! TD*
G04 APERTURE END LIST*
D10*
X103660000Y-43740000D03*
D11*
X113820000Y-43740000D03*
D10*
X88660000Y-138954000D03*
D11*
X98820000Y-138954000D03*
D10*
X93740000Y-69980000D03*
D11*
X103900000Y-69980000D03*
D10*
X51250000Y-147850000D03*
D11*
X61410000Y-147850000D03*
D10*
X119210000Y-124551500D03*
D11*
X129370000Y-124551500D03*
D12*
X99124664Y-202350000D03*
X92624664Y-202350000D03*
X99124664Y-197850000D03*
X92624664Y-197850000D03*
X151803334Y-177434000D03*
X158303334Y-177434000D03*
X151803334Y-181934000D03*
X158303334Y-181934000D03*
X184623334Y-177434000D03*
X178123334Y-177434000D03*
X184623334Y-181934000D03*
X178123334Y-181934000D03*
D10*
X174463334Y-58360000D03*
D11*
X184623334Y-58360000D03*
D13*
X51250000Y-142850000D03*
D14*
X53790000Y-142850000D03*
D15*
X86235000Y-154574000D03*
X86235000Y-157114000D03*
X86235000Y-159654000D03*
X86235000Y-162194000D03*
D12*
X184623334Y-202350000D03*
X178123334Y-202350000D03*
X184623334Y-197850000D03*
X178123334Y-197850000D03*
X171463334Y-162194000D03*
X164963334Y-162194000D03*
X171463334Y-166694000D03*
X164963334Y-166694000D03*
D10*
X79540000Y-29580000D03*
X77040000Y-29580000D03*
X148343332Y-124551500D03*
D11*
X158503332Y-124551500D03*
D16*
X37892700Y-29848300D03*
D10*
X79620000Y-158194000D03*
X82120000Y-158194000D03*
X110440000Y-127374000D03*
X110440000Y-129874000D03*
D17*
X168505000Y-104116500D03*
X168505000Y-108996500D03*
D16*
X37892900Y-124848250D03*
D12*
X127624216Y-202350000D03*
X121124216Y-202350000D03*
X127624216Y-197850000D03*
X121124216Y-197850000D03*
D10*
X103660000Y-48820000D03*
D11*
X113820000Y-48820000D03*
D12*
X171463334Y-62360000D03*
X164963334Y-62360000D03*
X164963334Y-66860000D03*
X171463334Y-66860000D03*
D10*
X93740000Y-80140000D03*
D11*
X103900000Y-80140000D03*
D18*
X70360000Y-76170000D03*
X72435000Y-76170000D03*
D10*
X88660000Y-144034000D03*
D11*
X98820000Y-144034000D03*
D12*
X151803334Y-62360000D03*
X158303334Y-62360000D03*
X151803334Y-66860000D03*
X158303334Y-66860000D03*
D10*
X120415000Y-93740000D03*
D11*
X120415000Y-83580000D03*
D10*
X133776666Y-124551500D03*
D11*
X143936666Y-124551500D03*
D15*
X119300000Y-131334000D03*
X119300000Y-133874000D03*
X119300000Y-136414000D03*
X119300000Y-138954000D03*
X119300000Y-141494000D03*
X119300000Y-144034000D03*
X119300000Y-146574000D03*
X119300000Y-149114000D03*
X119300000Y-151654000D03*
X119300000Y-154194000D03*
D19*
X143936666Y-128366500D03*
D17*
X141396666Y-128366500D03*
X138856666Y-128366500D03*
D10*
X51250000Y-87850000D03*
D11*
X61410000Y-87850000D03*
D12*
X145143334Y-162194000D03*
X138643334Y-162194000D03*
X138643334Y-166694000D03*
X145143334Y-166694000D03*
D15*
X119250000Y-28500000D03*
X119250000Y-31040000D03*
X119250000Y-33580000D03*
X119250000Y-36120000D03*
X119250000Y-38660000D03*
X119250000Y-41200000D03*
X119250000Y-43740000D03*
X119250000Y-46280000D03*
X119250000Y-48820000D03*
X119250000Y-51360000D03*
D10*
X111320000Y-158194000D03*
X113820000Y-158194000D03*
X84660000Y-101616500D03*
D11*
X74500000Y-101616500D03*
D10*
X79620000Y-122254000D03*
X82120000Y-122254000D03*
X148143334Y-185934000D03*
D11*
X158303334Y-185934000D03*
D10*
X133025000Y-119966500D03*
X135525000Y-119966500D03*
X88749776Y-197850000D03*
D11*
X88749776Y-208010000D03*
D10*
X51250000Y-157850000D03*
D11*
X61410000Y-157850000D03*
D10*
X51250000Y-127850000D03*
D11*
X61410000Y-127850000D03*
D16*
X182892700Y-219848300D03*
D10*
X77000000Y-158194000D03*
X74500000Y-158194000D03*
X161303334Y-86100000D03*
D11*
X171463334Y-86100000D03*
D10*
X131499104Y-197850000D03*
D11*
X131499104Y-208010000D03*
D10*
X93740000Y-75060000D03*
D11*
X103900000Y-75060000D03*
D10*
X51250000Y-177850000D03*
D11*
X61410000Y-177850000D03*
D10*
X51250000Y-117850000D03*
D11*
X61410000Y-117850000D03*
D20*
X53066250Y-73320000D03*
X53066250Y-76620000D03*
D21*
X51370000Y-58360000D03*
X51370000Y-56285000D03*
D10*
X163505000Y-108996500D03*
X163505000Y-111496500D03*
D22*
X45770000Y-41052500D03*
D23*
X39770000Y-41052500D03*
D22*
X42770000Y-45752500D03*
D10*
X148143334Y-58360000D03*
D11*
X158303334Y-58360000D03*
D12*
X158303334Y-162194000D03*
X151803334Y-162194000D03*
X158303334Y-166694000D03*
X151803334Y-166694000D03*
D24*
X47217500Y-76620000D03*
X47217500Y-74120000D03*
X45217500Y-74120000D03*
X45217500Y-76620000D03*
D25*
X42507500Y-69350000D03*
X42507500Y-81390000D03*
D10*
X88660000Y-41200000D03*
D11*
X98820000Y-41200000D03*
D13*
X82120000Y-109236500D03*
D14*
X84660000Y-109236500D03*
D12*
X163873544Y-202350000D03*
X170373544Y-202350000D03*
X170373544Y-197850000D03*
X163873544Y-197850000D03*
D10*
X108700000Y-158194000D03*
X106200000Y-158194000D03*
D26*
X63610000Y-58360000D03*
D27*
X61310000Y-64660000D03*
D26*
X61310000Y-58360000D03*
X59010000Y-58360000D03*
D13*
X51250000Y-152850000D03*
D14*
X53790000Y-152850000D03*
D10*
X51250000Y-167850000D03*
D11*
X61410000Y-167850000D03*
D10*
X51250000Y-97850000D03*
D11*
X61410000Y-97850000D03*
D13*
X51250000Y-182850000D03*
D14*
X53790000Y-182850000D03*
D10*
X161303334Y-58360000D03*
D11*
X171463334Y-58360000D03*
D12*
X184623334Y-62360000D03*
X178123334Y-62360000D03*
X184623334Y-66860000D03*
X178123334Y-66860000D03*
D28*
X110165000Y-116856500D03*
X112705000Y-116856500D03*
X115245000Y-116856500D03*
X117785000Y-116856500D03*
X120325000Y-116856500D03*
X122865000Y-116856500D03*
X125405000Y-116856500D03*
X127945000Y-116856500D03*
X130485000Y-116856500D03*
X133025000Y-116856500D03*
X135565000Y-116856500D03*
X138105000Y-116856500D03*
X140645000Y-116856500D03*
X143185000Y-116856500D03*
X145725000Y-116856500D03*
X148265000Y-116856500D03*
X150805000Y-116856500D03*
X153345000Y-116856500D03*
X155885000Y-116856500D03*
X158425000Y-116856500D03*
X158425000Y-101616500D03*
X155885000Y-101616500D03*
X153345000Y-101616500D03*
X150805000Y-101616500D03*
X148265000Y-101616500D03*
X145725000Y-101616500D03*
X143185000Y-101616500D03*
X140645000Y-101616500D03*
X138105000Y-101616500D03*
X135565000Y-101616500D03*
X133025000Y-101616500D03*
X130485000Y-101616500D03*
X127945000Y-101616500D03*
X125405000Y-101616500D03*
X122865000Y-101616500D03*
X120325000Y-101616500D03*
X117785000Y-101616500D03*
X115245000Y-101616500D03*
X112705000Y-101616500D03*
X110165000Y-101616500D03*
D12*
X84874888Y-202350000D03*
X78374888Y-202350000D03*
X84874888Y-197850000D03*
X78374888Y-197850000D03*
D19*
X154250000Y-149114000D03*
D17*
X156790000Y-149114000D03*
X159330000Y-149114000D03*
X161870000Y-149114000D03*
X164410000Y-149114000D03*
X166950000Y-149114000D03*
X166950000Y-133874000D03*
X164410000Y-133874000D03*
X161870000Y-133874000D03*
X159330000Y-133874000D03*
X156790000Y-133874000D03*
X154250000Y-133874000D03*
D29*
X74500000Y-126254000D03*
X74500000Y-128794000D03*
X74500000Y-131334000D03*
X74500000Y-133874000D03*
X74500000Y-136414000D03*
X74500000Y-138954000D03*
X74500000Y-141494000D03*
X74500000Y-144034000D03*
X82120000Y-144034000D03*
X82120000Y-141494000D03*
X82120000Y-138954000D03*
X82120000Y-136414000D03*
X82120000Y-133874000D03*
X82120000Y-131334000D03*
X82120000Y-128794000D03*
X82120000Y-126254000D03*
D30*
X36710000Y-58360000D03*
D31*
X36710000Y-61860000D03*
D10*
X148143334Y-86100000D03*
D11*
X158303334Y-86100000D03*
D10*
X77000000Y-122254000D03*
X74500000Y-122254000D03*
X88660000Y-46280000D03*
D11*
X98820000Y-46280000D03*
D10*
X130485000Y-119966500D03*
X127985000Y-119966500D03*
D13*
X51250000Y-102850000D03*
D14*
X53790000Y-102850000D03*
D10*
X74500000Y-116856500D03*
D11*
X84660000Y-116856500D03*
D10*
X102999552Y-197850000D03*
D11*
X102999552Y-208010000D03*
D12*
X171463334Y-77600000D03*
X164963334Y-77600000D03*
X164963334Y-82100000D03*
X171463334Y-82100000D03*
D10*
X51250000Y-187850000D03*
D11*
X61410000Y-187850000D03*
D10*
X103660000Y-136414000D03*
D11*
X113820000Y-136414000D03*
D15*
X100090000Y-116856500D03*
X97550000Y-116856500D03*
X95010000Y-116856500D03*
D32*
X55625000Y-61740000D03*
X53625000Y-61740000D03*
D10*
X117863500Y-58360000D03*
X120363500Y-58360000D03*
D15*
X88660000Y-51360000D03*
X91200000Y-51360000D03*
X93740000Y-51360000D03*
D10*
X51250000Y-197850000D03*
D11*
X61410000Y-197850000D03*
D29*
X74500000Y-162194000D03*
X74500000Y-164734000D03*
X74500000Y-167274000D03*
X74500000Y-169814000D03*
X74500000Y-172354000D03*
X74500000Y-174894000D03*
X74500000Y-177434000D03*
X74500000Y-179974000D03*
X82120000Y-179974000D03*
X82120000Y-177434000D03*
X82120000Y-174894000D03*
X82120000Y-172354000D03*
X82120000Y-169814000D03*
X82120000Y-167274000D03*
X82120000Y-164734000D03*
X82120000Y-162194000D03*
X112795000Y-62360000D03*
X112795000Y-64900000D03*
X112795000Y-67440000D03*
X112795000Y-69980000D03*
X112795000Y-72520000D03*
X112795000Y-75060000D03*
X112795000Y-77600000D03*
X112795000Y-80140000D03*
X120415000Y-80140000D03*
X120415000Y-77600000D03*
X120415000Y-75060000D03*
X120415000Y-72520000D03*
X120415000Y-69980000D03*
X120415000Y-67440000D03*
X120415000Y-64900000D03*
X120415000Y-62360000D03*
D33*
X68330000Y-66900000D03*
X68330000Y-64900000D03*
D10*
X88660000Y-133874000D03*
D11*
X98820000Y-133874000D03*
D12*
X138643334Y-66860000D03*
X145143334Y-66860000D03*
X145143334Y-62360000D03*
X138643334Y-62360000D03*
D29*
X90350000Y-162194000D03*
X90350000Y-164734000D03*
X90350000Y-167274000D03*
X90350000Y-169814000D03*
X90350000Y-172354000D03*
X90350000Y-174894000D03*
X90350000Y-177434000D03*
X90350000Y-179974000D03*
X97970000Y-179974000D03*
X97970000Y-177434000D03*
X97970000Y-174894000D03*
X97970000Y-172354000D03*
X97970000Y-169814000D03*
X97970000Y-167274000D03*
X97970000Y-164734000D03*
X97970000Y-162194000D03*
D28*
X88660000Y-129874000D03*
X91200000Y-129874000D03*
X93740000Y-129874000D03*
X96280000Y-129874000D03*
X98820000Y-129874000D03*
X101360000Y-129874000D03*
X103900000Y-129874000D03*
X106440000Y-129874000D03*
X106440000Y-122254000D03*
X103900000Y-122254000D03*
X101360000Y-122254000D03*
X98820000Y-122254000D03*
X96280000Y-122254000D03*
X93740000Y-122254000D03*
X91200000Y-122254000D03*
X88660000Y-122254000D03*
D16*
X182892900Y-29848200D03*
D10*
X134983334Y-58360000D03*
D11*
X145143334Y-58360000D03*
D13*
X51250000Y-112850000D03*
D14*
X53790000Y-112850000D03*
D29*
X77040000Y-33580000D03*
X77040000Y-36120000D03*
X77040000Y-38660000D03*
X77040000Y-41200000D03*
X77040000Y-43740000D03*
X77040000Y-46280000D03*
X77040000Y-48820000D03*
X77040000Y-51360000D03*
X84660000Y-51360000D03*
X84660000Y-48820000D03*
X84660000Y-46280000D03*
X84660000Y-43740000D03*
X84660000Y-41200000D03*
X84660000Y-38660000D03*
X84660000Y-36120000D03*
X84660000Y-33580000D03*
D10*
X93740000Y-64900000D03*
D11*
X103900000Y-64900000D03*
D10*
X103660000Y-38660000D03*
D11*
X113820000Y-38660000D03*
D15*
X72435000Y-50740000D03*
X72435000Y-53280000D03*
X72435000Y-55820000D03*
X72435000Y-58360000D03*
D12*
X156123768Y-202350000D03*
X149623768Y-202350000D03*
X156123768Y-197850000D03*
X149623768Y-197850000D03*
D11*
X145143334Y-158194000D03*
D10*
X134983334Y-158194000D03*
D19*
X153423332Y-129086500D03*
D17*
X155963332Y-129086500D03*
X158503332Y-129086500D03*
D10*
X79540000Y-58360000D03*
X77040000Y-58360000D03*
X51250000Y-107850000D03*
D11*
X61410000Y-107850000D03*
D19*
X93740000Y-58360000D03*
D17*
X91200000Y-58360000D03*
X88660000Y-58360000D03*
D12*
X138643334Y-77600000D03*
X145143334Y-77600000D03*
X145143334Y-82100000D03*
X138643334Y-82100000D03*
D13*
X74500000Y-109236500D03*
D14*
X77040000Y-109236500D03*
D15*
X77040000Y-93140000D03*
X79580000Y-93140000D03*
X82120000Y-93140000D03*
X84660000Y-93140000D03*
D34*
X64910000Y-76825000D03*
X64910000Y-76175000D03*
X64910000Y-75525000D03*
X64910000Y-74875000D03*
X64910000Y-74225000D03*
X64910000Y-73575000D03*
X64910000Y-72925000D03*
X64910000Y-72275000D03*
X64910000Y-71625000D03*
X64910000Y-70975000D03*
X64910000Y-70325000D03*
X64910000Y-69675000D03*
X64910000Y-69025000D03*
X64910000Y-68375000D03*
X57710000Y-68375000D03*
X57710000Y-69025000D03*
X57710000Y-69675000D03*
X57710000Y-70325000D03*
X57710000Y-70975000D03*
X57710000Y-71625000D03*
X57710000Y-72275000D03*
X57710000Y-72925000D03*
X57710000Y-73575000D03*
X57710000Y-74225000D03*
X57710000Y-74875000D03*
X57710000Y-75525000D03*
X57710000Y-76175000D03*
X57710000Y-76825000D03*
D10*
X82160000Y-58360000D03*
X84660000Y-58360000D03*
D12*
X138643334Y-177434000D03*
X145143334Y-177434000D03*
X138643334Y-181934000D03*
X145143334Y-181934000D03*
D16*
X182892700Y-124848250D03*
D13*
X51250000Y-122850000D03*
D14*
X53790000Y-122850000D03*
D12*
X151803334Y-77600000D03*
X158303334Y-77600000D03*
X151803334Y-82100000D03*
X158303334Y-82100000D03*
D35*
X72435000Y-69900000D03*
X72435000Y-71950000D03*
D10*
X84660000Y-89030000D03*
D11*
X74500000Y-89030000D03*
D10*
X82160000Y-29580000D03*
X84660000Y-29580000D03*
X162910000Y-124551500D03*
D11*
X173070000Y-124551500D03*
D10*
X161303334Y-158194000D03*
D11*
X171463334Y-158194000D03*
D10*
X145748880Y-197850000D03*
D11*
X145748880Y-208010000D03*
D19*
X101360000Y-58360000D03*
D17*
X98820000Y-58360000D03*
X96280000Y-58360000D03*
D10*
X92850000Y-158194000D03*
X90350000Y-158194000D03*
X103660000Y-141494000D03*
D11*
X113820000Y-141494000D03*
D10*
X174463334Y-86100000D03*
D11*
X184623334Y-86100000D03*
D15*
X108147500Y-80140000D03*
X108147500Y-77600000D03*
X108147500Y-75060000D03*
X108147500Y-72520000D03*
X108147500Y-69980000D03*
X108147500Y-67440000D03*
X108147500Y-64900000D03*
D13*
X51250000Y-192850000D03*
D14*
X53790000Y-192850000D03*
D10*
X174463334Y-185934000D03*
D11*
X184623334Y-185934000D03*
D29*
X77040000Y-62360000D03*
X77040000Y-64900000D03*
X77040000Y-67440000D03*
X77040000Y-69980000D03*
X77040000Y-72520000D03*
X77040000Y-75060000D03*
X77040000Y-77600000D03*
X77040000Y-80140000D03*
X84660000Y-80140000D03*
X84660000Y-77600000D03*
X84660000Y-75060000D03*
X84660000Y-72520000D03*
X84660000Y-69980000D03*
X84660000Y-67440000D03*
X84660000Y-64900000D03*
X84660000Y-62360000D03*
D10*
X51250000Y-137850000D03*
D11*
X61410000Y-137850000D03*
D10*
X103660000Y-33580000D03*
D11*
X113820000Y-33580000D03*
D10*
X161303334Y-185934000D03*
D11*
X171463334Y-185934000D03*
D19*
X108980000Y-58360000D03*
D17*
X106440000Y-58360000D03*
X103900000Y-58360000D03*
D15*
X88660000Y-85220000D03*
X88660000Y-82680000D03*
X88660000Y-80140000D03*
X88660000Y-77600000D03*
D10*
X134983334Y-86100000D03*
D11*
X145143334Y-86100000D03*
D10*
X88660000Y-36120000D03*
D11*
X98820000Y-36120000D03*
D10*
X115243500Y-58360000D03*
X112743500Y-58360000D03*
X159998656Y-197850000D03*
D11*
X159998656Y-208010000D03*
D13*
X51250000Y-202850000D03*
D14*
X53790000Y-202850000D03*
D10*
X117249328Y-197850000D03*
D11*
X117249328Y-208010000D03*
D16*
X37892900Y-219848200D03*
D10*
X88660000Y-31040000D03*
D11*
X98820000Y-31040000D03*
D10*
X84660000Y-85220000D03*
D11*
X74500000Y-85220000D03*
D12*
X184623334Y-77600000D03*
X178123334Y-77600000D03*
X178123334Y-82100000D03*
X184623334Y-82100000D03*
D18*
X61212500Y-53800000D03*
X63287500Y-53800000D03*
D12*
X135373992Y-202350000D03*
X141873992Y-202350000D03*
X135373992Y-197850000D03*
X141873992Y-197850000D03*
D29*
X106200000Y-162194000D03*
X106200000Y-164734000D03*
X106200000Y-167274000D03*
X106200000Y-169814000D03*
X106200000Y-172354000D03*
X106200000Y-174894000D03*
X106200000Y-177434000D03*
X106200000Y-179974000D03*
X113820000Y-179974000D03*
X113820000Y-177434000D03*
X113820000Y-174894000D03*
X113820000Y-172354000D03*
X113820000Y-169814000D03*
X113820000Y-167274000D03*
X113820000Y-164734000D03*
X113820000Y-162194000D03*
D15*
X86100000Y-167274000D03*
X86100000Y-169814000D03*
X86100000Y-172354000D03*
X86100000Y-174894000D03*
X86100000Y-177434000D03*
X86100000Y-179974000D03*
D13*
X51250000Y-162850000D03*
D14*
X53790000Y-162850000D03*
D10*
X95470000Y-158194000D03*
X97970000Y-158194000D03*
D12*
X178123334Y-162194000D03*
X184623334Y-162194000D03*
X178123334Y-166694000D03*
X184623334Y-166694000D03*
D10*
X88660000Y-149114000D03*
D11*
X98820000Y-149114000D03*
D33*
X72435000Y-66900000D03*
X72435000Y-64900000D03*
D35*
X68330000Y-69900000D03*
X68330000Y-71950000D03*
D19*
X129370000Y-128366500D03*
D17*
X126830000Y-128366500D03*
X124290000Y-128366500D03*
D10*
X103660000Y-151654000D03*
D11*
X113820000Y-151654000D03*
D12*
X171463334Y-177434000D03*
X164963334Y-177434000D03*
X164963334Y-181934000D03*
X171463334Y-181934000D03*
D15*
X96370000Y-88060000D03*
D24*
X98910000Y-88060000D03*
X96370000Y-90600000D03*
X98910000Y-90600000D03*
X96370000Y-93140000D03*
X98910000Y-93140000D03*
D19*
X154250000Y-51360000D03*
D17*
X156790000Y-51360000D03*
X159330000Y-51360000D03*
X161870000Y-51360000D03*
X164410000Y-51360000D03*
X166950000Y-51360000D03*
X166950000Y-36120000D03*
X164410000Y-36120000D03*
X161870000Y-36120000D03*
X159330000Y-36120000D03*
X156790000Y-36120000D03*
X154250000Y-36120000D03*
D36*
X55625000Y-64660000D03*
X53550000Y-64660000D03*
D19*
X167990000Y-129086500D03*
D17*
X170530000Y-129086500D03*
X173070000Y-129086500D03*
D37*
X49320000Y-61740000D03*
X51370000Y-61740000D03*
D10*
X103660000Y-146574000D03*
D11*
X113820000Y-146574000D03*
D15*
X89400000Y-64900000D03*
X89400000Y-67440000D03*
X89400000Y-69980000D03*
X89400000Y-72520000D03*
D12*
X106295000Y-92560000D03*
X112795000Y-92560000D03*
X106295000Y-88060000D03*
X112795000Y-88060000D03*
D13*
X51250000Y-132850000D03*
D14*
X53790000Y-132850000D03*
D10*
X174463334Y-158194000D03*
D11*
X184623334Y-158194000D03*
D10*
X110440000Y-124754000D03*
X110440000Y-122254000D03*
D19*
X108980000Y-53360000D03*
D17*
X106440000Y-53360000D03*
X103900000Y-53360000D03*
D11*
X145143334Y-185934000D03*
D10*
X134983334Y-185934000D03*
D12*
X106874440Y-202350000D03*
X113374440Y-202350000D03*
X106874440Y-197850000D03*
X113374440Y-197850000D03*
D13*
X51250000Y-92850000D03*
D14*
X53790000Y-92850000D03*
D10*
X148143334Y-158194000D03*
D11*
X158303334Y-158194000D03*
D10*
X74500000Y-197850000D03*
D11*
X74500000Y-208010000D03*
D13*
X51250000Y-172850000D03*
D14*
X53790000Y-172850000D03*
D10*
X163505000Y-104116500D03*
X163505000Y-101616500D03*
X174248432Y-197850000D03*
D11*
X174248432Y-208010000D03*
D38*
X59692300Y-72587700D03*
X129618500Y-152570000D03*
X124819701Y-156344201D03*
X97117893Y-108484107D03*
X92006394Y-99470000D03*
X102690501Y-159739499D03*
X66580500Y-77270000D03*
X60577200Y-66410000D03*
X68330000Y-73270000D03*
X62028133Y-66410000D03*
X56513333Y-53430000D03*
X58880000Y-54460000D03*
X72435000Y-73270000D03*
X57696666Y-54460000D03*
X57690000Y-55540000D03*
X58310000Y-64660000D03*
X61240000Y-55540000D03*
X60056666Y-55540000D03*
X55330000Y-54460000D03*
X57690000Y-56570000D03*
X57696666Y-53430000D03*
X55330000Y-53430000D03*
X58880000Y-53430000D03*
X58873333Y-55540000D03*
X59126267Y-66410000D03*
X61240000Y-56570000D03*
X63479066Y-66410000D03*
X56513333Y-54460000D03*
X60056666Y-56570000D03*
X64310000Y-64660000D03*
X58873333Y-56570000D03*
X57675334Y-66410000D03*
X64930000Y-66410000D03*
X66922500Y-57603333D03*
X63227500Y-55540000D03*
X68770000Y-57603333D03*
X66922500Y-61730000D03*
X68770000Y-61730000D03*
X51980000Y-64660000D03*
X51370000Y-54530000D03*
X68770000Y-55540000D03*
X65075000Y-55540000D03*
X55800000Y-75520000D03*
X66922500Y-55540000D03*
X68770000Y-59666666D03*
X66580500Y-72925000D03*
X66922500Y-59666666D03*
X55800000Y-70330000D03*
X66580500Y-74225000D03*
X146800000Y-94174500D03*
X154000000Y-95780000D03*
X90556394Y-105883606D03*
X90556394Y-98022208D03*
X91281894Y-98748106D03*
X90556394Y-108512000D03*
X89831894Y-106644932D03*
X89831894Y-97298106D03*
X143600000Y-135674500D03*
X127590000Y-53720943D03*
X136151701Y-36120000D03*
X148142701Y-46277299D03*
X125805049Y-39110451D03*
X102084500Y-118500000D03*
X103850000Y-119224500D03*
X102800000Y-119224500D03*
X136974325Y-191076500D03*
X151950000Y-191801000D03*
X166922877Y-192525500D03*
X66580500Y-76175000D03*
X68640000Y-76170000D03*
D39*
X160946000Y-96555500D02*
X155885000Y-101616500D01*
X106200000Y-162194000D02*
X107480001Y-160913999D01*
X171081000Y-154369000D02*
X175995000Y-149455000D01*
X175995000Y-149455000D02*
X175995000Y-100755000D01*
X107480001Y-160913999D02*
X128656897Y-160913999D01*
X133398967Y-154369000D02*
X171081000Y-154369000D01*
X172290000Y-97050000D02*
X164982490Y-97050000D01*
X128656897Y-160913999D02*
X131150000Y-158420896D01*
X154870000Y-103141500D02*
X153345000Y-101616500D01*
X131150000Y-158420896D02*
X131150000Y-156617967D01*
X175995000Y-100755000D02*
X172290000Y-97050000D01*
X164982490Y-97050000D02*
X158890990Y-103141500D01*
X131150000Y-156617967D02*
X133398967Y-154369000D01*
X158890990Y-103141500D02*
X154870000Y-103141500D01*
X108147500Y-77600000D02*
X108220812Y-77600000D01*
X108220812Y-77600000D02*
X120675812Y-90055000D01*
X120675812Y-90055000D02*
X167204188Y-90055000D01*
X177345000Y-149324675D02*
X185948334Y-157928009D01*
X185948334Y-157928009D02*
X185948334Y-167281666D01*
X185948334Y-167281666D02*
X179485499Y-173744501D01*
X167204188Y-90055000D02*
X177345000Y-100195812D01*
X177345000Y-100195812D02*
X177345000Y-149324675D01*
X179485499Y-173744501D02*
X134700000Y-173744501D01*
X134700000Y-173744501D02*
X128470501Y-179974000D01*
X128470501Y-179974000D02*
X113820000Y-179974000D01*
X112795000Y-67440000D02*
X116000000Y-67440000D01*
X117680000Y-84513604D02*
X121421396Y-88255000D01*
X116000000Y-67440000D02*
X117680000Y-69120000D01*
X117680000Y-69120000D02*
X117680000Y-84513604D01*
X121421396Y-88255000D02*
X142988334Y-88255000D01*
X142988334Y-88255000D02*
X145143334Y-86100000D01*
X158303334Y-86100000D02*
X155698334Y-88705000D01*
X121235000Y-88705000D02*
X117230000Y-84700000D01*
X116000000Y-69980000D02*
X112795000Y-69980000D01*
X155698334Y-88705000D02*
X121235000Y-88705000D01*
X117230000Y-84700000D02*
X117230000Y-71210000D01*
X117230000Y-71210000D02*
X116000000Y-69980000D01*
X112795000Y-72520000D02*
X116000000Y-72520000D01*
X121048604Y-89155000D02*
X168408334Y-89155000D01*
X116000000Y-72520000D02*
X116780000Y-73300000D01*
X116780000Y-73300000D02*
X116780000Y-84886396D01*
X116780000Y-84886396D02*
X121048604Y-89155000D01*
X168408334Y-89155000D02*
X171463334Y-86100000D01*
X184623334Y-86100000D02*
X181118334Y-89605000D01*
X181118334Y-89605000D02*
X120862208Y-89605000D01*
X120862208Y-89605000D02*
X116330000Y-85072792D01*
X116330000Y-85072792D02*
X116330000Y-75390000D01*
X116330000Y-75390000D02*
X116000000Y-75060000D01*
X116000000Y-75060000D02*
X112795000Y-75060000D01*
X84660000Y-64900000D02*
X93740000Y-64900000D01*
X59379600Y-72275000D02*
X59692300Y-72587700D01*
X57710000Y-72275000D02*
X59379600Y-72275000D01*
X128470501Y-174894000D02*
X113820000Y-174894000D01*
X113820000Y-172354000D02*
X128470501Y-172354000D01*
X128470501Y-169814000D02*
X113820000Y-169814000D01*
X113820000Y-167274000D02*
X128470501Y-167274000D01*
X128470501Y-164734000D02*
X113820000Y-164734000D01*
X107470001Y-163463999D02*
X128470501Y-163463999D01*
X133850000Y-157736343D02*
X133850000Y-169514501D01*
X133850000Y-169514501D02*
X128470501Y-174894000D01*
X128470501Y-172354000D02*
X133400000Y-167424501D01*
X133400000Y-167424501D02*
X133400000Y-157549947D01*
X132950000Y-157363551D02*
X132950000Y-165334501D01*
X132950000Y-165334501D02*
X128470501Y-169814000D01*
X128470501Y-167274000D02*
X132500000Y-163244501D01*
X132500000Y-163244501D02*
X132500000Y-157177155D01*
X128470501Y-164734000D02*
X132050000Y-161154501D01*
X133771759Y-155269000D02*
X171453792Y-155269000D01*
X132050000Y-161154501D02*
X132050000Y-156990759D01*
X132050000Y-156990759D02*
X133771759Y-155269000D01*
X171453792Y-155269000D02*
X176895000Y-149827792D01*
X176895000Y-149827792D02*
X176895000Y-100382208D01*
X176895000Y-100382208D02*
X172292792Y-95780000D01*
X172292792Y-95780000D02*
X154000000Y-95780000D01*
X131600000Y-160334500D02*
X131600000Y-156804363D01*
X128470501Y-163463999D02*
X131600000Y-160334500D01*
X145725000Y-101616500D02*
X156730000Y-112621500D01*
X156730000Y-112621500D02*
X173121500Y-112621500D01*
X130660000Y-158274500D02*
X128470501Y-160463999D01*
X173121500Y-112621500D02*
X175545000Y-115045000D01*
X175545000Y-115045000D02*
X175545000Y-149268604D01*
X128470501Y-160463999D02*
X92080001Y-160463999D01*
X175545000Y-149268604D02*
X170894604Y-153919000D01*
X130660000Y-156471571D02*
X130660000Y-158274500D01*
X170894604Y-153919000D02*
X133212571Y-153919000D01*
X133212571Y-153919000D02*
X130660000Y-156471571D01*
X92080001Y-160463999D02*
X90350000Y-162194000D01*
X174195000Y-115604188D02*
X174195000Y-148709416D01*
X138105000Y-101616500D02*
X150460000Y-113971500D01*
X150460000Y-113971500D02*
X172562312Y-113971500D01*
X172562312Y-113971500D02*
X174195000Y-115604188D01*
X174195000Y-148709416D02*
X170335416Y-152569000D01*
X170335416Y-152569000D02*
X129619500Y-152569000D01*
X124819701Y-156344201D02*
X129514578Y-156344201D01*
X129514578Y-156344201D02*
X132839779Y-153019000D01*
X132839779Y-153019000D02*
X170521812Y-153019000D01*
X170521812Y-153019000D02*
X174645000Y-148895812D01*
X172748708Y-113521500D02*
X152550000Y-113521500D01*
X174645000Y-148895812D02*
X174645000Y-115417792D01*
X174645000Y-115417792D02*
X172748708Y-113521500D01*
X152550000Y-113521500D02*
X140645000Y-101616500D01*
X92006394Y-103372608D02*
X97117893Y-108484107D01*
X92006394Y-99470000D02*
X92006394Y-103372608D01*
X89400000Y-72520000D02*
X91200000Y-72520000D01*
X91200000Y-72520000D02*
X93740000Y-75060000D01*
X84939999Y-68709999D02*
X78309999Y-68709999D01*
X89400000Y-72520000D02*
X85589999Y-68709999D01*
X85589999Y-68709999D02*
X84939999Y-68709999D01*
X89400000Y-69980000D02*
X90250991Y-69980000D01*
X90250991Y-69980000D02*
X94865000Y-74594009D01*
X84660000Y-67440000D02*
X86860000Y-67440000D01*
X86860000Y-67440000D02*
X89400000Y-69980000D01*
X89400000Y-67440000D02*
X91200000Y-67440000D01*
X77040000Y-64900000D02*
X78309999Y-66169999D01*
X88129999Y-66169999D02*
X89400000Y-67440000D01*
X78309999Y-66169999D02*
X88129999Y-66169999D01*
X93740000Y-80140000D02*
X94865000Y-79015000D01*
X94865000Y-79015000D02*
X94865000Y-74594009D01*
X175095000Y-115231396D02*
X175095000Y-149082208D01*
X143185000Y-101616500D02*
X154640000Y-113071500D01*
X154640000Y-113071500D02*
X172935104Y-113071500D01*
X172935104Y-113071500D02*
X175095000Y-115231396D01*
X175095000Y-149082208D02*
X170708208Y-153469000D01*
X170708208Y-153469000D02*
X133026175Y-153469000D01*
X133026175Y-153469000D02*
X130210000Y-156285175D01*
X130210000Y-156285175D02*
X130210000Y-158000000D01*
X130210000Y-158000000D02*
X128470501Y-159739499D01*
X128470501Y-159739499D02*
X102690501Y-159739499D01*
X160946000Y-96555500D02*
X172431896Y-96555500D01*
X172431896Y-96555500D02*
X176445000Y-100568604D01*
X176445000Y-100568604D02*
X176445000Y-149641396D01*
X171267396Y-154819000D02*
X133585363Y-154819000D01*
X176445000Y-149641396D02*
X171267396Y-154819000D01*
X133585363Y-154819000D02*
X131600000Y-156804363D01*
X107470001Y-163463999D02*
X106200000Y-164734000D01*
X74500000Y-109236500D02*
X74500000Y-116856500D01*
X77040000Y-109236500D02*
X78265000Y-110461500D01*
X111390000Y-110461500D02*
X117785000Y-116856500D01*
X78265000Y-110461500D02*
X111390000Y-110461500D01*
X116378500Y-107830000D02*
X125405000Y-116856500D01*
X107446396Y-107830000D02*
X116378500Y-107830000D01*
X104410000Y-94438299D02*
X104410000Y-104793604D01*
X97735000Y-89425000D02*
X99396701Y-89425000D01*
X99396701Y-89425000D02*
X104410000Y-94438299D01*
X96370000Y-88060000D02*
X97735000Y-89425000D01*
X104410000Y-104793604D02*
X107446396Y-107830000D01*
X95195000Y-87221827D02*
X95531827Y-86885000D01*
X104860000Y-91820000D02*
X104860000Y-104607208D01*
X118468500Y-107380000D02*
X127945000Y-116856500D01*
X95195000Y-89425000D02*
X95195000Y-87221827D01*
X107632792Y-107380000D02*
X118468500Y-107380000D01*
X104860000Y-104607208D02*
X107632792Y-107380000D01*
X99925000Y-86885000D02*
X104860000Y-91820000D01*
X96370000Y-90600000D02*
X95195000Y-89425000D01*
X95531827Y-86885000D02*
X99925000Y-86885000D01*
X98910000Y-90600000D02*
X103960000Y-95650000D01*
X114288500Y-108280000D02*
X122865000Y-116856500D01*
X103960000Y-104980000D02*
X107260000Y-108280000D01*
X107260000Y-108280000D02*
X114288500Y-108280000D01*
X103960000Y-95650000D02*
X103960000Y-104980000D01*
X121594999Y-107966499D02*
X122564250Y-108935750D01*
X114735000Y-88060000D02*
X120415000Y-93740000D01*
X94733557Y-87046874D02*
X95345431Y-86435000D01*
X106295000Y-88060000D02*
X112795000Y-88060000D01*
X121594999Y-94919999D02*
X121594999Y-107966499D01*
X96370000Y-93140000D02*
X94733557Y-91503557D01*
X130485000Y-116856500D02*
X122564250Y-108935750D01*
X104670000Y-86435000D02*
X106295000Y-88060000D01*
X95345431Y-86435000D02*
X104670000Y-86435000D01*
X94733557Y-91503557D02*
X94733557Y-87046874D01*
X112795000Y-88060000D02*
X114735000Y-88060000D01*
X120415000Y-93740000D02*
X121594999Y-94919999D01*
X67250000Y-118367604D02*
X67250000Y-95500000D01*
X67250000Y-95500000D02*
X64600000Y-92850000D01*
X77676000Y-124350000D02*
X73232396Y-124350000D01*
X73232396Y-124350000D02*
X67250000Y-118367604D01*
X64600000Y-92850000D02*
X53790000Y-92850000D01*
X82120000Y-128794000D02*
X77676000Y-124350000D01*
X66800000Y-118554000D02*
X74500000Y-126254000D01*
X53790000Y-102850000D02*
X64600000Y-102850000D01*
X64600000Y-102850000D02*
X66800000Y-105050000D01*
X66800000Y-105050000D02*
X66800000Y-118554000D01*
X75470000Y-89030000D02*
X79580000Y-93140000D01*
X74500000Y-89030000D02*
X75470000Y-89030000D01*
X64910000Y-76825000D02*
X66135500Y-76825000D01*
X66135500Y-76825000D02*
X66580500Y-77270000D01*
X61310000Y-72400000D02*
X61310000Y-69125000D01*
X61310000Y-64660000D02*
X61310000Y-69125000D01*
D40*
X61310000Y-58360000D02*
X61310000Y-64660000D01*
D39*
X63785000Y-74875000D02*
X61310000Y-72400000D01*
X57710000Y-71625000D02*
X54761250Y-71625000D01*
X58810000Y-71625000D02*
X57710000Y-71625000D01*
X72435000Y-71950000D02*
X72435000Y-73270000D01*
X68330000Y-71950000D02*
X68330000Y-73270000D01*
X54761250Y-71625000D02*
X53066250Y-73320000D01*
X64910000Y-74875000D02*
X63785000Y-74875000D01*
X61310000Y-69125000D02*
X58810000Y-71625000D01*
X49320000Y-62000000D02*
X51980000Y-64660000D01*
X53550000Y-64660000D02*
X51980000Y-64660000D01*
X57710000Y-74875000D02*
X56445000Y-74875000D01*
X49320000Y-61740000D02*
X49320000Y-62000000D01*
X57705000Y-75520000D02*
X57710000Y-75525000D01*
X57710000Y-70325000D02*
X55805000Y-70325000D01*
X56445000Y-74875000D02*
X55800000Y-75520000D01*
X51370000Y-56285000D02*
X51370000Y-54530000D01*
X55800000Y-75520000D02*
X57705000Y-75520000D01*
X64910000Y-72925000D02*
X66580500Y-72925000D01*
X53790000Y-112850000D02*
X64600000Y-112850000D01*
X64600000Y-112850000D02*
X66350000Y-114600000D01*
X66350000Y-114600000D02*
X66350000Y-120644000D01*
X66350000Y-120644000D02*
X74500000Y-128794000D01*
X64910000Y-74225000D02*
X66580500Y-74225000D01*
X82120000Y-93140000D02*
X74500000Y-85520000D01*
X74500000Y-85520000D02*
X74500000Y-85220000D01*
X110687500Y-64900000D02*
X108147500Y-67440000D01*
X112795000Y-64900000D02*
X110687500Y-64900000D01*
X150574500Y-94174500D02*
X153345000Y-96945000D01*
X108360000Y-62360000D02*
X106890000Y-63830000D01*
X106890000Y-68722500D02*
X108147500Y-69980000D01*
X146800000Y-94174500D02*
X150574500Y-94174500D01*
X106890000Y-63830000D02*
X106890000Y-68722500D01*
X153345000Y-96945000D02*
X153345000Y-101616500D01*
X112795000Y-62360000D02*
X108360000Y-62360000D01*
X108147500Y-72520000D02*
X109322500Y-71345000D01*
X111300000Y-66169999D02*
X119145001Y-66169999D01*
X119145001Y-66169999D02*
X120415000Y-64900000D01*
X109322500Y-68147499D02*
X111300000Y-66169999D01*
X109322500Y-71345000D02*
X109322500Y-68147499D01*
X119300000Y-151654000D02*
X156790000Y-151654000D01*
X113820000Y-151654000D02*
X119300000Y-151654000D01*
X156790000Y-151654000D02*
X159330000Y-149114000D01*
X86185000Y-76585000D02*
X86185000Y-82745000D01*
X84660000Y-75060000D02*
X86185000Y-76585000D01*
X86185000Y-82745000D02*
X88660000Y-85220000D01*
X84660000Y-72520000D02*
X86635000Y-74495000D01*
X86635000Y-80655000D02*
X88660000Y-82680000D01*
X86635000Y-74495000D02*
X86635000Y-80655000D01*
X88660000Y-80140000D02*
X87085000Y-78565000D01*
X87085000Y-72405000D02*
X84660000Y-69980000D01*
X87085000Y-78565000D02*
X87085000Y-72405000D01*
X74970000Y-67910000D02*
X77040000Y-69980000D01*
X74970000Y-55815000D02*
X74970000Y-67910000D01*
X72435000Y-53280000D02*
X74970000Y-55815000D01*
X77040000Y-75060000D02*
X74520000Y-72540000D01*
X74520000Y-60445000D02*
X72435000Y-58360000D01*
X74520000Y-72540000D02*
X74520000Y-60445000D01*
X74070000Y-62730000D02*
X74070000Y-74630000D01*
X70798557Y-57456443D02*
X70798557Y-59458557D01*
X70798557Y-59458557D02*
X74070000Y-62730000D01*
X72435000Y-55820000D02*
X70798557Y-57456443D01*
X74070000Y-74630000D02*
X77040000Y-77600000D01*
X76061397Y-78869999D02*
X83160001Y-78869999D01*
X70348557Y-59644953D02*
X73620000Y-62916396D01*
X84660000Y-80140000D02*
X83389999Y-78869999D01*
X73620000Y-76428602D02*
X76061397Y-78869999D01*
X70348557Y-52826443D02*
X70348557Y-59644953D01*
X72435000Y-50740000D02*
X70348557Y-52826443D01*
X83389999Y-78869999D02*
X83160001Y-78869999D01*
X73620000Y-62916396D02*
X73620000Y-76428602D01*
X78309999Y-68709999D02*
X77040000Y-67440000D01*
X91200000Y-67440000D02*
X93740000Y-69980000D01*
X101615000Y-115331500D02*
X111180000Y-115331500D01*
X101360000Y-122254000D02*
X101360000Y-118126500D01*
X111180000Y-115331500D02*
X112705000Y-116856500D01*
X100090000Y-116856500D02*
X101615000Y-115331500D01*
X101360000Y-118126500D02*
X100090000Y-116856500D01*
X90556394Y-98022208D02*
X90556394Y-105883606D01*
X90556394Y-108512000D02*
X90556394Y-107235500D01*
X91281894Y-98748106D02*
X91281894Y-106510000D01*
X90556394Y-107235500D02*
X91281894Y-106510000D01*
X99525000Y-114881500D02*
X113270000Y-114881500D01*
X98820000Y-122254000D02*
X98820000Y-118126500D01*
X97550000Y-116856500D02*
X99525000Y-114881500D01*
X113270000Y-114881500D02*
X115245000Y-116856500D01*
X98820000Y-118126500D02*
X97550000Y-116856500D01*
X89831894Y-97298106D02*
X89831894Y-106644932D01*
X93740000Y-122254000D02*
X93740000Y-118126500D01*
X93740000Y-118126500D02*
X95010000Y-116856500D01*
X119300000Y-149114000D02*
X98820000Y-149114000D01*
X159330000Y-133874000D02*
X157529500Y-135674500D01*
X113820000Y-146574000D02*
X119300000Y-146574000D01*
X157529500Y-135674500D02*
X143600000Y-135674500D01*
X119300000Y-144034000D02*
X149170000Y-144034000D01*
X149170000Y-144034000D02*
X154250000Y-149114000D01*
X119300000Y-144034000D02*
X98820000Y-144034000D01*
X119300000Y-141494000D02*
X149170000Y-141494000D01*
X149170000Y-141494000D02*
X156790000Y-149114000D01*
X113820000Y-141494000D02*
X119300000Y-141494000D01*
X151710000Y-138954000D02*
X161870000Y-149114000D01*
X119300000Y-138954000D02*
X151710000Y-138954000D01*
X119300000Y-138954000D02*
X98820000Y-138954000D01*
X113820000Y-136414000D02*
X119300000Y-136414000D01*
X119300000Y-136414000D02*
X164410000Y-136414000D01*
X164410000Y-136414000D02*
X166950000Y-133874000D01*
X155714000Y-134950000D02*
X120376000Y-134950000D01*
X156790000Y-133874000D02*
X155714000Y-134950000D01*
X120376000Y-134950000D02*
X119300000Y-133874000D01*
X98820000Y-133874000D02*
X119300000Y-133874000D01*
X127590000Y-53720943D02*
X164589057Y-53720943D01*
X164589057Y-53720943D02*
X166950000Y-51360000D01*
X103900000Y-64900000D02*
X103900000Y-63866396D01*
X94268198Y-61428198D02*
X91200000Y-58360000D01*
X101461802Y-61428198D02*
X94268198Y-61428198D01*
X103900000Y-63866396D02*
X101461802Y-61428198D01*
X105025000Y-64355000D02*
X99030000Y-58360000D01*
X103900000Y-69980000D02*
X105025000Y-68855000D01*
X105025000Y-68855000D02*
X105025000Y-64355000D01*
X99030000Y-58360000D02*
X98820000Y-58360000D01*
X106440000Y-77600000D02*
X103900000Y-80140000D01*
X106440000Y-58360000D02*
X106440000Y-77600000D01*
X136151701Y-36120000D02*
X154250000Y-36120000D01*
X105169999Y-54630001D02*
X106440000Y-53360000D01*
X105475000Y-64145002D02*
X105169999Y-63840001D01*
X105169999Y-63840001D02*
X105169999Y-54630001D01*
X103900000Y-75060000D02*
X105475000Y-73485000D01*
X105475000Y-73485000D02*
X105475000Y-64145002D01*
X169000000Y-147064000D02*
X169000000Y-130096500D01*
X166950000Y-149114000D02*
X169000000Y-147064000D01*
X169000000Y-130096500D02*
X167990000Y-129086500D01*
X170530000Y-129086500D02*
X173070000Y-126546500D01*
X173070000Y-126546500D02*
X173070000Y-124551500D01*
X153423332Y-129086500D02*
X155386832Y-131050000D01*
X155386832Y-131050000D02*
X161586000Y-131050000D01*
X161586000Y-131050000D02*
X164410000Y-133874000D01*
X155963332Y-129086500D02*
X158503332Y-126546500D01*
X158503332Y-126546500D02*
X158503332Y-124551500D01*
X147070166Y-131500000D02*
X143936666Y-128366500D01*
X161870000Y-133874000D02*
X159496000Y-131500000D01*
X159496000Y-131500000D02*
X147070166Y-131500000D01*
X143936666Y-125826500D02*
X143936666Y-124551500D01*
X141396666Y-128366500D02*
X143936666Y-125826500D01*
X154250000Y-133874000D02*
X152326000Y-131950000D01*
X132953500Y-131950000D02*
X129370000Y-128366500D01*
X152326000Y-131950000D02*
X132953500Y-131950000D01*
X129370000Y-125826500D02*
X129370000Y-124551500D01*
X126830000Y-128366500D02*
X129370000Y-125826500D01*
X120489416Y-90505000D02*
X115519416Y-85535000D01*
X85835000Y-86395000D02*
X84660000Y-85220000D01*
X94515000Y-85535000D02*
X93655000Y-86395000D01*
X115519416Y-85535000D02*
X94515000Y-85535000D01*
X130089999Y-90505000D02*
X120489416Y-90505000D01*
X145725000Y-116856500D02*
X131754999Y-102886499D01*
X93655000Y-86395000D02*
X85835000Y-86395000D01*
X131754999Y-92170000D02*
X130089999Y-90505000D01*
X131754999Y-102886499D02*
X131754999Y-92170000D01*
X115333020Y-85985000D02*
X120303020Y-90955000D01*
X129214999Y-102886499D02*
X129214999Y-92170000D01*
X91656396Y-89030000D02*
X94701396Y-85985000D01*
X84660000Y-89030000D02*
X91656396Y-89030000D01*
X127999999Y-90955000D02*
X120303020Y-90955000D01*
X143185000Y-116856500D02*
X129214999Y-102886499D01*
X129214999Y-92170000D02*
X127999999Y-90955000D01*
X94701396Y-85985000D02*
X115333020Y-85985000D01*
X78309999Y-34849999D02*
X77040000Y-33580000D01*
X102139999Y-34849999D02*
X78309999Y-34849999D01*
X102390001Y-34849999D02*
X103660000Y-33580000D01*
X102139999Y-34849999D02*
X102390001Y-34849999D01*
X87390001Y-37389999D02*
X83220001Y-37389999D01*
X78309999Y-37389999D02*
X78849999Y-37389999D01*
X83220001Y-37389999D02*
X78849999Y-37389999D01*
X77040000Y-36120000D02*
X78309999Y-37389999D01*
X88660000Y-36120000D02*
X87390001Y-37389999D01*
X77040000Y-38660000D02*
X78309999Y-39929999D01*
X102390001Y-39929999D02*
X103660000Y-38660000D01*
X78309999Y-39929999D02*
X102390001Y-39929999D01*
X87390001Y-42469999D02*
X78309999Y-42469999D01*
X88660000Y-41200000D02*
X87390001Y-42469999D01*
X78309999Y-42469999D02*
X77040000Y-41200000D01*
X78309999Y-45009999D02*
X77040000Y-43740000D01*
X102390001Y-45009999D02*
X78309999Y-45009999D01*
X103660000Y-43740000D02*
X102390001Y-45009999D01*
X78309999Y-47549999D02*
X87390001Y-47549999D01*
X87390001Y-47549999D02*
X88660000Y-46280000D01*
X77040000Y-46280000D02*
X78309999Y-47549999D01*
X79030001Y-50089999D02*
X102390001Y-50089999D01*
X79030001Y-50089999D02*
X78309999Y-50089999D01*
X78309999Y-50089999D02*
X77040000Y-48820000D01*
X102390001Y-50089999D02*
X103660000Y-48820000D01*
X87535000Y-134339991D02*
X87535000Y-130999000D01*
X87535000Y-130999000D02*
X88660000Y-129874000D01*
X89609009Y-136414000D02*
X87535000Y-134339991D01*
X103660000Y-136414000D02*
X89609009Y-136414000D01*
X89675000Y-128349000D02*
X91200000Y-129874000D01*
X87085000Y-137379000D02*
X87085000Y-129458010D01*
X88660000Y-138954000D02*
X87085000Y-137379000D01*
X87085000Y-129458010D02*
X88194010Y-128349000D01*
X88194010Y-128349000D02*
X89675000Y-128349000D01*
X86635000Y-138635000D02*
X86635000Y-129271614D01*
X89494000Y-141494000D02*
X86635000Y-138635000D01*
X103660000Y-141494000D02*
X89494000Y-141494000D01*
X88007614Y-127899000D02*
X91765000Y-127899000D01*
X86635000Y-129271614D02*
X88007614Y-127899000D01*
X91765000Y-127899000D02*
X93740000Y-129874000D01*
X93855000Y-127449000D02*
X87821218Y-127449000D01*
X87821218Y-127449000D02*
X86185000Y-129085218D01*
X86185000Y-129085218D02*
X86185000Y-141559000D01*
X96280000Y-129874000D02*
X93855000Y-127449000D01*
X86185000Y-141559000D02*
X88660000Y-144034000D01*
X85735000Y-128898822D02*
X87634822Y-126999000D01*
X87674000Y-146574000D02*
X85735000Y-144635000D01*
X87634822Y-126999000D02*
X95945000Y-126999000D01*
X85735000Y-144635000D02*
X85735000Y-128898822D01*
X103660000Y-146574000D02*
X87674000Y-146574000D01*
X95945000Y-126999000D02*
X98820000Y-129874000D01*
X98035000Y-126549000D02*
X101360000Y-129874000D01*
X85285000Y-145739000D02*
X85285000Y-128712426D01*
X87448426Y-126549000D02*
X98035000Y-126549000D01*
X88660000Y-149114000D02*
X85285000Y-145739000D01*
X85285000Y-128712426D02*
X87448426Y-126549000D01*
X84835000Y-146879991D02*
X89609009Y-151654000D01*
X87262030Y-126099000D02*
X84835000Y-128526030D01*
X89609009Y-151654000D02*
X103660000Y-151654000D01*
X84835000Y-128526030D02*
X84835000Y-146879991D01*
X103900000Y-129874000D02*
X100125000Y-126099000D01*
X100125000Y-126099000D02*
X87262030Y-126099000D01*
X138643334Y-62360000D02*
X145143334Y-62360000D01*
X144018334Y-57235000D02*
X143265000Y-57235000D01*
X145143334Y-58360000D02*
X144018334Y-57235000D01*
X133850000Y-57902343D02*
X134517343Y-57235000D01*
X120415000Y-75060000D02*
X131000000Y-75060000D01*
X131000000Y-75060000D02*
X133850000Y-72210000D01*
X134517343Y-57235000D02*
X143265000Y-57235000D01*
X133850000Y-72210000D02*
X133850000Y-57902343D01*
X145143334Y-58360000D02*
X145143334Y-62360000D01*
X131000000Y-72520000D02*
X133400000Y-70120000D01*
X158303334Y-58360000D02*
X156728334Y-56785000D01*
X151803334Y-62360000D02*
X158303334Y-62360000D01*
X158303334Y-62360000D02*
X158303334Y-58360000D01*
X156728334Y-56785000D02*
X134330947Y-56785000D01*
X134330947Y-56785000D02*
X133400000Y-57715947D01*
X133400000Y-57715947D02*
X133400000Y-70120000D01*
X120415000Y-72520000D02*
X131000000Y-72520000D01*
X171463334Y-62360000D02*
X164963334Y-62360000D01*
X132950000Y-57529551D02*
X134144551Y-56335000D01*
X120415000Y-69980000D02*
X131000000Y-69980000D01*
X131000000Y-69980000D02*
X132950000Y-68030000D01*
X169438334Y-56335000D02*
X171463334Y-58360000D01*
X171463334Y-58360000D02*
X171463334Y-62360000D01*
X132950000Y-68030000D02*
X132950000Y-57529551D01*
X134144551Y-56335000D02*
X169438334Y-56335000D01*
X132500000Y-57343155D02*
X133958155Y-55885000D01*
X182148334Y-55885000D02*
X184623334Y-58360000D01*
X132500000Y-65940000D02*
X132500000Y-57343155D01*
X120415000Y-67440000D02*
X131000000Y-67440000D01*
X178123334Y-62360000D02*
X184623334Y-62360000D01*
X131000000Y-67440000D02*
X132500000Y-65940000D01*
X184623334Y-62360000D02*
X184623334Y-58360000D01*
X133958155Y-55885000D02*
X182148334Y-55885000D01*
X146468334Y-78925000D02*
X146468334Y-84775000D01*
X138643334Y-77600000D02*
X145143334Y-77600000D01*
X145143334Y-77600000D02*
X146468334Y-78925000D01*
X146468334Y-84775000D02*
X145143334Y-86100000D01*
X159628334Y-78925000D02*
X158303334Y-77600000D01*
X159628334Y-84775000D02*
X159628334Y-78925000D01*
X158303334Y-77600000D02*
X151803334Y-77600000D01*
X158303334Y-86100000D02*
X159628334Y-84775000D01*
X171463334Y-77600000D02*
X164963334Y-77600000D01*
X172788334Y-84775000D02*
X172788334Y-78925000D01*
X172788334Y-78925000D02*
X171463334Y-77600000D01*
X171463334Y-86100000D02*
X172788334Y-84775000D01*
X184623334Y-77600000D02*
X185948334Y-78925000D01*
X178123334Y-77600000D02*
X184623334Y-77600000D01*
X185948334Y-84775000D02*
X184623334Y-86100000D01*
X185948334Y-78925000D02*
X185948334Y-84775000D01*
X134517343Y-157069000D02*
X133850000Y-157736343D01*
X145143334Y-158194000D02*
X144018334Y-157069000D01*
X144018334Y-157069000D02*
X134517343Y-157069000D01*
X138670000Y-162194000D02*
X145170000Y-162194000D01*
X145143334Y-162194000D02*
X145143334Y-158194000D01*
X158303334Y-162194000D02*
X158303334Y-158194000D01*
X158303334Y-158194000D02*
X156728334Y-156619000D01*
X151803334Y-162194000D02*
X158303334Y-162194000D01*
X156728334Y-156619000D02*
X134330947Y-156619000D01*
X134330947Y-156619000D02*
X133400000Y-157549947D01*
X134144551Y-156169000D02*
X169438334Y-156169000D01*
X132950000Y-157363551D02*
X134144551Y-156169000D01*
X169438334Y-156169000D02*
X171463334Y-158194000D01*
X164963334Y-162194000D02*
X171463334Y-162194000D01*
X171463334Y-162194000D02*
X171463334Y-158194000D01*
X184623334Y-158194000D02*
X184623334Y-162194000D01*
X184623334Y-162194000D02*
X178123334Y-162194000D01*
X182148334Y-155719000D02*
X184623334Y-158194000D01*
X132500000Y-157177155D02*
X133958155Y-155719000D01*
X133958155Y-155719000D02*
X182148334Y-155719000D01*
X111000000Y-168900000D02*
X111000000Y-183600000D01*
X146468334Y-184609000D02*
X146468334Y-178759000D01*
X111000000Y-183600000D02*
X114459000Y-187059000D01*
X145143334Y-185934000D02*
X146468334Y-184609000D01*
X109374000Y-167274000D02*
X111000000Y-168900000D01*
X106200000Y-167274000D02*
X109374000Y-167274000D01*
X144018334Y-187059000D02*
X145143334Y-185934000D01*
X146468334Y-178759000D02*
X145143334Y-177434000D01*
X145143334Y-177434000D02*
X138643334Y-177434000D01*
X114459000Y-187059000D02*
X144018334Y-187059000D01*
X110550000Y-170990000D02*
X110550000Y-183786396D01*
X114313604Y-187550000D02*
X156687334Y-187550000D01*
X109374000Y-169814000D02*
X110550000Y-170990000D01*
X106200000Y-169814000D02*
X109374000Y-169814000D01*
X159628334Y-178759000D02*
X158303334Y-177434000D01*
X151803334Y-177434000D02*
X158303334Y-177434000D01*
X159628334Y-184609000D02*
X159628334Y-178759000D01*
X158303334Y-185934000D02*
X159628334Y-184609000D01*
X110550000Y-183786396D02*
X114313604Y-187550000D01*
X156687334Y-187550000D02*
X158303334Y-185934000D01*
X171463334Y-177434000D02*
X164963334Y-177434000D01*
X171463334Y-185934000D02*
X172788334Y-184609000D01*
X110100000Y-173080000D02*
X110100000Y-183972792D01*
X110100000Y-183972792D02*
X114127208Y-188000000D01*
X172788334Y-184609000D02*
X172788334Y-178759000D01*
X172788334Y-178759000D02*
X171463334Y-177434000D01*
X106200000Y-172354000D02*
X109374000Y-172354000D01*
X169397334Y-188000000D02*
X171463334Y-185934000D01*
X109374000Y-172354000D02*
X110100000Y-173080000D01*
X114127208Y-188000000D02*
X169397334Y-188000000D01*
X184623334Y-177434000D02*
X178123334Y-177434000D01*
X109650000Y-175170000D02*
X109650000Y-184159188D01*
X185948334Y-184609000D02*
X185948334Y-178759000D01*
X109374000Y-174894000D02*
X109650000Y-175170000D01*
X109650000Y-184159188D02*
X113940812Y-188450000D01*
X185948334Y-178759000D02*
X184623334Y-177434000D01*
X184623334Y-185934000D02*
X185948334Y-184609000D01*
X106200000Y-174894000D02*
X109374000Y-174894000D01*
X182107334Y-188450000D02*
X184623334Y-185934000D01*
X113940812Y-188450000D02*
X182107334Y-188450000D01*
X157693557Y-52996443D02*
X123426443Y-52996443D01*
X119250000Y-48820000D02*
X113820000Y-48820000D01*
X123426443Y-52996443D02*
X119250000Y-48820000D01*
X159330000Y-51360000D02*
X157693557Y-52996443D01*
X119250000Y-46280000D02*
X148140000Y-46280000D01*
X148140000Y-46280000D02*
X148142701Y-46277299D01*
X119250000Y-46280000D02*
X98820000Y-46280000D01*
X156339549Y-39110451D02*
X159330000Y-36120000D01*
X119250000Y-43740000D02*
X113820000Y-43740000D01*
X125805049Y-39110451D02*
X156339549Y-39110451D01*
X119250000Y-41200000D02*
X98820000Y-41200000D01*
X119250000Y-41200000D02*
X144090000Y-41200000D01*
X144090000Y-41200000D02*
X154250000Y-51360000D01*
X154326802Y-48896802D02*
X156790000Y-51360000D01*
X119250000Y-38660000D02*
X113820000Y-38660000D01*
X119250000Y-38660000D02*
X121340000Y-40750000D01*
X121340000Y-40750000D02*
X144276396Y-40750000D01*
X152423198Y-48896802D02*
X154326802Y-48896802D01*
X144276396Y-40750000D02*
X152423198Y-48896802D01*
X123430000Y-40300000D02*
X144462792Y-40300000D01*
X144462792Y-40300000D02*
X152609594Y-48446802D01*
X119250000Y-36120000D02*
X123430000Y-40300000D01*
X158956802Y-48446802D02*
X161870000Y-51360000D01*
X119250000Y-36120000D02*
X98820000Y-36120000D01*
X152609594Y-48446802D02*
X158956802Y-48446802D01*
X119250000Y-33580000D02*
X125520000Y-39850000D01*
X163220000Y-39850000D02*
X166950000Y-36120000D01*
X119250000Y-33580000D02*
X113820000Y-33580000D01*
X125520000Y-39850000D02*
X163220000Y-39850000D01*
X66016000Y-122850000D02*
X53790000Y-122850000D01*
X74500000Y-131334000D02*
X66016000Y-122850000D01*
X73476000Y-132850000D02*
X74500000Y-133874000D01*
X53790000Y-132850000D02*
X73476000Y-132850000D01*
X53790000Y-142850000D02*
X64600000Y-142850000D01*
X64600000Y-142850000D02*
X71036000Y-136414000D01*
X71036000Y-136414000D02*
X74500000Y-136414000D01*
X53790000Y-152850000D02*
X64600000Y-152850000D01*
X72500000Y-140954000D02*
X72500000Y-141600000D01*
X64600000Y-152850000D02*
X72500000Y-144950000D01*
X72500000Y-144950000D02*
X72500000Y-141600000D01*
X74500000Y-138954000D02*
X72500000Y-140954000D01*
X151710000Y-31040000D02*
X156790000Y-36120000D01*
X119250000Y-31040000D02*
X151710000Y-31040000D01*
X98820000Y-31040000D02*
X119250000Y-31040000D01*
X53790000Y-162850000D02*
X64600000Y-162850000D01*
X72975000Y-143019000D02*
X72975000Y-154475000D01*
X74500000Y-141494000D02*
X72975000Y-143019000D01*
X72975000Y-154475000D02*
X64600000Y-162850000D01*
X67050000Y-170400000D02*
X67050000Y-167653010D01*
X64600000Y-172850000D02*
X67050000Y-170400000D01*
X73634010Y-161069000D02*
X78455000Y-161069000D01*
X67050000Y-167653010D02*
X73634010Y-161069000D01*
X78455000Y-161069000D02*
X82120000Y-164734000D01*
X53790000Y-172850000D02*
X64600000Y-172850000D01*
X53790000Y-182850000D02*
X64600000Y-182850000D01*
X64600000Y-182850000D02*
X67500000Y-179950000D01*
X67500000Y-169194000D02*
X74500000Y-162194000D01*
X67500000Y-179950000D02*
X67500000Y-169194000D01*
X67950000Y-189500000D02*
X67950000Y-171284000D01*
X53790000Y-192850000D02*
X64600000Y-192850000D01*
X64600000Y-192850000D02*
X67950000Y-189500000D01*
X67950000Y-171284000D02*
X74500000Y-164734000D01*
X68400000Y-173374000D02*
X74500000Y-167274000D01*
X53790000Y-202850000D02*
X64600000Y-202850000D01*
X64600000Y-202850000D02*
X68400000Y-199050000D01*
X68400000Y-199050000D02*
X68400000Y-173374000D01*
X51250000Y-87850000D02*
X51250000Y-92850000D01*
X153345000Y-116856500D02*
X149072500Y-121129000D01*
X87275000Y-165125000D02*
X84385000Y-162235000D01*
X113292000Y-118500000D02*
X102084500Y-118500000D01*
X86100000Y-177434000D02*
X87275000Y-176259000D01*
X115921000Y-121129000D02*
X113900000Y-119108000D01*
X149072500Y-121129000D02*
X115921000Y-121129000D01*
X84385000Y-133599000D02*
X82120000Y-131334000D01*
X87275000Y-176259000D02*
X87275000Y-165125000D01*
X84385000Y-162235000D02*
X84385000Y-133599000D01*
X113900000Y-119108000D02*
X113292000Y-118500000D01*
X51250000Y-97850000D02*
X51250000Y-102850000D01*
X82120000Y-174894000D02*
X86100000Y-174894000D01*
X113380104Y-119224500D02*
X106550000Y-119224500D01*
X151162500Y-121579000D02*
X155885000Y-116856500D01*
X106550000Y-119224500D02*
X103850000Y-119224500D01*
X115734604Y-121579000D02*
X151162500Y-121579000D01*
X113380104Y-119224500D02*
X115734604Y-121579000D01*
X51250000Y-107850000D02*
X51250000Y-112850000D01*
X113468208Y-119949000D02*
X103524500Y-119949000D01*
X158425000Y-116856500D02*
X153252500Y-122029000D01*
X153252500Y-122029000D02*
X115548208Y-122029000D01*
X115548208Y-122029000D02*
X113468208Y-119949000D01*
X103524500Y-119949000D02*
X102800000Y-119224500D01*
X82120000Y-172354000D02*
X86100000Y-172354000D01*
X51250000Y-117850000D02*
X51250000Y-122850000D01*
X51250000Y-127850000D02*
X51250000Y-132850000D01*
X51250000Y-137850000D02*
X51250000Y-142850000D01*
X51250000Y-147850000D02*
X51250000Y-152850000D01*
X51250000Y-157850000D02*
X51250000Y-162850000D01*
X51250000Y-172850000D02*
X51250000Y-167850000D01*
X51250000Y-182850000D02*
X51250000Y-177850000D01*
X51250000Y-192850000D02*
X51250000Y-187850000D01*
X82120000Y-144034000D02*
X83935000Y-145849000D01*
X84660000Y-169814000D02*
X86100000Y-169814000D01*
X82120000Y-167274000D02*
X84660000Y-169814000D01*
X83935000Y-145849000D02*
X83935000Y-165459000D01*
X83935000Y-165459000D02*
X82120000Y-167274000D01*
X51250000Y-197850000D02*
X51250000Y-202850000D01*
X87099888Y-193950000D02*
X97449664Y-193950000D01*
X78374888Y-202350000D02*
X84874888Y-202350000D01*
X99999664Y-191400000D02*
X99999664Y-176923664D01*
X74500000Y-208010000D02*
X74500000Y-206224888D01*
X74500000Y-206224888D02*
X78374888Y-202350000D01*
X86199888Y-201025000D02*
X86199888Y-194850000D01*
X86199888Y-194850000D02*
X87099888Y-193950000D01*
X97449664Y-193950000D02*
X99999664Y-191400000D01*
X99999664Y-176923664D02*
X97970000Y-174894000D01*
X84874888Y-202350000D02*
X86199888Y-201025000D01*
X88749776Y-208010000D02*
X88749776Y-206224888D01*
X97970000Y-172354000D02*
X100449664Y-174833664D01*
X100449664Y-201025000D02*
X99124664Y-202350000D01*
X100449664Y-174833664D02*
X100449664Y-201025000D01*
X88749776Y-206224888D02*
X92624664Y-202350000D01*
X92624664Y-202350000D02*
X99124664Y-202350000D01*
X114699440Y-197149440D02*
X114699440Y-201025000D01*
X102999552Y-206224888D02*
X106874440Y-202350000D01*
X100899664Y-191400000D02*
X103449664Y-193950000D01*
X111500000Y-193950000D02*
X114699440Y-197149440D01*
X97970000Y-169814000D02*
X100899664Y-172743664D01*
X106874440Y-202350000D02*
X113374440Y-202350000D01*
X114699440Y-201025000D02*
X113374440Y-202350000D01*
X102999552Y-208010000D02*
X102999552Y-206224888D01*
X100899664Y-172743664D02*
X100899664Y-191400000D01*
X103449664Y-193950000D02*
X111500000Y-193950000D01*
X117249328Y-208010000D02*
X117249328Y-206224888D01*
X128949216Y-197301167D02*
X128949216Y-201025000D01*
X101349664Y-191213604D02*
X103636060Y-193500000D01*
X103636060Y-193500000D02*
X125148049Y-193500000D01*
X121124216Y-202350000D02*
X127624216Y-202350000D01*
X128949216Y-201025000D02*
X127624216Y-202350000D01*
X125148049Y-193500000D02*
X128949216Y-197301167D01*
X117249328Y-206224888D02*
X121124216Y-202350000D01*
X97970000Y-167274000D02*
X101349664Y-170653664D01*
X101349664Y-170653664D02*
X101349664Y-191213604D01*
X135373992Y-202350000D02*
X141873992Y-202350000D01*
X141873992Y-202350000D02*
X143198992Y-201025000D01*
X131499104Y-206224888D02*
X135373992Y-202350000D01*
X131499104Y-208010000D02*
X131499104Y-206224888D01*
X142397825Y-196500000D02*
X136974325Y-191076500D01*
X143198992Y-197301167D02*
X142397825Y-196500000D01*
X143198992Y-201025000D02*
X143198992Y-197301167D01*
X151950000Y-191802399D02*
X151950000Y-191801000D01*
X145748880Y-206224888D02*
X149623768Y-202350000D01*
X157448768Y-197301167D02*
X155547601Y-195400000D01*
X145748880Y-208010000D02*
X145748880Y-206224888D01*
X156123768Y-202350000D02*
X157448768Y-201025000D01*
X157448768Y-201025000D02*
X157448768Y-197301167D01*
X149623768Y-202350000D02*
X156123768Y-202350000D01*
X155547601Y-195400000D02*
X151950000Y-191802399D01*
X163873544Y-202350000D02*
X170373544Y-202350000D01*
X159998656Y-206224888D02*
X163873544Y-202350000D01*
X171698544Y-197301167D02*
X166922877Y-192525500D01*
X171698544Y-201025000D02*
X171698544Y-197301167D01*
X170373544Y-202350000D02*
X171698544Y-201025000D01*
X159998656Y-208010000D02*
X159998656Y-206224888D01*
X184623334Y-202350000D02*
X178123334Y-202350000D01*
X174248432Y-206224902D02*
X178123334Y-202350000D01*
X174248432Y-208010000D02*
X174248432Y-206224902D01*
X90350000Y-162194000D02*
X87860000Y-159704000D01*
X87860000Y-156199000D02*
X86235000Y-154574000D01*
X87860000Y-159704000D02*
X87860000Y-156199000D01*
X90350000Y-164734000D02*
X87410000Y-161794000D01*
X87410000Y-158289000D02*
X86235000Y-157114000D01*
X87410000Y-161794000D02*
X87410000Y-158289000D01*
X86235000Y-162194000D02*
X87725000Y-163684000D01*
X87725000Y-163684000D02*
X87725000Y-179339990D01*
X96844000Y-181100000D02*
X97970000Y-179974000D01*
X87725000Y-179339990D02*
X89485010Y-181100000D01*
X89485010Y-181100000D02*
X96844000Y-181100000D01*
X82120000Y-104156500D02*
X84660000Y-101616500D01*
X82120000Y-109236500D02*
X82120000Y-104156500D01*
X84660000Y-109236500D02*
X112705000Y-109236500D01*
X112705000Y-109236500D02*
X120325000Y-116856500D01*
X72435000Y-66900000D02*
X72435000Y-69900000D01*
X68330000Y-66900000D02*
X68330000Y-69900000D01*
X52312500Y-69025000D02*
X57710000Y-69025000D01*
X47217500Y-74120000D02*
X52312500Y-69025000D01*
X50962500Y-68375000D02*
X45217500Y-74120000D01*
X57710000Y-68375000D02*
X50962500Y-68375000D01*
X70360000Y-76170000D02*
X68640000Y-76170000D01*
X64910000Y-76175000D02*
X66580500Y-76175000D01*
X62113604Y-78860000D02*
X66776396Y-78860000D01*
X70300000Y-72400000D02*
X70300000Y-67035000D01*
X60940000Y-77686396D02*
X62113604Y-78860000D01*
X67755000Y-74945000D02*
X70300000Y-72400000D01*
X60940000Y-75496396D02*
X60940000Y-77686396D01*
X70300000Y-67035000D02*
X72435000Y-64900000D01*
X59018604Y-73575000D02*
X60940000Y-75496396D01*
X57710000Y-73575000D02*
X59018604Y-73575000D01*
X67755000Y-77881396D02*
X67755000Y-74945000D01*
X66776396Y-78860000D02*
X67755000Y-77881396D01*
X59005000Y-72925000D02*
X57710000Y-72925000D01*
X61390000Y-77500000D02*
X61390000Y-75310000D01*
X66590000Y-78410000D02*
X62300000Y-78410000D01*
X61390000Y-75310000D02*
X59005000Y-72925000D01*
X67305000Y-77695000D02*
X66590000Y-78410000D01*
X68330000Y-64900000D02*
X67305000Y-65925000D01*
X67305000Y-65925000D02*
X67305000Y-77695000D01*
X62300000Y-78410000D02*
X61390000Y-77500000D01*
X58525000Y-67560000D02*
X59140000Y-68175000D01*
X59140000Y-69370000D02*
X58835000Y-69675000D01*
X58835000Y-69675000D02*
X57710000Y-69675000D01*
X56360000Y-67560000D02*
X58525000Y-67560000D01*
X55625000Y-64660000D02*
X55625000Y-66825000D01*
X55625000Y-66825000D02*
X56360000Y-67560000D01*
X59140000Y-68175000D02*
X59140000Y-69370000D01*
X47217500Y-76620000D02*
X53066250Y-76620000D01*
D41*
X48770000Y-58360000D02*
X59010000Y-58360000D01*
X45770000Y-41052500D02*
X45770000Y-55360000D01*
X36710000Y-58360000D02*
X48770000Y-58360000D01*
X45770000Y-55360000D02*
X48770000Y-58360000D01*
D39*
X53625000Y-61740000D02*
X51370000Y-61740000D01*
G04 #@! TA.AperFunction,Conductor*
G36*
X69782121Y-51690002D02*
G01*
X69828614Y-51743658D01*
X69840000Y-51796000D01*
X69840000Y-52404165D01*
X69824408Y-52464878D01*
X69822204Y-52468886D01*
X69811358Y-52485396D01*
X69798943Y-52501402D01*
X69795798Y-52508671D01*
X69795795Y-52508675D01*
X69781383Y-52541980D01*
X69776166Y-52552630D01*
X69754862Y-52591383D01*
X69752891Y-52599058D01*
X69752891Y-52599059D01*
X69749824Y-52611005D01*
X69743420Y-52629709D01*
X69735376Y-52648298D01*
X69734137Y-52656121D01*
X69734134Y-52656131D01*
X69728458Y-52691967D01*
X69726052Y-52703587D01*
X69715057Y-52746413D01*
X69715057Y-52766667D01*
X69713506Y-52786377D01*
X69710337Y-52806386D01*
X69711083Y-52814278D01*
X69714498Y-52850404D01*
X69715057Y-52862262D01*
X69715057Y-59566186D01*
X69714530Y-59577369D01*
X69712855Y-59584862D01*
X69713104Y-59592788D01*
X69713104Y-59592789D01*
X69714995Y-59652939D01*
X69715057Y-59656898D01*
X69715057Y-59684809D01*
X69715554Y-59688743D01*
X69715554Y-59688744D01*
X69715562Y-59688809D01*
X69716495Y-59700646D01*
X69717884Y-59744842D01*
X69723535Y-59764292D01*
X69727544Y-59783653D01*
X69730083Y-59803750D01*
X69733002Y-59811121D01*
X69733002Y-59811123D01*
X69746361Y-59844865D01*
X69750206Y-59856095D01*
X69760328Y-59890936D01*
X69762539Y-59898546D01*
X69766572Y-59905365D01*
X69766574Y-59905370D01*
X69772850Y-59915981D01*
X69781545Y-59933729D01*
X69789005Y-59952570D01*
X69793667Y-59958986D01*
X69793667Y-59958987D01*
X69814993Y-59988340D01*
X69821501Y-59998246D01*
X69822451Y-59999852D01*
X69840000Y-60063996D01*
X69840000Y-62744000D01*
X69819998Y-62812121D01*
X69766342Y-62858614D01*
X69714000Y-62870000D01*
X66239500Y-62870000D01*
X66171379Y-62849998D01*
X66124886Y-62796342D01*
X66113500Y-62744000D01*
X66113500Y-61096000D01*
X66101766Y-60986851D01*
X66090380Y-60934509D01*
X66055710Y-60830343D01*
X65976692Y-60707388D01*
X65930199Y-60653732D01*
X65872218Y-60603491D01*
X65826550Y-60563919D01*
X65826547Y-60563917D01*
X65819739Y-60558018D01*
X65686790Y-60497302D01*
X65663036Y-60490327D01*
X65622992Y-60478569D01*
X65622988Y-60478568D01*
X65618669Y-60477300D01*
X65614220Y-60476660D01*
X65614214Y-60476659D01*
X65478447Y-60457139D01*
X65478442Y-60457139D01*
X65474000Y-60456500D01*
X62949500Y-60456500D01*
X62881379Y-60436498D01*
X62834886Y-60382842D01*
X62823500Y-60330500D01*
X62823500Y-59994000D01*
X62843502Y-59925879D01*
X62897158Y-59879386D01*
X62949500Y-59868000D01*
X63337885Y-59868000D01*
X63353124Y-59863525D01*
X63354329Y-59862135D01*
X63356000Y-59854452D01*
X63356000Y-59849884D01*
X63864000Y-59849884D01*
X63868475Y-59865123D01*
X63869865Y-59866328D01*
X63877548Y-59867999D01*
X64404669Y-59867999D01*
X64411490Y-59867629D01*
X64462352Y-59862105D01*
X64477604Y-59858479D01*
X64598054Y-59813324D01*
X64613649Y-59804786D01*
X64715724Y-59728285D01*
X64728285Y-59715724D01*
X64804786Y-59613649D01*
X64813324Y-59598054D01*
X64858478Y-59477606D01*
X64862105Y-59462351D01*
X64867631Y-59411486D01*
X64868000Y-59404672D01*
X64868000Y-58632115D01*
X64863525Y-58616876D01*
X64862135Y-58615671D01*
X64854452Y-58614000D01*
X63882115Y-58614000D01*
X63866876Y-58618475D01*
X63865671Y-58619865D01*
X63864000Y-58627548D01*
X63864000Y-59849884D01*
X63356000Y-59849884D01*
X63356000Y-58087885D01*
X63864000Y-58087885D01*
X63868475Y-58103124D01*
X63869865Y-58104329D01*
X63877548Y-58106000D01*
X64849884Y-58106000D01*
X64865123Y-58101525D01*
X64866328Y-58100135D01*
X64867999Y-58092452D01*
X64867999Y-57315331D01*
X64867629Y-57308510D01*
X64862105Y-57257648D01*
X64858479Y-57242396D01*
X64813324Y-57121946D01*
X64804786Y-57106351D01*
X64728285Y-57004276D01*
X64715724Y-56991715D01*
X64613649Y-56915214D01*
X64598054Y-56906676D01*
X64477606Y-56861522D01*
X64462351Y-56857895D01*
X64411486Y-56852369D01*
X64404672Y-56852000D01*
X63882115Y-56852000D01*
X63866876Y-56856475D01*
X63865671Y-56857865D01*
X63864000Y-56865548D01*
X63864000Y-58087885D01*
X63356000Y-58087885D01*
X63356000Y-56870116D01*
X63351525Y-56854877D01*
X63350135Y-56853672D01*
X63342452Y-56852001D01*
X62949500Y-56852001D01*
X62881379Y-56831999D01*
X62834886Y-56778343D01*
X62823500Y-56726001D01*
X62823500Y-55159000D01*
X62843502Y-55090879D01*
X62897158Y-55044386D01*
X62949500Y-55033000D01*
X63015385Y-55033000D01*
X63030624Y-55028525D01*
X63031829Y-55027135D01*
X63033500Y-55019452D01*
X63033500Y-55014884D01*
X63541500Y-55014884D01*
X63545975Y-55030123D01*
X63547365Y-55031328D01*
X63555048Y-55032999D01*
X63672095Y-55032999D01*
X63678614Y-55032662D01*
X63774206Y-55022743D01*
X63787600Y-55019851D01*
X63941784Y-54968412D01*
X63954962Y-54962239D01*
X64092807Y-54876937D01*
X64104208Y-54867901D01*
X64218739Y-54753171D01*
X64227751Y-54741760D01*
X64312816Y-54603757D01*
X64318963Y-54590576D01*
X64370138Y-54436290D01*
X64373005Y-54422914D01*
X64382672Y-54328562D01*
X64383000Y-54322146D01*
X64383000Y-54072115D01*
X64378525Y-54056876D01*
X64377135Y-54055671D01*
X64369452Y-54054000D01*
X63559615Y-54054000D01*
X63544376Y-54058475D01*
X63543171Y-54059865D01*
X63541500Y-54067548D01*
X63541500Y-55014884D01*
X63033500Y-55014884D01*
X63033500Y-53527885D01*
X63541500Y-53527885D01*
X63545975Y-53543124D01*
X63547365Y-53544329D01*
X63555048Y-53546000D01*
X64364884Y-53546000D01*
X64380123Y-53541525D01*
X64381328Y-53540135D01*
X64382999Y-53532452D01*
X64382999Y-53277905D01*
X64382662Y-53271386D01*
X64372743Y-53175794D01*
X64369851Y-53162400D01*
X64318412Y-53008216D01*
X64312239Y-52995038D01*
X64226937Y-52857193D01*
X64217901Y-52845792D01*
X64103171Y-52731261D01*
X64091760Y-52722249D01*
X63953757Y-52637184D01*
X63940576Y-52631037D01*
X63786290Y-52579862D01*
X63772914Y-52576995D01*
X63678562Y-52567328D01*
X63672145Y-52567000D01*
X63559615Y-52567000D01*
X63544376Y-52571475D01*
X63543171Y-52572865D01*
X63541500Y-52580548D01*
X63541500Y-53527885D01*
X63033500Y-53527885D01*
X63033500Y-52585116D01*
X63029025Y-52569877D01*
X63027635Y-52568672D01*
X63019952Y-52567001D01*
X62949500Y-52567001D01*
X62881379Y-52546999D01*
X62834886Y-52493343D01*
X62823500Y-52441001D01*
X62823500Y-51796000D01*
X62843502Y-51727879D01*
X62897158Y-51681386D01*
X62949500Y-51670000D01*
X69714000Y-51670000D01*
X69782121Y-51690002D01*
G37*
G04 #@! TD.AperFunction*
G04 #@! TA.AperFunction,Conductor*
G36*
X62252121Y-51690002D02*
G01*
X62298614Y-51743658D01*
X62310000Y-51796000D01*
X62310000Y-52708783D01*
X62289998Y-52776904D01*
X62236342Y-52823397D01*
X62166068Y-52833501D01*
X62101488Y-52804007D01*
X62094982Y-52797956D01*
X62028171Y-52731261D01*
X62016760Y-52722249D01*
X61878757Y-52637184D01*
X61865576Y-52631037D01*
X61711290Y-52579862D01*
X61697914Y-52576995D01*
X61603562Y-52567328D01*
X61597145Y-52567000D01*
X61484615Y-52567000D01*
X61469376Y-52571475D01*
X61468171Y-52572865D01*
X61466500Y-52580548D01*
X61466500Y-55014884D01*
X61470975Y-55030123D01*
X61472365Y-55031328D01*
X61480048Y-55032999D01*
X61597095Y-55032999D01*
X61603614Y-55032662D01*
X61699206Y-55022743D01*
X61712600Y-55019851D01*
X61866784Y-54968412D01*
X61879962Y-54962239D01*
X62017807Y-54876937D01*
X62029208Y-54867901D01*
X62094827Y-54802168D01*
X62157110Y-54768089D01*
X62227930Y-54773092D01*
X62284803Y-54815589D01*
X62309671Y-54882088D01*
X62310000Y-54891186D01*
X62310000Y-56733529D01*
X62289998Y-56801650D01*
X62236342Y-56848143D01*
X62170328Y-56857635D01*
X62170207Y-56858748D01*
X62111486Y-56852369D01*
X62104672Y-56852000D01*
X61582115Y-56852000D01*
X61566876Y-56856475D01*
X61565671Y-56857865D01*
X61564000Y-56865548D01*
X61564000Y-59849884D01*
X61568475Y-59865123D01*
X61569865Y-59866328D01*
X61577548Y-59867999D01*
X62104669Y-59867999D01*
X62111490Y-59867629D01*
X62170207Y-59861252D01*
X62170586Y-59864738D01*
X62225574Y-59867526D01*
X62283280Y-59908885D01*
X62309466Y-59974877D01*
X62310000Y-59986470D01*
X62310000Y-60970000D01*
X65474000Y-60970000D01*
X65542121Y-60990002D01*
X65588614Y-61043658D01*
X65600000Y-61096000D01*
X65600000Y-66774000D01*
X65579998Y-66842121D01*
X65526342Y-66888614D01*
X65474000Y-66900000D01*
X56648095Y-66900000D01*
X56579974Y-66879998D01*
X56559002Y-66863097D01*
X56295404Y-66599499D01*
X56261379Y-66537187D01*
X56258500Y-66510404D01*
X56258500Y-65914046D01*
X56278502Y-65845925D01*
X56318197Y-65806902D01*
X56430620Y-65737332D01*
X56436848Y-65733478D01*
X56465607Y-65704669D01*
X58902001Y-65704669D01*
X58902371Y-65711490D01*
X58907895Y-65762352D01*
X58911521Y-65777604D01*
X58956676Y-65898054D01*
X58965214Y-65913649D01*
X59041715Y-66015724D01*
X59054276Y-66028285D01*
X59156351Y-66104786D01*
X59171946Y-66113324D01*
X59292394Y-66158478D01*
X59307649Y-66162105D01*
X59358514Y-66167631D01*
X59365328Y-66168000D01*
X61037885Y-66168000D01*
X61053124Y-66163525D01*
X61054329Y-66162135D01*
X61056000Y-66154452D01*
X61056000Y-66149884D01*
X61564000Y-66149884D01*
X61568475Y-66165123D01*
X61569865Y-66166328D01*
X61577548Y-66167999D01*
X63254669Y-66167999D01*
X63261490Y-66167629D01*
X63312352Y-66162105D01*
X63327604Y-66158479D01*
X63448054Y-66113324D01*
X63463649Y-66104786D01*
X63565724Y-66028285D01*
X63578285Y-66015724D01*
X63654786Y-65913649D01*
X63663324Y-65898054D01*
X63708478Y-65777606D01*
X63712105Y-65762351D01*
X63717631Y-65711486D01*
X63718000Y-65704672D01*
X63718000Y-64932115D01*
X63713525Y-64916876D01*
X63712135Y-64915671D01*
X63704452Y-64914000D01*
X61582115Y-64914000D01*
X61566876Y-64918475D01*
X61565671Y-64919865D01*
X61564000Y-64927548D01*
X61564000Y-66149884D01*
X61056000Y-66149884D01*
X61056000Y-64932115D01*
X61051525Y-64916876D01*
X61050135Y-64915671D01*
X61042452Y-64914000D01*
X58920116Y-64914000D01*
X58904877Y-64918475D01*
X58903672Y-64919865D01*
X58902001Y-64927548D01*
X58902001Y-65704669D01*
X56465607Y-65704669D01*
X56561805Y-65608303D01*
X56654615Y-65457738D01*
X56710297Y-65289861D01*
X56721000Y-65185400D01*
X56721000Y-64387885D01*
X58902000Y-64387885D01*
X58906475Y-64403124D01*
X58907865Y-64404329D01*
X58915548Y-64406000D01*
X61037885Y-64406000D01*
X61053124Y-64401525D01*
X61054329Y-64400135D01*
X61056000Y-64392452D01*
X61056000Y-64387885D01*
X61564000Y-64387885D01*
X61568475Y-64403124D01*
X61569865Y-64404329D01*
X61577548Y-64406000D01*
X63699884Y-64406000D01*
X63715123Y-64401525D01*
X63716328Y-64400135D01*
X63717999Y-64392452D01*
X63717999Y-63615331D01*
X63717629Y-63608510D01*
X63712105Y-63557648D01*
X63708479Y-63542396D01*
X63663324Y-63421946D01*
X63654786Y-63406351D01*
X63578285Y-63304276D01*
X63565724Y-63291715D01*
X63463649Y-63215214D01*
X63448054Y-63206676D01*
X63327606Y-63161522D01*
X63312351Y-63157895D01*
X63261486Y-63152369D01*
X63254672Y-63152000D01*
X61582115Y-63152000D01*
X61566876Y-63156475D01*
X61565671Y-63157865D01*
X61564000Y-63165548D01*
X61564000Y-64387885D01*
X61056000Y-64387885D01*
X61056000Y-63170116D01*
X61051525Y-63154877D01*
X61050135Y-63153672D01*
X61042452Y-63152001D01*
X59365331Y-63152001D01*
X59358510Y-63152371D01*
X59307648Y-63157895D01*
X59292396Y-63161521D01*
X59171946Y-63206676D01*
X59156351Y-63215214D01*
X59054276Y-63291715D01*
X59041715Y-63304276D01*
X58965214Y-63406351D01*
X58956676Y-63421946D01*
X58911522Y-63542394D01*
X58907895Y-63557649D01*
X58902369Y-63608514D01*
X58902000Y-63615328D01*
X58902000Y-64387885D01*
X56721000Y-64387885D01*
X56721000Y-64134600D01*
X56710026Y-64028834D01*
X56654050Y-63861054D01*
X56560978Y-63710652D01*
X56435803Y-63585695D01*
X56390303Y-63557648D01*
X56291468Y-63496725D01*
X56291466Y-63496724D01*
X56285238Y-63492885D01*
X56205495Y-63466436D01*
X56123889Y-63439368D01*
X56123887Y-63439368D01*
X56117361Y-63437203D01*
X56110525Y-63436503D01*
X56110522Y-63436502D01*
X56067469Y-63432091D01*
X56012900Y-63426500D01*
X55237100Y-63426500D01*
X55233854Y-63426837D01*
X55233850Y-63426837D01*
X55138192Y-63436762D01*
X55138188Y-63436763D01*
X55131334Y-63437474D01*
X55124798Y-63439655D01*
X55124796Y-63439655D01*
X55112837Y-63443645D01*
X54963554Y-63493450D01*
X54952300Y-63500414D01*
X54883848Y-63519250D01*
X54816079Y-63498087D01*
X54770509Y-63443645D01*
X54760000Y-63393268D01*
X54760000Y-62988697D01*
X54780002Y-62920576D01*
X54833658Y-62874083D01*
X54903932Y-62863979D01*
X54938743Y-62876580D01*
X54939609Y-62874723D01*
X54959424Y-62883963D01*
X55113710Y-62935138D01*
X55127086Y-62938005D01*
X55221438Y-62947672D01*
X55227854Y-62948000D01*
X55352885Y-62948000D01*
X55368124Y-62943525D01*
X55369329Y-62942135D01*
X55371000Y-62934452D01*
X55371000Y-62929884D01*
X55879000Y-62929884D01*
X55883475Y-62945123D01*
X55884865Y-62946328D01*
X55892548Y-62947999D01*
X56022095Y-62947999D01*
X56028614Y-62947662D01*
X56124206Y-62937743D01*
X56137600Y-62934851D01*
X56291784Y-62883412D01*
X56304962Y-62877239D01*
X56442807Y-62791937D01*
X56454208Y-62782901D01*
X56568739Y-62668171D01*
X56577751Y-62656760D01*
X56662816Y-62518757D01*
X56668963Y-62505576D01*
X56720138Y-62351290D01*
X56723005Y-62337914D01*
X56732672Y-62243562D01*
X56733000Y-62237146D01*
X56733000Y-62012115D01*
X56728525Y-61996876D01*
X56727135Y-61995671D01*
X56719452Y-61994000D01*
X55897115Y-61994000D01*
X55881876Y-61998475D01*
X55880671Y-61999865D01*
X55879000Y-62007548D01*
X55879000Y-62929884D01*
X55371000Y-62929884D01*
X55371000Y-61467885D01*
X55879000Y-61467885D01*
X55883475Y-61483124D01*
X55884865Y-61484329D01*
X55892548Y-61486000D01*
X56714884Y-61486000D01*
X56730123Y-61481525D01*
X56731328Y-61480135D01*
X56732999Y-61472452D01*
X56732999Y-61242905D01*
X56732662Y-61236386D01*
X56722743Y-61140794D01*
X56719851Y-61127400D01*
X56668412Y-60973216D01*
X56662239Y-60960038D01*
X56576937Y-60822193D01*
X56567901Y-60810792D01*
X56453171Y-60696261D01*
X56441760Y-60687249D01*
X56303757Y-60602184D01*
X56290576Y-60596037D01*
X56136290Y-60544862D01*
X56122914Y-60541995D01*
X56028562Y-60532328D01*
X56022145Y-60532000D01*
X55897115Y-60532000D01*
X55881876Y-60536475D01*
X55880671Y-60537865D01*
X55879000Y-60545548D01*
X55879000Y-61467885D01*
X55371000Y-61467885D01*
X55371000Y-60550116D01*
X55366525Y-60534877D01*
X55365135Y-60533672D01*
X55357452Y-60532001D01*
X55227905Y-60532001D01*
X55221386Y-60532338D01*
X55125794Y-60542257D01*
X55112400Y-60545149D01*
X54958212Y-60596589D01*
X54939451Y-60605378D01*
X54869278Y-60616162D01*
X54804415Y-60587297D01*
X54765454Y-60527946D01*
X54760000Y-60491277D01*
X54760000Y-59494500D01*
X54780002Y-59426379D01*
X54833658Y-59379886D01*
X54886000Y-59368500D01*
X57635507Y-59368500D01*
X57703628Y-59388502D01*
X57750121Y-59442158D01*
X57757543Y-59463763D01*
X57758255Y-59470316D01*
X57809385Y-59606705D01*
X57896739Y-59723261D01*
X58013295Y-59810615D01*
X58149684Y-59861745D01*
X58211866Y-59868500D01*
X59808134Y-59868500D01*
X59870316Y-59861745D01*
X60006705Y-59810615D01*
X60084852Y-59752047D01*
X60151358Y-59727199D01*
X60220741Y-59742252D01*
X60235982Y-59752047D01*
X60306352Y-59804786D01*
X60321946Y-59813324D01*
X60442394Y-59858478D01*
X60457649Y-59862105D01*
X60508514Y-59867631D01*
X60515328Y-59868000D01*
X61037885Y-59868000D01*
X61053124Y-59863525D01*
X61054329Y-59862135D01*
X61056000Y-59854452D01*
X61056000Y-56870116D01*
X61051525Y-56854877D01*
X61050135Y-56853672D01*
X61042452Y-56852001D01*
X60515331Y-56852001D01*
X60508510Y-56852371D01*
X60457648Y-56857895D01*
X60442396Y-56861521D01*
X60321946Y-56906676D01*
X60306352Y-56915214D01*
X60235982Y-56967953D01*
X60169476Y-56992801D01*
X60100093Y-56977748D01*
X60084852Y-56967953D01*
X60082955Y-56966531D01*
X60006705Y-56909385D01*
X59870316Y-56858255D01*
X59808134Y-56851500D01*
X58211866Y-56851500D01*
X58149684Y-56858255D01*
X58013295Y-56909385D01*
X57896739Y-56996739D01*
X57809385Y-57113295D01*
X57758255Y-57249684D01*
X57757628Y-57255453D01*
X57722874Y-57316291D01*
X57659919Y-57349113D01*
X57635507Y-57351500D01*
X54886000Y-57351500D01*
X54817879Y-57331498D01*
X54771386Y-57277842D01*
X54760000Y-57225500D01*
X54760000Y-54322095D01*
X60117001Y-54322095D01*
X60117338Y-54328614D01*
X60127257Y-54424206D01*
X60130149Y-54437600D01*
X60181588Y-54591784D01*
X60187761Y-54604962D01*
X60273063Y-54742807D01*
X60282099Y-54754208D01*
X60396829Y-54868739D01*
X60408240Y-54877751D01*
X60546243Y-54962816D01*
X60559424Y-54968963D01*
X60713710Y-55020138D01*
X60727086Y-55023005D01*
X60821438Y-55032672D01*
X60827854Y-55033000D01*
X60940385Y-55033000D01*
X60955624Y-55028525D01*
X60956829Y-55027135D01*
X60958500Y-55019452D01*
X60958500Y-54072115D01*
X60954025Y-54056876D01*
X60952635Y-54055671D01*
X60944952Y-54054000D01*
X60135116Y-54054000D01*
X60119877Y-54058475D01*
X60118672Y-54059865D01*
X60117001Y-54067548D01*
X60117001Y-54322095D01*
X54760000Y-54322095D01*
X54760000Y-53527885D01*
X60117000Y-53527885D01*
X60121475Y-53543124D01*
X60122865Y-53544329D01*
X60130548Y-53546000D01*
X60940385Y-53546000D01*
X60955624Y-53541525D01*
X60956829Y-53540135D01*
X60958500Y-53532452D01*
X60958500Y-52585116D01*
X60954025Y-52569877D01*
X60952635Y-52568672D01*
X60944952Y-52567001D01*
X60827905Y-52567001D01*
X60821386Y-52567338D01*
X60725794Y-52577257D01*
X60712400Y-52580149D01*
X60558216Y-52631588D01*
X60545038Y-52637761D01*
X60407193Y-52723063D01*
X60395792Y-52732099D01*
X60281261Y-52846829D01*
X60272249Y-52858240D01*
X60187184Y-52996243D01*
X60181037Y-53009424D01*
X60129862Y-53163710D01*
X60126995Y-53177086D01*
X60117328Y-53271438D01*
X60117000Y-53277855D01*
X60117000Y-53527885D01*
X54760000Y-53527885D01*
X54760000Y-51796000D01*
X54780002Y-51727879D01*
X54833658Y-51681386D01*
X54886000Y-51670000D01*
X62184000Y-51670000D01*
X62252121Y-51690002D01*
G37*
G04 #@! TD.AperFunction*
M02*
