  0
SECTION
  2
HEADER
  9
$ANGBASE
  50
0.0
  9
$ANGDIR
  70
1
  9
$MEASUREMENT
  70
1
  0
ENDSEC
  0
SECTION
  2
TABLES
  0
TABLE
  2
LTYPE
  70
4
  0
LTYPE
  5
40F
  2
CONTINUOUS
  70
0
  3
Solid line
  72
65
  73
0
  40
0.0
  0
LTYPE
  5
410
  2
DASHDOT
 70
0
  3
Dash Dot ____ _ ____ _
 72
65
 73
4
 40
2.0
 49
1.25
 49
-0.25
 49
0.25
 49
-0.25
  0
LTYPE
  5
411
  2
DASHED
 70
0
  3
Dashed __ __ __ __ __
 72
65
 73
2
 40
0.75
 49
0.5
 49
-0.25
  0
LTYPE
  5
43B
  2
DOTTED
 70
0
  3
Dotted .  .  .  .
 72
65
 73
2
 40
0.2
 49
0.0
 49
-0.2
  0
ENDTAB
  0
TABLE
  2
STYLE
  70
4
  0
STYLE
  2
KICAD
  70
0
  40
0
  41
1
  42
1
  50
0
  71
0
  3
isocp.shx
  0
STYLE
  2
KICADB
  70
0
  40
0
  41
1
  42
1
  50
0
  71
0
  3
isocp.shx
  0
STYLE
  2
KICADI
  70
0
  40
0
  41
1
  42
1
  50
15
  71
0
  3
isocp.shx
  0
STYLE
  2
KICADBI
  70
0
  40
0
  41
1
  42
1
  50
15
  71
0
  3
isocp.shx
  0
ENDTAB
  0
TABLE
  2
LAYER
  70
1
  0
LAYER
  2
BLACK
  70
0
  62
7
  6
CONTINUOUS
  0
ENDTAB
  0
ENDSEC
  0
SECTION
  2
ENTITIES
0
ARC
8
BLACK
10
157.893
20
-24.8482
40
1.196
50
-3.20732
51
86.8045
0
LINE
8
BLACK
6
CONTINUOUS
10
32.826
20
-226.043
11
157.826
21
-226.043
0
ARC
8
BLACK
10
32.8927
20
-24.8483
40
1.19605
50
86.7952
51
176.799
0
LINE
8
BLACK
6
CONTINUOUS
10
157.96
20
-23.6541
11
32.9596
21
-23.6541
0
ARC
8
BLACK
10
157.893
20
-224.848
40
1.19609
50
-93.2028
51
-3.20227
0
LINE
8
BLACK
6
CONTINUOUS
10
159.087
20
-24.9151
11
159.087
21
-224.915
0
ARC
8
BLACK
10
32.8929
20
-224.848
40
1.19625
50
-183.195
51
-93.2073
0
LINE
8
BLACK
6
CONTINUOUS
10
31.6985
20
-24.7815
11
31.6985
21
-224.782
0
LINE
8
BLACK
6
CONTINUOUS
10
47.526
20
-36.286
11
51.026
21
-39.786
0
LINE
8
BLACK
6
CONTINUOUS
10
51.026
20
-36.286
11
47.526
21
-39.786
0
LINE
8
BLACK
6
CONTINUOUS
10
34.2228
20
-229.199
11
34.2228
21
-227.199
0
LINE
8
BLACK
6
CONTINUOUS
10
34.2228
20
-227.199
11
34.699
21
-227.199
0
LINE
8
BLACK
6
CONTINUOUS
10
34.699
20
-227.199
11
34.9847
21
-227.294
0
LINE
8
BLACK
6
CONTINUOUS
10
34.9847
20
-227.294
11
35.1752
21
-227.485
0
LINE
8
BLACK
6
CONTINUOUS
10
35.1752
20
-227.485
11
35.2705
21
-227.675
0
LINE
8
BLACK
6
CONTINUOUS
10
35.2705
20
-227.675
11
35.3657
21
-228.056
0
LINE
8
BLACK
6
CONTINUOUS
10
35.3657
20
-228.056
11
35.3657
21
-228.342
0
LINE
8
BLACK
6
CONTINUOUS
10
35.3657
20
-228.342
11
35.2705
21
-228.723
0
LINE
8
BLACK
6
CONTINUOUS
10
35.2705
20
-228.723
11
35.1752
21
-228.913
0
LINE
8
BLACK
6
CONTINUOUS
10
35.1752
20
-228.913
11
34.9847
21
-229.104
0
LINE
8
BLACK
6
CONTINUOUS
10
34.9847
20
-229.104
11
34.699
21
-229.199
0
LINE
8
BLACK
6
CONTINUOUS
10
34.699
20
-229.199
11
34.2228
21
-229.199
0
LINE
8
BLACK
6
CONTINUOUS
10
36.2228
20
-229.199
11
36.2228
21
-227.866
0
LINE
8
BLACK
6
CONTINUOUS
10
36.2228
20
-228.247
11
36.3181
21
-228.056
0
LINE
8
BLACK
6
CONTINUOUS
10
36.3181
20
-228.056
11
36.4133
21
-227.961
0
LINE
8
BLACK
6
CONTINUOUS
10
36.4133
20
-227.961
11
36.6038
21
-227.866
0
LINE
8
BLACK
6
CONTINUOUS
10
36.6038
20
-227.866
11
36.7943
21
-227.866
0
LINE
8
BLACK
6
CONTINUOUS
10
37.4609
20
-229.199
11
37.4609
21
-227.866
0
LINE
8
BLACK
6
CONTINUOUS
10
37.4609
20
-227.199
11
37.3657
21
-227.294
0
LINE
8
BLACK
6
CONTINUOUS
10
37.3657
20
-227.294
11
37.4609
21
-227.39
0
LINE
8
BLACK
6
CONTINUOUS
10
37.4609
20
-227.39
11
37.5562
21
-227.294
0
LINE
8
BLACK
6
CONTINUOUS
10
37.5562
20
-227.294
11
37.4609
21
-227.199
0
LINE
8
BLACK
6
CONTINUOUS
10
37.4609
20
-227.199
11
37.4609
21
-227.39
0
LINE
8
BLACK
6
CONTINUOUS
10
38.699
20
-229.199
11
38.5086
21
-229.104
0
LINE
8
BLACK
6
CONTINUOUS
10
38.5086
20
-229.104
11
38.4133
21
-228.913
0
LINE
8
BLACK
6
CONTINUOUS
10
38.4133
20
-228.913
11
38.4133
21
-227.199
0
LINE
8
BLACK
6
CONTINUOUS
10
39.7467
20
-229.199
11
39.5562
21
-229.104
0
LINE
8
BLACK
6
CONTINUOUS
10
39.5562
20
-229.104
11
39.4609
21
-228.913
0
LINE
8
BLACK
6
CONTINUOUS
10
39.4609
20
-228.913
11
39.4609
21
-227.199
0
LINE
8
BLACK
6
CONTINUOUS
10
42.0324
20
-229.199
11
42.0324
21
-227.199
0
LINE
8
BLACK
6
CONTINUOUS
10
42.0324
20
-227.199
11
42.699
21
-228.628
0
LINE
8
BLACK
6
CONTINUOUS
10
42.699
20
-228.628
11
43.3657
21
-227.199
0
LINE
8
BLACK
6
CONTINUOUS
10
43.3657
20
-227.199
11
43.3657
21
-229.199
0
LINE
8
BLACK
6
CONTINUOUS
10
45.1752
20
-229.199
11
45.1752
21
-228.152
0
LINE
8
BLACK
6
CONTINUOUS
10
45.1752
20
-228.152
11
45.08
21
-227.961
0
LINE
8
BLACK
6
CONTINUOUS
10
45.08
20
-227.961
11
44.8895
21
-227.866
0
LINE
8
BLACK
6
CONTINUOUS
10
44.8895
20
-227.866
11
44.5086
21
-227.866
0
LINE
8
BLACK
6
CONTINUOUS
10
44.5086
20
-227.866
11
44.3181
21
-227.961
0
LINE
8
BLACK
6
CONTINUOUS
10
45.1752
20
-229.104
11
44.9847
21
-229.199
0
LINE
8
BLACK
6
CONTINUOUS
10
44.9847
20
-229.199
11
44.5086
21
-229.199
0
LINE
8
BLACK
6
CONTINUOUS
10
44.5086
20
-229.199
11
44.3181
21
-229.104
0
LINE
8
BLACK
6
CONTINUOUS
10
44.3181
20
-229.104
11
44.2228
21
-228.913
0
LINE
8
BLACK
6
CONTINUOUS
10
44.2228
20
-228.913
11
44.2228
21
-228.723
0
LINE
8
BLACK
6
CONTINUOUS
10
44.2228
20
-228.723
11
44.3181
21
-228.532
0
LINE
8
BLACK
6
CONTINUOUS
10
44.3181
20
-228.532
11
44.5086
21
-228.437
0
LINE
8
BLACK
6
CONTINUOUS
10
44.5086
20
-228.437
11
44.9847
21
-228.437
0
LINE
8
BLACK
6
CONTINUOUS
10
44.9847
20
-228.437
11
45.1752
21
-228.342
0
LINE
8
BLACK
6
CONTINUOUS
10
46.1276
20
-227.866
11
46.1276
21
-229.866
0
LINE
8
BLACK
6
CONTINUOUS
10
46.1276
20
-227.961
11
46.3181
21
-227.866
0
LINE
8
BLACK
6
CONTINUOUS
10
46.3181
20
-227.866
11
46.699
21
-227.866
0
LINE
8
BLACK
6
CONTINUOUS
10
46.699
20
-227.866
11
46.8895
21
-227.961
0
LINE
8
BLACK
6
CONTINUOUS
10
46.8895
20
-227.961
11
46.9847
21
-228.056
0
LINE
8
BLACK
6
CONTINUOUS
10
46.9847
20
-228.056
11
47.08
21
-228.247
0
LINE
8
BLACK
6
CONTINUOUS
10
47.08
20
-228.247
11
47.08
21
-228.818
0
LINE
8
BLACK
6
CONTINUOUS
10
47.08
20
-228.818
11
46.9847
21
-229.009
0
LINE
8
BLACK
6
CONTINUOUS
10
46.9847
20
-229.009
11
46.8895
21
-229.104
0
LINE
8
BLACK
6
CONTINUOUS
10
46.8895
20
-229.104
11
46.699
21
-229.199
0
LINE
8
BLACK
6
CONTINUOUS
10
46.699
20
-229.199
11
46.3181
21
-229.199
0
LINE
8
BLACK
6
CONTINUOUS
10
46.3181
20
-229.199
11
46.1276
21
-229.104
0
LINE
8
BLACK
6
CONTINUOUS
10
47.9371
20
-229.009
11
48.0324
21
-229.104
0
LINE
8
BLACK
6
CONTINUOUS
10
48.0324
20
-229.104
11
47.9371
21
-229.199
0
LINE
8
BLACK
6
CONTINUOUS
10
47.9371
20
-229.199
11
47.8419
21
-229.104
0
LINE
8
BLACK
6
CONTINUOUS
10
47.8419
20
-229.104
11
47.9371
21
-229.009
0
LINE
8
BLACK
6
CONTINUOUS
10
47.9371
20
-229.009
11
47.9371
21
-229.199
0
LINE
8
BLACK
6
CONTINUOUS
10
47.9371
20
-227.961
11
48.0324
21
-228.056
0
LINE
8
BLACK
6
CONTINUOUS
10
48.0324
20
-228.056
11
47.9371
21
-228.152
0
LINE
8
BLACK
6
CONTINUOUS
10
47.9371
20
-228.152
11
47.8419
21
-228.056
0
LINE
8
BLACK
6
CONTINUOUS
10
47.8419
20
-228.056
11
47.9371
21
-227.961
0
LINE
8
BLACK
6
CONTINUOUS
10
47.9371
20
-227.961
11
47.9371
21
-228.152
0
LINE
8
BLACK
6
CONTINUOUS
10
29.6467
20
-231.494
11
31.6467
21
-233.494
0
LINE
8
BLACK
6
CONTINUOUS
10
31.6467
20
-231.494
11
29.6467
21
-233.494
0
LINE
8
BLACK
6
CONTINUOUS
10
34.0324
20
-231.399
11
35.2705
21
-231.399
0
LINE
8
BLACK
6
CONTINUOUS
10
35.2705
20
-231.399
11
34.6038
21
-232.161
0
LINE
8
BLACK
6
CONTINUOUS
10
34.6038
20
-232.161
11
34.8895
21
-232.161
0
LINE
8
BLACK
6
CONTINUOUS
10
34.8895
20
-232.161
11
35.08
21
-232.256
0
LINE
8
BLACK
6
CONTINUOUS
10
35.08
20
-232.256
11
35.1752
21
-232.352
0
LINE
8
BLACK
6
CONTINUOUS
10
35.1752
20
-232.352
11
35.2705
21
-232.542
0
LINE
8
BLACK
6
CONTINUOUS
10
35.2705
20
-232.542
11
35.2705
21
-233.018
0
LINE
8
BLACK
6
CONTINUOUS
10
35.2705
20
-233.018
11
35.1752
21
-233.209
0
LINE
8
BLACK
6
CONTINUOUS
10
35.1752
20
-233.209
11
35.08
21
-233.304
0
LINE
8
BLACK
6
CONTINUOUS
10
35.08
20
-233.304
11
34.8895
21
-233.399
0
LINE
8
BLACK
6
CONTINUOUS
10
34.8895
20
-233.399
11
34.3181
21
-233.399
0
LINE
8
BLACK
6
CONTINUOUS
10
34.3181
20
-233.399
11
34.1276
21
-233.304
0
LINE
8
BLACK
6
CONTINUOUS
10
34.1276
20
-233.304
11
34.0324
21
-233.209
0
LINE
8
BLACK
6
CONTINUOUS
10
36.1276
20
-233.209
11
36.2228
21
-233.304
0
LINE
8
BLACK
6
CONTINUOUS
10
36.2228
20
-233.304
11
36.1276
21
-233.399
0
LINE
8
BLACK
6
CONTINUOUS
10
36.1276
20
-233.399
11
36.0324
21
-233.304
0
LINE
8
BLACK
6
CONTINUOUS
10
36.0324
20
-233.304
11
36.1276
21
-233.209
0
LINE
8
BLACK
6
CONTINUOUS
10
36.1276
20
-233.209
11
36.1276
21
-233.399
0
LINE
8
BLACK
6
CONTINUOUS
10
38.0324
20
-231.399
11
37.08
21
-231.399
0
LINE
8
BLACK
6
CONTINUOUS
10
37.08
20
-231.399
11
36.9847
21
-232.352
0
LINE
8
BLACK
6
CONTINUOUS
10
36.9847
20
-232.352
11
37.08
21
-232.256
0
LINE
8
BLACK
6
CONTINUOUS
10
37.08
20
-232.256
11
37.2705
21
-232.161
0
LINE
8
BLACK
6
CONTINUOUS
10
37.2705
20
-232.161
11
37.7467
21
-232.161
0
LINE
8
BLACK
6
CONTINUOUS
10
37.7467
20
-232.161
11
37.9371
21
-232.256
0
LINE
8
BLACK
6
CONTINUOUS
10
37.9371
20
-232.256
11
38.0324
21
-232.352
0
LINE
8
BLACK
6
CONTINUOUS
10
38.0324
20
-232.352
11
38.1276
21
-232.542
0
LINE
8
BLACK
6
CONTINUOUS
10
38.1276
20
-232.542
11
38.1276
21
-233.018
0
LINE
8
BLACK
6
CONTINUOUS
10
38.1276
20
-233.018
11
38.0324
21
-233.209
0
LINE
8
BLACK
6
CONTINUOUS
10
38.0324
20
-233.209
11
37.9371
21
-233.304
0
LINE
8
BLACK
6
CONTINUOUS
10
37.9371
20
-233.304
11
37.7467
21
-233.399
0
LINE
8
BLACK
6
CONTINUOUS
10
37.7467
20
-233.399
11
37.2705
21
-233.399
0
LINE
8
BLACK
6
CONTINUOUS
10
37.2705
20
-233.399
11
37.08
21
-233.304
0
LINE
8
BLACK
6
CONTINUOUS
10
37.08
20
-233.304
11
36.9847
21
-233.209
0
LINE
8
BLACK
6
CONTINUOUS
10
39.3657
20
-231.399
11
39.5562
21
-231.399
0
LINE
8
BLACK
6
CONTINUOUS
10
39.5562
20
-231.399
11
39.7467
21
-231.494
0
LINE
8
BLACK
6
CONTINUOUS
10
39.7467
20
-231.494
11
39.8419
21
-231.59
0
LINE
8
BLACK
6
CONTINUOUS
10
39.8419
20
-231.59
11
39.9371
21
-231.78
0
LINE
8
BLACK
6
CONTINUOUS
10
39.9371
20
-231.78
11
40.0324
21
-232.161
0
LINE
8
BLACK
6
CONTINUOUS
10
40.0324
20
-232.161
11
40.0324
21
-232.637
0
LINE
8
BLACK
6
CONTINUOUS
10
40.0324
20
-232.637
11
39.9371
21
-233.018
0
LINE
8
BLACK
6
CONTINUOUS
10
39.9371
20
-233.018
11
39.8419
21
-233.209
0
LINE
8
BLACK
6
CONTINUOUS
10
39.8419
20
-233.209
11
39.7467
21
-233.304
0
LINE
8
BLACK
6
CONTINUOUS
10
39.7467
20
-233.304
11
39.5562
21
-233.399
0
LINE
8
BLACK
6
CONTINUOUS
10
39.5562
20
-233.399
11
39.3657
21
-233.399
0
LINE
8
BLACK
6
CONTINUOUS
10
39.3657
20
-233.399
11
39.1752
21
-233.304
0
LINE
8
BLACK
6
CONTINUOUS
10
39.1752
20
-233.304
11
39.08
21
-233.209
0
LINE
8
BLACK
6
CONTINUOUS
10
39.08
20
-233.209
11
38.9847
21
-233.018
0
LINE
8
BLACK
6
CONTINUOUS
10
38.9847
20
-233.018
11
38.8895
21
-232.637
0
LINE
8
BLACK
6
CONTINUOUS
10
38.8895
20
-232.637
11
38.8895
21
-232.161
0
LINE
8
BLACK
6
CONTINUOUS
10
38.8895
20
-232.161
11
38.9847
21
-231.78
0
LINE
8
BLACK
6
CONTINUOUS
10
38.9847
20
-231.78
11
39.08
21
-231.59
0
LINE
8
BLACK
6
CONTINUOUS
10
39.08
20
-231.59
11
39.1752
21
-231.494
0
LINE
8
BLACK
6
CONTINUOUS
10
39.1752
20
-231.494
11
39.3657
21
-231.399
0
LINE
8
BLACK
6
CONTINUOUS
10
41.2705
20
-231.399
11
41.4609
21
-231.399
0
LINE
8
BLACK
6
CONTINUOUS
10
41.4609
20
-231.399
11
41.6514
21
-231.494
0
LINE
8
BLACK
6
CONTINUOUS
10
41.6514
20
-231.494
11
41.7467
21
-231.59
0
LINE
8
BLACK
6
CONTINUOUS
10
41.7467
20
-231.59
11
41.8419
21
-231.78
0
LINE
8
BLACK
6
CONTINUOUS
10
41.8419
20
-231.78
11
41.9371
21
-232.161
0
LINE
8
BLACK
6
CONTINUOUS
10
41.9371
20
-232.161
11
41.9371
21
-232.637
0
LINE
8
BLACK
6
CONTINUOUS
10
41.9371
20
-232.637
11
41.8419
21
-233.018
0
LINE
8
BLACK
6
CONTINUOUS
10
41.8419
20
-233.018
11
41.7467
21
-233.209
0
LINE
8
BLACK
6
CONTINUOUS
10
41.7467
20
-233.209
11
41.6514
21
-233.304
0
LINE
8
BLACK
6
CONTINUOUS
10
41.6514
20
-233.304
11
41.4609
21
-233.399
0
LINE
8
BLACK
6
CONTINUOUS
10
41.4609
20
-233.399
11
41.2705
21
-233.399
0
LINE
8
BLACK
6
CONTINUOUS
10
41.2705
20
-233.399
11
41.08
21
-233.304
0
LINE
8
BLACK
6
CONTINUOUS
10
41.08
20
-233.304
11
40.9847
21
-233.209
0
LINE
8
BLACK
6
CONTINUOUS
10
40.9847
20
-233.209
11
40.8895
21
-233.018
0
LINE
8
BLACK
6
CONTINUOUS
10
40.8895
20
-233.018
11
40.7943
21
-232.637
0
LINE
8
BLACK
6
CONTINUOUS
10
40.7943
20
-232.637
11
40.7943
21
-232.161
0
LINE
8
BLACK
6
CONTINUOUS
10
40.7943
20
-232.161
11
40.8895
21
-231.78
0
LINE
8
BLACK
6
CONTINUOUS
10
40.8895
20
-231.78
11
40.9847
21
-231.59
0
LINE
8
BLACK
6
CONTINUOUS
10
40.9847
20
-231.59
11
41.08
21
-231.494
0
LINE
8
BLACK
6
CONTINUOUS
10
41.08
20
-231.494
11
41.2705
21
-231.399
0
LINE
8
BLACK
6
CONTINUOUS
10
42.7943
20
-233.399
11
42.7943
21
-232.066
0
LINE
8
BLACK
6
CONTINUOUS
10
42.7943
20
-232.256
11
42.8895
21
-232.161
0
LINE
8
BLACK
6
CONTINUOUS
10
42.8895
20
-232.161
11
43.08
21
-232.066
0
LINE
8
BLACK
6
CONTINUOUS
10
43.08
20
-232.066
11
43.3657
21
-232.066
0
LINE
8
BLACK
6
CONTINUOUS
10
43.3657
20
-232.066
11
43.5562
21
-232.161
0
LINE
8
BLACK
6
CONTINUOUS
10
43.5562
20
-232.161
11
43.6514
21
-232.352
0
LINE
8
BLACK
6
CONTINUOUS
10
43.6514
20
-232.352
11
43.6514
21
-233.399
0
LINE
8
BLACK
6
CONTINUOUS
10
43.6514
20
-232.352
11
43.7467
21
-232.161
0
LINE
8
BLACK
6
CONTINUOUS
10
43.7467
20
-232.161
11
43.9371
21
-232.066
0
LINE
8
BLACK
6
CONTINUOUS
10
43.9371
20
-232.066
11
44.2228
21
-232.066
0
LINE
8
BLACK
6
CONTINUOUS
10
44.2228
20
-232.066
11
44.4133
21
-232.161
0
LINE
8
BLACK
6
CONTINUOUS
10
44.4133
20
-232.161
11
44.5086
21
-232.352
0
LINE
8
BLACK
6
CONTINUOUS
10
44.5086
20
-232.352
11
44.5086
21
-233.399
0
LINE
8
BLACK
6
CONTINUOUS
10
45.4609
20
-233.399
11
45.4609
21
-232.066
0
LINE
8
BLACK
6
CONTINUOUS
10
45.4609
20
-232.256
11
45.5562
21
-232.161
0
LINE
8
BLACK
6
CONTINUOUS
10
45.5562
20
-232.161
11
45.7467
21
-232.066
0
LINE
8
BLACK
6
CONTINUOUS
10
45.7467
20
-232.066
11
46.0324
21
-232.066
0
LINE
8
BLACK
6
CONTINUOUS
10
46.0324
20
-232.066
11
46.2228
21
-232.161
0
LINE
8
BLACK
6
CONTINUOUS
10
46.2228
20
-232.161
11
46.3181
21
-232.352
0
LINE
8
BLACK
6
CONTINUOUS
10
46.3181
20
-232.352
11
46.3181
21
-233.399
0
LINE
8
BLACK
6
CONTINUOUS
10
46.3181
20
-232.352
11
46.4133
21
-232.161
0
LINE
8
BLACK
6
CONTINUOUS
10
46.4133
20
-232.161
11
46.6038
21
-232.066
0
LINE
8
BLACK
6
CONTINUOUS
10
46.6038
20
-232.066
11
46.8895
21
-232.066
0
LINE
8
BLACK
6
CONTINUOUS
10
46.8895
20
-232.066
11
47.08
21
-232.161
0
LINE
8
BLACK
6
CONTINUOUS
10
47.08
20
-232.161
11
47.1752
21
-232.352
0
LINE
8
BLACK
6
CONTINUOUS
10
47.1752
20
-232.352
11
47.1752
21
-233.399
0
LINE
8
BLACK
6
CONTINUOUS
10
51.08
20
-231.304
11
49.3657
21
-233.875
0
LINE
8
BLACK
6
CONTINUOUS
10
53.6514
20
-231.399
11
53.8419
21
-231.399
0
LINE
8
BLACK
6
CONTINUOUS
10
53.8419
20
-231.399
11
54.0324
21
-231.494
0
LINE
8
BLACK
6
CONTINUOUS
10
54.0324
20
-231.494
11
54.1276
21
-231.59
0
LINE
8
BLACK
6
CONTINUOUS
10
54.1276
20
-231.59
11
54.2228
21
-231.78
0
LINE
8
BLACK
6
CONTINUOUS
10
54.2228
20
-231.78
11
54.3181
21
-232.161
0
LINE
8
BLACK
6
CONTINUOUS
10
54.3181
20
-232.161
11
54.3181
21
-232.637
0
LINE
8
BLACK
6
CONTINUOUS
10
54.3181
20
-232.637
11
54.2228
21
-233.018
0
LINE
8
BLACK
6
CONTINUOUS
10
54.2228
20
-233.018
11
54.1276
21
-233.209
0
LINE
8
BLACK
6
CONTINUOUS
10
54.1276
20
-233.209
11
54.0324
21
-233.304
0
LINE
8
BLACK
6
CONTINUOUS
10
54.0324
20
-233.304
11
53.8419
21
-233.399
0
LINE
8
BLACK
6
CONTINUOUS
10
53.8419
20
-233.399
11
53.6514
21
-233.399
0
LINE
8
BLACK
6
CONTINUOUS
10
53.6514
20
-233.399
11
53.4609
21
-233.304
0
LINE
8
BLACK
6
CONTINUOUS
10
53.4609
20
-233.304
11
53.3657
21
-233.209
0
LINE
8
BLACK
6
CONTINUOUS
10
53.3657
20
-233.209
11
53.2705
21
-233.018
0
LINE
8
BLACK
6
CONTINUOUS
10
53.2705
20
-233.018
11
53.1752
21
-232.637
0
LINE
8
BLACK
6
CONTINUOUS
10
53.1752
20
-232.637
11
53.1752
21
-232.161
0
LINE
8
BLACK
6
CONTINUOUS
10
53.1752
20
-232.161
11
53.2705
21
-231.78
0
LINE
8
BLACK
6
CONTINUOUS
10
53.2705
20
-231.78
11
53.3657
21
-231.59
0
LINE
8
BLACK
6
CONTINUOUS
10
53.3657
20
-231.59
11
53.4609
21
-231.494
0
LINE
8
BLACK
6
CONTINUOUS
10
53.4609
20
-231.494
11
53.6514
21
-231.399
0
LINE
8
BLACK
6
CONTINUOUS
10
55.1752
20
-233.209
11
55.2705
21
-233.304
0
LINE
8
BLACK
6
CONTINUOUS
10
55.2705
20
-233.304
11
55.1752
21
-233.399
0
LINE
8
BLACK
6
CONTINUOUS
10
55.1752
20
-233.399
11
55.08
21
-233.304
0
LINE
8
BLACK
6
CONTINUOUS
10
55.08
20
-233.304
11
55.1752
21
-233.209
0
LINE
8
BLACK
6
CONTINUOUS
10
55.1752
20
-233.209
11
55.1752
21
-233.399
0
LINE
8
BLACK
6
CONTINUOUS
10
57.1752
20
-233.399
11
56.0324
21
-233.399
0
LINE
8
BLACK
6
CONTINUOUS
10
56.6038
20
-233.399
11
56.6038
21
-231.399
0
LINE
8
BLACK
6
CONTINUOUS
10
56.6038
20
-231.399
11
56.4133
21
-231.685
0
LINE
8
BLACK
6
CONTINUOUS
10
56.4133
20
-231.685
11
56.2228
21
-231.875
0
LINE
8
BLACK
6
CONTINUOUS
10
56.2228
20
-231.875
11
56.0324
21
-231.971
0
LINE
8
BLACK
6
CONTINUOUS
10
57.8419
20
-231.399
11
59.08
21
-231.399
0
LINE
8
BLACK
6
CONTINUOUS
10
59.08
20
-231.399
11
58.4133
21
-232.161
0
LINE
8
BLACK
6
CONTINUOUS
10
58.4133
20
-232.161
11
58.699
21
-232.161
0
LINE
8
BLACK
6
CONTINUOUS
10
58.699
20
-232.161
11
58.8895
21
-232.256
0
LINE
8
BLACK
6
CONTINUOUS
10
58.8895
20
-232.256
11
58.9847
21
-232.352
0
LINE
8
BLACK
6
CONTINUOUS
10
58.9847
20
-232.352
11
59.08
21
-232.542
0
LINE
8
BLACK
6
CONTINUOUS
10
59.08
20
-232.542
11
59.08
21
-233.018
0
LINE
8
BLACK
6
CONTINUOUS
10
59.08
20
-233.018
11
58.9847
21
-233.209
0
LINE
8
BLACK
6
CONTINUOUS
10
58.9847
20
-233.209
11
58.8895
21
-233.304
0
LINE
8
BLACK
6
CONTINUOUS
10
58.8895
20
-233.304
11
58.699
21
-233.399
0
LINE
8
BLACK
6
CONTINUOUS
10
58.699
20
-233.399
11
58.1276
21
-233.399
0
LINE
8
BLACK
6
CONTINUOUS
10
58.1276
20
-233.399
11
57.9371
21
-233.304
0
LINE
8
BLACK
6
CONTINUOUS
10
57.9371
20
-233.304
11
57.8419
21
-233.209
0
LINE
8
BLACK
6
CONTINUOUS
10
59.7467
20
-231.399
11
61.08
21
-231.399
0
LINE
8
BLACK
6
CONTINUOUS
10
61.08
20
-231.399
11
60.2228
21
-233.399
0
LINE
8
BLACK
6
CONTINUOUS
10
62.1276
20
-232.256
11
61.9371
21
-232.161
0
LINE
8
BLACK
6
CONTINUOUS
10
61.9371
20
-232.161
11
61.8419
21
-232.066
0
LINE
8
BLACK
6
CONTINUOUS
10
61.8419
20
-232.066
11
61.7467
21
-231.875
0
LINE
8
BLACK
6
CONTINUOUS
10
61.7467
20
-231.875
11
61.7467
21
-231.78
0
LINE
8
BLACK
6
CONTINUOUS
10
61.7467
20
-231.78
11
61.8419
21
-231.59
0
LINE
8
BLACK
6
CONTINUOUS
10
61.8419
20
-231.59
11
61.9371
21
-231.494
0
LINE
8
BLACK
6
CONTINUOUS
10
61.9371
20
-231.494
11
62.1276
21
-231.399
0
LINE
8
BLACK
6
CONTINUOUS
10
62.1276
20
-231.399
11
62.5086
21
-231.399
0
LINE
8
BLACK
6
CONTINUOUS
10
62.5086
20
-231.399
11
62.699
21
-231.494
0
LINE
8
BLACK
6
CONTINUOUS
10
62.699
20
-231.494
11
62.7943
21
-231.59
0
LINE
8
BLACK
6
CONTINUOUS
10
62.7943
20
-231.59
11
62.8895
21
-231.78
0
LINE
8
BLACK
6
CONTINUOUS
10
62.8895
20
-231.78
11
62.8895
21
-231.875
0
LINE
8
BLACK
6
CONTINUOUS
10
62.8895
20
-231.875
11
62.7943
21
-232.066
0
LINE
8
BLACK
6
CONTINUOUS
10
62.7943
20
-232.066
11
62.699
21
-232.161
0
LINE
8
BLACK
6
CONTINUOUS
10
62.699
20
-232.161
11
62.5086
21
-232.256
0
LINE
8
BLACK
6
CONTINUOUS
10
62.5086
20
-232.256
11
62.1276
21
-232.256
0
LINE
8
BLACK
6
CONTINUOUS
10
62.1276
20
-232.256
11
61.9371
21
-232.352
0
LINE
8
BLACK
6
CONTINUOUS
10
61.9371
20
-232.352
11
61.8419
21
-232.447
0
LINE
8
BLACK
6
CONTINUOUS
10
61.8419
20
-232.447
11
61.7467
21
-232.637
0
LINE
8
BLACK
6
CONTINUOUS
10
61.7467
20
-232.637
11
61.7467
21
-233.018
0
LINE
8
BLACK
6
CONTINUOUS
10
61.7467
20
-233.018
11
61.8419
21
-233.209
0
LINE
8
BLACK
6
CONTINUOUS
10
61.8419
20
-233.209
11
61.9371
21
-233.304
0
LINE
8
BLACK
6
CONTINUOUS
10
61.9371
20
-233.304
11
62.1276
21
-233.399
0
LINE
8
BLACK
6
CONTINUOUS
10
62.1276
20
-233.399
11
62.5086
21
-233.399
0
LINE
8
BLACK
6
CONTINUOUS
10
62.5086
20
-233.399
11
62.699
21
-233.304
0
LINE
8
BLACK
6
CONTINUOUS
10
62.699
20
-233.304
11
62.7943
21
-233.209
0
LINE
8
BLACK
6
CONTINUOUS
10
62.7943
20
-233.209
11
62.8895
21
-233.018
0
LINE
8
BLACK
6
CONTINUOUS
10
62.8895
20
-233.018
11
62.8895
21
-232.637
0
LINE
8
BLACK
6
CONTINUOUS
10
62.8895
20
-232.637
11
62.7943
21
-232.447
0
LINE
8
BLACK
6
CONTINUOUS
10
62.7943
20
-232.447
11
62.699
21
-232.352
0
LINE
8
BLACK
6
CONTINUOUS
10
62.699
20
-232.352
11
62.5086
21
-232.256
0
LINE
8
BLACK
6
CONTINUOUS
10
63.6514
20
-231.399
11
63.6514
21
-231.78
0
LINE
8
BLACK
6
CONTINUOUS
10
64.4133
20
-231.399
11
64.4133
21
-231.78
0
LINE
8
BLACK
6
CONTINUOUS
10
67.3657
20
-234.161
11
67.2705
21
-234.066
0
LINE
8
BLACK
6
CONTINUOUS
10
67.2705
20
-234.066
11
67.08
21
-233.78
0
LINE
8
BLACK
6
CONTINUOUS
10
67.08
20
-233.78
11
66.9847
21
-233.59
0
LINE
8
BLACK
6
CONTINUOUS
10
66.9847
20
-233.59
11
66.8895
21
-233.304
0
LINE
8
BLACK
6
CONTINUOUS
10
66.8895
20
-233.304
11
66.7943
21
-232.828
0
LINE
8
BLACK
6
CONTINUOUS
10
66.7943
20
-232.828
11
66.7943
21
-232.447
0
LINE
8
BLACK
6
CONTINUOUS
10
66.7943
20
-232.447
11
66.8895
21
-231.971
0
LINE
8
BLACK
6
CONTINUOUS
10
66.8895
20
-231.971
11
66.9847
21
-231.685
0
LINE
8
BLACK
6
CONTINUOUS
10
66.9847
20
-231.685
11
67.08
21
-231.494
0
LINE
8
BLACK
6
CONTINUOUS
10
67.08
20
-231.494
11
67.2705
21
-231.209
0
LINE
8
BLACK
6
CONTINUOUS
10
67.2705
20
-231.209
11
67.3657
21
-231.113
0
LINE
8
BLACK
6
CONTINUOUS
10
69.1752
20
-233.399
11
68.0324
21
-233.399
0
LINE
8
BLACK
6
CONTINUOUS
10
68.6038
20
-233.399
11
68.6038
21
-231.399
0
LINE
8
BLACK
6
CONTINUOUS
10
68.6038
20
-231.399
11
68.4133
21
-231.685
0
LINE
8
BLACK
6
CONTINUOUS
10
68.4133
20
-231.685
11
68.2228
21
-231.875
0
LINE
8
BLACK
6
CONTINUOUS
10
68.2228
20
-231.875
11
68.0324
21
-231.971
0
LINE
8
BLACK
6
CONTINUOUS
10
71.5562
20
-233.399
11
71.5562
21
-231.399
0
LINE
8
BLACK
6
CONTINUOUS
10
72.4133
20
-233.399
11
72.4133
21
-232.352
0
LINE
8
BLACK
6
CONTINUOUS
10
72.4133
20
-232.352
11
72.3181
21
-232.161
0
LINE
8
BLACK
6
CONTINUOUS
10
72.3181
20
-232.161
11
72.1276
21
-232.066
0
LINE
8
BLACK
6
CONTINUOUS
10
72.1276
20
-232.066
11
71.8419
21
-232.066
0
LINE
8
BLACK
6
CONTINUOUS
10
71.8419
20
-232.066
11
71.6514
21
-232.161
0
LINE
8
BLACK
6
CONTINUOUS
10
71.6514
20
-232.161
11
71.5562
21
-232.256
0
LINE
8
BLACK
6
CONTINUOUS
10
73.6514
20
-233.399
11
73.4609
21
-233.304
0
LINE
8
BLACK
6
CONTINUOUS
10
73.4609
20
-233.304
11
73.3657
21
-233.209
0
LINE
8
BLACK
6
CONTINUOUS
10
73.3657
20
-233.209
11
73.2705
21
-233.018
0
LINE
8
BLACK
6
CONTINUOUS
10
73.2705
20
-233.018
11
73.2705
21
-232.447
0
LINE
8
BLACK
6
CONTINUOUS
10
73.2705
20
-232.447
11
73.3657
21
-232.256
0
LINE
8
BLACK
6
CONTINUOUS
10
73.3657
20
-232.256
11
73.4609
21
-232.161
0
LINE
8
BLACK
6
CONTINUOUS
10
73.4609
20
-232.161
11
73.6514
21
-232.066
0
LINE
8
BLACK
6
CONTINUOUS
10
73.6514
20
-232.066
11
73.9371
21
-232.066
0
LINE
8
BLACK
6
CONTINUOUS
10
73.9371
20
-232.066
11
74.1276
21
-232.161
0
LINE
8
BLACK
6
CONTINUOUS
10
74.1276
20
-232.161
11
74.2228
21
-232.256
0
LINE
8
BLACK
6
CONTINUOUS
10
74.2228
20
-232.256
11
74.3181
21
-232.447
0
LINE
8
BLACK
6
CONTINUOUS
10
74.3181
20
-232.447
11
74.3181
21
-233.018
0
LINE
8
BLACK
6
CONTINUOUS
10
74.3181
20
-233.018
11
74.2228
21
-233.209
0
LINE
8
BLACK
6
CONTINUOUS
10
74.2228
20
-233.209
11
74.1276
21
-233.304
0
LINE
8
BLACK
6
CONTINUOUS
10
74.1276
20
-233.304
11
73.9371
21
-233.399
0
LINE
8
BLACK
6
CONTINUOUS
10
73.9371
20
-233.399
11
73.6514
21
-233.399
0
LINE
8
BLACK
6
CONTINUOUS
10
75.4609
20
-233.399
11
75.2705
21
-233.304
0
LINE
8
BLACK
6
CONTINUOUS
10
75.2705
20
-233.304
11
75.1752
21
-233.113
0
LINE
8
BLACK
6
CONTINUOUS
10
75.1752
20
-233.113
11
75.1752
21
-231.399
0
LINE
8
BLACK
6
CONTINUOUS
10
76.9847
20
-233.304
11
76.7943
21
-233.399
0
LINE
8
BLACK
6
CONTINUOUS
10
76.7943
20
-233.399
11
76.4133
21
-233.399
0
LINE
8
BLACK
6
CONTINUOUS
10
76.4133
20
-233.399
11
76.2228
21
-233.304
0
LINE
8
BLACK
6
CONTINUOUS
10
76.2228
20
-233.304
11
76.1276
21
-233.113
0
LINE
8
BLACK
6
CONTINUOUS
10
76.1276
20
-233.113
11
76.1276
21
-232.352
0
LINE
8
BLACK
6
CONTINUOUS
10
76.1276
20
-232.352
11
76.2228
21
-232.161
0
LINE
8
BLACK
6
CONTINUOUS
10
76.2228
20
-232.161
11
76.4133
21
-232.066
0
LINE
8
BLACK
6
CONTINUOUS
10
76.4133
20
-232.066
11
76.7943
21
-232.066
0
LINE
8
BLACK
6
CONTINUOUS
10
76.7943
20
-232.066
11
76.9847
21
-232.161
0
LINE
8
BLACK
6
CONTINUOUS
10
76.9847
20
-232.161
11
77.08
21
-232.352
0
LINE
8
BLACK
6
CONTINUOUS
10
77.08
20
-232.352
11
77.08
21
-232.542
0
LINE
8
BLACK
6
CONTINUOUS
10
77.08
20
-232.542
11
76.1276
21
-232.732
0
LINE
8
BLACK
6
CONTINUOUS
10
77.7467
20
-234.161
11
77.8419
21
-234.066
0
LINE
8
BLACK
6
CONTINUOUS
10
77.8419
20
-234.066
11
78.0324
21
-233.78
0
LINE
8
BLACK
6
CONTINUOUS
10
78.0324
20
-233.78
11
78.1276
21
-233.59
0
LINE
8
BLACK
6
CONTINUOUS
10
78.1276
20
-233.59
11
78.2228
21
-233.304
0
LINE
8
BLACK
6
CONTINUOUS
10
78.2228
20
-233.304
11
78.3181
21
-232.828
0
LINE
8
BLACK
6
CONTINUOUS
10
78.3181
20
-232.828
11
78.3181
21
-232.447
0
LINE
8
BLACK
6
CONTINUOUS
10
78.3181
20
-232.447
11
78.2228
21
-231.971
0
LINE
8
BLACK
6
CONTINUOUS
10
78.2228
20
-231.971
11
78.1276
21
-231.685
0
LINE
8
BLACK
6
CONTINUOUS
10
78.1276
20
-231.685
11
78.0324
21
-231.494
0
LINE
8
BLACK
6
CONTINUOUS
10
78.0324
20
-231.494
11
77.8419
21
-231.209
0
LINE
8
BLACK
6
CONTINUOUS
10
77.8419
20
-231.209
11
77.7467
21
-231.113
0
LINE
8
BLACK
6
CONTINUOUS
10
81.3657
20
-234.161
11
81.2705
21
-234.066
0
LINE
8
BLACK
6
CONTINUOUS
10
81.2705
20
-234.066
11
81.08
21
-233.78
0
LINE
8
BLACK
6
CONTINUOUS
10
81.08
20
-233.78
11
80.9847
21
-233.59
0
LINE
8
BLACK
6
CONTINUOUS
10
80.9847
20
-233.59
11
80.8895
21
-233.304
0
LINE
8
BLACK
6
CONTINUOUS
10
80.8895
20
-233.304
11
80.7943
21
-232.828
0
LINE
8
BLACK
6
CONTINUOUS
10
80.7943
20
-232.828
11
80.7943
21
-232.447
0
LINE
8
BLACK
6
CONTINUOUS
10
80.7943
20
-232.447
11
80.8895
21
-231.971
0
LINE
8
BLACK
6
CONTINUOUS
10
80.8895
20
-231.971
11
80.9847
21
-231.685
0
LINE
8
BLACK
6
CONTINUOUS
10
80.9847
20
-231.685
11
81.08
21
-231.494
0
LINE
8
BLACK
6
CONTINUOUS
10
81.08
20
-231.494
11
81.2705
21
-231.209
0
LINE
8
BLACK
6
CONTINUOUS
10
81.2705
20
-231.209
11
81.3657
21
-231.113
0
LINE
8
BLACK
6
CONTINUOUS
10
82.1276
20
-232.066
11
82.1276
21
-233.399
0
LINE
8
BLACK
6
CONTINUOUS
10
82.1276
20
-232.256
11
82.2228
21
-232.161
0
LINE
8
BLACK
6
CONTINUOUS
10
82.2228
20
-232.161
11
82.4133
21
-232.066
0
LINE
8
BLACK
6
CONTINUOUS
10
82.4133
20
-232.066
11
82.699
21
-232.066
0
LINE
8
BLACK
6
CONTINUOUS
10
82.699
20
-232.066
11
82.8895
21
-232.161
0
LINE
8
BLACK
6
CONTINUOUS
10
82.8895
20
-232.161
11
82.9847
21
-232.352
0
LINE
8
BLACK
6
CONTINUOUS
10
82.9847
20
-232.352
11
82.9847
21
-233.399
0
LINE
8
BLACK
6
CONTINUOUS
10
84.2228
20
-233.399
11
84.0324
21
-233.304
0
LINE
8
BLACK
6
CONTINUOUS
10
84.0324
20
-233.304
11
83.9371
21
-233.209
0
LINE
8
BLACK
6
CONTINUOUS
10
83.9371
20
-233.209
11
83.8419
21
-233.018
0
LINE
8
BLACK
6
CONTINUOUS
10
83.8419
20
-233.018
11
83.8419
21
-232.447
0
LINE
8
BLACK
6
CONTINUOUS
10
83.8419
20
-232.447
11
83.9371
21
-232.256
0
LINE
8
BLACK
6
CONTINUOUS
10
83.9371
20
-232.256
11
84.0324
21
-232.161
0
LINE
8
BLACK
6
CONTINUOUS
10
84.0324
20
-232.161
11
84.2228
21
-232.066
0
LINE
8
BLACK
6
CONTINUOUS
10
84.2228
20
-232.066
11
84.5086
21
-232.066
0
LINE
8
BLACK
6
CONTINUOUS
10
84.5086
20
-232.066
11
84.699
21
-232.161
0
LINE
8
BLACK
6
CONTINUOUS
10
84.699
20
-232.161
11
84.7943
21
-232.256
0
LINE
8
BLACK
6
CONTINUOUS
10
84.7943
20
-232.256
11
84.8895
21
-232.447
0
LINE
8
BLACK
6
CONTINUOUS
10
84.8895
20
-232.447
11
84.8895
21
-233.018
0
LINE
8
BLACK
6
CONTINUOUS
10
84.8895
20
-233.018
11
84.7943
21
-233.209
0
LINE
8
BLACK
6
CONTINUOUS
10
84.7943
20
-233.209
11
84.699
21
-233.304
0
LINE
8
BLACK
6
CONTINUOUS
10
84.699
20
-233.304
11
84.5086
21
-233.399
0
LINE
8
BLACK
6
CONTINUOUS
10
84.5086
20
-233.399
11
84.2228
21
-233.399
0
LINE
8
BLACK
6
CONTINUOUS
10
85.4609
20
-232.066
11
86.2228
21
-232.066
0
LINE
8
BLACK
6
CONTINUOUS
10
85.7467
20
-231.399
11
85.7467
21
-233.113
0
LINE
8
BLACK
6
CONTINUOUS
10
85.7467
20
-233.113
11
85.8419
21
-233.304
0
LINE
8
BLACK
6
CONTINUOUS
10
85.8419
20
-233.304
11
86.0324
21
-233.399
0
LINE
8
BLACK
6
CONTINUOUS
10
86.0324
20
-233.399
11
86.2228
21
-233.399
0
LINE
8
BLACK
6
CONTINUOUS
10
88.4133
20
-232.066
11
88.4133
21
-234.066
0
LINE
8
BLACK
6
CONTINUOUS
10
88.4133
20
-232.161
11
88.6038
21
-232.066
0
LINE
8
BLACK
6
CONTINUOUS
10
88.6038
20
-232.066
11
88.9847
21
-232.066
0
LINE
8
BLACK
6
CONTINUOUS
10
88.9847
20
-232.066
11
89.1752
21
-232.161
0
LINE
8
BLACK
6
CONTINUOUS
10
89.1752
20
-232.161
11
89.2705
21
-232.256
0
LINE
8
BLACK
6
CONTINUOUS
10
89.2705
20
-232.256
11
89.3657
21
-232.447
0
LINE
8
BLACK
6
CONTINUOUS
10
89.3657
20
-232.447
11
89.3657
21
-233.018
0
LINE
8
BLACK
6
CONTINUOUS
10
89.3657
20
-233.018
11
89.2705
21
-233.209
0
LINE
8
BLACK
6
CONTINUOUS
10
89.2705
20
-233.209
11
89.1752
21
-233.304
0
LINE
8
BLACK
6
CONTINUOUS
10
89.1752
20
-233.304
11
88.9847
21
-233.399
0
LINE
8
BLACK
6
CONTINUOUS
10
88.9847
20
-233.399
11
88.6038
21
-233.399
0
LINE
8
BLACK
6
CONTINUOUS
10
88.6038
20
-233.399
11
88.4133
21
-233.304
0
LINE
8
BLACK
6
CONTINUOUS
10
90.5086
20
-233.399
11
90.3181
21
-233.304
0
LINE
8
BLACK
6
CONTINUOUS
10
90.3181
20
-233.304
11
90.2228
21
-233.113
0
LINE
8
BLACK
6
CONTINUOUS
10
90.2228
20
-233.113
11
90.2228
21
-231.399
0
LINE
8
BLACK
6
CONTINUOUS
10
92.1276
20
-233.399
11
92.1276
21
-232.352
0
LINE
8
BLACK
6
CONTINUOUS
10
92.1276
20
-232.352
11
92.0324
21
-232.161
0
LINE
8
BLACK
6
CONTINUOUS
10
92.0324
20
-232.161
11
91.8419
21
-232.066
0
LINE
8
BLACK
6
CONTINUOUS
10
91.8419
20
-232.066
11
91.4609
21
-232.066
0
LINE
8
BLACK
6
CONTINUOUS
10
91.4609
20
-232.066
11
91.2705
21
-232.161
0
LINE
8
BLACK
6
CONTINUOUS
10
92.1276
20
-233.304
11
91.9371
21
-233.399
0
LINE
8
BLACK
6
CONTINUOUS
10
91.9371
20
-233.399
11
91.4609
21
-233.399
0
LINE
8
BLACK
6
CONTINUOUS
10
91.4609
20
-233.399
11
91.2705
21
-233.304
0
LINE
8
BLACK
6
CONTINUOUS
10
91.2705
20
-233.304
11
91.1752
21
-233.113
0
LINE
8
BLACK
6
CONTINUOUS
10
91.1752
20
-233.113
11
91.1752
21
-232.923
0
LINE
8
BLACK
6
CONTINUOUS
10
91.1752
20
-232.923
11
91.2705
21
-232.732
0
LINE
8
BLACK
6
CONTINUOUS
10
91.2705
20
-232.732
11
91.4609
21
-232.637
0
LINE
8
BLACK
6
CONTINUOUS
10
91.4609
20
-232.637
11
91.9371
21
-232.637
0
LINE
8
BLACK
6
CONTINUOUS
10
91.9371
20
-232.637
11
92.1276
21
-232.542
0
LINE
8
BLACK
6
CONTINUOUS
10
92.7943
20
-232.066
11
93.5562
21
-232.066
0
LINE
8
BLACK
6
CONTINUOUS
10
93.08
20
-231.399
11
93.08
21
-233.113
0
LINE
8
BLACK
6
CONTINUOUS
10
93.08
20
-233.113
11
93.1752
21
-233.304
0
LINE
8
BLACK
6
CONTINUOUS
10
93.1752
20
-233.304
11
93.3657
21
-233.399
0
LINE
8
BLACK
6
CONTINUOUS
10
93.3657
20
-233.399
11
93.5562
21
-233.399
0
LINE
8
BLACK
6
CONTINUOUS
10
94.9847
20
-233.304
11
94.7943
21
-233.399
0
LINE
8
BLACK
6
CONTINUOUS
10
94.7943
20
-233.399
11
94.4133
21
-233.399
0
LINE
8
BLACK
6
CONTINUOUS
10
94.4133
20
-233.399
11
94.2228
21
-233.304
0
LINE
8
BLACK
6
CONTINUOUS
10
94.2228
20
-233.304
11
94.1276
21
-233.113
0
LINE
8
BLACK
6
CONTINUOUS
10
94.1276
20
-233.113
11
94.1276
21
-232.352
0
LINE
8
BLACK
6
CONTINUOUS
10
94.1276
20
-232.352
11
94.2228
21
-232.161
0
LINE
8
BLACK
6
CONTINUOUS
10
94.2228
20
-232.161
11
94.4133
21
-232.066
0
LINE
8
BLACK
6
CONTINUOUS
10
94.4133
20
-232.066
11
94.7943
21
-232.066
0
LINE
8
BLACK
6
CONTINUOUS
10
94.7943
20
-232.066
11
94.9847
21
-232.161
0
LINE
8
BLACK
6
CONTINUOUS
10
94.9847
20
-232.161
11
95.08
21
-232.352
0
LINE
8
BLACK
6
CONTINUOUS
10
95.08
20
-232.352
11
95.08
21
-232.542
0
LINE
8
BLACK
6
CONTINUOUS
10
95.08
20
-232.542
11
94.1276
21
-232.732
0
LINE
8
BLACK
6
CONTINUOUS
10
96.7943
20
-233.399
11
96.7943
21
-231.399
0
LINE
8
BLACK
6
CONTINUOUS
10
96.7943
20
-233.304
11
96.6038
21
-233.399
0
LINE
8
BLACK
6
CONTINUOUS
10
96.6038
20
-233.399
11
96.2228
21
-233.399
0
LINE
8
BLACK
6
CONTINUOUS
10
96.2228
20
-233.399
11
96.0324
21
-233.304
0
LINE
8
BLACK
6
CONTINUOUS
10
96.0324
20
-233.304
11
95.9371
21
-233.209
0
LINE
8
BLACK
6
CONTINUOUS
10
95.9371
20
-233.209
11
95.8419
21
-233.018
0
LINE
8
BLACK
6
CONTINUOUS
10
95.8419
20
-233.018
11
95.8419
21
-232.447
0
LINE
8
BLACK
6
CONTINUOUS
10
95.8419
20
-232.447
11
95.9371
21
-232.256
0
LINE
8
BLACK
6
CONTINUOUS
10
95.9371
20
-232.256
11
96.0324
21
-232.161
0
LINE
8
BLACK
6
CONTINUOUS
10
96.0324
20
-232.161
11
96.2228
21
-232.066
0
LINE
8
BLACK
6
CONTINUOUS
10
96.2228
20
-232.066
11
96.6038
21
-232.066
0
LINE
8
BLACK
6
CONTINUOUS
10
96.6038
20
-232.066
11
96.7943
21
-232.161
0
LINE
8
BLACK
6
CONTINUOUS
10
97.5562
20
-234.161
11
97.6514
21
-234.066
0
LINE
8
BLACK
6
CONTINUOUS
10
97.6514
20
-234.066
11
97.8419
21
-233.78
0
LINE
8
BLACK
6
CONTINUOUS
10
97.8419
20
-233.78
11
97.9371
21
-233.59
0
LINE
8
BLACK
6
CONTINUOUS
10
97.9371
20
-233.59
11
98.0324
21
-233.304
0
LINE
8
BLACK
6
CONTINUOUS
10
98.0324
20
-233.304
11
98.1276
21
-232.828
0
LINE
8
BLACK
6
CONTINUOUS
10
98.1276
20
-232.828
11
98.1276
21
-232.447
0
LINE
8
BLACK
6
CONTINUOUS
10
98.1276
20
-232.447
11
98.0324
21
-231.971
0
LINE
8
BLACK
6
CONTINUOUS
10
98.0324
20
-231.971
11
97.9371
21
-231.685
0
LINE
8
BLACK
6
CONTINUOUS
10
97.9371
20
-231.685
11
97.8419
21
-231.494
0
LINE
8
BLACK
6
CONTINUOUS
10
97.8419
20
-231.494
11
97.6514
21
-231.209
0
LINE
8
BLACK
6
CONTINUOUS
10
97.6514
20
-231.209
11
97.5562
21
-231.113
  0
ENDSEC
  0
EOF
