G04 #@! TF.GenerationSoftware,KiCad,Pcbnew,(6.0.9)*
G04 #@! TF.CreationDate,2022-12-03T09:36:37+01:00*
G04 #@! TF.ProjectId,magic_counter,6d616769-635f-4636-9f75-6e7465722e6b,rev?*
G04 #@! TF.SameCoordinates,Original*
G04 #@! TF.FileFunction,Soldermask,Bot*
G04 #@! TF.FilePolarity,Negative*
%FSLAX46Y46*%
G04 Gerber Fmt 4.6, Leading zero omitted, Abs format (unit mm)*
G04 Created by KiCad (PCBNEW (6.0.9)) date 2022-12-03 09:36:37*
%MOMM*%
%LPD*%
G01*
G04 APERTURE LIST*
G04 Aperture macros list*
%AMRoundRect*
0 Rectangle with rounded corners*
0 $1 Rounding radius*
0 $2 $3 $4 $5 $6 $7 $8 $9 X,Y pos of 4 corners*
0 Add a 4 corners polygon primitive as box body*
4,1,4,$2,$3,$4,$5,$6,$7,$8,$9,$2,$3,0*
0 Add four circle primitives for the rounded corners*
1,1,$1+$1,$2,$3*
1,1,$1+$1,$4,$5*
1,1,$1+$1,$6,$7*
1,1,$1+$1,$8,$9*
0 Add four rect primitives between the rounded corners*
20,1,$1+$1,$2,$3,$4,$5,0*
20,1,$1+$1,$4,$5,$6,$7,0*
20,1,$1+$1,$6,$7,$8,$9,0*
20,1,$1+$1,$8,$9,$2,$3,0*%
G04 Aperture macros list end*
%ADD10C,1.600000*%
%ADD11O,1.600000X1.600000*%
%ADD12C,2.000000*%
%ADD13O,1.800000X1.800000*%
%ADD14C,1.800000*%
%ADD15O,1.700000X1.700000*%
%ADD16C,5.600000*%
%ADD17C,1.500000*%
%ADD18O,1.500000X1.500000*%
%ADD19RoundRect,0.875000X-0.875000X-0.875000X0.875000X-0.875000X0.875000X0.875000X-0.875000X0.875000X0*%
%ADD20RoundRect,0.750000X-0.750000X-1.000000X0.750000X-1.000000X0.750000X1.000000X-0.750000X1.000000X0*%
%ADD21C,1.700000*%
%ADD22C,3.500000*%
%ADD23O,1.600000X2.400000*%
%ADD24O,2.400000X1.600000*%
%ADD25O,2.400000X2.400000*%
%ADD26C,2.400000*%
G04 APERTURE END LIST*
D10*
X103660000Y-43740000D03*
D11*
X113820000Y-43740000D03*
D10*
X88660000Y-138954000D03*
D11*
X98820000Y-138954000D03*
D10*
X62275000Y-41200000D03*
D11*
X72435000Y-41200000D03*
D10*
X93740000Y-69980000D03*
D11*
X103900000Y-69980000D03*
D10*
X53790000Y-153010000D03*
D11*
X43630000Y-153010000D03*
D10*
X119210000Y-124551500D03*
D11*
X129370000Y-124551500D03*
D12*
X99124664Y-202350000D03*
X92624664Y-202350000D03*
X99124664Y-197850000D03*
X92624664Y-197850000D03*
X151803334Y-177434000D03*
X158303334Y-177434000D03*
X151803334Y-181934000D03*
X158303334Y-181934000D03*
X184623334Y-177434000D03*
X178123334Y-177434000D03*
X184623334Y-181934000D03*
X178123334Y-181934000D03*
D10*
X174463334Y-58360000D03*
D11*
X184623334Y-58360000D03*
D13*
X51250000Y-148010000D03*
D14*
X53790000Y-148010000D03*
D15*
X86235000Y-154574000D03*
X86235000Y-157114000D03*
X86235000Y-159654000D03*
X86235000Y-162194000D03*
D12*
X184623334Y-202350000D03*
X178123334Y-202350000D03*
X184623334Y-197850000D03*
X178123334Y-197850000D03*
D10*
X71960000Y-147534000D03*
D11*
X82120000Y-147534000D03*
D12*
X171463334Y-162194000D03*
X164963334Y-162194000D03*
X171463334Y-166694000D03*
X164963334Y-166694000D03*
D10*
X79540000Y-29580000D03*
X77040000Y-29580000D03*
X71960000Y-154534000D03*
D11*
X82120000Y-154534000D03*
D10*
X148343332Y-124551500D03*
D11*
X158503332Y-124551500D03*
D16*
X37892700Y-29848300D03*
D10*
X79620000Y-158194000D03*
X82120000Y-158194000D03*
X110440000Y-127374000D03*
X110440000Y-129874000D03*
D17*
X168505000Y-104116500D03*
X168505000Y-108996500D03*
D16*
X37892900Y-124848250D03*
D12*
X127624216Y-202350000D03*
X121124216Y-202350000D03*
X127624216Y-197850000D03*
X121124216Y-197850000D03*
D10*
X103660000Y-48820000D03*
D11*
X113820000Y-48820000D03*
D12*
X171463334Y-62360000D03*
X164963334Y-62360000D03*
X164963334Y-66860000D03*
X171463334Y-66860000D03*
D10*
X93740000Y-80140000D03*
D11*
X103900000Y-80140000D03*
D10*
X88660000Y-144034000D03*
D11*
X98820000Y-144034000D03*
D12*
X151803334Y-62360000D03*
X158303334Y-62360000D03*
X151803334Y-66860000D03*
X158303334Y-66860000D03*
D10*
X120415000Y-93740000D03*
D11*
X120415000Y-83580000D03*
D10*
X133776666Y-124551500D03*
D11*
X143936666Y-124551500D03*
D15*
X119300000Y-131334000D03*
X119300000Y-133874000D03*
X119300000Y-136414000D03*
X119300000Y-138954000D03*
X119300000Y-141494000D03*
X119300000Y-144034000D03*
X119300000Y-146574000D03*
X119300000Y-149114000D03*
X119300000Y-151654000D03*
X119300000Y-154194000D03*
D18*
X143936666Y-128366500D03*
D17*
X141396666Y-128366500D03*
X138856666Y-128366500D03*
D10*
X62275000Y-46280000D03*
D11*
X72435000Y-46280000D03*
D10*
X53790000Y-93010000D03*
D11*
X43630000Y-93010000D03*
D12*
X145143334Y-162194000D03*
X138643334Y-162194000D03*
X138643334Y-166694000D03*
X145143334Y-166694000D03*
D15*
X119250000Y-28500000D03*
X119250000Y-31040000D03*
X119250000Y-33580000D03*
X119250000Y-36120000D03*
X119250000Y-38660000D03*
X119250000Y-41200000D03*
X119250000Y-43740000D03*
X119250000Y-46280000D03*
X119250000Y-48820000D03*
X119250000Y-51360000D03*
D10*
X111320000Y-158194000D03*
X113820000Y-158194000D03*
X84660000Y-101616500D03*
D11*
X74500000Y-101616500D03*
D10*
X79620000Y-122254000D03*
X82120000Y-122254000D03*
X51250000Y-79882000D03*
D11*
X61410000Y-79882000D03*
D10*
X148143334Y-185934000D03*
D11*
X158303334Y-185934000D03*
D10*
X88260000Y-114316500D03*
D11*
X88260000Y-104156500D03*
D10*
X133025000Y-119966500D03*
X135525000Y-119966500D03*
X88749776Y-197850000D03*
D11*
X88749776Y-208010000D03*
D10*
X53790000Y-163010000D03*
D11*
X43630000Y-163010000D03*
D10*
X53790000Y-133010000D03*
D11*
X43630000Y-133010000D03*
D16*
X182892700Y-219848300D03*
D10*
X77000000Y-158194000D03*
X74500000Y-158194000D03*
X161303334Y-86100000D03*
D11*
X171463334Y-86100000D03*
D10*
X131499104Y-197850000D03*
D11*
X131499104Y-208010000D03*
D10*
X93740000Y-75060000D03*
D11*
X103900000Y-75060000D03*
D10*
X53790000Y-183010000D03*
D11*
X43630000Y-183010000D03*
D10*
X51250000Y-86446000D03*
D11*
X61410000Y-86446000D03*
D10*
X53790000Y-123010000D03*
D11*
X43630000Y-123010000D03*
D10*
X163505000Y-108996500D03*
X163505000Y-111496500D03*
D19*
X45770000Y-41052500D03*
D20*
X39770000Y-41052500D03*
D19*
X42770000Y-45752500D03*
D10*
X148143334Y-58360000D03*
D11*
X158303334Y-58360000D03*
D12*
X158303334Y-162194000D03*
X151803334Y-162194000D03*
X158303334Y-166694000D03*
X151803334Y-166694000D03*
D21*
X47217500Y-76620000D03*
X47217500Y-74120000D03*
X45217500Y-74120000D03*
X45217500Y-76620000D03*
D22*
X42507500Y-69350000D03*
X42507500Y-81390000D03*
D10*
X88660000Y-41200000D03*
D11*
X98820000Y-41200000D03*
D13*
X82120000Y-109236500D03*
D14*
X84660000Y-109236500D03*
D12*
X163873544Y-202350000D03*
X170373544Y-202350000D03*
X170373544Y-197850000D03*
X163873544Y-197850000D03*
D10*
X108700000Y-158194000D03*
X106200000Y-158194000D03*
D13*
X51250000Y-158010000D03*
D14*
X53790000Y-158010000D03*
D10*
X53790000Y-173010000D03*
D11*
X43630000Y-173010000D03*
D10*
X53790000Y-103010000D03*
D11*
X43630000Y-103010000D03*
D13*
X51250000Y-188010000D03*
D14*
X53790000Y-188010000D03*
D10*
X161303334Y-58360000D03*
D11*
X171463334Y-58360000D03*
D12*
X184623334Y-62360000D03*
X178123334Y-62360000D03*
X184623334Y-66860000D03*
X178123334Y-66860000D03*
D23*
X110165000Y-116856500D03*
X112705000Y-116856500D03*
X115245000Y-116856500D03*
X117785000Y-116856500D03*
X120325000Y-116856500D03*
X122865000Y-116856500D03*
X125405000Y-116856500D03*
X127945000Y-116856500D03*
X130485000Y-116856500D03*
X133025000Y-116856500D03*
X135565000Y-116856500D03*
X138105000Y-116856500D03*
X140645000Y-116856500D03*
X143185000Y-116856500D03*
X145725000Y-116856500D03*
X148265000Y-116856500D03*
X150805000Y-116856500D03*
X153345000Y-116856500D03*
X155885000Y-116856500D03*
X158425000Y-116856500D03*
X158425000Y-101616500D03*
X155885000Y-101616500D03*
X153345000Y-101616500D03*
X150805000Y-101616500D03*
X148265000Y-101616500D03*
X145725000Y-101616500D03*
X143185000Y-101616500D03*
X140645000Y-101616500D03*
X138105000Y-101616500D03*
X135565000Y-101616500D03*
X133025000Y-101616500D03*
X130485000Y-101616500D03*
X127945000Y-101616500D03*
X125405000Y-101616500D03*
X122865000Y-101616500D03*
X120325000Y-101616500D03*
X117785000Y-101616500D03*
X115245000Y-101616500D03*
X112705000Y-101616500D03*
X110165000Y-101616500D03*
D12*
X84874888Y-202350000D03*
X78374888Y-202350000D03*
X84874888Y-197850000D03*
X78374888Y-197850000D03*
D18*
X154250000Y-149114000D03*
D17*
X156790000Y-149114000D03*
X159330000Y-149114000D03*
X161870000Y-149114000D03*
X164410000Y-149114000D03*
X166950000Y-149114000D03*
X166950000Y-133874000D03*
X164410000Y-133874000D03*
X161870000Y-133874000D03*
X159330000Y-133874000D03*
X156790000Y-133874000D03*
X154250000Y-133874000D03*
D24*
X74500000Y-126254000D03*
X74500000Y-128794000D03*
X74500000Y-131334000D03*
X74500000Y-133874000D03*
X74500000Y-136414000D03*
X74500000Y-138954000D03*
X74500000Y-141494000D03*
X74500000Y-144034000D03*
X82120000Y-144034000D03*
X82120000Y-141494000D03*
X82120000Y-138954000D03*
X82120000Y-136414000D03*
X82120000Y-133874000D03*
X82120000Y-131334000D03*
X82120000Y-128794000D03*
X82120000Y-126254000D03*
D25*
X36710000Y-58360000D03*
D26*
X36710000Y-61860000D03*
D10*
X148143334Y-86100000D03*
D11*
X158303334Y-86100000D03*
D10*
X71960000Y-190474000D03*
D11*
X82120000Y-190474000D03*
D10*
X77000000Y-122254000D03*
X74500000Y-122254000D03*
X88660000Y-46280000D03*
D11*
X98820000Y-46280000D03*
D10*
X130485000Y-119966500D03*
X127985000Y-119966500D03*
D13*
X51250000Y-108010000D03*
D14*
X53790000Y-108010000D03*
D10*
X74500000Y-116856500D03*
D11*
X84660000Y-116856500D03*
D10*
X102999552Y-197850000D03*
D11*
X102999552Y-208010000D03*
D12*
X171463334Y-77600000D03*
X164963334Y-77600000D03*
X164963334Y-82100000D03*
X171463334Y-82100000D03*
D10*
X53790000Y-193010000D03*
D11*
X43630000Y-193010000D03*
D10*
X103660000Y-136414000D03*
D11*
X113820000Y-136414000D03*
D15*
X100090000Y-116856500D03*
X97550000Y-116856500D03*
X95010000Y-116856500D03*
D10*
X117863500Y-58360000D03*
X120363500Y-58360000D03*
D15*
X88660000Y-51360000D03*
X91200000Y-51360000D03*
X93740000Y-51360000D03*
D10*
X53790000Y-203010000D03*
D11*
X43630000Y-203010000D03*
D24*
X74500000Y-162194000D03*
X74500000Y-164734000D03*
X74500000Y-167274000D03*
X74500000Y-169814000D03*
X74500000Y-172354000D03*
X74500000Y-174894000D03*
X74500000Y-177434000D03*
X74500000Y-179974000D03*
X82120000Y-179974000D03*
X82120000Y-177434000D03*
X82120000Y-174894000D03*
X82120000Y-172354000D03*
X82120000Y-169814000D03*
X82120000Y-167274000D03*
X82120000Y-164734000D03*
X82120000Y-162194000D03*
X112795000Y-62360000D03*
X112795000Y-64900000D03*
X112795000Y-67440000D03*
X112795000Y-69980000D03*
X112795000Y-72520000D03*
X112795000Y-75060000D03*
X112795000Y-77600000D03*
X112795000Y-80140000D03*
X120415000Y-80140000D03*
X120415000Y-77600000D03*
X120415000Y-75060000D03*
X120415000Y-72520000D03*
X120415000Y-69980000D03*
X120415000Y-67440000D03*
X120415000Y-64900000D03*
X120415000Y-62360000D03*
D10*
X88660000Y-133874000D03*
D11*
X98820000Y-133874000D03*
D12*
X138643334Y-62360000D03*
X145143334Y-62360000D03*
X145143334Y-66860000D03*
X138643334Y-66860000D03*
D24*
X90350000Y-162194000D03*
X90350000Y-164734000D03*
X90350000Y-167274000D03*
X90350000Y-169814000D03*
X90350000Y-172354000D03*
X90350000Y-174894000D03*
X90350000Y-177434000D03*
X90350000Y-179974000D03*
X97970000Y-179974000D03*
X97970000Y-177434000D03*
X97970000Y-174894000D03*
X97970000Y-172354000D03*
X97970000Y-169814000D03*
X97970000Y-167274000D03*
X97970000Y-164734000D03*
X97970000Y-162194000D03*
D23*
X88660000Y-129874000D03*
X91200000Y-129874000D03*
X93740000Y-129874000D03*
X96280000Y-129874000D03*
X98820000Y-129874000D03*
X101360000Y-129874000D03*
X103900000Y-129874000D03*
X106440000Y-129874000D03*
X106440000Y-122254000D03*
X103900000Y-122254000D03*
X101360000Y-122254000D03*
X98820000Y-122254000D03*
X96280000Y-122254000D03*
X93740000Y-122254000D03*
X91200000Y-122254000D03*
X88660000Y-122254000D03*
D16*
X182892900Y-29848200D03*
D10*
X134983334Y-58360000D03*
D11*
X145143334Y-58360000D03*
D13*
X51250000Y-118010000D03*
D14*
X53790000Y-118010000D03*
D24*
X77040000Y-33580000D03*
X77040000Y-36120000D03*
X77040000Y-38660000D03*
X77040000Y-41200000D03*
X77040000Y-43740000D03*
X77040000Y-46280000D03*
X77040000Y-48820000D03*
X77040000Y-51360000D03*
X84660000Y-51360000D03*
X84660000Y-48820000D03*
X84660000Y-46280000D03*
X84660000Y-43740000D03*
X84660000Y-41200000D03*
X84660000Y-38660000D03*
X84660000Y-36120000D03*
X84660000Y-33580000D03*
D10*
X93740000Y-64900000D03*
D11*
X103900000Y-64900000D03*
D10*
X103660000Y-38660000D03*
D11*
X113820000Y-38660000D03*
D15*
X72435000Y-50740000D03*
X72435000Y-53280000D03*
X72435000Y-55820000D03*
X72435000Y-58360000D03*
D12*
X156123768Y-202350000D03*
X149623768Y-202350000D03*
X156123768Y-197850000D03*
X149623768Y-197850000D03*
D10*
X134983334Y-158194000D03*
D11*
X145143334Y-158194000D03*
D18*
X153423332Y-129086500D03*
D17*
X155963332Y-129086500D03*
X158503332Y-129086500D03*
D10*
X79540000Y-58360000D03*
X77040000Y-58360000D03*
X53790000Y-113010000D03*
D11*
X43630000Y-113010000D03*
D18*
X93740000Y-58360000D03*
D17*
X91200000Y-58360000D03*
X88660000Y-58360000D03*
D12*
X138643334Y-77600000D03*
X145143334Y-77600000D03*
X145143334Y-82100000D03*
X138643334Y-82100000D03*
D13*
X74500000Y-109236500D03*
D14*
X77040000Y-109236500D03*
D15*
X77040000Y-93140000D03*
X79580000Y-93140000D03*
X82120000Y-93140000D03*
X84660000Y-93140000D03*
D10*
X51250000Y-89728000D03*
D11*
X61410000Y-89728000D03*
D10*
X82160000Y-58360000D03*
X84660000Y-58360000D03*
D12*
X138643334Y-177434000D03*
X145143334Y-177434000D03*
X138643334Y-181934000D03*
X145143334Y-181934000D03*
D16*
X182892700Y-124848250D03*
D13*
X51250000Y-128010000D03*
D14*
X53790000Y-128010000D03*
D12*
X151803334Y-77600000D03*
X158303334Y-77600000D03*
X151803334Y-82100000D03*
X158303334Y-82100000D03*
D10*
X84660000Y-89030000D03*
D11*
X74500000Y-89030000D03*
D10*
X62275000Y-36120000D03*
D11*
X72435000Y-36120000D03*
D10*
X82160000Y-29580000D03*
X84660000Y-29580000D03*
X162910000Y-124551500D03*
D11*
X173070000Y-124551500D03*
D10*
X71960000Y-186974000D03*
D11*
X82120000Y-186974000D03*
D10*
X71960000Y-151034000D03*
D11*
X82120000Y-151034000D03*
D10*
X161303334Y-158194000D03*
D11*
X171463334Y-158194000D03*
D10*
X145748880Y-197850000D03*
D11*
X145748880Y-208010000D03*
D18*
X101360000Y-58360000D03*
D17*
X98820000Y-58360000D03*
X96280000Y-58360000D03*
D10*
X92850000Y-158194000D03*
X90350000Y-158194000D03*
X103660000Y-141494000D03*
D11*
X113820000Y-141494000D03*
D10*
X174463334Y-86100000D03*
D11*
X184623334Y-86100000D03*
D15*
X108147500Y-80140000D03*
X108147500Y-77600000D03*
X108147500Y-75060000D03*
X108147500Y-72520000D03*
X108147500Y-69980000D03*
X108147500Y-67440000D03*
X108147500Y-64900000D03*
D13*
X51250000Y-198010000D03*
D14*
X53790000Y-198010000D03*
D10*
X174463334Y-185934000D03*
D11*
X184623334Y-185934000D03*
D10*
X70900000Y-114316500D03*
D11*
X70900000Y-104156500D03*
D24*
X77040000Y-62360000D03*
X77040000Y-64900000D03*
X77040000Y-67440000D03*
X77040000Y-69980000D03*
X77040000Y-72520000D03*
X77040000Y-75060000D03*
X77040000Y-77600000D03*
X77040000Y-80140000D03*
X84660000Y-80140000D03*
X84660000Y-77600000D03*
X84660000Y-75060000D03*
X84660000Y-72520000D03*
X84660000Y-69980000D03*
X84660000Y-67440000D03*
X84660000Y-64900000D03*
X84660000Y-62360000D03*
D10*
X53790000Y-143010000D03*
D11*
X43630000Y-143010000D03*
D10*
X103660000Y-33580000D03*
D11*
X113820000Y-33580000D03*
D10*
X161303334Y-185934000D03*
D11*
X171463334Y-185934000D03*
D18*
X108980000Y-58360000D03*
D17*
X106440000Y-58360000D03*
X103900000Y-58360000D03*
D15*
X88660000Y-85220000D03*
X88660000Y-82680000D03*
X88660000Y-80140000D03*
X88660000Y-77600000D03*
D10*
X134983334Y-86100000D03*
D11*
X145143334Y-86100000D03*
D10*
X88660000Y-36120000D03*
D11*
X98820000Y-36120000D03*
D10*
X115243500Y-58360000D03*
X112743500Y-58360000D03*
X159998656Y-197850000D03*
D11*
X159998656Y-208010000D03*
D13*
X51250000Y-208010000D03*
D14*
X53790000Y-208010000D03*
D10*
X117249328Y-197850000D03*
D11*
X117249328Y-208010000D03*
D16*
X37892900Y-219848200D03*
D10*
X88660000Y-31040000D03*
D11*
X98820000Y-31040000D03*
D10*
X84660000Y-85220000D03*
D11*
X74500000Y-85220000D03*
D12*
X184623334Y-77600000D03*
X178123334Y-77600000D03*
X178123334Y-82100000D03*
X184623334Y-82100000D03*
X135373992Y-202350000D03*
X141873992Y-202350000D03*
X135373992Y-197850000D03*
X141873992Y-197850000D03*
D24*
X106200000Y-162194000D03*
X106200000Y-164734000D03*
X106200000Y-167274000D03*
X106200000Y-169814000D03*
X106200000Y-172354000D03*
X106200000Y-174894000D03*
X106200000Y-177434000D03*
X106200000Y-179974000D03*
X113820000Y-179974000D03*
X113820000Y-177434000D03*
X113820000Y-174894000D03*
X113820000Y-172354000D03*
X113820000Y-169814000D03*
X113820000Y-167274000D03*
X113820000Y-164734000D03*
X113820000Y-162194000D03*
D15*
X86100000Y-167274000D03*
X86100000Y-169814000D03*
X86100000Y-172354000D03*
X86100000Y-174894000D03*
X86100000Y-177434000D03*
X86100000Y-179974000D03*
D13*
X51250000Y-168010000D03*
D14*
X53790000Y-168010000D03*
D10*
X95470000Y-158194000D03*
X97970000Y-158194000D03*
D12*
X178123334Y-162194000D03*
X184623334Y-162194000D03*
X178123334Y-166694000D03*
X184623334Y-166694000D03*
D10*
X88660000Y-149114000D03*
D11*
X98820000Y-149114000D03*
D18*
X129370000Y-128366500D03*
D17*
X126830000Y-128366500D03*
X124290000Y-128366500D03*
D10*
X103660000Y-151654000D03*
D11*
X113820000Y-151654000D03*
D12*
X171463334Y-177434000D03*
X164963334Y-177434000D03*
X164963334Y-181934000D03*
X171463334Y-181934000D03*
D15*
X96370000Y-88060000D03*
D21*
X98910000Y-88060000D03*
X96370000Y-90600000D03*
X98910000Y-90600000D03*
X96370000Y-93140000D03*
X98910000Y-93140000D03*
D18*
X154250000Y-51360000D03*
D17*
X156790000Y-51360000D03*
X159330000Y-51360000D03*
X161870000Y-51360000D03*
X164410000Y-51360000D03*
X166950000Y-51360000D03*
X166950000Y-36120000D03*
X164410000Y-36120000D03*
X161870000Y-36120000D03*
X159330000Y-36120000D03*
X156790000Y-36120000D03*
X154250000Y-36120000D03*
D18*
X167990000Y-129086500D03*
D17*
X170530000Y-129086500D03*
X173070000Y-129086500D03*
D10*
X103660000Y-146574000D03*
D11*
X113820000Y-146574000D03*
D10*
X51250000Y-83164000D03*
D11*
X61410000Y-83164000D03*
D15*
X89400000Y-64900000D03*
X89400000Y-67440000D03*
X89400000Y-69980000D03*
X89400000Y-72520000D03*
D12*
X106295000Y-92560000D03*
X112795000Y-92560000D03*
X106295000Y-88060000D03*
X112795000Y-88060000D03*
D13*
X51250000Y-138010000D03*
D14*
X53790000Y-138010000D03*
D10*
X174463334Y-158194000D03*
D11*
X184623334Y-158194000D03*
D10*
X110440000Y-124754000D03*
X110440000Y-122254000D03*
D18*
X108980000Y-53360000D03*
D17*
X106440000Y-53360000D03*
X103900000Y-53360000D03*
D10*
X134983334Y-185934000D03*
D11*
X145143334Y-185934000D03*
D10*
X71960000Y-183474000D03*
D11*
X82120000Y-183474000D03*
D10*
X75785000Y-54845000D03*
D11*
X85945000Y-54845000D03*
D12*
X106874440Y-202350000D03*
X113374440Y-202350000D03*
X106874440Y-197850000D03*
X113374440Y-197850000D03*
D13*
X51250000Y-98010000D03*
D14*
X53790000Y-98010000D03*
D10*
X148143334Y-158194000D03*
D11*
X158303334Y-158194000D03*
D10*
X74500000Y-197850000D03*
D11*
X74500000Y-208010000D03*
D13*
X51250000Y-178010000D03*
D14*
X53790000Y-178010000D03*
D10*
X163505000Y-104116500D03*
X163505000Y-101616500D03*
X174248432Y-197850000D03*
D11*
X174248432Y-208010000D03*
M02*
