%TF.GenerationSoftware,KiCad,Pcbnew,(6.0.7)*%
%TF.CreationDate,2022-08-11T21:27:06+02:00*%
%TF.ProjectId,magic_counter,6d616769-635f-4636-9f75-6e7465722e6b,rev?*%
%TF.SameCoordinates,Original*%
%TF.FileFunction,Drillmap*%
%TF.FilePolarity,Positive*%
%FSLAX45Y45*%
G04 Gerber Fmt 4.5, Leading zero omitted, Abs format (unit mm)*
G04 Created by KiCad (PCBNEW (6.0.7)) date 2022-08-11 21:27:06*
%MOMM*%
%LPD*%
G01*
G04 APERTURE LIST*
%ADD10C,0.100000*%
%ADD11C,0.200000*%
%ADD12C,0.040000*%
%ADD13C,0.080000*%
%ADD14C,0.090000*%
%ADD15C,0.110000*%
%ADD16C,0.120000*%
%ADD17C,0.320000*%
G04 APERTURE END LIST*
D10*
X15908702Y-2491512D02*
G75*
G03*
X15795957Y-2365406I-119413J6692D01*
G01*
X3282597Y-22604257D02*
X15782597Y-22604257D01*
X3295956Y-2365412D02*
G75*
G03*
X3169851Y-2478152I-6687J-119418D01*
G01*
X15795957Y-2365406D02*
X3295957Y-2365406D01*
X15782597Y-22604252D02*
G75*
G03*
X15908702Y-22491511I6683J119423D01*
G01*
X15908702Y-2491512D02*
X15908702Y-22491511D01*
X3169851Y-22478152D02*
G75*
G03*
X3282597Y-22604257I119439J-6668D01*
G01*
X3169851Y-2478152D02*
X3169851Y-22478152D01*
D11*
D12*
X5284619Y-16922381D02*
X5324619Y-16962381D01*
X5324619Y-16922381D02*
X5284619Y-16962381D01*
X5457550Y-8041000D02*
X5497550Y-8081000D01*
X5497550Y-8041000D02*
X5457550Y-8081000D01*
X5663000Y-16235000D02*
X5703000Y-16275000D01*
X5703000Y-16235000D02*
X5663000Y-16275000D01*
X5755000Y-12041000D02*
X5795000Y-12081000D01*
X5795000Y-12041000D02*
X5755000Y-12081000D01*
X5961050Y-7843000D02*
X6001050Y-7883000D01*
X6001050Y-7843000D02*
X5961050Y-7883000D01*
X6001000Y-11223000D02*
X6041000Y-11263000D01*
X6041000Y-11223000D02*
X6001000Y-11263000D01*
X6143275Y-11269725D02*
X6183275Y-11309725D01*
X6183275Y-11269725D02*
X6143275Y-11309725D01*
X6152200Y-5299300D02*
X6192200Y-5339300D01*
X6192200Y-5299300D02*
X6152200Y-5339300D01*
X6273000Y-16905000D02*
X6313000Y-16945000D01*
X6313000Y-16905000D02*
X6273000Y-16945000D01*
X6370000Y-11189000D02*
X6410000Y-11229000D01*
X6410000Y-11189000D02*
X6370000Y-11229000D01*
X6425000Y-17083000D02*
X6465000Y-17123000D01*
X6465000Y-17083000D02*
X6425000Y-17123000D01*
X6508005Y-11531995D02*
X6548005Y-11571995D01*
X6548005Y-11531995D02*
X6508005Y-11571995D01*
X7077000Y-16726550D02*
X7117000Y-16766550D01*
X7117000Y-16726550D02*
X7077000Y-16766550D01*
X7077000Y-17059000D02*
X7117000Y-17099000D01*
X7117000Y-17059000D02*
X7077000Y-17099000D01*
X7113000Y-10111000D02*
X7153000Y-10151000D01*
X7153000Y-10111000D02*
X7113000Y-10151000D01*
X7310000Y-17009000D02*
X7350000Y-17049000D01*
X7350000Y-17009000D02*
X7310000Y-17049000D01*
X7372000Y-13764700D02*
X7412000Y-13804700D01*
X7412000Y-13764700D02*
X7372000Y-13804700D01*
X7572000Y-17008000D02*
X7612000Y-17048000D01*
X7612000Y-17008000D02*
X7572000Y-17048000D01*
X7612000Y-9446000D02*
X7652000Y-9486000D01*
X7652000Y-9446000D02*
X7612000Y-9486000D01*
X7845000Y-11605000D02*
X7885000Y-11645000D01*
X7885000Y-11605000D02*
X7845000Y-11645000D01*
X8668000Y-16911000D02*
X8708000Y-16951000D01*
X8708000Y-16911000D02*
X8668000Y-16951000D01*
X8774000Y-10431550D02*
X8814000Y-10471550D01*
X8814000Y-10431550D02*
X8774000Y-10471550D01*
X9012000Y-9080000D02*
X9052000Y-9120000D01*
X9052000Y-9080000D02*
X9012000Y-9120000D01*
X9225000Y-9552000D02*
X9265000Y-9592000D01*
X9265000Y-9552000D02*
X9225000Y-9592000D01*
X9225000Y-10405450D02*
X9265000Y-10445450D01*
X9265000Y-10405450D02*
X9225000Y-10445450D01*
X9962770Y-8993230D02*
X10002770Y-9033230D01*
X10002770Y-8993230D02*
X9962770Y-9033230D01*
X9977000Y-4897700D02*
X10017000Y-4937700D01*
X10017000Y-4897700D02*
X9977000Y-4937700D01*
X10256000Y-9833000D02*
X10296000Y-9873000D01*
X10296000Y-9833000D02*
X10256000Y-9873000D01*
X10328000Y-12714700D02*
X10368000Y-12754700D01*
X10368000Y-12714700D02*
X10328000Y-12754700D01*
X10629000Y-5972000D02*
X10669000Y-6012000D01*
X10669000Y-5972000D02*
X10629000Y-6012000D01*
X10805000Y-2992056D02*
X10845000Y-3032056D01*
X10845000Y-2992056D02*
X10805000Y-3032056D01*
X10896000Y-18154450D02*
X10936000Y-18194450D01*
X10936000Y-18154450D02*
X10896000Y-18194450D01*
X11218000Y-10333000D02*
X11258000Y-10373000D01*
X11258000Y-10333000D02*
X11218000Y-10373000D01*
X11415450Y-7362000D02*
X11455450Y-7402000D01*
X11455450Y-7362000D02*
X11415450Y-7402000D01*
X11468550Y-3726270D02*
X11508550Y-3766270D01*
X11508550Y-3726270D02*
X11468550Y-3766270D01*
X11835000Y-14313000D02*
X11875000Y-14353000D01*
X11875000Y-14313000D02*
X11835000Y-14353000D01*
X12002000Y-6908000D02*
X12042000Y-6948000D01*
X12042000Y-6908000D02*
X12002000Y-6948000D01*
X13371759Y-10413650D02*
X13411759Y-10453650D01*
X13411759Y-10413650D02*
X13371759Y-10453650D01*
X13372949Y-10558550D02*
X13412949Y-10598550D01*
X13412949Y-10558550D02*
X13372949Y-10598550D01*
X13441454Y-10485769D02*
X13481454Y-10525769D01*
X13481454Y-10485769D02*
X13441454Y-10525769D01*
X13442000Y-10631000D02*
X13482000Y-10671000D01*
X13482000Y-10631000D02*
X13442000Y-10671000D01*
X13850450Y-9757550D02*
X13890450Y-9797550D01*
X13890450Y-9757550D02*
X13850450Y-9797550D01*
X13851445Y-9553555D02*
X13891445Y-9593555D01*
X13891445Y-9553555D02*
X13851445Y-9593555D01*
X13950400Y-9757550D02*
X13990400Y-9797550D01*
X13990400Y-9757550D02*
X13950400Y-9797550D01*
D13*
X4085500Y-7269250D02*
G75*
G03*
X4085500Y-7269250I-40000J0D01*
G01*
X4085500Y-8031250D02*
G75*
G03*
X4085500Y-8031250I-40000J0D01*
G01*
X4085500Y-8400800D02*
G75*
G03*
X4085500Y-8400800I-40000J0D01*
G01*
X4085500Y-9162800D02*
G75*
G03*
X4085500Y-9162800I-40000J0D01*
G01*
X4085500Y-9532350D02*
G75*
G03*
X4085500Y-9532350I-40000J0D01*
G01*
X4085500Y-10294350D02*
G75*
G03*
X4085500Y-10294350I-40000J0D01*
G01*
X4085500Y-10663900D02*
G75*
G03*
X4085500Y-10663900I-40000J0D01*
G01*
X4085500Y-11425900D02*
G75*
G03*
X4085500Y-11425900I-40000J0D01*
G01*
X4085500Y-11795450D02*
G75*
G03*
X4085500Y-11795450I-40000J0D01*
G01*
X4085500Y-12557450D02*
G75*
G03*
X4085500Y-12557450I-40000J0D01*
G01*
X4085500Y-12927000D02*
G75*
G03*
X4085500Y-12927000I-40000J0D01*
G01*
X4085500Y-13689000D02*
G75*
G03*
X4085500Y-13689000I-40000J0D01*
G01*
X4085500Y-14058550D02*
G75*
G03*
X4085500Y-14058550I-40000J0D01*
G01*
X4085500Y-14820550D02*
G75*
G03*
X4085500Y-14820550I-40000J0D01*
G01*
X4085500Y-15190100D02*
G75*
G03*
X4085500Y-15190100I-40000J0D01*
G01*
X4085500Y-15952100D02*
G75*
G03*
X4085500Y-15952100I-40000J0D01*
G01*
X4085500Y-16321650D02*
G75*
G03*
X4085500Y-16321650I-40000J0D01*
G01*
X4085500Y-17083650D02*
G75*
G03*
X4085500Y-17083650I-40000J0D01*
G01*
X4085500Y-17453200D02*
G75*
G03*
X4085500Y-17453200I-40000J0D01*
G01*
X4085500Y-18215200D02*
G75*
G03*
X4085500Y-18215200I-40000J0D01*
G01*
X4085500Y-18584750D02*
G75*
G03*
X4085500Y-18584750I-40000J0D01*
G01*
X4085500Y-19346750D02*
G75*
G03*
X4085500Y-19346750I-40000J0D01*
G01*
X4085500Y-19716350D02*
G75*
G03*
X4085500Y-19716350I-40000J0D01*
G01*
X4085500Y-20478350D02*
G75*
G03*
X4085500Y-20478350I-40000J0D01*
G01*
X5774000Y-20478350D02*
G75*
G03*
X5774000Y-20478350I-40000J0D01*
G01*
X5839500Y-2921250D02*
G75*
G03*
X5839500Y-2921250I-40000J0D01*
G01*
X5839500Y-3321250D02*
G75*
G03*
X5839500Y-3321250I-40000J0D01*
G01*
X5839500Y-3575250D02*
G75*
G03*
X5839500Y-3575250I-40000J0D01*
G01*
X5839500Y-3829250D02*
G75*
G03*
X5839500Y-3829250I-40000J0D01*
G01*
X5839500Y-4083250D02*
G75*
G03*
X5839500Y-4083250I-40000J0D01*
G01*
X5839500Y-4337250D02*
G75*
G03*
X5839500Y-4337250I-40000J0D01*
G01*
X5839500Y-4591250D02*
G75*
G03*
X5839500Y-4591250I-40000J0D01*
G01*
X5839500Y-4845250D02*
G75*
G03*
X5839500Y-4845250I-40000J0D01*
G01*
X5839500Y-5099250D02*
G75*
G03*
X5839500Y-5099250I-40000J0D01*
G01*
X5839500Y-5599250D02*
G75*
G03*
X5839500Y-5599250I-40000J0D01*
G01*
X5839500Y-5999250D02*
G75*
G03*
X5839500Y-5999250I-40000J0D01*
G01*
X5839500Y-6253250D02*
G75*
G03*
X5839500Y-6253250I-40000J0D01*
G01*
X5839500Y-6507250D02*
G75*
G03*
X5839500Y-6507250I-40000J0D01*
G01*
X5839500Y-6761250D02*
G75*
G03*
X5839500Y-6761250I-40000J0D01*
G01*
X5839500Y-7015250D02*
G75*
G03*
X5839500Y-7015250I-40000J0D01*
G01*
X5839500Y-7269250D02*
G75*
G03*
X5839500Y-7269250I-40000J0D01*
G01*
X5839500Y-7523250D02*
G75*
G03*
X5839500Y-7523250I-40000J0D01*
G01*
X5839500Y-7777250D02*
G75*
G03*
X5839500Y-7777250I-40000J0D01*
G01*
X5839500Y-12408750D02*
G75*
G03*
X5839500Y-12408750I-40000J0D01*
G01*
X5839500Y-12808750D02*
G75*
G03*
X5839500Y-12808750I-40000J0D01*
G01*
X5839500Y-13062750D02*
G75*
G03*
X5839500Y-13062750I-40000J0D01*
G01*
X5839500Y-13316750D02*
G75*
G03*
X5839500Y-13316750I-40000J0D01*
G01*
X5839500Y-13570750D02*
G75*
G03*
X5839500Y-13570750I-40000J0D01*
G01*
X5839500Y-13824750D02*
G75*
G03*
X5839500Y-13824750I-40000J0D01*
G01*
X5839500Y-14078750D02*
G75*
G03*
X5839500Y-14078750I-40000J0D01*
G01*
X5839500Y-14332750D02*
G75*
G03*
X5839500Y-14332750I-40000J0D01*
G01*
X5839500Y-14586750D02*
G75*
G03*
X5839500Y-14586750I-40000J0D01*
G01*
X5839500Y-15086750D02*
G75*
G03*
X5839500Y-15086750I-40000J0D01*
G01*
X5839500Y-15336750D02*
G75*
G03*
X5839500Y-15336750I-40000J0D01*
G01*
X5839500Y-15598750D02*
G75*
G03*
X5839500Y-15598750I-40000J0D01*
G01*
X5839500Y-15848750D02*
G75*
G03*
X5839500Y-15848750I-40000J0D01*
G01*
X5839500Y-16552000D02*
G75*
G03*
X5839500Y-16552000I-40000J0D01*
G01*
X5839500Y-16802000D02*
G75*
G03*
X5839500Y-16802000I-40000J0D01*
G01*
X5839500Y-17103000D02*
G75*
G03*
X5839500Y-17103000I-40000J0D01*
G01*
X5839500Y-17353000D02*
G75*
G03*
X5839500Y-17353000I-40000J0D01*
G01*
X5839500Y-17822750D02*
G75*
G03*
X5839500Y-17822750I-40000J0D01*
G01*
X5839500Y-18072750D02*
G75*
G03*
X5839500Y-18072750I-40000J0D01*
G01*
X5839500Y-18334750D02*
G75*
G03*
X5839500Y-18334750I-40000J0D01*
G01*
X5839500Y-18584750D02*
G75*
G03*
X5839500Y-18584750I-40000J0D01*
G01*
X6089500Y-2921250D02*
G75*
G03*
X6089500Y-2921250I-40000J0D01*
G01*
X6089500Y-5599250D02*
G75*
G03*
X6089500Y-5599250I-40000J0D01*
G01*
X6089500Y-12408750D02*
G75*
G03*
X6089500Y-12408750I-40000J0D01*
G01*
X6239500Y-15086750D02*
G75*
G03*
X6239500Y-15086750I-40000J0D01*
G01*
X6239500Y-15848750D02*
G75*
G03*
X6239500Y-15848750I-40000J0D01*
G01*
X6239500Y-16560750D02*
G75*
G03*
X6239500Y-16560750I-40000J0D01*
G01*
X6239500Y-17322750D02*
G75*
G03*
X6239500Y-17322750I-40000J0D01*
G01*
X6239500Y-17822750D02*
G75*
G03*
X6239500Y-17822750I-40000J0D01*
G01*
X6239500Y-18584750D02*
G75*
G03*
X6239500Y-18584750I-40000J0D01*
G01*
X6351500Y-2921250D02*
G75*
G03*
X6351500Y-2921250I-40000J0D01*
G01*
X6351500Y-5599250D02*
G75*
G03*
X6351500Y-5599250I-40000J0D01*
G01*
X6351500Y-12408750D02*
G75*
G03*
X6351500Y-12408750I-40000J0D01*
G01*
X6493500Y-15086750D02*
G75*
G03*
X6493500Y-15086750I-40000J0D01*
G01*
X6493500Y-15848750D02*
G75*
G03*
X6493500Y-15848750I-40000J0D01*
G01*
X6493500Y-16560750D02*
G75*
G03*
X6493500Y-16560750I-40000J0D01*
G01*
X6493500Y-17322750D02*
G75*
G03*
X6493500Y-17322750I-40000J0D01*
G01*
X6493500Y-17822750D02*
G75*
G03*
X6493500Y-17822750I-40000J0D01*
G01*
X6493500Y-18584750D02*
G75*
G03*
X6493500Y-18584750I-40000J0D01*
G01*
X6536000Y-20478350D02*
G75*
G03*
X6536000Y-20478350I-40000J0D01*
G01*
X6601500Y-2921250D02*
G75*
G03*
X6601500Y-2921250I-40000J0D01*
G01*
X6601500Y-3321250D02*
G75*
G03*
X6601500Y-3321250I-40000J0D01*
G01*
X6601500Y-3575250D02*
G75*
G03*
X6601500Y-3575250I-40000J0D01*
G01*
X6601500Y-3829250D02*
G75*
G03*
X6601500Y-3829250I-40000J0D01*
G01*
X6601500Y-4083250D02*
G75*
G03*
X6601500Y-4083250I-40000J0D01*
G01*
X6601500Y-4337250D02*
G75*
G03*
X6601500Y-4337250I-40000J0D01*
G01*
X6601500Y-4591250D02*
G75*
G03*
X6601500Y-4591250I-40000J0D01*
G01*
X6601500Y-4845250D02*
G75*
G03*
X6601500Y-4845250I-40000J0D01*
G01*
X6601500Y-5099250D02*
G75*
G03*
X6601500Y-5099250I-40000J0D01*
G01*
X6601500Y-5599250D02*
G75*
G03*
X6601500Y-5599250I-40000J0D01*
G01*
X6601500Y-5999250D02*
G75*
G03*
X6601500Y-5999250I-40000J0D01*
G01*
X6601500Y-6253250D02*
G75*
G03*
X6601500Y-6253250I-40000J0D01*
G01*
X6601500Y-6507250D02*
G75*
G03*
X6601500Y-6507250I-40000J0D01*
G01*
X6601500Y-6761250D02*
G75*
G03*
X6601500Y-6761250I-40000J0D01*
G01*
X6601500Y-7015250D02*
G75*
G03*
X6601500Y-7015250I-40000J0D01*
G01*
X6601500Y-7269250D02*
G75*
G03*
X6601500Y-7269250I-40000J0D01*
G01*
X6601500Y-7523250D02*
G75*
G03*
X6601500Y-7523250I-40000J0D01*
G01*
X6601500Y-7777250D02*
G75*
G03*
X6601500Y-7777250I-40000J0D01*
G01*
X6601500Y-12408750D02*
G75*
G03*
X6601500Y-12408750I-40000J0D01*
G01*
X6601500Y-12808750D02*
G75*
G03*
X6601500Y-12808750I-40000J0D01*
G01*
X6601500Y-13062750D02*
G75*
G03*
X6601500Y-13062750I-40000J0D01*
G01*
X6601500Y-13316750D02*
G75*
G03*
X6601500Y-13316750I-40000J0D01*
G01*
X6601500Y-13570750D02*
G75*
G03*
X6601500Y-13570750I-40000J0D01*
G01*
X6601500Y-13824750D02*
G75*
G03*
X6601500Y-13824750I-40000J0D01*
G01*
X6601500Y-14078750D02*
G75*
G03*
X6601500Y-14078750I-40000J0D01*
G01*
X6601500Y-14332750D02*
G75*
G03*
X6601500Y-14332750I-40000J0D01*
G01*
X6601500Y-14586750D02*
G75*
G03*
X6601500Y-14586750I-40000J0D01*
G01*
X6639500Y-9853000D02*
G75*
G03*
X6639500Y-9853000I-40000J0D01*
G01*
X6639500Y-10353000D02*
G75*
G03*
X6639500Y-10353000I-40000J0D01*
G01*
X6747500Y-15086750D02*
G75*
G03*
X6747500Y-15086750I-40000J0D01*
G01*
X6747500Y-15848750D02*
G75*
G03*
X6747500Y-15848750I-40000J0D01*
G01*
X6747500Y-16560750D02*
G75*
G03*
X6747500Y-16560750I-40000J0D01*
G01*
X6747500Y-17322750D02*
G75*
G03*
X6747500Y-17322750I-40000J0D01*
G01*
X6747500Y-17822750D02*
G75*
G03*
X6747500Y-17822750I-40000J0D01*
G01*
X6747500Y-18584750D02*
G75*
G03*
X6747500Y-18584750I-40000J0D01*
G01*
X7001500Y-15086750D02*
G75*
G03*
X7001500Y-15086750I-40000J0D01*
G01*
X7001500Y-15848750D02*
G75*
G03*
X7001500Y-15848750I-40000J0D01*
G01*
X7001500Y-16560750D02*
G75*
G03*
X7001500Y-16560750I-40000J0D01*
G01*
X7001500Y-17322750D02*
G75*
G03*
X7001500Y-17322750I-40000J0D01*
G01*
X7001500Y-17822750D02*
G75*
G03*
X7001500Y-17822750I-40000J0D01*
G01*
X7001500Y-18584750D02*
G75*
G03*
X7001500Y-18584750I-40000J0D01*
G01*
X7084000Y-20478350D02*
G75*
G03*
X7084000Y-20478350I-40000J0D01*
G01*
X7133000Y-3067250D02*
G75*
G03*
X7133000Y-3067250I-40000J0D01*
G01*
X7133000Y-3575250D02*
G75*
G03*
X7133000Y-3575250I-40000J0D01*
G01*
X7133000Y-4083250D02*
G75*
G03*
X7133000Y-4083250I-40000J0D01*
G01*
X7133000Y-4591250D02*
G75*
G03*
X7133000Y-4591250I-40000J0D01*
G01*
X7133000Y-12554750D02*
G75*
G03*
X7133000Y-12554750I-40000J0D01*
G01*
X7133000Y-13062750D02*
G75*
G03*
X7133000Y-13062750I-40000J0D01*
G01*
X7133000Y-13570750D02*
G75*
G03*
X7133000Y-13570750I-40000J0D01*
G01*
X7133000Y-14078750D02*
G75*
G03*
X7133000Y-14078750I-40000J0D01*
G01*
X7255500Y-15086750D02*
G75*
G03*
X7255500Y-15086750I-40000J0D01*
G01*
X7255500Y-15848750D02*
G75*
G03*
X7255500Y-15848750I-40000J0D01*
G01*
X7255500Y-16560750D02*
G75*
G03*
X7255500Y-16560750I-40000J0D01*
G01*
X7255500Y-17322750D02*
G75*
G03*
X7255500Y-17322750I-40000J0D01*
G01*
X7255500Y-17822750D02*
G75*
G03*
X7255500Y-17822750I-40000J0D01*
G01*
X7255500Y-18584750D02*
G75*
G03*
X7255500Y-18584750I-40000J0D01*
G01*
X7401500Y-5653250D02*
G75*
G03*
X7401500Y-5653250I-40000J0D01*
G01*
X7401500Y-6253250D02*
G75*
G03*
X7401500Y-6253250I-40000J0D01*
G01*
X7401500Y-6761250D02*
G75*
G03*
X7401500Y-6761250I-40000J0D01*
G01*
X7401500Y-7269250D02*
G75*
G03*
X7401500Y-7269250I-40000J0D01*
G01*
X7401500Y-7777250D02*
G75*
G03*
X7401500Y-7777250I-40000J0D01*
G01*
X7401500Y-8334000D02*
G75*
G03*
X7401500Y-8334000I-40000J0D01*
G01*
X7401500Y-9096000D02*
G75*
G03*
X7401500Y-9096000I-40000J0D01*
G01*
X7401500Y-9853000D02*
G75*
G03*
X7401500Y-9853000I-40000J0D01*
G01*
X7401500Y-10353000D02*
G75*
G03*
X7401500Y-10353000I-40000J0D01*
G01*
X7509500Y-15086750D02*
G75*
G03*
X7509500Y-15086750I-40000J0D01*
G01*
X7509500Y-15848750D02*
G75*
G03*
X7509500Y-15848750I-40000J0D01*
G01*
X7509500Y-16560750D02*
G75*
G03*
X7509500Y-16560750I-40000J0D01*
G01*
X7509500Y-17322750D02*
G75*
G03*
X7509500Y-17322750I-40000J0D01*
G01*
X7509500Y-17822750D02*
G75*
G03*
X7509500Y-17822750I-40000J0D01*
G01*
X7509500Y-18584750D02*
G75*
G03*
X7509500Y-18584750I-40000J0D01*
G01*
X7655500Y-5653250D02*
G75*
G03*
X7655500Y-5653250I-40000J0D01*
G01*
X7763500Y-15086750D02*
G75*
G03*
X7763500Y-15086750I-40000J0D01*
G01*
X7763500Y-15848750D02*
G75*
G03*
X7763500Y-15848750I-40000J0D01*
G01*
X7763500Y-16560750D02*
G75*
G03*
X7763500Y-16560750I-40000J0D01*
G01*
X7763500Y-17322750D02*
G75*
G03*
X7763500Y-17322750I-40000J0D01*
G01*
X7763500Y-17822750D02*
G75*
G03*
X7763500Y-17822750I-40000J0D01*
G01*
X7763500Y-18584750D02*
G75*
G03*
X7763500Y-18584750I-40000J0D01*
G01*
X7846000Y-20478350D02*
G75*
G03*
X7846000Y-20478350I-40000J0D01*
G01*
X7895000Y-3067250D02*
G75*
G03*
X7895000Y-3067250I-40000J0D01*
G01*
X7895000Y-3575250D02*
G75*
G03*
X7895000Y-3575250I-40000J0D01*
G01*
X7895000Y-4083250D02*
G75*
G03*
X7895000Y-4083250I-40000J0D01*
G01*
X7895000Y-4591250D02*
G75*
G03*
X7895000Y-4591250I-40000J0D01*
G01*
X7895000Y-12554750D02*
G75*
G03*
X7895000Y-12554750I-40000J0D01*
G01*
X7895000Y-13062750D02*
G75*
G03*
X7895000Y-13062750I-40000J0D01*
G01*
X7895000Y-13570750D02*
G75*
G03*
X7895000Y-13570750I-40000J0D01*
G01*
X7895000Y-14078750D02*
G75*
G03*
X7895000Y-14078750I-40000J0D01*
G01*
X7909500Y-5653250D02*
G75*
G03*
X7909500Y-5653250I-40000J0D01*
G01*
X8017500Y-15086750D02*
G75*
G03*
X8017500Y-15086750I-40000J0D01*
G01*
X8017500Y-15848750D02*
G75*
G03*
X8017500Y-15848750I-40000J0D01*
G01*
X8017500Y-16560750D02*
G75*
G03*
X8017500Y-16560750I-40000J0D01*
G01*
X8017500Y-17322750D02*
G75*
G03*
X8017500Y-17322750I-40000J0D01*
G01*
X8017500Y-17822750D02*
G75*
G03*
X8017500Y-17822750I-40000J0D01*
G01*
X8017500Y-18584750D02*
G75*
G03*
X8017500Y-18584750I-40000J0D01*
G01*
X8163500Y-6253250D02*
G75*
G03*
X8163500Y-6253250I-40000J0D01*
G01*
X8163500Y-6761250D02*
G75*
G03*
X8163500Y-6761250I-40000J0D01*
G01*
X8163500Y-7269250D02*
G75*
G03*
X8163500Y-7269250I-40000J0D01*
G01*
X8163500Y-7777250D02*
G75*
G03*
X8163500Y-7777250I-40000J0D01*
G01*
X8189000Y-3321250D02*
G75*
G03*
X8189000Y-3321250I-40000J0D01*
G01*
X8189000Y-3829250D02*
G75*
G03*
X8189000Y-3829250I-40000J0D01*
G01*
X8189000Y-4337250D02*
G75*
G03*
X8189000Y-4337250I-40000J0D01*
G01*
X8189000Y-4845250D02*
G75*
G03*
X8189000Y-4845250I-40000J0D01*
G01*
X8189000Y-12808750D02*
G75*
G03*
X8189000Y-12808750I-40000J0D01*
G01*
X8189000Y-13316750D02*
G75*
G03*
X8189000Y-13316750I-40000J0D01*
G01*
X8189000Y-13824750D02*
G75*
G03*
X8189000Y-13824750I-40000J0D01*
G01*
X8189000Y-14332750D02*
G75*
G03*
X8189000Y-14332750I-40000J0D01*
G01*
X8384500Y-9329000D02*
G75*
G03*
X8384500Y-9329000I-40000J0D01*
G01*
X8384500Y-10853000D02*
G75*
G03*
X8384500Y-10853000I-40000J0D01*
G01*
X8394000Y-20478350D02*
G75*
G03*
X8394000Y-20478350I-40000J0D01*
G01*
X8409500Y-5653250D02*
G75*
G03*
X8409500Y-5653250I-40000J0D01*
G01*
X8638500Y-9329000D02*
G75*
G03*
X8638500Y-9329000I-40000J0D01*
G01*
X8638500Y-10853000D02*
G75*
G03*
X8638500Y-10853000I-40000J0D01*
G01*
X8663500Y-5653250D02*
G75*
G03*
X8663500Y-5653250I-40000J0D01*
G01*
X8745500Y-6253250D02*
G75*
G03*
X8745500Y-6253250I-40000J0D01*
G01*
X8745500Y-6507250D02*
G75*
G03*
X8745500Y-6507250I-40000J0D01*
G01*
X8745500Y-6761250D02*
G75*
G03*
X8745500Y-6761250I-40000J0D01*
G01*
X8745500Y-7269250D02*
G75*
G03*
X8745500Y-7269250I-40000J0D01*
G01*
X8745500Y-7523250D02*
G75*
G03*
X8745500Y-7523250I-40000J0D01*
G01*
X8745500Y-7777250D02*
G75*
G03*
X8745500Y-7777250I-40000J0D01*
G01*
X8892500Y-9329000D02*
G75*
G03*
X8892500Y-9329000I-40000J0D01*
G01*
X8892500Y-10853000D02*
G75*
G03*
X8892500Y-10853000I-40000J0D01*
G01*
X8917500Y-5653250D02*
G75*
G03*
X8917500Y-5653250I-40000J0D01*
G01*
X8951000Y-3321250D02*
G75*
G03*
X8951000Y-3321250I-40000J0D01*
G01*
X8951000Y-3829250D02*
G75*
G03*
X8951000Y-3829250I-40000J0D01*
G01*
X8951000Y-4337250D02*
G75*
G03*
X8951000Y-4337250I-40000J0D01*
G01*
X8951000Y-4845250D02*
G75*
G03*
X8951000Y-4845250I-40000J0D01*
G01*
X8951000Y-12808750D02*
G75*
G03*
X8951000Y-12808750I-40000J0D01*
G01*
X8951000Y-13316750D02*
G75*
G03*
X8951000Y-13316750I-40000J0D01*
G01*
X8951000Y-13824750D02*
G75*
G03*
X8951000Y-13824750I-40000J0D01*
G01*
X8951000Y-14332750D02*
G75*
G03*
X8951000Y-14332750I-40000J0D01*
G01*
X9146500Y-9329000D02*
G75*
G03*
X9146500Y-9329000I-40000J0D01*
G01*
X9146500Y-10853000D02*
G75*
G03*
X9146500Y-10853000I-40000J0D01*
G01*
X9156000Y-20478350D02*
G75*
G03*
X9156000Y-20478350I-40000J0D01*
G01*
X9289000Y-11622500D02*
G75*
G03*
X9289000Y-11622500I-40000J0D01*
G01*
X9400500Y-9329000D02*
G75*
G03*
X9400500Y-9329000I-40000J0D01*
G01*
X9400500Y-10853000D02*
G75*
G03*
X9400500Y-10853000I-40000J0D01*
G01*
X9446000Y-17822750D02*
G75*
G03*
X9446000Y-17822750I-40000J0D01*
G01*
X9446000Y-18072750D02*
G75*
G03*
X9446000Y-18072750I-40000J0D01*
G01*
X9446000Y-18334750D02*
G75*
G03*
X9446000Y-18334750I-40000J0D01*
G01*
X9446000Y-18584750D02*
G75*
G03*
X9446000Y-18584750I-40000J0D01*
G01*
X9496000Y-5599250D02*
G75*
G03*
X9496000Y-5599250I-40000J0D01*
G01*
X9496000Y-6361250D02*
G75*
G03*
X9496000Y-6361250I-40000J0D01*
G01*
X9496000Y-6760000D02*
G75*
G03*
X9496000Y-6760000I-40000J0D01*
G01*
X9496000Y-7522000D02*
G75*
G03*
X9496000Y-7522000I-40000J0D01*
G01*
X9496000Y-8022000D02*
G75*
G03*
X9496000Y-8022000I-40000J0D01*
G01*
X9496000Y-8272000D02*
G75*
G03*
X9496000Y-8272000I-40000J0D01*
G01*
X9496000Y-8534000D02*
G75*
G03*
X9496000Y-8534000I-40000J0D01*
G01*
X9496000Y-8784000D02*
G75*
G03*
X9496000Y-8784000I-40000J0D01*
G01*
X9496000Y-15086750D02*
G75*
G03*
X9496000Y-15086750I-40000J0D01*
G01*
X9496000Y-15848750D02*
G75*
G03*
X9496000Y-15848750I-40000J0D01*
G01*
X9496000Y-16248750D02*
G75*
G03*
X9496000Y-16248750I-40000J0D01*
G01*
X9496000Y-17010750D02*
G75*
G03*
X9496000Y-17010750I-40000J0D01*
G01*
X9654500Y-9329000D02*
G75*
G03*
X9654500Y-9329000I-40000J0D01*
G01*
X9654500Y-10853000D02*
G75*
G03*
X9654500Y-10853000I-40000J0D01*
G01*
X9704000Y-20478350D02*
G75*
G03*
X9704000Y-20478350I-40000J0D01*
G01*
X9797000Y-12038000D02*
G75*
G03*
X9797000Y-12038000I-40000J0D01*
G01*
X9846000Y-17822750D02*
G75*
G03*
X9846000Y-17822750I-40000J0D01*
G01*
X9846000Y-18584750D02*
G75*
G03*
X9846000Y-18584750I-40000J0D01*
G01*
X9896000Y-8022000D02*
G75*
G03*
X9896000Y-8022000I-40000J0D01*
G01*
X9896000Y-8784000D02*
G75*
G03*
X9896000Y-8784000I-40000J0D01*
G01*
X9908500Y-9329000D02*
G75*
G03*
X9908500Y-9329000I-40000J0D01*
G01*
X9908500Y-10853000D02*
G75*
G03*
X9908500Y-10853000I-40000J0D01*
G01*
X10051000Y-11622500D02*
G75*
G03*
X10051000Y-11622500I-40000J0D01*
G01*
X10051000Y-12038000D02*
G75*
G03*
X10051000Y-12038000I-40000J0D01*
G01*
X10100000Y-17822750D02*
G75*
G03*
X10100000Y-17822750I-40000J0D01*
G01*
X10100000Y-18584750D02*
G75*
G03*
X10100000Y-18584750I-40000J0D01*
G01*
X10150000Y-8022000D02*
G75*
G03*
X10150000Y-8022000I-40000J0D01*
G01*
X10150000Y-8784000D02*
G75*
G03*
X10150000Y-8784000I-40000J0D01*
G01*
X10162500Y-9329000D02*
G75*
G03*
X10162500Y-9329000I-40000J0D01*
G01*
X10162500Y-10853000D02*
G75*
G03*
X10162500Y-10853000I-40000J0D01*
G01*
X10166500Y-11253000D02*
G75*
G03*
X10166500Y-11253000I-40000J0D01*
G01*
X10305000Y-12038000D02*
G75*
G03*
X10305000Y-12038000I-40000J0D01*
G01*
X10354000Y-17822750D02*
G75*
G03*
X10354000Y-17822750I-40000J0D01*
G01*
X10354000Y-18584750D02*
G75*
G03*
X10354000Y-18584750I-40000J0D01*
G01*
X10404000Y-8022000D02*
G75*
G03*
X10404000Y-8022000I-40000J0D01*
G01*
X10404000Y-8784000D02*
G75*
G03*
X10404000Y-8784000I-40000J0D01*
G01*
X10416500Y-9329000D02*
G75*
G03*
X10416500Y-9329000I-40000J0D01*
G01*
X10416500Y-10853000D02*
G75*
G03*
X10416500Y-10853000I-40000J0D01*
G01*
X10416500Y-11253000D02*
G75*
G03*
X10416500Y-11253000I-40000J0D01*
G01*
X10466000Y-20478350D02*
G75*
G03*
X10466000Y-20478350I-40000J0D01*
G01*
X10608000Y-17822750D02*
G75*
G03*
X10608000Y-17822750I-40000J0D01*
G01*
X10608000Y-18584750D02*
G75*
G03*
X10608000Y-18584750I-40000J0D01*
G01*
X10658000Y-8022000D02*
G75*
G03*
X10658000Y-8022000I-40000J0D01*
G01*
X10658000Y-8784000D02*
G75*
G03*
X10658000Y-8784000I-40000J0D01*
G01*
X10670500Y-9329000D02*
G75*
G03*
X10670500Y-9329000I-40000J0D01*
G01*
X10670500Y-10853000D02*
G75*
G03*
X10670500Y-10853000I-40000J0D01*
G01*
X10674500Y-11253000D02*
G75*
G03*
X10674500Y-11253000I-40000J0D01*
G01*
X10745667Y-11622500D02*
G75*
G03*
X10745667Y-11622500I-40000J0D01*
G01*
X10862000Y-17822750D02*
G75*
G03*
X10862000Y-17822750I-40000J0D01*
G01*
X10862000Y-18584750D02*
G75*
G03*
X10862000Y-18584750I-40000J0D01*
G01*
X10872667Y-5599250D02*
G75*
G03*
X10872667Y-5599250I-40000J0D01*
G01*
X10872667Y-6361250D02*
G75*
G03*
X10872667Y-6361250I-40000J0D01*
G01*
X10872667Y-6760000D02*
G75*
G03*
X10872667Y-6760000I-40000J0D01*
G01*
X10872667Y-7522000D02*
G75*
G03*
X10872667Y-7522000I-40000J0D01*
G01*
X10872667Y-15086750D02*
G75*
G03*
X10872667Y-15086750I-40000J0D01*
G01*
X10872667Y-15848750D02*
G75*
G03*
X10872667Y-15848750I-40000J0D01*
G01*
X10872667Y-16248750D02*
G75*
G03*
X10872667Y-16248750I-40000J0D01*
G01*
X10872667Y-17010750D02*
G75*
G03*
X10872667Y-17010750I-40000J0D01*
G01*
X10912000Y-8022000D02*
G75*
G03*
X10912000Y-8022000I-40000J0D01*
G01*
X10912000Y-8784000D02*
G75*
G03*
X10912000Y-8784000I-40000J0D01*
G01*
X10924500Y-9329000D02*
G75*
G03*
X10924500Y-9329000I-40000J0D01*
G01*
X10924500Y-10853000D02*
G75*
G03*
X10924500Y-10853000I-40000J0D01*
G01*
X10924500Y-11253000D02*
G75*
G03*
X10924500Y-11253000I-40000J0D01*
G01*
X11014000Y-20478350D02*
G75*
G03*
X11014000Y-20478350I-40000J0D01*
G01*
X11116000Y-17822750D02*
G75*
G03*
X11116000Y-17822750I-40000J0D01*
G01*
X11116000Y-18584750D02*
G75*
G03*
X11116000Y-18584750I-40000J0D01*
G01*
X11166000Y-8022000D02*
G75*
G03*
X11166000Y-8022000I-40000J0D01*
G01*
X11166000Y-8784000D02*
G75*
G03*
X11166000Y-8784000I-40000J0D01*
G01*
X11178500Y-9329000D02*
G75*
G03*
X11178500Y-9329000I-40000J0D01*
G01*
X11178500Y-10853000D02*
G75*
G03*
X11178500Y-10853000I-40000J0D01*
G01*
X11253667Y-12019000D02*
G75*
G03*
X11253667Y-12019000I-40000J0D01*
G01*
X11370000Y-17822750D02*
G75*
G03*
X11370000Y-17822750I-40000J0D01*
G01*
X11370000Y-18584750D02*
G75*
G03*
X11370000Y-18584750I-40000J0D01*
G01*
X11420000Y-8022000D02*
G75*
G03*
X11420000Y-8022000I-40000J0D01*
G01*
X11420000Y-8784000D02*
G75*
G03*
X11420000Y-8784000I-40000J0D01*
G01*
X11432500Y-9329000D02*
G75*
G03*
X11432500Y-9329000I-40000J0D01*
G01*
X11432500Y-10853000D02*
G75*
G03*
X11432500Y-10853000I-40000J0D01*
G01*
X11507667Y-11622500D02*
G75*
G03*
X11507667Y-11622500I-40000J0D01*
G01*
X11507667Y-12019000D02*
G75*
G03*
X11507667Y-12019000I-40000J0D01*
G01*
X11624000Y-17822750D02*
G75*
G03*
X11624000Y-17822750I-40000J0D01*
G01*
X11624000Y-18584750D02*
G75*
G03*
X11624000Y-18584750I-40000J0D01*
G01*
X11674000Y-8022000D02*
G75*
G03*
X11674000Y-8022000I-40000J0D01*
G01*
X11674000Y-8784000D02*
G75*
G03*
X11674000Y-8784000I-40000J0D01*
G01*
X11686500Y-9329000D02*
G75*
G03*
X11686500Y-9329000I-40000J0D01*
G01*
X11686500Y-10853000D02*
G75*
G03*
X11686500Y-10853000I-40000J0D01*
G01*
X11761667Y-12019000D02*
G75*
G03*
X11761667Y-12019000I-40000J0D01*
G01*
X11776000Y-20478350D02*
G75*
G03*
X11776000Y-20478350I-40000J0D01*
G01*
X11940500Y-9329000D02*
G75*
G03*
X11940500Y-9329000I-40000J0D01*
G01*
X11940500Y-10853000D02*
G75*
G03*
X11940500Y-10853000I-40000J0D01*
G01*
X12194500Y-9329000D02*
G75*
G03*
X12194500Y-9329000I-40000J0D01*
G01*
X12194500Y-10853000D02*
G75*
G03*
X12194500Y-10853000I-40000J0D01*
G01*
X12202333Y-11622500D02*
G75*
G03*
X12202333Y-11622500I-40000J0D01*
G01*
X12249333Y-5599250D02*
G75*
G03*
X12249333Y-5599250I-40000J0D01*
G01*
X12249333Y-6361250D02*
G75*
G03*
X12249333Y-6361250I-40000J0D01*
G01*
X12249333Y-6760000D02*
G75*
G03*
X12249333Y-6760000I-40000J0D01*
G01*
X12249333Y-7522000D02*
G75*
G03*
X12249333Y-7522000I-40000J0D01*
G01*
X12249333Y-15086750D02*
G75*
G03*
X12249333Y-15086750I-40000J0D01*
G01*
X12249333Y-15848750D02*
G75*
G03*
X12249333Y-15848750I-40000J0D01*
G01*
X12249333Y-16248750D02*
G75*
G03*
X12249333Y-16248750I-40000J0D01*
G01*
X12249333Y-17010750D02*
G75*
G03*
X12249333Y-17010750I-40000J0D01*
G01*
X12324000Y-20478350D02*
G75*
G03*
X12324000Y-20478350I-40000J0D01*
G01*
X12448500Y-9329000D02*
G75*
G03*
X12448500Y-9329000I-40000J0D01*
G01*
X12448500Y-10853000D02*
G75*
G03*
X12448500Y-10853000I-40000J0D01*
G01*
X12702500Y-9329000D02*
G75*
G03*
X12702500Y-9329000I-40000J0D01*
G01*
X12702500Y-10853000D02*
G75*
G03*
X12702500Y-10853000I-40000J0D01*
G01*
X12710333Y-12066000D02*
G75*
G03*
X12710333Y-12066000I-40000J0D01*
G01*
X12956500Y-9329000D02*
G75*
G03*
X12956500Y-9329000I-40000J0D01*
G01*
X12956500Y-10853000D02*
G75*
G03*
X12956500Y-10853000I-40000J0D01*
G01*
X12964333Y-11622500D02*
G75*
G03*
X12964333Y-11622500I-40000J0D01*
G01*
X12964333Y-12066000D02*
G75*
G03*
X12964333Y-12066000I-40000J0D01*
G01*
X13086000Y-20478350D02*
G75*
G03*
X13086000Y-20478350I-40000J0D01*
G01*
X13210500Y-9329000D02*
G75*
G03*
X13210500Y-9329000I-40000J0D01*
G01*
X13210500Y-10853000D02*
G75*
G03*
X13210500Y-10853000I-40000J0D01*
G01*
X13218333Y-12066000D02*
G75*
G03*
X13218333Y-12066000I-40000J0D01*
G01*
X13626000Y-5599250D02*
G75*
G03*
X13626000Y-5599250I-40000J0D01*
G01*
X13626000Y-6361250D02*
G75*
G03*
X13626000Y-6361250I-40000J0D01*
G01*
X13626000Y-6760000D02*
G75*
G03*
X13626000Y-6760000I-40000J0D01*
G01*
X13626000Y-7522000D02*
G75*
G03*
X13626000Y-7522000I-40000J0D01*
G01*
X13626000Y-15086750D02*
G75*
G03*
X13626000Y-15086750I-40000J0D01*
G01*
X13626000Y-15848750D02*
G75*
G03*
X13626000Y-15848750I-40000J0D01*
G01*
X13626000Y-16248750D02*
G75*
G03*
X13626000Y-16248750I-40000J0D01*
G01*
X13626000Y-17010750D02*
G75*
G03*
X13626000Y-17010750I-40000J0D01*
G01*
X13634000Y-20478350D02*
G75*
G03*
X13634000Y-20478350I-40000J0D01*
G01*
X13659000Y-11622500D02*
G75*
G03*
X13659000Y-11622500I-40000J0D01*
G01*
X14167000Y-12076000D02*
G75*
G03*
X14167000Y-12076000I-40000J0D01*
G01*
X14396000Y-20478350D02*
G75*
G03*
X14396000Y-20478350I-40000J0D01*
G01*
X14421000Y-11622500D02*
G75*
G03*
X14421000Y-11622500I-40000J0D01*
G01*
X14421000Y-12076000D02*
G75*
G03*
X14421000Y-12076000I-40000J0D01*
G01*
X14510500Y-9600000D02*
G75*
G03*
X14510500Y-9600000I-40000J0D01*
G01*
X14510500Y-9850000D02*
G75*
G03*
X14510500Y-9850000I-40000J0D01*
G01*
X14510500Y-10338000D02*
G75*
G03*
X14510500Y-10338000I-40000J0D01*
G01*
X14510500Y-10588000D02*
G75*
G03*
X14510500Y-10588000I-40000J0D01*
G01*
X14675000Y-12076000D02*
G75*
G03*
X14675000Y-12076000I-40000J0D01*
G01*
X14944000Y-20478350D02*
G75*
G03*
X14944000Y-20478350I-40000J0D01*
G01*
X15210500Y-9850000D02*
G75*
G03*
X15210500Y-9850000I-40000J0D01*
G01*
X15210500Y-10338000D02*
G75*
G03*
X15210500Y-10338000I-40000J0D01*
G01*
X15706000Y-20478350D02*
G75*
G03*
X15706000Y-20478350I-40000J0D01*
G01*
D14*
X4545500Y-7224250D02*
X4545500Y-7314250D01*
X4500500Y-7269250D02*
X4590500Y-7269250D01*
X4545500Y-8355800D02*
X4545500Y-8445800D01*
X4500500Y-8400800D02*
X4590500Y-8400800D01*
X4545500Y-9487350D02*
X4545500Y-9577350D01*
X4500500Y-9532350D02*
X4590500Y-9532350D01*
X4545500Y-10618900D02*
X4545500Y-10708900D01*
X4500500Y-10663900D02*
X4590500Y-10663900D01*
X4545500Y-11750450D02*
X4545500Y-11840450D01*
X4500500Y-11795450D02*
X4590500Y-11795450D01*
X4545500Y-12882000D02*
X4545500Y-12972000D01*
X4500500Y-12927000D02*
X4590500Y-12927000D01*
X4545500Y-14013550D02*
X4545500Y-14103550D01*
X4500500Y-14058550D02*
X4590500Y-14058550D01*
X4545500Y-15145100D02*
X4545500Y-15235100D01*
X4500500Y-15190100D02*
X4590500Y-15190100D01*
X4545500Y-16276650D02*
X4545500Y-16366650D01*
X4500500Y-16321650D02*
X4590500Y-16321650D01*
X4545500Y-17408200D02*
X4545500Y-17498200D01*
X4500500Y-17453200D02*
X4590500Y-17453200D01*
X4545500Y-18539750D02*
X4545500Y-18629750D01*
X4500500Y-18584750D02*
X4590500Y-18584750D01*
X4545500Y-19671350D02*
X4545500Y-19761350D01*
X4500500Y-19716350D02*
X4590500Y-19716350D01*
X4799500Y-7224250D02*
X4799500Y-7314250D01*
X4754500Y-7269250D02*
X4844500Y-7269250D01*
X4799500Y-8355800D02*
X4799500Y-8445800D01*
X4754500Y-8400800D02*
X4844500Y-8400800D01*
X4799500Y-9487350D02*
X4799500Y-9577350D01*
X4754500Y-9532350D02*
X4844500Y-9532350D01*
X4799500Y-10618900D02*
X4799500Y-10708900D01*
X4754500Y-10663900D02*
X4844500Y-10663900D01*
X4799500Y-11750450D02*
X4799500Y-11840450D01*
X4754500Y-11795450D02*
X4844500Y-11795450D01*
X4799500Y-12882000D02*
X4799500Y-12972000D01*
X4754500Y-12927000D02*
X4844500Y-12927000D01*
X4799500Y-14013550D02*
X4799500Y-14103550D01*
X4754500Y-14058550D02*
X4844500Y-14058550D01*
X4799500Y-15145100D02*
X4799500Y-15235100D01*
X4754500Y-15190100D02*
X4844500Y-15190100D01*
X4799500Y-16276650D02*
X4799500Y-16366650D01*
X4754500Y-16321650D02*
X4844500Y-16321650D01*
X4799500Y-17408200D02*
X4799500Y-17498200D01*
X4754500Y-17453200D02*
X4844500Y-17453200D01*
X4799500Y-18539750D02*
X4799500Y-18629750D01*
X4754500Y-18584750D02*
X4844500Y-18584750D01*
X4799500Y-19671350D02*
X4799500Y-19761350D01*
X4754500Y-19716350D02*
X4844500Y-19716350D01*
D10*
X4008356Y-5705406D02*
X4008356Y-5634694D01*
X3937644Y-5634694D01*
X3937644Y-5705406D01*
X4008356Y-5705406D01*
D11*
X3923000Y-5570050D02*
X3923000Y-5770050D01*
X4023000Y-5570050D02*
X4023000Y-5770050D01*
X3923000Y-5770050D02*
G75*
G03*
X4023000Y-5770050I50000J0D01*
G01*
X4023000Y-5570050D02*
G75*
G03*
X3923000Y-5570050I-50000J0D01*
G01*
D10*
X4308356Y-6175406D02*
X4308356Y-6104694D01*
X4237644Y-6104694D01*
X4237644Y-6175406D01*
X4308356Y-6175406D01*
D11*
X4173000Y-6190050D02*
X4373000Y-6190050D01*
X4173000Y-6090050D02*
X4373000Y-6090050D01*
X4373000Y-6190050D02*
G75*
G03*
X4373000Y-6090050I0J50000D01*
G01*
X4173000Y-6090050D02*
G75*
G03*
X4173000Y-6190050I0J-50000D01*
G01*
D10*
X4608356Y-5705406D02*
X4608356Y-5634694D01*
X4537644Y-5634694D01*
X4537644Y-5705406D01*
X4608356Y-5705406D01*
D11*
X4523000Y-5570050D02*
X4523000Y-5770050D01*
X4623000Y-5570050D02*
X4623000Y-5770050D01*
X4523000Y-5770050D02*
G75*
G03*
X4623000Y-5770050I50000J0D01*
G01*
X4623000Y-5570050D02*
G75*
G03*
X4523000Y-5570050I-50000J0D01*
G01*
D10*
X5418356Y-12844106D02*
X5418356Y-12773394D01*
X5347644Y-12773394D01*
X5347644Y-12844106D01*
X5418356Y-12844106D01*
X5418356Y-13098106D02*
X5418356Y-13027394D01*
X5347644Y-13027394D01*
X5347644Y-13098106D01*
X5418356Y-13098106D01*
X5418356Y-13352106D02*
X5418356Y-13281394D01*
X5347644Y-13281394D01*
X5347644Y-13352106D01*
X5418356Y-13352106D01*
X5418356Y-13606106D02*
X5418356Y-13535394D01*
X5347644Y-13535394D01*
X5347644Y-13606106D01*
X5418356Y-13606106D01*
X5418356Y-13860106D02*
X5418356Y-13789394D01*
X5347644Y-13789394D01*
X5347644Y-13860106D01*
X5418356Y-13860106D01*
X5418356Y-14114106D02*
X5418356Y-14043394D01*
X5347644Y-14043394D01*
X5347644Y-14114106D01*
X5418356Y-14114106D01*
X5418356Y-14368106D02*
X5418356Y-14297394D01*
X5347644Y-14297394D01*
X5347644Y-14368106D01*
X5418356Y-14368106D01*
X5834856Y-8212606D02*
X5834856Y-8141894D01*
X5764144Y-8141894D01*
X5764144Y-8212606D01*
X5834856Y-8212606D01*
X6088856Y-8212606D02*
X6088856Y-8141894D01*
X6018144Y-8141894D01*
X6018144Y-8212606D01*
X6088856Y-8212606D01*
X6088856Y-8877356D02*
X6088856Y-8806644D01*
X6018144Y-8806644D01*
X6018144Y-8877356D01*
X6088856Y-8877356D01*
X6088856Y-9131356D02*
X6088856Y-9060644D01*
X6018144Y-9060644D01*
X6018144Y-9131356D01*
X6088856Y-9131356D01*
X6088856Y-9888356D02*
X6088856Y-9817644D01*
X6018144Y-9817644D01*
X6018144Y-9888356D01*
X6088856Y-9888356D01*
X6088856Y-10142356D02*
X6088856Y-10071644D01*
X6018144Y-10071644D01*
X6018144Y-10142356D01*
X6088856Y-10142356D01*
X6088856Y-10396356D02*
X6088856Y-10325644D01*
X6018144Y-10325644D01*
X6018144Y-10396356D01*
X6088856Y-10396356D01*
X6088856Y-10650356D02*
X6088856Y-10579644D01*
X6018144Y-10579644D01*
X6018144Y-10650356D01*
X6088856Y-10650356D01*
X6342856Y-8212606D02*
X6342856Y-8141894D01*
X6272144Y-8141894D01*
X6272144Y-8212606D01*
X6342856Y-8212606D01*
X6342856Y-8877356D02*
X6342856Y-8806644D01*
X6272144Y-8806644D01*
X6272144Y-8877356D01*
X6342856Y-8877356D01*
X6342856Y-9131356D02*
X6342856Y-9060644D01*
X6272144Y-9060644D01*
X6272144Y-9131356D01*
X6342856Y-9131356D01*
X6596856Y-8212606D02*
X6596856Y-8141894D01*
X6526144Y-8141894D01*
X6526144Y-8212606D01*
X6596856Y-8212606D01*
X6596856Y-8877356D02*
X6596856Y-8806644D01*
X6526144Y-8806644D01*
X6526144Y-8877356D01*
X6596856Y-8877356D01*
X6596856Y-9131356D02*
X6596856Y-9060644D01*
X6526144Y-9060644D01*
X6526144Y-9131356D01*
X6596856Y-9131356D01*
X6634856Y-10888356D02*
X6634856Y-10817644D01*
X6564144Y-10817644D01*
X6564144Y-10888356D01*
X6634856Y-10888356D01*
X6888856Y-10888356D02*
X6888856Y-10817644D01*
X6818144Y-10817644D01*
X6818144Y-10888356D01*
X6888856Y-10888356D01*
X6996856Y-5634606D02*
X6996856Y-5563894D01*
X6926144Y-5563894D01*
X6926144Y-5634606D01*
X6996856Y-5634606D01*
X6996856Y-5888606D02*
X6996856Y-5817894D01*
X6926144Y-5817894D01*
X6926144Y-5888606D01*
X6996856Y-5888606D01*
X6996856Y-6142606D02*
X6996856Y-6071894D01*
X6926144Y-6071894D01*
X6926144Y-6142606D01*
X6996856Y-6142606D01*
X6996856Y-6396606D02*
X6996856Y-6325894D01*
X6926144Y-6325894D01*
X6926144Y-6396606D01*
X6996856Y-6396606D01*
X7128356Y-5134606D02*
X7128356Y-5063894D01*
X7057644Y-5063894D01*
X7057644Y-5134606D01*
X7128356Y-5134606D01*
X7128356Y-14622106D02*
X7128356Y-14551394D01*
X7057644Y-14551394D01*
X7057644Y-14622106D01*
X7128356Y-14622106D01*
X7142856Y-10888356D02*
X7142856Y-10817644D01*
X7072144Y-10817644D01*
X7072144Y-10888356D01*
X7142856Y-10888356D01*
X7382356Y-5134606D02*
X7382356Y-5063894D01*
X7311644Y-5063894D01*
X7311644Y-5134606D01*
X7382356Y-5134606D01*
X7382356Y-14622106D02*
X7382356Y-14551394D01*
X7311644Y-14551394D01*
X7311644Y-14622106D01*
X7382356Y-14622106D01*
X7396856Y-10888356D02*
X7396856Y-10817644D01*
X7326144Y-10817644D01*
X7326144Y-10888356D01*
X7396856Y-10888356D01*
X7636356Y-5134606D02*
X7636356Y-5063894D01*
X7565644Y-5063894D01*
X7565644Y-5134606D01*
X7636356Y-5134606D01*
X7636356Y-14622106D02*
X7636356Y-14551394D01*
X7565644Y-14551394D01*
X7565644Y-14622106D01*
X7636356Y-14622106D01*
X8723356Y-17358106D02*
X8723356Y-17287394D01*
X8652644Y-17287394D01*
X8652644Y-17358106D01*
X8723356Y-17358106D01*
X8723356Y-17612106D02*
X8723356Y-17541394D01*
X8652644Y-17541394D01*
X8652644Y-17612106D01*
X8723356Y-17612106D01*
X8723356Y-17866106D02*
X8723356Y-17795394D01*
X8652644Y-17795394D01*
X8652644Y-17866106D01*
X8723356Y-17866106D01*
X8723356Y-18120106D02*
X8723356Y-18049394D01*
X8652644Y-18049394D01*
X8652644Y-18120106D01*
X8723356Y-18120106D01*
X8723356Y-18374106D02*
X8723356Y-18303394D01*
X8652644Y-18303394D01*
X8652644Y-18374106D01*
X8723356Y-18374106D01*
X8723356Y-18628106D02*
X8723356Y-18557394D01*
X8652644Y-18557394D01*
X8652644Y-18628106D01*
X8723356Y-18628106D01*
X9293356Y-2848606D02*
X9293356Y-2777894D01*
X9222644Y-2777894D01*
X9222644Y-2848606D01*
X9293356Y-2848606D01*
X9293356Y-3102606D02*
X9293356Y-3031894D01*
X9222644Y-3031894D01*
X9222644Y-3102606D01*
X9293356Y-3102606D01*
X9293356Y-3356606D02*
X9293356Y-3285894D01*
X9222644Y-3285894D01*
X9222644Y-3356606D01*
X9293356Y-3356606D01*
X9293356Y-3610606D02*
X9293356Y-3539894D01*
X9222644Y-3539894D01*
X9222644Y-3610606D01*
X9293356Y-3610606D01*
X9293356Y-3864606D02*
X9293356Y-3793894D01*
X9222644Y-3793894D01*
X9222644Y-3864606D01*
X9293356Y-3864606D01*
X9293356Y-4118606D02*
X9293356Y-4047894D01*
X9222644Y-4047894D01*
X9222644Y-4118606D01*
X9293356Y-4118606D01*
X9293356Y-4372606D02*
X9293356Y-4301894D01*
X9222644Y-4301894D01*
X9222644Y-4372606D01*
X9293356Y-4372606D01*
X9293356Y-4626606D02*
X9293356Y-4555894D01*
X9222644Y-4555894D01*
X9222644Y-4626606D01*
X9293356Y-4626606D01*
X9293356Y-4880606D02*
X9293356Y-4809894D01*
X9222644Y-4809894D01*
X9222644Y-4880606D01*
X9293356Y-4880606D01*
X9293356Y-5134606D02*
X9293356Y-5063894D01*
X9222644Y-5063894D01*
X9222644Y-5134606D01*
X9293356Y-5134606D01*
X9293356Y-12336106D02*
X9293356Y-12265394D01*
X9222644Y-12265394D01*
X9222644Y-12336106D01*
X9293356Y-12336106D01*
X9293356Y-12590106D02*
X9293356Y-12519394D01*
X9222644Y-12519394D01*
X9222644Y-12590106D01*
X9293356Y-12590106D01*
X9293356Y-12844106D02*
X9293356Y-12773394D01*
X9222644Y-12773394D01*
X9222644Y-12844106D01*
X9293356Y-12844106D01*
X9293356Y-13098106D02*
X9293356Y-13027394D01*
X9222644Y-13027394D01*
X9222644Y-13098106D01*
X9293356Y-13098106D01*
X9293356Y-13352106D02*
X9293356Y-13281394D01*
X9222644Y-13281394D01*
X9222644Y-13352106D01*
X9293356Y-13352106D01*
X9293356Y-13606106D02*
X9293356Y-13535394D01*
X9222644Y-13535394D01*
X9222644Y-13606106D01*
X9293356Y-13606106D01*
X9293356Y-13860106D02*
X9293356Y-13789394D01*
X9222644Y-13789394D01*
X9222644Y-13860106D01*
X9293356Y-13860106D01*
X9293356Y-14114106D02*
X9293356Y-14043394D01*
X9222644Y-14043394D01*
X9222644Y-14114106D01*
X9293356Y-14114106D01*
X9293356Y-14368106D02*
X9293356Y-14297394D01*
X9222644Y-14297394D01*
X9222644Y-14368106D01*
X9293356Y-14368106D01*
X9293356Y-14622106D02*
X9293356Y-14551394D01*
X9222644Y-14551394D01*
X9222644Y-14622106D01*
X9293356Y-14622106D01*
X11596356Y-3138606D02*
X11596356Y-3067894D01*
X11525644Y-3067894D01*
X11525644Y-3138606D01*
X11596356Y-3138606D01*
X11596356Y-4662606D02*
X11596356Y-4591894D01*
X11525644Y-4591894D01*
X11525644Y-4662606D01*
X11596356Y-4662606D01*
X11596356Y-12590106D02*
X11596356Y-12519394D01*
X11525644Y-12519394D01*
X11525644Y-12590106D01*
X11596356Y-12590106D01*
X11596356Y-14114106D02*
X11596356Y-14043394D01*
X11525644Y-14043394D01*
X11525644Y-14114106D01*
X11596356Y-14114106D01*
X11850356Y-3138606D02*
X11850356Y-3067894D01*
X11779644Y-3067894D01*
X11779644Y-3138606D01*
X11850356Y-3138606D01*
X11850356Y-4662606D02*
X11850356Y-4591894D01*
X11779644Y-4591894D01*
X11779644Y-4662606D01*
X11850356Y-4662606D01*
X11850356Y-12590106D02*
X11850356Y-12519394D01*
X11779644Y-12519394D01*
X11779644Y-12590106D01*
X11850356Y-12590106D01*
X11850356Y-14114106D02*
X11850356Y-14043394D01*
X11779644Y-14043394D01*
X11779644Y-14114106D01*
X11850356Y-14114106D01*
X12104356Y-3138606D02*
X12104356Y-3067894D01*
X12033644Y-3067894D01*
X12033644Y-3138606D01*
X12104356Y-3138606D01*
X12104356Y-4662606D02*
X12104356Y-4591894D01*
X12033644Y-4591894D01*
X12033644Y-4662606D01*
X12104356Y-4662606D01*
X12104356Y-12590106D02*
X12104356Y-12519394D01*
X12033644Y-12519394D01*
X12033644Y-12590106D01*
X12104356Y-12590106D01*
X12104356Y-14114106D02*
X12104356Y-14043394D01*
X12033644Y-14043394D01*
X12033644Y-14114106D01*
X12104356Y-14114106D01*
X12358356Y-3138606D02*
X12358356Y-3067894D01*
X12287644Y-3067894D01*
X12287644Y-3138606D01*
X12358356Y-3138606D01*
X12358356Y-4662606D02*
X12358356Y-4591894D01*
X12287644Y-4591894D01*
X12287644Y-4662606D01*
X12358356Y-4662606D01*
X12358356Y-12590106D02*
X12358356Y-12519394D01*
X12287644Y-12519394D01*
X12287644Y-12590106D01*
X12358356Y-12590106D01*
X12358356Y-14114106D02*
X12358356Y-14043394D01*
X12287644Y-14043394D01*
X12287644Y-14114106D01*
X12358356Y-14114106D01*
X12612356Y-3138606D02*
X12612356Y-3067894D01*
X12541644Y-3067894D01*
X12541644Y-3138606D01*
X12612356Y-3138606D01*
X12612356Y-4662606D02*
X12612356Y-4591894D01*
X12541644Y-4591894D01*
X12541644Y-4662606D01*
X12612356Y-4662606D01*
X12612356Y-12590106D02*
X12612356Y-12519394D01*
X12541644Y-12519394D01*
X12541644Y-12590106D01*
X12612356Y-12590106D01*
X12612356Y-14114106D02*
X12612356Y-14043394D01*
X12541644Y-14043394D01*
X12541644Y-14114106D01*
X12612356Y-14114106D01*
X12866356Y-3138606D02*
X12866356Y-3067894D01*
X12795644Y-3067894D01*
X12795644Y-3138606D01*
X12866356Y-3138606D01*
X12866356Y-4662606D02*
X12866356Y-4591894D01*
X12795644Y-4591894D01*
X12795644Y-4662606D01*
X12866356Y-4662606D01*
X12866356Y-12590106D02*
X12866356Y-12519394D01*
X12795644Y-12519394D01*
X12795644Y-12590106D01*
X12866356Y-12590106D01*
X12866356Y-14114106D02*
X12866356Y-14043394D01*
X12795644Y-14043394D01*
X12795644Y-14114106D01*
X12866356Y-14114106D01*
D15*
X5790000Y-19321350D02*
X5845000Y-19266350D01*
X5790000Y-19211350D01*
X5735000Y-19266350D01*
X5790000Y-19321350D01*
X5790000Y-19771350D02*
X5845000Y-19716350D01*
X5790000Y-19661350D01*
X5735000Y-19716350D01*
X5790000Y-19771350D01*
X6440000Y-19321350D02*
X6495000Y-19266350D01*
X6440000Y-19211350D01*
X6385000Y-19266350D01*
X6440000Y-19321350D01*
X6440000Y-19771350D02*
X6495000Y-19716350D01*
X6440000Y-19661350D01*
X6385000Y-19716350D01*
X6440000Y-19771350D01*
X7100000Y-19321350D02*
X7155000Y-19266350D01*
X7100000Y-19211350D01*
X7045000Y-19266350D01*
X7100000Y-19321350D01*
X7100000Y-19771350D02*
X7155000Y-19716350D01*
X7100000Y-19661350D01*
X7045000Y-19716350D01*
X7100000Y-19771350D01*
X7750000Y-19321350D02*
X7805000Y-19266350D01*
X7750000Y-19211350D01*
X7695000Y-19266350D01*
X7750000Y-19321350D01*
X7750000Y-19771350D02*
X7805000Y-19716350D01*
X7750000Y-19661350D01*
X7695000Y-19716350D01*
X7750000Y-19771350D01*
X8055500Y-8389000D02*
X8110500Y-8334000D01*
X8055500Y-8279000D01*
X8000500Y-8334000D01*
X8055500Y-8389000D01*
X8055500Y-8839000D02*
X8110500Y-8784000D01*
X8055500Y-8729000D01*
X8000500Y-8784000D01*
X8055500Y-8839000D01*
X8410000Y-19321350D02*
X8465000Y-19266350D01*
X8410000Y-19211350D01*
X8355000Y-19266350D01*
X8410000Y-19321350D01*
X8410000Y-19771350D02*
X8465000Y-19716350D01*
X8410000Y-19661350D01*
X8355000Y-19716350D01*
X8410000Y-19771350D01*
X8705500Y-8389000D02*
X8760500Y-8334000D01*
X8705500Y-8279000D01*
X8650500Y-8334000D01*
X8705500Y-8389000D01*
X8705500Y-8839000D02*
X8760500Y-8784000D01*
X8705500Y-8729000D01*
X8650500Y-8784000D01*
X8705500Y-8839000D01*
X9060000Y-19321350D02*
X9115000Y-19266350D01*
X9060000Y-19211350D01*
X9005000Y-19266350D01*
X9060000Y-19321350D01*
X9060000Y-19771350D02*
X9115000Y-19716350D01*
X9060000Y-19661350D01*
X9005000Y-19716350D01*
X9060000Y-19771350D01*
X9720000Y-19321350D02*
X9775000Y-19266350D01*
X9720000Y-19211350D01*
X9665000Y-19266350D01*
X9720000Y-19321350D01*
X9720000Y-19771350D02*
X9775000Y-19716350D01*
X9720000Y-19661350D01*
X9665000Y-19716350D01*
X9720000Y-19771350D01*
X9806000Y-5654250D02*
X9861000Y-5599250D01*
X9806000Y-5544250D01*
X9751000Y-5599250D01*
X9806000Y-5654250D01*
X9806000Y-6104250D02*
X9861000Y-6049250D01*
X9806000Y-5994250D01*
X9751000Y-6049250D01*
X9806000Y-6104250D01*
X9806000Y-7127000D02*
X9861000Y-7072000D01*
X9806000Y-7017000D01*
X9751000Y-7072000D01*
X9806000Y-7127000D01*
X9806000Y-7577000D02*
X9861000Y-7522000D01*
X9806000Y-7467000D01*
X9751000Y-7522000D01*
X9806000Y-7577000D01*
X9806000Y-15141750D02*
X9861000Y-15086750D01*
X9806000Y-15031750D01*
X9751000Y-15086750D01*
X9806000Y-15141750D01*
X9806000Y-15591750D02*
X9861000Y-15536750D01*
X9806000Y-15481750D01*
X9751000Y-15536750D01*
X9806000Y-15591750D01*
X9806000Y-16615750D02*
X9861000Y-16560750D01*
X9806000Y-16505750D01*
X9751000Y-16560750D01*
X9806000Y-16615750D01*
X9806000Y-17065750D02*
X9861000Y-17010750D01*
X9806000Y-16955750D01*
X9751000Y-17010750D01*
X9806000Y-17065750D01*
X10370000Y-19321350D02*
X10425000Y-19266350D01*
X10370000Y-19211350D01*
X10315000Y-19266350D01*
X10370000Y-19321350D01*
X10370000Y-19771350D02*
X10425000Y-19716350D01*
X10370000Y-19661350D01*
X10315000Y-19716350D01*
X10370000Y-19771350D01*
X10456000Y-5654250D02*
X10511000Y-5599250D01*
X10456000Y-5544250D01*
X10401000Y-5599250D01*
X10456000Y-5654250D01*
X10456000Y-6104250D02*
X10511000Y-6049250D01*
X10456000Y-5994250D01*
X10401000Y-6049250D01*
X10456000Y-6104250D01*
X10456000Y-7127000D02*
X10511000Y-7072000D01*
X10456000Y-7017000D01*
X10401000Y-7072000D01*
X10456000Y-7127000D01*
X10456000Y-7577000D02*
X10511000Y-7522000D01*
X10456000Y-7467000D01*
X10401000Y-7522000D01*
X10456000Y-7577000D01*
X10456000Y-15141750D02*
X10511000Y-15086750D01*
X10456000Y-15031750D01*
X10401000Y-15086750D01*
X10456000Y-15141750D01*
X10456000Y-15591750D02*
X10511000Y-15536750D01*
X10456000Y-15481750D01*
X10401000Y-15536750D01*
X10456000Y-15591750D01*
X10456000Y-16615750D02*
X10511000Y-16560750D01*
X10456000Y-16505750D01*
X10401000Y-16560750D01*
X10456000Y-16615750D01*
X10456000Y-17065750D02*
X10511000Y-17010750D01*
X10456000Y-16955750D01*
X10401000Y-17010750D01*
X10456000Y-17065750D01*
X11030000Y-19321350D02*
X11085000Y-19266350D01*
X11030000Y-19211350D01*
X10975000Y-19266350D01*
X11030000Y-19321350D01*
X11030000Y-19771350D02*
X11085000Y-19716350D01*
X11030000Y-19661350D01*
X10975000Y-19716350D01*
X11030000Y-19771350D01*
X11182667Y-5654250D02*
X11237667Y-5599250D01*
X11182667Y-5544250D01*
X11127667Y-5599250D01*
X11182667Y-5654250D01*
X11182667Y-6104250D02*
X11237667Y-6049250D01*
X11182667Y-5994250D01*
X11127667Y-6049250D01*
X11182667Y-6104250D01*
X11182667Y-7127000D02*
X11237667Y-7072000D01*
X11182667Y-7017000D01*
X11127667Y-7072000D01*
X11182667Y-7127000D01*
X11182667Y-7577000D02*
X11237667Y-7522000D01*
X11182667Y-7467000D01*
X11127667Y-7522000D01*
X11182667Y-7577000D01*
X11182667Y-15141750D02*
X11237667Y-15086750D01*
X11182667Y-15031750D01*
X11127667Y-15086750D01*
X11182667Y-15141750D01*
X11182667Y-15591750D02*
X11237667Y-15536750D01*
X11182667Y-15481750D01*
X11127667Y-15536750D01*
X11182667Y-15591750D01*
X11182667Y-16615750D02*
X11237667Y-16560750D01*
X11182667Y-16505750D01*
X11127667Y-16560750D01*
X11182667Y-16615750D01*
X11182667Y-17065750D02*
X11237667Y-17010750D01*
X11182667Y-16955750D01*
X11127667Y-17010750D01*
X11182667Y-17065750D01*
X11680000Y-19321350D02*
X11735000Y-19266350D01*
X11680000Y-19211350D01*
X11625000Y-19266350D01*
X11680000Y-19321350D01*
X11680000Y-19771350D02*
X11735000Y-19716350D01*
X11680000Y-19661350D01*
X11625000Y-19716350D01*
X11680000Y-19771350D01*
X11832667Y-5654250D02*
X11887667Y-5599250D01*
X11832667Y-5544250D01*
X11777667Y-5599250D01*
X11832667Y-5654250D01*
X11832667Y-6104250D02*
X11887667Y-6049250D01*
X11832667Y-5994250D01*
X11777667Y-6049250D01*
X11832667Y-6104250D01*
X11832667Y-7127000D02*
X11887667Y-7072000D01*
X11832667Y-7017000D01*
X11777667Y-7072000D01*
X11832667Y-7127000D01*
X11832667Y-7577000D02*
X11887667Y-7522000D01*
X11832667Y-7467000D01*
X11777667Y-7522000D01*
X11832667Y-7577000D01*
X11832667Y-15141750D02*
X11887667Y-15086750D01*
X11832667Y-15031750D01*
X11777667Y-15086750D01*
X11832667Y-15141750D01*
X11832667Y-15591750D02*
X11887667Y-15536750D01*
X11832667Y-15481750D01*
X11777667Y-15536750D01*
X11832667Y-15591750D01*
X11832667Y-16615750D02*
X11887667Y-16560750D01*
X11832667Y-16505750D01*
X11777667Y-16560750D01*
X11832667Y-16615750D01*
X11832667Y-17065750D02*
X11887667Y-17010750D01*
X11832667Y-16955750D01*
X11777667Y-17010750D01*
X11832667Y-17065750D01*
X12340000Y-19321350D02*
X12395000Y-19266350D01*
X12340000Y-19211350D01*
X12285000Y-19266350D01*
X12340000Y-19321350D01*
X12340000Y-19771350D02*
X12395000Y-19716350D01*
X12340000Y-19661350D01*
X12285000Y-19716350D01*
X12340000Y-19771350D01*
X12559333Y-5654250D02*
X12614333Y-5599250D01*
X12559333Y-5544250D01*
X12504333Y-5599250D01*
X12559333Y-5654250D01*
X12559333Y-6104250D02*
X12614333Y-6049250D01*
X12559333Y-5994250D01*
X12504333Y-6049250D01*
X12559333Y-6104250D01*
X12559333Y-7127000D02*
X12614333Y-7072000D01*
X12559333Y-7017000D01*
X12504333Y-7072000D01*
X12559333Y-7127000D01*
X12559333Y-7577000D02*
X12614333Y-7522000D01*
X12559333Y-7467000D01*
X12504333Y-7522000D01*
X12559333Y-7577000D01*
X12559333Y-15141750D02*
X12614333Y-15086750D01*
X12559333Y-15031750D01*
X12504333Y-15086750D01*
X12559333Y-15141750D01*
X12559333Y-15591750D02*
X12614333Y-15536750D01*
X12559333Y-15481750D01*
X12504333Y-15536750D01*
X12559333Y-15591750D01*
X12559333Y-16615750D02*
X12614333Y-16560750D01*
X12559333Y-16505750D01*
X12504333Y-16560750D01*
X12559333Y-16615750D01*
X12559333Y-17065750D02*
X12614333Y-17010750D01*
X12559333Y-16955750D01*
X12504333Y-17010750D01*
X12559333Y-17065750D01*
X12990000Y-19321350D02*
X13045000Y-19266350D01*
X12990000Y-19211350D01*
X12935000Y-19266350D01*
X12990000Y-19321350D01*
X12990000Y-19771350D02*
X13045000Y-19716350D01*
X12990000Y-19661350D01*
X12935000Y-19716350D01*
X12990000Y-19771350D01*
X13209333Y-5654250D02*
X13264333Y-5599250D01*
X13209333Y-5544250D01*
X13154333Y-5599250D01*
X13209333Y-5654250D01*
X13209333Y-6104250D02*
X13264333Y-6049250D01*
X13209333Y-5994250D01*
X13154333Y-6049250D01*
X13209333Y-6104250D01*
X13209333Y-7127000D02*
X13264333Y-7072000D01*
X13209333Y-7017000D01*
X13154333Y-7072000D01*
X13209333Y-7127000D01*
X13209333Y-7577000D02*
X13264333Y-7522000D01*
X13209333Y-7467000D01*
X13154333Y-7522000D01*
X13209333Y-7577000D01*
X13209333Y-15141750D02*
X13264333Y-15086750D01*
X13209333Y-15031750D01*
X13154333Y-15086750D01*
X13209333Y-15141750D01*
X13209333Y-15591750D02*
X13264333Y-15536750D01*
X13209333Y-15481750D01*
X13154333Y-15536750D01*
X13209333Y-15591750D01*
X13209333Y-16615750D02*
X13264333Y-16560750D01*
X13209333Y-16505750D01*
X13154333Y-16560750D01*
X13209333Y-16615750D01*
X13209333Y-17065750D02*
X13264333Y-17010750D01*
X13209333Y-16955750D01*
X13154333Y-17010750D01*
X13209333Y-17065750D01*
X13650000Y-19321350D02*
X13705000Y-19266350D01*
X13650000Y-19211350D01*
X13595000Y-19266350D01*
X13650000Y-19321350D01*
X13650000Y-19771350D02*
X13705000Y-19716350D01*
X13650000Y-19661350D01*
X13595000Y-19716350D01*
X13650000Y-19771350D01*
X13936000Y-5654250D02*
X13991000Y-5599250D01*
X13936000Y-5544250D01*
X13881000Y-5599250D01*
X13936000Y-5654250D01*
X13936000Y-6104250D02*
X13991000Y-6049250D01*
X13936000Y-5994250D01*
X13881000Y-6049250D01*
X13936000Y-6104250D01*
X13936000Y-7127000D02*
X13991000Y-7072000D01*
X13936000Y-7017000D01*
X13881000Y-7072000D01*
X13936000Y-7127000D01*
X13936000Y-7577000D02*
X13991000Y-7522000D01*
X13936000Y-7467000D01*
X13881000Y-7522000D01*
X13936000Y-7577000D01*
X13936000Y-15141750D02*
X13991000Y-15086750D01*
X13936000Y-15031750D01*
X13881000Y-15086750D01*
X13936000Y-15141750D01*
X13936000Y-15591750D02*
X13991000Y-15536750D01*
X13936000Y-15481750D01*
X13881000Y-15536750D01*
X13936000Y-15591750D01*
X13936000Y-16615750D02*
X13991000Y-16560750D01*
X13936000Y-16505750D01*
X13881000Y-16560750D01*
X13936000Y-16615750D01*
X13936000Y-17065750D02*
X13991000Y-17010750D01*
X13936000Y-16955750D01*
X13881000Y-17010750D01*
X13936000Y-17065750D01*
X14300000Y-19321350D02*
X14355000Y-19266350D01*
X14300000Y-19211350D01*
X14245000Y-19266350D01*
X14300000Y-19321350D01*
X14300000Y-19771350D02*
X14355000Y-19716350D01*
X14300000Y-19661350D01*
X14245000Y-19716350D01*
X14300000Y-19771350D01*
X14586000Y-5654250D02*
X14641000Y-5599250D01*
X14586000Y-5544250D01*
X14531000Y-5599250D01*
X14586000Y-5654250D01*
X14586000Y-6104250D02*
X14641000Y-6049250D01*
X14586000Y-5994250D01*
X14531000Y-6049250D01*
X14586000Y-6104250D01*
X14586000Y-7127000D02*
X14641000Y-7072000D01*
X14586000Y-7017000D01*
X14531000Y-7072000D01*
X14586000Y-7127000D01*
X14586000Y-7577000D02*
X14641000Y-7522000D01*
X14586000Y-7467000D01*
X14531000Y-7522000D01*
X14586000Y-7577000D01*
X14586000Y-15141750D02*
X14641000Y-15086750D01*
X14586000Y-15031750D01*
X14531000Y-15086750D01*
X14586000Y-15141750D01*
X14586000Y-15591750D02*
X14641000Y-15536750D01*
X14586000Y-15481750D01*
X14531000Y-15536750D01*
X14586000Y-15591750D01*
X14586000Y-16615750D02*
X14641000Y-16560750D01*
X14586000Y-16505750D01*
X14531000Y-16560750D01*
X14586000Y-16615750D01*
X14586000Y-17065750D02*
X14641000Y-17010750D01*
X14586000Y-16955750D01*
X14531000Y-17010750D01*
X14586000Y-17065750D01*
X14960000Y-19321350D02*
X15015000Y-19266350D01*
X14960000Y-19211350D01*
X14905000Y-19266350D01*
X14960000Y-19321350D01*
X14960000Y-19771350D02*
X15015000Y-19716350D01*
X14960000Y-19661350D01*
X14905000Y-19716350D01*
X14960000Y-19771350D01*
X15610000Y-19321350D02*
X15665000Y-19266350D01*
X15610000Y-19211350D01*
X15555000Y-19266350D01*
X15610000Y-19321350D01*
X15610000Y-19771350D02*
X15665000Y-19716350D01*
X15610000Y-19661350D01*
X15555000Y-19716350D01*
X15610000Y-19771350D01*
D16*
X3612000Y-4232600D02*
X3732000Y-4352600D01*
X3732000Y-4232600D02*
X3612000Y-4352600D01*
X3732000Y-4292600D02*
G75*
G03*
X3732000Y-4292600I-60000J0D01*
G01*
X3612000Y-4582600D02*
X3732000Y-4702600D01*
X3732000Y-4582600D02*
X3612000Y-4702600D01*
X3732000Y-4642600D02*
G75*
G03*
X3732000Y-4642600I-60000J0D01*
G01*
D17*
X3629270Y-2824830D02*
X3949270Y-3144830D01*
X3949270Y-2824830D02*
X3629270Y-3144830D01*
X3789270Y-2824830D02*
X3789270Y-3144830D01*
X3629270Y-2984830D02*
X3949270Y-2984830D01*
X3629290Y-21824820D02*
X3949290Y-22144820D01*
X3949290Y-21824820D02*
X3629290Y-22144820D01*
X3789290Y-21824820D02*
X3789290Y-22144820D01*
X3629290Y-21984820D02*
X3949290Y-21984820D01*
X15129270Y-21824830D02*
X15449270Y-22144830D01*
X15449270Y-21824830D02*
X15129270Y-22144830D01*
X15289270Y-21824830D02*
X15289270Y-22144830D01*
X15129270Y-21984830D02*
X15449270Y-21984830D01*
X15129290Y-2824820D02*
X15449290Y-3144820D01*
X15449290Y-2824820D02*
X15129290Y-3144820D01*
X15289290Y-2824820D02*
X15289290Y-3144820D01*
X15129290Y-2984820D02*
X15449290Y-2984820D01*
D11*
X3422284Y-22919915D02*
X3422284Y-22719915D01*
X3469903Y-22719915D01*
X3498475Y-22729439D01*
X3517522Y-22748487D01*
X3527046Y-22767534D01*
X3536570Y-22805630D01*
X3536570Y-22834201D01*
X3527046Y-22872296D01*
X3517522Y-22891344D01*
X3498475Y-22910392D01*
X3469903Y-22919915D01*
X3422284Y-22919915D01*
X3622284Y-22919915D02*
X3622284Y-22786582D01*
X3622284Y-22824677D02*
X3631808Y-22805630D01*
X3641332Y-22796106D01*
X3660380Y-22786582D01*
X3679427Y-22786582D01*
X3746094Y-22919915D02*
X3746094Y-22786582D01*
X3746094Y-22719915D02*
X3736570Y-22729439D01*
X3746094Y-22738963D01*
X3755618Y-22729439D01*
X3746094Y-22719915D01*
X3746094Y-22738963D01*
X3869903Y-22919915D02*
X3850856Y-22910392D01*
X3841332Y-22891344D01*
X3841332Y-22719915D01*
X3974665Y-22919915D02*
X3955618Y-22910392D01*
X3946094Y-22891344D01*
X3946094Y-22719915D01*
X4203237Y-22919915D02*
X4203237Y-22719915D01*
X4269903Y-22862773D01*
X4336570Y-22719915D01*
X4336570Y-22919915D01*
X4517523Y-22919915D02*
X4517523Y-22815153D01*
X4507999Y-22796106D01*
X4488951Y-22786582D01*
X4450856Y-22786582D01*
X4431808Y-22796106D01*
X4517523Y-22910392D02*
X4498475Y-22919915D01*
X4450856Y-22919915D01*
X4431808Y-22910392D01*
X4422284Y-22891344D01*
X4422284Y-22872296D01*
X4431808Y-22853249D01*
X4450856Y-22843725D01*
X4498475Y-22843725D01*
X4517523Y-22834201D01*
X4612761Y-22786582D02*
X4612761Y-22986582D01*
X4612761Y-22796106D02*
X4631808Y-22786582D01*
X4669903Y-22786582D01*
X4688951Y-22796106D01*
X4698475Y-22805630D01*
X4707999Y-22824677D01*
X4707999Y-22881820D01*
X4698475Y-22900868D01*
X4688951Y-22910392D01*
X4669903Y-22919915D01*
X4631808Y-22919915D01*
X4612761Y-22910392D01*
X4793713Y-22900868D02*
X4803237Y-22910392D01*
X4793713Y-22919915D01*
X4784189Y-22910392D01*
X4793713Y-22900868D01*
X4793713Y-22919915D01*
X4793713Y-22796106D02*
X4803237Y-22805630D01*
X4793713Y-22815153D01*
X4784189Y-22805630D01*
X4793713Y-22796106D01*
X4793713Y-22815153D01*
D12*
X3124665Y-23229439D02*
X3164665Y-23269439D01*
X3164665Y-23229439D02*
X3124665Y-23269439D01*
D11*
X3460380Y-23139915D02*
X3479427Y-23139915D01*
X3498475Y-23149439D01*
X3507999Y-23158963D01*
X3517522Y-23178011D01*
X3527046Y-23216106D01*
X3527046Y-23263725D01*
X3517522Y-23301820D01*
X3507999Y-23320868D01*
X3498475Y-23330392D01*
X3479427Y-23339915D01*
X3460380Y-23339915D01*
X3441332Y-23330392D01*
X3431808Y-23320868D01*
X3422284Y-23301820D01*
X3412761Y-23263725D01*
X3412761Y-23216106D01*
X3422284Y-23178011D01*
X3431808Y-23158963D01*
X3441332Y-23149439D01*
X3460380Y-23139915D01*
X3612761Y-23320868D02*
X3622284Y-23330392D01*
X3612761Y-23339915D01*
X3603237Y-23330392D01*
X3612761Y-23320868D01*
X3612761Y-23339915D01*
X3793713Y-23206582D02*
X3793713Y-23339915D01*
X3746094Y-23130392D02*
X3698475Y-23273249D01*
X3822284Y-23273249D01*
X3936570Y-23139915D02*
X3955618Y-23139915D01*
X3974665Y-23149439D01*
X3984189Y-23158963D01*
X3993713Y-23178011D01*
X4003237Y-23216106D01*
X4003237Y-23263725D01*
X3993713Y-23301820D01*
X3984189Y-23320868D01*
X3974665Y-23330392D01*
X3955618Y-23339915D01*
X3936570Y-23339915D01*
X3917522Y-23330392D01*
X3907999Y-23320868D01*
X3898475Y-23301820D01*
X3888951Y-23263725D01*
X3888951Y-23216106D01*
X3898475Y-23178011D01*
X3907999Y-23158963D01*
X3917522Y-23149439D01*
X3936570Y-23139915D01*
X4127046Y-23139915D02*
X4146094Y-23139915D01*
X4165141Y-23149439D01*
X4174665Y-23158963D01*
X4184189Y-23178011D01*
X4193713Y-23216106D01*
X4193713Y-23263725D01*
X4184189Y-23301820D01*
X4174665Y-23320868D01*
X4165141Y-23330392D01*
X4146094Y-23339915D01*
X4127046Y-23339915D01*
X4107999Y-23330392D01*
X4098475Y-23320868D01*
X4088951Y-23301820D01*
X4079427Y-23263725D01*
X4079427Y-23216106D01*
X4088951Y-23178011D01*
X4098475Y-23158963D01*
X4107999Y-23149439D01*
X4127046Y-23139915D01*
X4279427Y-23339915D02*
X4279427Y-23206582D01*
X4279427Y-23225630D02*
X4288951Y-23216106D01*
X4307999Y-23206582D01*
X4336570Y-23206582D01*
X4355618Y-23216106D01*
X4365142Y-23235153D01*
X4365142Y-23339915D01*
X4365142Y-23235153D02*
X4374665Y-23216106D01*
X4393713Y-23206582D01*
X4422284Y-23206582D01*
X4441332Y-23216106D01*
X4450856Y-23235153D01*
X4450856Y-23339915D01*
X4546094Y-23339915D02*
X4546094Y-23206582D01*
X4546094Y-23225630D02*
X4555618Y-23216106D01*
X4574665Y-23206582D01*
X4603237Y-23206582D01*
X4622284Y-23216106D01*
X4631808Y-23235153D01*
X4631808Y-23339915D01*
X4631808Y-23235153D02*
X4641332Y-23216106D01*
X4660380Y-23206582D01*
X4688951Y-23206582D01*
X4707999Y-23216106D01*
X4717523Y-23235153D01*
X4717523Y-23339915D01*
X5107999Y-23130392D02*
X4936570Y-23387534D01*
X5365142Y-23139915D02*
X5384189Y-23139915D01*
X5403237Y-23149439D01*
X5412761Y-23158963D01*
X5422284Y-23178011D01*
X5431808Y-23216106D01*
X5431808Y-23263725D01*
X5422284Y-23301820D01*
X5412761Y-23320868D01*
X5403237Y-23330392D01*
X5384189Y-23339915D01*
X5365142Y-23339915D01*
X5346094Y-23330392D01*
X5336570Y-23320868D01*
X5327046Y-23301820D01*
X5317523Y-23263725D01*
X5317523Y-23216106D01*
X5327046Y-23178011D01*
X5336570Y-23158963D01*
X5346094Y-23149439D01*
X5365142Y-23139915D01*
X5517523Y-23320868D02*
X5527046Y-23330392D01*
X5517523Y-23339915D01*
X5507999Y-23330392D01*
X5517523Y-23320868D01*
X5517523Y-23339915D01*
X5650856Y-23139915D02*
X5669903Y-23139915D01*
X5688951Y-23149439D01*
X5698475Y-23158963D01*
X5707999Y-23178011D01*
X5717522Y-23216106D01*
X5717522Y-23263725D01*
X5707999Y-23301820D01*
X5698475Y-23320868D01*
X5688951Y-23330392D01*
X5669903Y-23339915D01*
X5650856Y-23339915D01*
X5631808Y-23330392D01*
X5622284Y-23320868D01*
X5612761Y-23301820D01*
X5603237Y-23263725D01*
X5603237Y-23216106D01*
X5612761Y-23178011D01*
X5622284Y-23158963D01*
X5631808Y-23149439D01*
X5650856Y-23139915D01*
X5907999Y-23339915D02*
X5793713Y-23339915D01*
X5850856Y-23339915D02*
X5850856Y-23139915D01*
X5831808Y-23168487D01*
X5812761Y-23187534D01*
X5793713Y-23197058D01*
X6088951Y-23139915D02*
X5993713Y-23139915D01*
X5984189Y-23235153D01*
X5993713Y-23225630D01*
X6012761Y-23216106D01*
X6060380Y-23216106D01*
X6079427Y-23225630D01*
X6088951Y-23235153D01*
X6098475Y-23254201D01*
X6098475Y-23301820D01*
X6088951Y-23320868D01*
X6079427Y-23330392D01*
X6060380Y-23339915D01*
X6012761Y-23339915D01*
X5993713Y-23330392D01*
X5984189Y-23320868D01*
X6165141Y-23139915D02*
X6298475Y-23139915D01*
X6212761Y-23339915D01*
X6365141Y-23139915D02*
X6365141Y-23178011D01*
X6441332Y-23139915D02*
X6441332Y-23178011D01*
X6736570Y-23416106D02*
X6727046Y-23406582D01*
X6707999Y-23378011D01*
X6698475Y-23358963D01*
X6688951Y-23330392D01*
X6679427Y-23282773D01*
X6679427Y-23244677D01*
X6688951Y-23197058D01*
X6698475Y-23168487D01*
X6707999Y-23149439D01*
X6727046Y-23120868D01*
X6736570Y-23111344D01*
X6898475Y-23206582D02*
X6898475Y-23339915D01*
X6850856Y-23130392D02*
X6803237Y-23273249D01*
X6927046Y-23273249D01*
X7088951Y-23206582D02*
X7088951Y-23339915D01*
X7041332Y-23130392D02*
X6993713Y-23273249D01*
X7117522Y-23273249D01*
X7346094Y-23339915D02*
X7346094Y-23139915D01*
X7431808Y-23339915D02*
X7431808Y-23235153D01*
X7422284Y-23216106D01*
X7403237Y-23206582D01*
X7374665Y-23206582D01*
X7355618Y-23216106D01*
X7346094Y-23225630D01*
X7555618Y-23339915D02*
X7536570Y-23330392D01*
X7527046Y-23320868D01*
X7517522Y-23301820D01*
X7517522Y-23244677D01*
X7527046Y-23225630D01*
X7536570Y-23216106D01*
X7555618Y-23206582D01*
X7584189Y-23206582D01*
X7603237Y-23216106D01*
X7612761Y-23225630D01*
X7622284Y-23244677D01*
X7622284Y-23301820D01*
X7612761Y-23320868D01*
X7603237Y-23330392D01*
X7584189Y-23339915D01*
X7555618Y-23339915D01*
X7736570Y-23339915D02*
X7717522Y-23330392D01*
X7707999Y-23311344D01*
X7707999Y-23139915D01*
X7888951Y-23330392D02*
X7869903Y-23339915D01*
X7831808Y-23339915D01*
X7812761Y-23330392D01*
X7803237Y-23311344D01*
X7803237Y-23235153D01*
X7812761Y-23216106D01*
X7831808Y-23206582D01*
X7869903Y-23206582D01*
X7888951Y-23216106D01*
X7898475Y-23235153D01*
X7898475Y-23254201D01*
X7803237Y-23273249D01*
X7974665Y-23330392D02*
X7993713Y-23339915D01*
X8031808Y-23339915D01*
X8050856Y-23330392D01*
X8060380Y-23311344D01*
X8060380Y-23301820D01*
X8050856Y-23282773D01*
X8031808Y-23273249D01*
X8003237Y-23273249D01*
X7984189Y-23263725D01*
X7974665Y-23244677D01*
X7974665Y-23235153D01*
X7984189Y-23216106D01*
X8003237Y-23206582D01*
X8031808Y-23206582D01*
X8050856Y-23216106D01*
X8127046Y-23416106D02*
X8136570Y-23406582D01*
X8155618Y-23378011D01*
X8165141Y-23358963D01*
X8174665Y-23330392D01*
X8184189Y-23282773D01*
X8184189Y-23244677D01*
X8174665Y-23197058D01*
X8165141Y-23168487D01*
X8155618Y-23149439D01*
X8136570Y-23120868D01*
X8127046Y-23111344D01*
D13*
X3164665Y-23513439D02*
G75*
G03*
X3164665Y-23513439I-40000J0D01*
G01*
D11*
X3460380Y-23403915D02*
X3479427Y-23403915D01*
X3498475Y-23413439D01*
X3507999Y-23422963D01*
X3517522Y-23442011D01*
X3527046Y-23480106D01*
X3527046Y-23527725D01*
X3517522Y-23565820D01*
X3507999Y-23584868D01*
X3498475Y-23594392D01*
X3479427Y-23603915D01*
X3460380Y-23603915D01*
X3441332Y-23594392D01*
X3431808Y-23584868D01*
X3422284Y-23565820D01*
X3412761Y-23527725D01*
X3412761Y-23480106D01*
X3422284Y-23442011D01*
X3431808Y-23422963D01*
X3441332Y-23413439D01*
X3460380Y-23403915D01*
X3612761Y-23584868D02*
X3622284Y-23594392D01*
X3612761Y-23603915D01*
X3603237Y-23594392D01*
X3612761Y-23584868D01*
X3612761Y-23603915D01*
X3736570Y-23489630D02*
X3717522Y-23480106D01*
X3707999Y-23470582D01*
X3698475Y-23451534D01*
X3698475Y-23442011D01*
X3707999Y-23422963D01*
X3717522Y-23413439D01*
X3736570Y-23403915D01*
X3774665Y-23403915D01*
X3793713Y-23413439D01*
X3803237Y-23422963D01*
X3812761Y-23442011D01*
X3812761Y-23451534D01*
X3803237Y-23470582D01*
X3793713Y-23480106D01*
X3774665Y-23489630D01*
X3736570Y-23489630D01*
X3717522Y-23499153D01*
X3707999Y-23508677D01*
X3698475Y-23527725D01*
X3698475Y-23565820D01*
X3707999Y-23584868D01*
X3717522Y-23594392D01*
X3736570Y-23603915D01*
X3774665Y-23603915D01*
X3793713Y-23594392D01*
X3803237Y-23584868D01*
X3812761Y-23565820D01*
X3812761Y-23527725D01*
X3803237Y-23508677D01*
X3793713Y-23499153D01*
X3774665Y-23489630D01*
X3936570Y-23403915D02*
X3955618Y-23403915D01*
X3974665Y-23413439D01*
X3984189Y-23422963D01*
X3993713Y-23442011D01*
X4003237Y-23480106D01*
X4003237Y-23527725D01*
X3993713Y-23565820D01*
X3984189Y-23584868D01*
X3974665Y-23594392D01*
X3955618Y-23603915D01*
X3936570Y-23603915D01*
X3917522Y-23594392D01*
X3907999Y-23584868D01*
X3898475Y-23565820D01*
X3888951Y-23527725D01*
X3888951Y-23480106D01*
X3898475Y-23442011D01*
X3907999Y-23422963D01*
X3917522Y-23413439D01*
X3936570Y-23403915D01*
X4127046Y-23403915D02*
X4146094Y-23403915D01*
X4165141Y-23413439D01*
X4174665Y-23422963D01*
X4184189Y-23442011D01*
X4193713Y-23480106D01*
X4193713Y-23527725D01*
X4184189Y-23565820D01*
X4174665Y-23584868D01*
X4165141Y-23594392D01*
X4146094Y-23603915D01*
X4127046Y-23603915D01*
X4107999Y-23594392D01*
X4098475Y-23584868D01*
X4088951Y-23565820D01*
X4079427Y-23527725D01*
X4079427Y-23480106D01*
X4088951Y-23442011D01*
X4098475Y-23422963D01*
X4107999Y-23413439D01*
X4127046Y-23403915D01*
X4279427Y-23603915D02*
X4279427Y-23470582D01*
X4279427Y-23489630D02*
X4288951Y-23480106D01*
X4307999Y-23470582D01*
X4336570Y-23470582D01*
X4355618Y-23480106D01*
X4365142Y-23499153D01*
X4365142Y-23603915D01*
X4365142Y-23499153D02*
X4374665Y-23480106D01*
X4393713Y-23470582D01*
X4422284Y-23470582D01*
X4441332Y-23480106D01*
X4450856Y-23499153D01*
X4450856Y-23603915D01*
X4546094Y-23603915D02*
X4546094Y-23470582D01*
X4546094Y-23489630D02*
X4555618Y-23480106D01*
X4574665Y-23470582D01*
X4603237Y-23470582D01*
X4622284Y-23480106D01*
X4631808Y-23499153D01*
X4631808Y-23603915D01*
X4631808Y-23499153D02*
X4641332Y-23480106D01*
X4660380Y-23470582D01*
X4688951Y-23470582D01*
X4707999Y-23480106D01*
X4717523Y-23499153D01*
X4717523Y-23603915D01*
X5107999Y-23394392D02*
X4936570Y-23651534D01*
X5365142Y-23403915D02*
X5384189Y-23403915D01*
X5403237Y-23413439D01*
X5412761Y-23422963D01*
X5422284Y-23442011D01*
X5431808Y-23480106D01*
X5431808Y-23527725D01*
X5422284Y-23565820D01*
X5412761Y-23584868D01*
X5403237Y-23594392D01*
X5384189Y-23603915D01*
X5365142Y-23603915D01*
X5346094Y-23594392D01*
X5336570Y-23584868D01*
X5327046Y-23565820D01*
X5317523Y-23527725D01*
X5317523Y-23480106D01*
X5327046Y-23442011D01*
X5336570Y-23422963D01*
X5346094Y-23413439D01*
X5365142Y-23403915D01*
X5517523Y-23584868D02*
X5527046Y-23594392D01*
X5517523Y-23603915D01*
X5507999Y-23594392D01*
X5517523Y-23584868D01*
X5517523Y-23603915D01*
X5650856Y-23403915D02*
X5669903Y-23403915D01*
X5688951Y-23413439D01*
X5698475Y-23422963D01*
X5707999Y-23442011D01*
X5717522Y-23480106D01*
X5717522Y-23527725D01*
X5707999Y-23565820D01*
X5698475Y-23584868D01*
X5688951Y-23594392D01*
X5669903Y-23603915D01*
X5650856Y-23603915D01*
X5631808Y-23594392D01*
X5622284Y-23584868D01*
X5612761Y-23565820D01*
X5603237Y-23527725D01*
X5603237Y-23480106D01*
X5612761Y-23442011D01*
X5622284Y-23422963D01*
X5631808Y-23413439D01*
X5650856Y-23403915D01*
X5784189Y-23403915D02*
X5907999Y-23403915D01*
X5841332Y-23480106D01*
X5869903Y-23480106D01*
X5888951Y-23489630D01*
X5898475Y-23499153D01*
X5907999Y-23518201D01*
X5907999Y-23565820D01*
X5898475Y-23584868D01*
X5888951Y-23594392D01*
X5869903Y-23603915D01*
X5812761Y-23603915D01*
X5793713Y-23594392D01*
X5784189Y-23584868D01*
X6098475Y-23603915D02*
X5984189Y-23603915D01*
X6041332Y-23603915D02*
X6041332Y-23403915D01*
X6022284Y-23432487D01*
X6003237Y-23451534D01*
X5984189Y-23461058D01*
X6279427Y-23403915D02*
X6184189Y-23403915D01*
X6174665Y-23499153D01*
X6184189Y-23489630D01*
X6203237Y-23480106D01*
X6250856Y-23480106D01*
X6269903Y-23489630D01*
X6279427Y-23499153D01*
X6288951Y-23518201D01*
X6288951Y-23565820D01*
X6279427Y-23584868D01*
X6269903Y-23594392D01*
X6250856Y-23603915D01*
X6203237Y-23603915D01*
X6184189Y-23594392D01*
X6174665Y-23584868D01*
X6365141Y-23403915D02*
X6365141Y-23442011D01*
X6441332Y-23403915D02*
X6441332Y-23442011D01*
X6736570Y-23680106D02*
X6727046Y-23670582D01*
X6707999Y-23642011D01*
X6698475Y-23622963D01*
X6688951Y-23594392D01*
X6679427Y-23546773D01*
X6679427Y-23508677D01*
X6688951Y-23461058D01*
X6698475Y-23432487D01*
X6707999Y-23413439D01*
X6727046Y-23384868D01*
X6736570Y-23375344D01*
X6793713Y-23403915D02*
X6917522Y-23403915D01*
X6850856Y-23480106D01*
X6879427Y-23480106D01*
X6898475Y-23489630D01*
X6907999Y-23499153D01*
X6917522Y-23518201D01*
X6917522Y-23565820D01*
X6907999Y-23584868D01*
X6898475Y-23594392D01*
X6879427Y-23603915D01*
X6822284Y-23603915D01*
X6803237Y-23594392D01*
X6793713Y-23584868D01*
X7088951Y-23403915D02*
X7050856Y-23403915D01*
X7031808Y-23413439D01*
X7022284Y-23422963D01*
X7003237Y-23451534D01*
X6993713Y-23489630D01*
X6993713Y-23565820D01*
X7003237Y-23584868D01*
X7012761Y-23594392D01*
X7031808Y-23603915D01*
X7069903Y-23603915D01*
X7088951Y-23594392D01*
X7098475Y-23584868D01*
X7107999Y-23565820D01*
X7107999Y-23518201D01*
X7098475Y-23499153D01*
X7088951Y-23489630D01*
X7069903Y-23480106D01*
X7031808Y-23480106D01*
X7012761Y-23489630D01*
X7003237Y-23499153D01*
X6993713Y-23518201D01*
X7231808Y-23403915D02*
X7250856Y-23403915D01*
X7269903Y-23413439D01*
X7279427Y-23422963D01*
X7288951Y-23442011D01*
X7298475Y-23480106D01*
X7298475Y-23527725D01*
X7288951Y-23565820D01*
X7279427Y-23584868D01*
X7269903Y-23594392D01*
X7250856Y-23603915D01*
X7231808Y-23603915D01*
X7212761Y-23594392D01*
X7203237Y-23584868D01*
X7193713Y-23565820D01*
X7184189Y-23527725D01*
X7184189Y-23480106D01*
X7193713Y-23442011D01*
X7203237Y-23422963D01*
X7212761Y-23413439D01*
X7231808Y-23403915D01*
X7536570Y-23603915D02*
X7536570Y-23403915D01*
X7622284Y-23603915D02*
X7622284Y-23499153D01*
X7612761Y-23480106D01*
X7593713Y-23470582D01*
X7565141Y-23470582D01*
X7546094Y-23480106D01*
X7536570Y-23489630D01*
X7746094Y-23603915D02*
X7727046Y-23594392D01*
X7717522Y-23584868D01*
X7707999Y-23565820D01*
X7707999Y-23508677D01*
X7717522Y-23489630D01*
X7727046Y-23480106D01*
X7746094Y-23470582D01*
X7774665Y-23470582D01*
X7793713Y-23480106D01*
X7803237Y-23489630D01*
X7812761Y-23508677D01*
X7812761Y-23565820D01*
X7803237Y-23584868D01*
X7793713Y-23594392D01*
X7774665Y-23603915D01*
X7746094Y-23603915D01*
X7927046Y-23603915D02*
X7907999Y-23594392D01*
X7898475Y-23575344D01*
X7898475Y-23403915D01*
X8079427Y-23594392D02*
X8060380Y-23603915D01*
X8022284Y-23603915D01*
X8003237Y-23594392D01*
X7993713Y-23575344D01*
X7993713Y-23499153D01*
X8003237Y-23480106D01*
X8022284Y-23470582D01*
X8060380Y-23470582D01*
X8079427Y-23480106D01*
X8088951Y-23499153D01*
X8088951Y-23518201D01*
X7993713Y-23537249D01*
X8165141Y-23594392D02*
X8184189Y-23603915D01*
X8222284Y-23603915D01*
X8241332Y-23594392D01*
X8250856Y-23575344D01*
X8250856Y-23565820D01*
X8241332Y-23546773D01*
X8222284Y-23537249D01*
X8193713Y-23537249D01*
X8174665Y-23527725D01*
X8165141Y-23508677D01*
X8165141Y-23499153D01*
X8174665Y-23480106D01*
X8193713Y-23470582D01*
X8222284Y-23470582D01*
X8241332Y-23480106D01*
X8317522Y-23680106D02*
X8327046Y-23670582D01*
X8346094Y-23642011D01*
X8355618Y-23622963D01*
X8365141Y-23594392D01*
X8374665Y-23546773D01*
X8374665Y-23508677D01*
X8365141Y-23461058D01*
X8355618Y-23432487D01*
X8346094Y-23413439D01*
X8327046Y-23384868D01*
X8317522Y-23375344D01*
D14*
X3119665Y-23732439D02*
X3119665Y-23822439D01*
X3074665Y-23777439D02*
X3164665Y-23777439D01*
D11*
X3460380Y-23667915D02*
X3479427Y-23667915D01*
X3498475Y-23677439D01*
X3507999Y-23686963D01*
X3517522Y-23706011D01*
X3527046Y-23744106D01*
X3527046Y-23791725D01*
X3517522Y-23829820D01*
X3507999Y-23848868D01*
X3498475Y-23858392D01*
X3479427Y-23867915D01*
X3460380Y-23867915D01*
X3441332Y-23858392D01*
X3431808Y-23848868D01*
X3422284Y-23829820D01*
X3412761Y-23791725D01*
X3412761Y-23744106D01*
X3422284Y-23706011D01*
X3431808Y-23686963D01*
X3441332Y-23677439D01*
X3460380Y-23667915D01*
X3612761Y-23848868D02*
X3622284Y-23858392D01*
X3612761Y-23867915D01*
X3603237Y-23858392D01*
X3612761Y-23848868D01*
X3612761Y-23867915D01*
X3717522Y-23867915D02*
X3755618Y-23867915D01*
X3774665Y-23858392D01*
X3784189Y-23848868D01*
X3803237Y-23820296D01*
X3812761Y-23782201D01*
X3812761Y-23706011D01*
X3803237Y-23686963D01*
X3793713Y-23677439D01*
X3774665Y-23667915D01*
X3736570Y-23667915D01*
X3717522Y-23677439D01*
X3707999Y-23686963D01*
X3698475Y-23706011D01*
X3698475Y-23753630D01*
X3707999Y-23772677D01*
X3717522Y-23782201D01*
X3736570Y-23791725D01*
X3774665Y-23791725D01*
X3793713Y-23782201D01*
X3803237Y-23772677D01*
X3812761Y-23753630D01*
X3936570Y-23667915D02*
X3955618Y-23667915D01*
X3974665Y-23677439D01*
X3984189Y-23686963D01*
X3993713Y-23706011D01*
X4003237Y-23744106D01*
X4003237Y-23791725D01*
X3993713Y-23829820D01*
X3984189Y-23848868D01*
X3974665Y-23858392D01*
X3955618Y-23867915D01*
X3936570Y-23867915D01*
X3917522Y-23858392D01*
X3907999Y-23848868D01*
X3898475Y-23829820D01*
X3888951Y-23791725D01*
X3888951Y-23744106D01*
X3898475Y-23706011D01*
X3907999Y-23686963D01*
X3917522Y-23677439D01*
X3936570Y-23667915D01*
X4127046Y-23667915D02*
X4146094Y-23667915D01*
X4165141Y-23677439D01*
X4174665Y-23686963D01*
X4184189Y-23706011D01*
X4193713Y-23744106D01*
X4193713Y-23791725D01*
X4184189Y-23829820D01*
X4174665Y-23848868D01*
X4165141Y-23858392D01*
X4146094Y-23867915D01*
X4127046Y-23867915D01*
X4107999Y-23858392D01*
X4098475Y-23848868D01*
X4088951Y-23829820D01*
X4079427Y-23791725D01*
X4079427Y-23744106D01*
X4088951Y-23706011D01*
X4098475Y-23686963D01*
X4107999Y-23677439D01*
X4127046Y-23667915D01*
X4279427Y-23867915D02*
X4279427Y-23734582D01*
X4279427Y-23753630D02*
X4288951Y-23744106D01*
X4307999Y-23734582D01*
X4336570Y-23734582D01*
X4355618Y-23744106D01*
X4365142Y-23763153D01*
X4365142Y-23867915D01*
X4365142Y-23763153D02*
X4374665Y-23744106D01*
X4393713Y-23734582D01*
X4422284Y-23734582D01*
X4441332Y-23744106D01*
X4450856Y-23763153D01*
X4450856Y-23867915D01*
X4546094Y-23867915D02*
X4546094Y-23734582D01*
X4546094Y-23753630D02*
X4555618Y-23744106D01*
X4574665Y-23734582D01*
X4603237Y-23734582D01*
X4622284Y-23744106D01*
X4631808Y-23763153D01*
X4631808Y-23867915D01*
X4631808Y-23763153D02*
X4641332Y-23744106D01*
X4660380Y-23734582D01*
X4688951Y-23734582D01*
X4707999Y-23744106D01*
X4717523Y-23763153D01*
X4717523Y-23867915D01*
X5107999Y-23658392D02*
X4936570Y-23915534D01*
X5365142Y-23667915D02*
X5384189Y-23667915D01*
X5403237Y-23677439D01*
X5412761Y-23686963D01*
X5422284Y-23706011D01*
X5431808Y-23744106D01*
X5431808Y-23791725D01*
X5422284Y-23829820D01*
X5412761Y-23848868D01*
X5403237Y-23858392D01*
X5384189Y-23867915D01*
X5365142Y-23867915D01*
X5346094Y-23858392D01*
X5336570Y-23848868D01*
X5327046Y-23829820D01*
X5317523Y-23791725D01*
X5317523Y-23744106D01*
X5327046Y-23706011D01*
X5336570Y-23686963D01*
X5346094Y-23677439D01*
X5365142Y-23667915D01*
X5517523Y-23848868D02*
X5527046Y-23858392D01*
X5517523Y-23867915D01*
X5507999Y-23858392D01*
X5517523Y-23848868D01*
X5517523Y-23867915D01*
X5650856Y-23667915D02*
X5669903Y-23667915D01*
X5688951Y-23677439D01*
X5698475Y-23686963D01*
X5707999Y-23706011D01*
X5717522Y-23744106D01*
X5717522Y-23791725D01*
X5707999Y-23829820D01*
X5698475Y-23848868D01*
X5688951Y-23858392D01*
X5669903Y-23867915D01*
X5650856Y-23867915D01*
X5631808Y-23858392D01*
X5622284Y-23848868D01*
X5612761Y-23829820D01*
X5603237Y-23791725D01*
X5603237Y-23744106D01*
X5612761Y-23706011D01*
X5622284Y-23686963D01*
X5631808Y-23677439D01*
X5650856Y-23667915D01*
X5784189Y-23667915D02*
X5907999Y-23667915D01*
X5841332Y-23744106D01*
X5869903Y-23744106D01*
X5888951Y-23753630D01*
X5898475Y-23763153D01*
X5907999Y-23782201D01*
X5907999Y-23829820D01*
X5898475Y-23848868D01*
X5888951Y-23858392D01*
X5869903Y-23867915D01*
X5812761Y-23867915D01*
X5793713Y-23858392D01*
X5784189Y-23848868D01*
X6088951Y-23667915D02*
X5993713Y-23667915D01*
X5984189Y-23763153D01*
X5993713Y-23753630D01*
X6012761Y-23744106D01*
X6060380Y-23744106D01*
X6079427Y-23753630D01*
X6088951Y-23763153D01*
X6098475Y-23782201D01*
X6098475Y-23829820D01*
X6088951Y-23848868D01*
X6079427Y-23858392D01*
X6060380Y-23867915D01*
X6012761Y-23867915D01*
X5993713Y-23858392D01*
X5984189Y-23848868D01*
X6269903Y-23734582D02*
X6269903Y-23867915D01*
X6222284Y-23658392D02*
X6174665Y-23801249D01*
X6298475Y-23801249D01*
X6365141Y-23667915D02*
X6365141Y-23706011D01*
X6441332Y-23667915D02*
X6441332Y-23706011D01*
X6736570Y-23944106D02*
X6727046Y-23934582D01*
X6707999Y-23906011D01*
X6698475Y-23886963D01*
X6688951Y-23858392D01*
X6679427Y-23810773D01*
X6679427Y-23772677D01*
X6688951Y-23725058D01*
X6698475Y-23696487D01*
X6707999Y-23677439D01*
X6727046Y-23648868D01*
X6736570Y-23639344D01*
X6803237Y-23686963D02*
X6812761Y-23677439D01*
X6831808Y-23667915D01*
X6879427Y-23667915D01*
X6898475Y-23677439D01*
X6907999Y-23686963D01*
X6917522Y-23706011D01*
X6917522Y-23725058D01*
X6907999Y-23753630D01*
X6793713Y-23867915D01*
X6917522Y-23867915D01*
X7088951Y-23734582D02*
X7088951Y-23867915D01*
X7041332Y-23658392D02*
X6993713Y-23801249D01*
X7117522Y-23801249D01*
X7346094Y-23867915D02*
X7346094Y-23667915D01*
X7431808Y-23867915D02*
X7431808Y-23763153D01*
X7422284Y-23744106D01*
X7403237Y-23734582D01*
X7374665Y-23734582D01*
X7355618Y-23744106D01*
X7346094Y-23753630D01*
X7555618Y-23867915D02*
X7536570Y-23858392D01*
X7527046Y-23848868D01*
X7517522Y-23829820D01*
X7517522Y-23772677D01*
X7527046Y-23753630D01*
X7536570Y-23744106D01*
X7555618Y-23734582D01*
X7584189Y-23734582D01*
X7603237Y-23744106D01*
X7612761Y-23753630D01*
X7622284Y-23772677D01*
X7622284Y-23829820D01*
X7612761Y-23848868D01*
X7603237Y-23858392D01*
X7584189Y-23867915D01*
X7555618Y-23867915D01*
X7736570Y-23867915D02*
X7717522Y-23858392D01*
X7707999Y-23839344D01*
X7707999Y-23667915D01*
X7888951Y-23858392D02*
X7869903Y-23867915D01*
X7831808Y-23867915D01*
X7812761Y-23858392D01*
X7803237Y-23839344D01*
X7803237Y-23763153D01*
X7812761Y-23744106D01*
X7831808Y-23734582D01*
X7869903Y-23734582D01*
X7888951Y-23744106D01*
X7898475Y-23763153D01*
X7898475Y-23782201D01*
X7803237Y-23801249D01*
X7974665Y-23858392D02*
X7993713Y-23867915D01*
X8031808Y-23867915D01*
X8050856Y-23858392D01*
X8060380Y-23839344D01*
X8060380Y-23829820D01*
X8050856Y-23810773D01*
X8031808Y-23801249D01*
X8003237Y-23801249D01*
X7984189Y-23791725D01*
X7974665Y-23772677D01*
X7974665Y-23763153D01*
X7984189Y-23744106D01*
X8003237Y-23734582D01*
X8031808Y-23734582D01*
X8050856Y-23744106D01*
X8127046Y-23944106D02*
X8136570Y-23934582D01*
X8155618Y-23906011D01*
X8165141Y-23886963D01*
X8174665Y-23858392D01*
X8184189Y-23810773D01*
X8184189Y-23772677D01*
X8174665Y-23725058D01*
X8165141Y-23696487D01*
X8155618Y-23677439D01*
X8136570Y-23648868D01*
X8127046Y-23639344D01*
D10*
X3150021Y-24076795D02*
X3150021Y-24006084D01*
X3079310Y-24006084D01*
X3079310Y-24076795D01*
X3150021Y-24076795D01*
D11*
X3527046Y-24131915D02*
X3412761Y-24131915D01*
X3469903Y-24131915D02*
X3469903Y-23931915D01*
X3450856Y-23960487D01*
X3431808Y-23979534D01*
X3412761Y-23989058D01*
X3612761Y-24112868D02*
X3622284Y-24122392D01*
X3612761Y-24131915D01*
X3603237Y-24122392D01*
X3612761Y-24112868D01*
X3612761Y-24131915D01*
X3746094Y-23931915D02*
X3765141Y-23931915D01*
X3784189Y-23941439D01*
X3793713Y-23950963D01*
X3803237Y-23970011D01*
X3812761Y-24008106D01*
X3812761Y-24055725D01*
X3803237Y-24093820D01*
X3793713Y-24112868D01*
X3784189Y-24122392D01*
X3765141Y-24131915D01*
X3746094Y-24131915D01*
X3727046Y-24122392D01*
X3717522Y-24112868D01*
X3707999Y-24093820D01*
X3698475Y-24055725D01*
X3698475Y-24008106D01*
X3707999Y-23970011D01*
X3717522Y-23950963D01*
X3727046Y-23941439D01*
X3746094Y-23931915D01*
X3936570Y-23931915D02*
X3955618Y-23931915D01*
X3974665Y-23941439D01*
X3984189Y-23950963D01*
X3993713Y-23970011D01*
X4003237Y-24008106D01*
X4003237Y-24055725D01*
X3993713Y-24093820D01*
X3984189Y-24112868D01*
X3974665Y-24122392D01*
X3955618Y-24131915D01*
X3936570Y-24131915D01*
X3917522Y-24122392D01*
X3907999Y-24112868D01*
X3898475Y-24093820D01*
X3888951Y-24055725D01*
X3888951Y-24008106D01*
X3898475Y-23970011D01*
X3907999Y-23950963D01*
X3917522Y-23941439D01*
X3936570Y-23931915D01*
X4127046Y-23931915D02*
X4146094Y-23931915D01*
X4165141Y-23941439D01*
X4174665Y-23950963D01*
X4184189Y-23970011D01*
X4193713Y-24008106D01*
X4193713Y-24055725D01*
X4184189Y-24093820D01*
X4174665Y-24112868D01*
X4165141Y-24122392D01*
X4146094Y-24131915D01*
X4127046Y-24131915D01*
X4107999Y-24122392D01*
X4098475Y-24112868D01*
X4088951Y-24093820D01*
X4079427Y-24055725D01*
X4079427Y-24008106D01*
X4088951Y-23970011D01*
X4098475Y-23950963D01*
X4107999Y-23941439D01*
X4127046Y-23931915D01*
X4279427Y-24131915D02*
X4279427Y-23998582D01*
X4279427Y-24017630D02*
X4288951Y-24008106D01*
X4307999Y-23998582D01*
X4336570Y-23998582D01*
X4355618Y-24008106D01*
X4365142Y-24027153D01*
X4365142Y-24131915D01*
X4365142Y-24027153D02*
X4374665Y-24008106D01*
X4393713Y-23998582D01*
X4422284Y-23998582D01*
X4441332Y-24008106D01*
X4450856Y-24027153D01*
X4450856Y-24131915D01*
X4546094Y-24131915D02*
X4546094Y-23998582D01*
X4546094Y-24017630D02*
X4555618Y-24008106D01*
X4574665Y-23998582D01*
X4603237Y-23998582D01*
X4622284Y-24008106D01*
X4631808Y-24027153D01*
X4631808Y-24131915D01*
X4631808Y-24027153D02*
X4641332Y-24008106D01*
X4660380Y-23998582D01*
X4688951Y-23998582D01*
X4707999Y-24008106D01*
X4717523Y-24027153D01*
X4717523Y-24131915D01*
X5107999Y-23922392D02*
X4936570Y-24179534D01*
X5365142Y-23931915D02*
X5384189Y-23931915D01*
X5403237Y-23941439D01*
X5412761Y-23950963D01*
X5422284Y-23970011D01*
X5431808Y-24008106D01*
X5431808Y-24055725D01*
X5422284Y-24093820D01*
X5412761Y-24112868D01*
X5403237Y-24122392D01*
X5384189Y-24131915D01*
X5365142Y-24131915D01*
X5346094Y-24122392D01*
X5336570Y-24112868D01*
X5327046Y-24093820D01*
X5317523Y-24055725D01*
X5317523Y-24008106D01*
X5327046Y-23970011D01*
X5336570Y-23950963D01*
X5346094Y-23941439D01*
X5365142Y-23931915D01*
X5517523Y-24112868D02*
X5527046Y-24122392D01*
X5517523Y-24131915D01*
X5507999Y-24122392D01*
X5517523Y-24112868D01*
X5517523Y-24131915D01*
X5650856Y-23931915D02*
X5669903Y-23931915D01*
X5688951Y-23941439D01*
X5698475Y-23950963D01*
X5707999Y-23970011D01*
X5717522Y-24008106D01*
X5717522Y-24055725D01*
X5707999Y-24093820D01*
X5698475Y-24112868D01*
X5688951Y-24122392D01*
X5669903Y-24131915D01*
X5650856Y-24131915D01*
X5631808Y-24122392D01*
X5622284Y-24112868D01*
X5612761Y-24093820D01*
X5603237Y-24055725D01*
X5603237Y-24008106D01*
X5612761Y-23970011D01*
X5622284Y-23950963D01*
X5631808Y-23941439D01*
X5650856Y-23931915D01*
X5784189Y-23931915D02*
X5907999Y-23931915D01*
X5841332Y-24008106D01*
X5869903Y-24008106D01*
X5888951Y-24017630D01*
X5898475Y-24027153D01*
X5907999Y-24046201D01*
X5907999Y-24093820D01*
X5898475Y-24112868D01*
X5888951Y-24122392D01*
X5869903Y-24131915D01*
X5812761Y-24131915D01*
X5793713Y-24122392D01*
X5784189Y-24112868D01*
X6003237Y-24131915D02*
X6041332Y-24131915D01*
X6060380Y-24122392D01*
X6069903Y-24112868D01*
X6088951Y-24084296D01*
X6098475Y-24046201D01*
X6098475Y-23970011D01*
X6088951Y-23950963D01*
X6079427Y-23941439D01*
X6060380Y-23931915D01*
X6022284Y-23931915D01*
X6003237Y-23941439D01*
X5993713Y-23950963D01*
X5984189Y-23970011D01*
X5984189Y-24017630D01*
X5993713Y-24036677D01*
X6003237Y-24046201D01*
X6022284Y-24055725D01*
X6060380Y-24055725D01*
X6079427Y-24046201D01*
X6088951Y-24036677D01*
X6098475Y-24017630D01*
X6269903Y-23998582D02*
X6269903Y-24131915D01*
X6222284Y-23922392D02*
X6174665Y-24065249D01*
X6298475Y-24065249D01*
X6365141Y-23931915D02*
X6365141Y-23970011D01*
X6441332Y-23931915D02*
X6441332Y-23970011D01*
X6736570Y-24208106D02*
X6727046Y-24198582D01*
X6707999Y-24170011D01*
X6698475Y-24150963D01*
X6688951Y-24122392D01*
X6679427Y-24074773D01*
X6679427Y-24036677D01*
X6688951Y-23989058D01*
X6698475Y-23960487D01*
X6707999Y-23941439D01*
X6727046Y-23912868D01*
X6736570Y-23903344D01*
X6841332Y-24017630D02*
X6822284Y-24008106D01*
X6812761Y-23998582D01*
X6803237Y-23979534D01*
X6803237Y-23970011D01*
X6812761Y-23950963D01*
X6822284Y-23941439D01*
X6841332Y-23931915D01*
X6879427Y-23931915D01*
X6898475Y-23941439D01*
X6907999Y-23950963D01*
X6917522Y-23970011D01*
X6917522Y-23979534D01*
X6907999Y-23998582D01*
X6898475Y-24008106D01*
X6879427Y-24017630D01*
X6841332Y-24017630D01*
X6822284Y-24027153D01*
X6812761Y-24036677D01*
X6803237Y-24055725D01*
X6803237Y-24093820D01*
X6812761Y-24112868D01*
X6822284Y-24122392D01*
X6841332Y-24131915D01*
X6879427Y-24131915D01*
X6898475Y-24122392D01*
X6907999Y-24112868D01*
X6917522Y-24093820D01*
X6917522Y-24055725D01*
X6907999Y-24036677D01*
X6898475Y-24027153D01*
X6879427Y-24017630D01*
X7098475Y-23931915D02*
X7003237Y-23931915D01*
X6993713Y-24027153D01*
X7003237Y-24017630D01*
X7022284Y-24008106D01*
X7069903Y-24008106D01*
X7088951Y-24017630D01*
X7098475Y-24027153D01*
X7107999Y-24046201D01*
X7107999Y-24093820D01*
X7098475Y-24112868D01*
X7088951Y-24122392D01*
X7069903Y-24131915D01*
X7022284Y-24131915D01*
X7003237Y-24122392D01*
X6993713Y-24112868D01*
X7346094Y-24131915D02*
X7346094Y-23931915D01*
X7431808Y-24131915D02*
X7431808Y-24027153D01*
X7422284Y-24008106D01*
X7403237Y-23998582D01*
X7374665Y-23998582D01*
X7355618Y-24008106D01*
X7346094Y-24017630D01*
X7555618Y-24131915D02*
X7536570Y-24122392D01*
X7527046Y-24112868D01*
X7517522Y-24093820D01*
X7517522Y-24036677D01*
X7527046Y-24017630D01*
X7536570Y-24008106D01*
X7555618Y-23998582D01*
X7584189Y-23998582D01*
X7603237Y-24008106D01*
X7612761Y-24017630D01*
X7622284Y-24036677D01*
X7622284Y-24093820D01*
X7612761Y-24112868D01*
X7603237Y-24122392D01*
X7584189Y-24131915D01*
X7555618Y-24131915D01*
X7736570Y-24131915D02*
X7717522Y-24122392D01*
X7707999Y-24103344D01*
X7707999Y-23931915D01*
X7888951Y-24122392D02*
X7869903Y-24131915D01*
X7831808Y-24131915D01*
X7812761Y-24122392D01*
X7803237Y-24103344D01*
X7803237Y-24027153D01*
X7812761Y-24008106D01*
X7831808Y-23998582D01*
X7869903Y-23998582D01*
X7888951Y-24008106D01*
X7898475Y-24027153D01*
X7898475Y-24046201D01*
X7803237Y-24065249D01*
X7974665Y-24122392D02*
X7993713Y-24131915D01*
X8031808Y-24131915D01*
X8050856Y-24122392D01*
X8060380Y-24103344D01*
X8060380Y-24093820D01*
X8050856Y-24074773D01*
X8031808Y-24065249D01*
X8003237Y-24065249D01*
X7984189Y-24055725D01*
X7974665Y-24036677D01*
X7974665Y-24027153D01*
X7984189Y-24008106D01*
X8003237Y-23998582D01*
X8031808Y-23998582D01*
X8050856Y-24008106D01*
X8298475Y-24055725D02*
X8450856Y-24055725D01*
X8374665Y-24131915D02*
X8374665Y-23979534D01*
X8679427Y-23931915D02*
X8803237Y-23931915D01*
X8736570Y-24008106D01*
X8765142Y-24008106D01*
X8784189Y-24017630D01*
X8793713Y-24027153D01*
X8803237Y-24046201D01*
X8803237Y-24093820D01*
X8793713Y-24112868D01*
X8784189Y-24122392D01*
X8765142Y-24131915D01*
X8707999Y-24131915D01*
X8688951Y-24122392D01*
X8679427Y-24112868D01*
X9031808Y-24122392D02*
X9050856Y-24131915D01*
X9088951Y-24131915D01*
X9107999Y-24122392D01*
X9117523Y-24103344D01*
X9117523Y-24093820D01*
X9107999Y-24074773D01*
X9088951Y-24065249D01*
X9060380Y-24065249D01*
X9041332Y-24055725D01*
X9031808Y-24036677D01*
X9031808Y-24027153D01*
X9041332Y-24008106D01*
X9060380Y-23998582D01*
X9088951Y-23998582D01*
X9107999Y-24008106D01*
X9231808Y-24131915D02*
X9212761Y-24122392D01*
X9203237Y-24103344D01*
X9203237Y-23931915D01*
X9336570Y-24131915D02*
X9317523Y-24122392D01*
X9307999Y-24112868D01*
X9298475Y-24093820D01*
X9298475Y-24036677D01*
X9307999Y-24017630D01*
X9317523Y-24008106D01*
X9336570Y-23998582D01*
X9365142Y-23998582D01*
X9384189Y-24008106D01*
X9393713Y-24017630D01*
X9403237Y-24036677D01*
X9403237Y-24093820D01*
X9393713Y-24112868D01*
X9384189Y-24122392D01*
X9365142Y-24131915D01*
X9336570Y-24131915D01*
X9460380Y-23998582D02*
X9536570Y-23998582D01*
X9488951Y-23931915D02*
X9488951Y-24103344D01*
X9498475Y-24122392D01*
X9517523Y-24131915D01*
X9536570Y-24131915D01*
X9593713Y-24122392D02*
X9612761Y-24131915D01*
X9650856Y-24131915D01*
X9669903Y-24122392D01*
X9679427Y-24103344D01*
X9679427Y-24093820D01*
X9669903Y-24074773D01*
X9650856Y-24065249D01*
X9622284Y-24065249D01*
X9603237Y-24055725D01*
X9593713Y-24036677D01*
X9593713Y-24027153D01*
X9603237Y-24008106D01*
X9622284Y-23998582D01*
X9650856Y-23998582D01*
X9669903Y-24008106D01*
X9746094Y-24208106D02*
X9755618Y-24198582D01*
X9774665Y-24170011D01*
X9784189Y-24150963D01*
X9793713Y-24122392D01*
X9803237Y-24074773D01*
X9803237Y-24036677D01*
X9793713Y-23989058D01*
X9784189Y-23960487D01*
X9774665Y-23941439D01*
X9755618Y-23912868D01*
X9746094Y-23903344D01*
D15*
X3109665Y-24360439D02*
X3164665Y-24305439D01*
X3109665Y-24250439D01*
X3054665Y-24305439D01*
X3109665Y-24360439D01*
D11*
X3527046Y-24395915D02*
X3412761Y-24395915D01*
X3469903Y-24395915D02*
X3469903Y-24195915D01*
X3450856Y-24224487D01*
X3431808Y-24243534D01*
X3412761Y-24253058D01*
X3612761Y-24376868D02*
X3622284Y-24386392D01*
X3612761Y-24395915D01*
X3603237Y-24386392D01*
X3612761Y-24376868D01*
X3612761Y-24395915D01*
X3812761Y-24395915D02*
X3698475Y-24395915D01*
X3755618Y-24395915D02*
X3755618Y-24195915D01*
X3736570Y-24224487D01*
X3717522Y-24243534D01*
X3698475Y-24253058D01*
X3936570Y-24195915D02*
X3955618Y-24195915D01*
X3974665Y-24205439D01*
X3984189Y-24214963D01*
X3993713Y-24234011D01*
X4003237Y-24272106D01*
X4003237Y-24319725D01*
X3993713Y-24357820D01*
X3984189Y-24376868D01*
X3974665Y-24386392D01*
X3955618Y-24395915D01*
X3936570Y-24395915D01*
X3917522Y-24386392D01*
X3907999Y-24376868D01*
X3898475Y-24357820D01*
X3888951Y-24319725D01*
X3888951Y-24272106D01*
X3898475Y-24234011D01*
X3907999Y-24214963D01*
X3917522Y-24205439D01*
X3936570Y-24195915D01*
X4127046Y-24195915D02*
X4146094Y-24195915D01*
X4165141Y-24205439D01*
X4174665Y-24214963D01*
X4184189Y-24234011D01*
X4193713Y-24272106D01*
X4193713Y-24319725D01*
X4184189Y-24357820D01*
X4174665Y-24376868D01*
X4165141Y-24386392D01*
X4146094Y-24395915D01*
X4127046Y-24395915D01*
X4107999Y-24386392D01*
X4098475Y-24376868D01*
X4088951Y-24357820D01*
X4079427Y-24319725D01*
X4079427Y-24272106D01*
X4088951Y-24234011D01*
X4098475Y-24214963D01*
X4107999Y-24205439D01*
X4127046Y-24195915D01*
X4279427Y-24395915D02*
X4279427Y-24262582D01*
X4279427Y-24281630D02*
X4288951Y-24272106D01*
X4307999Y-24262582D01*
X4336570Y-24262582D01*
X4355618Y-24272106D01*
X4365142Y-24291153D01*
X4365142Y-24395915D01*
X4365142Y-24291153D02*
X4374665Y-24272106D01*
X4393713Y-24262582D01*
X4422284Y-24262582D01*
X4441332Y-24272106D01*
X4450856Y-24291153D01*
X4450856Y-24395915D01*
X4546094Y-24395915D02*
X4546094Y-24262582D01*
X4546094Y-24281630D02*
X4555618Y-24272106D01*
X4574665Y-24262582D01*
X4603237Y-24262582D01*
X4622284Y-24272106D01*
X4631808Y-24291153D01*
X4631808Y-24395915D01*
X4631808Y-24291153D02*
X4641332Y-24272106D01*
X4660380Y-24262582D01*
X4688951Y-24262582D01*
X4707999Y-24272106D01*
X4717523Y-24291153D01*
X4717523Y-24395915D01*
X5107999Y-24186392D02*
X4936570Y-24443534D01*
X5365142Y-24195915D02*
X5384189Y-24195915D01*
X5403237Y-24205439D01*
X5412761Y-24214963D01*
X5422284Y-24234011D01*
X5431808Y-24272106D01*
X5431808Y-24319725D01*
X5422284Y-24357820D01*
X5412761Y-24376868D01*
X5403237Y-24386392D01*
X5384189Y-24395915D01*
X5365142Y-24395915D01*
X5346094Y-24386392D01*
X5336570Y-24376868D01*
X5327046Y-24357820D01*
X5317523Y-24319725D01*
X5317523Y-24272106D01*
X5327046Y-24234011D01*
X5336570Y-24214963D01*
X5346094Y-24205439D01*
X5365142Y-24195915D01*
X5517523Y-24376868D02*
X5527046Y-24386392D01*
X5517523Y-24395915D01*
X5507999Y-24386392D01*
X5517523Y-24376868D01*
X5517523Y-24395915D01*
X5650856Y-24195915D02*
X5669903Y-24195915D01*
X5688951Y-24205439D01*
X5698475Y-24214963D01*
X5707999Y-24234011D01*
X5717522Y-24272106D01*
X5717522Y-24319725D01*
X5707999Y-24357820D01*
X5698475Y-24376868D01*
X5688951Y-24386392D01*
X5669903Y-24395915D01*
X5650856Y-24395915D01*
X5631808Y-24386392D01*
X5622284Y-24376868D01*
X5612761Y-24357820D01*
X5603237Y-24319725D01*
X5603237Y-24272106D01*
X5612761Y-24234011D01*
X5622284Y-24214963D01*
X5631808Y-24205439D01*
X5650856Y-24195915D01*
X5888951Y-24262582D02*
X5888951Y-24395915D01*
X5841332Y-24186392D02*
X5793713Y-24329249D01*
X5917522Y-24329249D01*
X5974665Y-24195915D02*
X6098475Y-24195915D01*
X6031808Y-24272106D01*
X6060380Y-24272106D01*
X6079427Y-24281630D01*
X6088951Y-24291153D01*
X6098475Y-24310201D01*
X6098475Y-24357820D01*
X6088951Y-24376868D01*
X6079427Y-24386392D01*
X6060380Y-24395915D01*
X6003237Y-24395915D01*
X5984189Y-24386392D01*
X5974665Y-24376868D01*
X6165141Y-24195915D02*
X6288951Y-24195915D01*
X6222284Y-24272106D01*
X6250856Y-24272106D01*
X6269903Y-24281630D01*
X6279427Y-24291153D01*
X6288951Y-24310201D01*
X6288951Y-24357820D01*
X6279427Y-24376868D01*
X6269903Y-24386392D01*
X6250856Y-24395915D01*
X6193713Y-24395915D01*
X6174665Y-24386392D01*
X6165141Y-24376868D01*
X6365141Y-24195915D02*
X6365141Y-24234011D01*
X6441332Y-24195915D02*
X6441332Y-24234011D01*
X6736570Y-24472106D02*
X6727046Y-24462582D01*
X6707999Y-24434011D01*
X6698475Y-24414963D01*
X6688951Y-24386392D01*
X6679427Y-24338773D01*
X6679427Y-24300677D01*
X6688951Y-24253058D01*
X6698475Y-24224487D01*
X6707999Y-24205439D01*
X6727046Y-24176868D01*
X6736570Y-24167344D01*
X6917522Y-24395915D02*
X6803237Y-24395915D01*
X6860380Y-24395915D02*
X6860380Y-24195915D01*
X6841332Y-24224487D01*
X6822284Y-24243534D01*
X6803237Y-24253058D01*
X7041332Y-24195915D02*
X7060380Y-24195915D01*
X7079427Y-24205439D01*
X7088951Y-24214963D01*
X7098475Y-24234011D01*
X7107999Y-24272106D01*
X7107999Y-24319725D01*
X7098475Y-24357820D01*
X7088951Y-24376868D01*
X7079427Y-24386392D01*
X7060380Y-24395915D01*
X7041332Y-24395915D01*
X7022284Y-24386392D01*
X7012761Y-24376868D01*
X7003237Y-24357820D01*
X6993713Y-24319725D01*
X6993713Y-24272106D01*
X7003237Y-24234011D01*
X7012761Y-24214963D01*
X7022284Y-24205439D01*
X7041332Y-24195915D01*
X7231808Y-24195915D02*
X7250856Y-24195915D01*
X7269903Y-24205439D01*
X7279427Y-24214963D01*
X7288951Y-24234011D01*
X7298475Y-24272106D01*
X7298475Y-24319725D01*
X7288951Y-24357820D01*
X7279427Y-24376868D01*
X7269903Y-24386392D01*
X7250856Y-24395915D01*
X7231808Y-24395915D01*
X7212761Y-24386392D01*
X7203237Y-24376868D01*
X7193713Y-24357820D01*
X7184189Y-24319725D01*
X7184189Y-24272106D01*
X7193713Y-24234011D01*
X7203237Y-24214963D01*
X7212761Y-24205439D01*
X7231808Y-24195915D01*
X7536570Y-24395915D02*
X7536570Y-24195915D01*
X7622284Y-24395915D02*
X7622284Y-24291153D01*
X7612761Y-24272106D01*
X7593713Y-24262582D01*
X7565141Y-24262582D01*
X7546094Y-24272106D01*
X7536570Y-24281630D01*
X7746094Y-24395915D02*
X7727046Y-24386392D01*
X7717522Y-24376868D01*
X7707999Y-24357820D01*
X7707999Y-24300677D01*
X7717522Y-24281630D01*
X7727046Y-24272106D01*
X7746094Y-24262582D01*
X7774665Y-24262582D01*
X7793713Y-24272106D01*
X7803237Y-24281630D01*
X7812761Y-24300677D01*
X7812761Y-24357820D01*
X7803237Y-24376868D01*
X7793713Y-24386392D01*
X7774665Y-24395915D01*
X7746094Y-24395915D01*
X7927046Y-24395915D02*
X7907999Y-24386392D01*
X7898475Y-24367344D01*
X7898475Y-24195915D01*
X8079427Y-24386392D02*
X8060380Y-24395915D01*
X8022284Y-24395915D01*
X8003237Y-24386392D01*
X7993713Y-24367344D01*
X7993713Y-24291153D01*
X8003237Y-24272106D01*
X8022284Y-24262582D01*
X8060380Y-24262582D01*
X8079427Y-24272106D01*
X8088951Y-24291153D01*
X8088951Y-24310201D01*
X7993713Y-24329249D01*
X8165141Y-24386392D02*
X8184189Y-24395915D01*
X8222284Y-24395915D01*
X8241332Y-24386392D01*
X8250856Y-24367344D01*
X8250856Y-24357820D01*
X8241332Y-24338773D01*
X8222284Y-24329249D01*
X8193713Y-24329249D01*
X8174665Y-24319725D01*
X8165141Y-24300677D01*
X8165141Y-24291153D01*
X8174665Y-24272106D01*
X8193713Y-24262582D01*
X8222284Y-24262582D01*
X8241332Y-24272106D01*
X8317522Y-24472106D02*
X8327046Y-24462582D01*
X8346094Y-24434011D01*
X8355618Y-24414963D01*
X8365141Y-24386392D01*
X8374665Y-24338773D01*
X8374665Y-24300677D01*
X8365141Y-24253058D01*
X8355618Y-24224487D01*
X8346094Y-24205439D01*
X8327046Y-24176868D01*
X8317522Y-24167344D01*
D16*
X3044665Y-24509439D02*
X3164665Y-24629439D01*
X3164665Y-24509439D02*
X3044665Y-24629439D01*
X3164665Y-24569439D02*
G75*
G03*
X3164665Y-24569439I-60000J0D01*
G01*
D11*
X3527046Y-24659915D02*
X3412761Y-24659915D01*
X3469903Y-24659915D02*
X3469903Y-24459915D01*
X3450856Y-24488487D01*
X3431808Y-24507534D01*
X3412761Y-24517058D01*
X3612761Y-24640868D02*
X3622284Y-24650392D01*
X3612761Y-24659915D01*
X3603237Y-24650392D01*
X3612761Y-24640868D01*
X3612761Y-24659915D01*
X3698475Y-24478963D02*
X3707999Y-24469439D01*
X3727046Y-24459915D01*
X3774665Y-24459915D01*
X3793713Y-24469439D01*
X3803237Y-24478963D01*
X3812761Y-24498011D01*
X3812761Y-24517058D01*
X3803237Y-24545630D01*
X3688951Y-24659915D01*
X3812761Y-24659915D01*
X3936570Y-24459915D02*
X3955618Y-24459915D01*
X3974665Y-24469439D01*
X3984189Y-24478963D01*
X3993713Y-24498011D01*
X4003237Y-24536106D01*
X4003237Y-24583725D01*
X3993713Y-24621820D01*
X3984189Y-24640868D01*
X3974665Y-24650392D01*
X3955618Y-24659915D01*
X3936570Y-24659915D01*
X3917522Y-24650392D01*
X3907999Y-24640868D01*
X3898475Y-24621820D01*
X3888951Y-24583725D01*
X3888951Y-24536106D01*
X3898475Y-24498011D01*
X3907999Y-24478963D01*
X3917522Y-24469439D01*
X3936570Y-24459915D01*
X4127046Y-24459915D02*
X4146094Y-24459915D01*
X4165141Y-24469439D01*
X4174665Y-24478963D01*
X4184189Y-24498011D01*
X4193713Y-24536106D01*
X4193713Y-24583725D01*
X4184189Y-24621820D01*
X4174665Y-24640868D01*
X4165141Y-24650392D01*
X4146094Y-24659915D01*
X4127046Y-24659915D01*
X4107999Y-24650392D01*
X4098475Y-24640868D01*
X4088951Y-24621820D01*
X4079427Y-24583725D01*
X4079427Y-24536106D01*
X4088951Y-24498011D01*
X4098475Y-24478963D01*
X4107999Y-24469439D01*
X4127046Y-24459915D01*
X4279427Y-24659915D02*
X4279427Y-24526582D01*
X4279427Y-24545630D02*
X4288951Y-24536106D01*
X4307999Y-24526582D01*
X4336570Y-24526582D01*
X4355618Y-24536106D01*
X4365142Y-24555153D01*
X4365142Y-24659915D01*
X4365142Y-24555153D02*
X4374665Y-24536106D01*
X4393713Y-24526582D01*
X4422284Y-24526582D01*
X4441332Y-24536106D01*
X4450856Y-24555153D01*
X4450856Y-24659915D01*
X4546094Y-24659915D02*
X4546094Y-24526582D01*
X4546094Y-24545630D02*
X4555618Y-24536106D01*
X4574665Y-24526582D01*
X4603237Y-24526582D01*
X4622284Y-24536106D01*
X4631808Y-24555153D01*
X4631808Y-24659915D01*
X4631808Y-24555153D02*
X4641332Y-24536106D01*
X4660380Y-24526582D01*
X4688951Y-24526582D01*
X4707999Y-24536106D01*
X4717523Y-24555153D01*
X4717523Y-24659915D01*
X5107999Y-24450392D02*
X4936570Y-24707534D01*
X5365142Y-24459915D02*
X5384189Y-24459915D01*
X5403237Y-24469439D01*
X5412761Y-24478963D01*
X5422284Y-24498011D01*
X5431808Y-24536106D01*
X5431808Y-24583725D01*
X5422284Y-24621820D01*
X5412761Y-24640868D01*
X5403237Y-24650392D01*
X5384189Y-24659915D01*
X5365142Y-24659915D01*
X5346094Y-24650392D01*
X5336570Y-24640868D01*
X5327046Y-24621820D01*
X5317523Y-24583725D01*
X5317523Y-24536106D01*
X5327046Y-24498011D01*
X5336570Y-24478963D01*
X5346094Y-24469439D01*
X5365142Y-24459915D01*
X5517523Y-24640868D02*
X5527046Y-24650392D01*
X5517523Y-24659915D01*
X5507999Y-24650392D01*
X5517523Y-24640868D01*
X5517523Y-24659915D01*
X5650856Y-24459915D02*
X5669903Y-24459915D01*
X5688951Y-24469439D01*
X5698475Y-24478963D01*
X5707999Y-24498011D01*
X5717522Y-24536106D01*
X5717522Y-24583725D01*
X5707999Y-24621820D01*
X5698475Y-24640868D01*
X5688951Y-24650392D01*
X5669903Y-24659915D01*
X5650856Y-24659915D01*
X5631808Y-24650392D01*
X5622284Y-24640868D01*
X5612761Y-24621820D01*
X5603237Y-24583725D01*
X5603237Y-24536106D01*
X5612761Y-24498011D01*
X5622284Y-24478963D01*
X5631808Y-24469439D01*
X5650856Y-24459915D01*
X5888951Y-24526582D02*
X5888951Y-24659915D01*
X5841332Y-24450392D02*
X5793713Y-24593249D01*
X5917522Y-24593249D01*
X5974665Y-24459915D02*
X6107999Y-24459915D01*
X6022284Y-24659915D01*
X6174665Y-24478963D02*
X6184189Y-24469439D01*
X6203237Y-24459915D01*
X6250856Y-24459915D01*
X6269903Y-24469439D01*
X6279427Y-24478963D01*
X6288951Y-24498011D01*
X6288951Y-24517058D01*
X6279427Y-24545630D01*
X6165141Y-24659915D01*
X6288951Y-24659915D01*
X6365141Y-24459915D02*
X6365141Y-24498011D01*
X6441332Y-24459915D02*
X6441332Y-24498011D01*
X6736570Y-24736106D02*
X6727046Y-24726582D01*
X6707999Y-24698011D01*
X6698475Y-24678963D01*
X6688951Y-24650392D01*
X6679427Y-24602773D01*
X6679427Y-24564677D01*
X6688951Y-24517058D01*
X6698475Y-24488487D01*
X6707999Y-24469439D01*
X6727046Y-24440868D01*
X6736570Y-24431344D01*
X6803237Y-24478963D02*
X6812761Y-24469439D01*
X6831808Y-24459915D01*
X6879427Y-24459915D01*
X6898475Y-24469439D01*
X6907999Y-24478963D01*
X6917522Y-24498011D01*
X6917522Y-24517058D01*
X6907999Y-24545630D01*
X6793713Y-24659915D01*
X6917522Y-24659915D01*
X7155618Y-24659915D02*
X7155618Y-24459915D01*
X7241332Y-24659915D02*
X7241332Y-24555153D01*
X7231808Y-24536106D01*
X7212761Y-24526582D01*
X7184189Y-24526582D01*
X7165141Y-24536106D01*
X7155618Y-24545630D01*
X7365141Y-24659915D02*
X7346094Y-24650392D01*
X7336570Y-24640868D01*
X7327046Y-24621820D01*
X7327046Y-24564677D01*
X7336570Y-24545630D01*
X7346094Y-24536106D01*
X7365141Y-24526582D01*
X7393713Y-24526582D01*
X7412761Y-24536106D01*
X7422284Y-24545630D01*
X7431808Y-24564677D01*
X7431808Y-24621820D01*
X7422284Y-24640868D01*
X7412761Y-24650392D01*
X7393713Y-24659915D01*
X7365141Y-24659915D01*
X7546094Y-24659915D02*
X7527046Y-24650392D01*
X7517522Y-24631344D01*
X7517522Y-24459915D01*
X7698475Y-24650392D02*
X7679427Y-24659915D01*
X7641332Y-24659915D01*
X7622284Y-24650392D01*
X7612761Y-24631344D01*
X7612761Y-24555153D01*
X7622284Y-24536106D01*
X7641332Y-24526582D01*
X7679427Y-24526582D01*
X7698475Y-24536106D01*
X7707999Y-24555153D01*
X7707999Y-24574201D01*
X7612761Y-24593249D01*
X7784189Y-24650392D02*
X7803237Y-24659915D01*
X7841332Y-24659915D01*
X7860380Y-24650392D01*
X7869903Y-24631344D01*
X7869903Y-24621820D01*
X7860380Y-24602773D01*
X7841332Y-24593249D01*
X7812761Y-24593249D01*
X7793713Y-24583725D01*
X7784189Y-24564677D01*
X7784189Y-24555153D01*
X7793713Y-24536106D01*
X7812761Y-24526582D01*
X7841332Y-24526582D01*
X7860380Y-24536106D01*
X7936570Y-24736106D02*
X7946094Y-24726582D01*
X7965141Y-24698011D01*
X7974665Y-24678963D01*
X7984189Y-24650392D01*
X7993713Y-24602773D01*
X7993713Y-24564677D01*
X7984189Y-24517058D01*
X7974665Y-24488487D01*
X7965141Y-24469439D01*
X7946094Y-24440868D01*
X7936570Y-24431344D01*
X2964665Y-24733439D02*
X3164665Y-24933439D01*
X3164665Y-24733439D02*
X2964665Y-24933439D01*
X3064665Y-24733439D02*
X3064665Y-24933439D01*
X2964665Y-24833439D02*
X3164665Y-24833439D01*
X3403237Y-24723915D02*
X3527046Y-24723915D01*
X3460380Y-24800106D01*
X3488951Y-24800106D01*
X3507999Y-24809630D01*
X3517522Y-24819153D01*
X3527046Y-24838201D01*
X3527046Y-24885820D01*
X3517522Y-24904868D01*
X3507999Y-24914392D01*
X3488951Y-24923915D01*
X3431808Y-24923915D01*
X3412761Y-24914392D01*
X3403237Y-24904868D01*
X3612761Y-24904868D02*
X3622284Y-24914392D01*
X3612761Y-24923915D01*
X3603237Y-24914392D01*
X3612761Y-24904868D01*
X3612761Y-24923915D01*
X3698475Y-24742963D02*
X3707999Y-24733439D01*
X3727046Y-24723915D01*
X3774665Y-24723915D01*
X3793713Y-24733439D01*
X3803237Y-24742963D01*
X3812761Y-24762011D01*
X3812761Y-24781058D01*
X3803237Y-24809630D01*
X3688951Y-24923915D01*
X3812761Y-24923915D01*
X3936570Y-24723915D02*
X3955618Y-24723915D01*
X3974665Y-24733439D01*
X3984189Y-24742963D01*
X3993713Y-24762011D01*
X4003237Y-24800106D01*
X4003237Y-24847725D01*
X3993713Y-24885820D01*
X3984189Y-24904868D01*
X3974665Y-24914392D01*
X3955618Y-24923915D01*
X3936570Y-24923915D01*
X3917522Y-24914392D01*
X3907999Y-24904868D01*
X3898475Y-24885820D01*
X3888951Y-24847725D01*
X3888951Y-24800106D01*
X3898475Y-24762011D01*
X3907999Y-24742963D01*
X3917522Y-24733439D01*
X3936570Y-24723915D01*
X4127046Y-24723915D02*
X4146094Y-24723915D01*
X4165141Y-24733439D01*
X4174665Y-24742963D01*
X4184189Y-24762011D01*
X4193713Y-24800106D01*
X4193713Y-24847725D01*
X4184189Y-24885820D01*
X4174665Y-24904868D01*
X4165141Y-24914392D01*
X4146094Y-24923915D01*
X4127046Y-24923915D01*
X4107999Y-24914392D01*
X4098475Y-24904868D01*
X4088951Y-24885820D01*
X4079427Y-24847725D01*
X4079427Y-24800106D01*
X4088951Y-24762011D01*
X4098475Y-24742963D01*
X4107999Y-24733439D01*
X4127046Y-24723915D01*
X4279427Y-24923915D02*
X4279427Y-24790582D01*
X4279427Y-24809630D02*
X4288951Y-24800106D01*
X4307999Y-24790582D01*
X4336570Y-24790582D01*
X4355618Y-24800106D01*
X4365142Y-24819153D01*
X4365142Y-24923915D01*
X4365142Y-24819153D02*
X4374665Y-24800106D01*
X4393713Y-24790582D01*
X4422284Y-24790582D01*
X4441332Y-24800106D01*
X4450856Y-24819153D01*
X4450856Y-24923915D01*
X4546094Y-24923915D02*
X4546094Y-24790582D01*
X4546094Y-24809630D02*
X4555618Y-24800106D01*
X4574665Y-24790582D01*
X4603237Y-24790582D01*
X4622284Y-24800106D01*
X4631808Y-24819153D01*
X4631808Y-24923915D01*
X4631808Y-24819153D02*
X4641332Y-24800106D01*
X4660380Y-24790582D01*
X4688951Y-24790582D01*
X4707999Y-24800106D01*
X4717523Y-24819153D01*
X4717523Y-24923915D01*
X5107999Y-24714392D02*
X4936570Y-24971534D01*
X5365142Y-24723915D02*
X5384189Y-24723915D01*
X5403237Y-24733439D01*
X5412761Y-24742963D01*
X5422284Y-24762011D01*
X5431808Y-24800106D01*
X5431808Y-24847725D01*
X5422284Y-24885820D01*
X5412761Y-24904868D01*
X5403237Y-24914392D01*
X5384189Y-24923915D01*
X5365142Y-24923915D01*
X5346094Y-24914392D01*
X5336570Y-24904868D01*
X5327046Y-24885820D01*
X5317523Y-24847725D01*
X5317523Y-24800106D01*
X5327046Y-24762011D01*
X5336570Y-24742963D01*
X5346094Y-24733439D01*
X5365142Y-24723915D01*
X5517523Y-24904868D02*
X5527046Y-24914392D01*
X5517523Y-24923915D01*
X5507999Y-24914392D01*
X5517523Y-24904868D01*
X5517523Y-24923915D01*
X5717522Y-24923915D02*
X5603237Y-24923915D01*
X5660380Y-24923915D02*
X5660380Y-24723915D01*
X5641332Y-24752487D01*
X5622284Y-24771534D01*
X5603237Y-24781058D01*
X5793713Y-24742963D02*
X5803237Y-24733439D01*
X5822284Y-24723915D01*
X5869903Y-24723915D01*
X5888951Y-24733439D01*
X5898475Y-24742963D01*
X5907999Y-24762011D01*
X5907999Y-24781058D01*
X5898475Y-24809630D01*
X5784189Y-24923915D01*
X5907999Y-24923915D01*
X6079427Y-24723915D02*
X6041332Y-24723915D01*
X6022284Y-24733439D01*
X6012761Y-24742963D01*
X5993713Y-24771534D01*
X5984189Y-24809630D01*
X5984189Y-24885820D01*
X5993713Y-24904868D01*
X6003237Y-24914392D01*
X6022284Y-24923915D01*
X6060380Y-24923915D01*
X6079427Y-24914392D01*
X6088951Y-24904868D01*
X6098475Y-24885820D01*
X6098475Y-24838201D01*
X6088951Y-24819153D01*
X6079427Y-24809630D01*
X6060380Y-24800106D01*
X6022284Y-24800106D01*
X6003237Y-24809630D01*
X5993713Y-24819153D01*
X5984189Y-24838201D01*
X6222284Y-24723915D02*
X6241332Y-24723915D01*
X6260380Y-24733439D01*
X6269903Y-24742963D01*
X6279427Y-24762011D01*
X6288951Y-24800106D01*
X6288951Y-24847725D01*
X6279427Y-24885820D01*
X6269903Y-24904868D01*
X6260380Y-24914392D01*
X6241332Y-24923915D01*
X6222284Y-24923915D01*
X6203237Y-24914392D01*
X6193713Y-24904868D01*
X6184189Y-24885820D01*
X6174665Y-24847725D01*
X6174665Y-24800106D01*
X6184189Y-24762011D01*
X6193713Y-24742963D01*
X6203237Y-24733439D01*
X6222284Y-24723915D01*
X6365141Y-24723915D02*
X6365141Y-24762011D01*
X6441332Y-24723915D02*
X6441332Y-24762011D01*
X6736570Y-25000106D02*
X6727046Y-24990582D01*
X6707999Y-24962011D01*
X6698475Y-24942963D01*
X6688951Y-24914392D01*
X6679427Y-24866773D01*
X6679427Y-24828677D01*
X6688951Y-24781058D01*
X6698475Y-24752487D01*
X6707999Y-24733439D01*
X6727046Y-24704868D01*
X6736570Y-24695344D01*
X6898475Y-24790582D02*
X6898475Y-24923915D01*
X6850856Y-24714392D02*
X6803237Y-24857249D01*
X6927046Y-24857249D01*
X7155618Y-24923915D02*
X7155618Y-24723915D01*
X7241332Y-24923915D02*
X7241332Y-24819153D01*
X7231808Y-24800106D01*
X7212761Y-24790582D01*
X7184189Y-24790582D01*
X7165141Y-24800106D01*
X7155618Y-24809630D01*
X7365141Y-24923915D02*
X7346094Y-24914392D01*
X7336570Y-24904868D01*
X7327046Y-24885820D01*
X7327046Y-24828677D01*
X7336570Y-24809630D01*
X7346094Y-24800106D01*
X7365141Y-24790582D01*
X7393713Y-24790582D01*
X7412761Y-24800106D01*
X7422284Y-24809630D01*
X7431808Y-24828677D01*
X7431808Y-24885820D01*
X7422284Y-24904868D01*
X7412761Y-24914392D01*
X7393713Y-24923915D01*
X7365141Y-24923915D01*
X7546094Y-24923915D02*
X7527046Y-24914392D01*
X7517522Y-24895344D01*
X7517522Y-24723915D01*
X7698475Y-24914392D02*
X7679427Y-24923915D01*
X7641332Y-24923915D01*
X7622284Y-24914392D01*
X7612761Y-24895344D01*
X7612761Y-24819153D01*
X7622284Y-24800106D01*
X7641332Y-24790582D01*
X7679427Y-24790582D01*
X7698475Y-24800106D01*
X7707999Y-24819153D01*
X7707999Y-24838201D01*
X7612761Y-24857249D01*
X7784189Y-24914392D02*
X7803237Y-24923915D01*
X7841332Y-24923915D01*
X7860380Y-24914392D01*
X7869903Y-24895344D01*
X7869903Y-24885820D01*
X7860380Y-24866773D01*
X7841332Y-24857249D01*
X7812761Y-24857249D01*
X7793713Y-24847725D01*
X7784189Y-24828677D01*
X7784189Y-24819153D01*
X7793713Y-24800106D01*
X7812761Y-24790582D01*
X7841332Y-24790582D01*
X7860380Y-24800106D01*
X7936570Y-25000106D02*
X7946094Y-24990582D01*
X7965141Y-24962011D01*
X7974665Y-24942963D01*
X7984189Y-24914392D01*
X7993713Y-24866773D01*
X7993713Y-24828677D01*
X7984189Y-24781058D01*
X7974665Y-24752487D01*
X7965141Y-24733439D01*
X7946094Y-24704868D01*
X7936570Y-24695344D01*
M02*
