M48
; DRILL file {KiCad (6.0.7)} date 2022-08-23T22:24:04 CEST
; FORMAT={-:-/ absolute / metric / decimal}
; #@! TF.CreationDate,2022-08-23T22:24:04+02:00
; #@! TF.GenerationSoftware,Kicad,Pcbnew,(6.0.7)
; #@! TF.FileFunction,Plated,1,2,PTH
FMAT,2
METRIC
; #@! TA.AperFunction,Plated,PTH,ViaDrill
T1C0.400
; #@! TA.AperFunction,Plated,PTH,ComponentDrill
T2C0.800
; #@! TA.AperFunction,Plated,PTH,ComponentDrill
T3C0.900
; #@! TA.AperFunction,Plated,PTH,ComponentDrill
T4C1.000
; #@! TA.AperFunction,Plated,PTH,ComponentDrill
T5C1.100
; #@! TA.AperFunction,Plated,PTH,ComponentDrill
T6C1.200
; #@! TA.AperFunction,Plated,PTH,ComponentDrill
T7C3.200
%
G90
G05
T1
X52.174Y-120.54
X52.899Y-121.25
X54.102Y-63.246
X54.403Y-169.727
X54.57Y-126.36
X58.05Y-118.79
X59.79Y-85.97
X84.295Y-181.73
X89.76Y-96.88
X104.36Y-133.787
X108.37Y-50.712
X109.456Y-91.885
X112.72Y-91.16
X115.984Y-90.435
X118.87Y-149.927
X125.96Y-36.115
X147.096Y-156.031
X147.115Y-154.577
X147.78Y-156.76
X147.798Y-155.307
X152.464Y-153.38
X153.189Y-151.63
X153.913Y-150.758
X154.638Y-153.69
T2
X40.435Y-80.032
X40.435Y-87.652
X40.435Y-91.348
X40.435Y-98.968
X40.435Y-102.663
X40.435Y-110.283
X40.435Y-113.979
X40.435Y-121.599
X40.435Y-125.294
X40.435Y-132.915
X40.435Y-136.61
X40.435Y-144.23
X40.435Y-147.925
X40.435Y-155.546
X40.435Y-159.241
X40.435Y-166.861
X40.435Y-170.556
X40.435Y-178.177
X40.435Y-181.872
X40.435Y-189.492
X40.435Y-193.188
X40.435Y-200.808
X40.435Y-204.504
X40.435Y-212.123
X54.58Y-200.004
X54.58Y-207.623
X57.975Y-36.552
X57.975Y-40.552
X57.975Y-43.093
X57.975Y-45.633
X57.975Y-48.172
X57.975Y-50.712
X57.975Y-53.252
X57.975Y-55.792
X57.975Y-58.332
X57.975Y-63.332
X57.975Y-67.332
X57.975Y-69.873
X57.975Y-72.412
X57.975Y-74.953
X57.975Y-77.492
X57.975Y-80.032
X57.975Y-82.572
X57.975Y-85.112
X57.975Y-131.427
X57.975Y-135.427
X57.975Y-137.968
X57.975Y-140.507
X57.975Y-143.047
X57.975Y-145.588
X57.975Y-148.127
X57.975Y-150.667
X57.975Y-153.207
X57.975Y-158.207
X57.975Y-160.707
X57.975Y-163.327
X57.975Y-165.827
X57.975Y-172.86
X57.975Y-175.36
X57.975Y-178.37
X57.975Y-180.87
X57.975Y-185.567
X57.975Y-188.067
X57.975Y-190.688
X57.975Y-193.188
X60.475Y-36.552
X60.475Y-63.332
X60.475Y-131.427
X61.975Y-158.207
X61.975Y-165.827
X61.975Y-172.947
X61.975Y-180.567
X61.975Y-185.567
X61.975Y-193.188
X63.095Y-36.552
X63.095Y-63.332
X63.095Y-131.427
X64.515Y-158.207
X64.515Y-165.827
X64.515Y-172.947
X64.515Y-180.567
X64.515Y-185.567
X64.515Y-193.188
X65.595Y-36.552
X65.595Y-40.552
X65.595Y-43.093
X65.595Y-45.633
X65.595Y-48.172
X65.595Y-50.712
X65.595Y-53.252
X65.595Y-55.792
X65.595Y-58.332
X65.595Y-63.332
X65.595Y-67.332
X65.595Y-69.873
X65.595Y-72.412
X65.595Y-74.953
X65.595Y-77.492
X65.595Y-80.032
X65.595Y-82.572
X65.595Y-85.112
X65.595Y-131.427
X65.595Y-135.427
X65.595Y-137.968
X65.595Y-140.507
X65.595Y-143.047
X65.595Y-145.588
X65.595Y-148.127
X65.595Y-150.667
X65.595Y-153.207
X65.975Y-105.87
X65.975Y-110.95
X67.055Y-158.207
X67.055Y-165.827
X67.055Y-172.947
X67.055Y-180.567
X67.055Y-185.567
X67.055Y-193.188
X67.68Y-200.004
X67.68Y-207.623
X69.595Y-158.207
X69.595Y-165.827
X69.595Y-172.947
X69.595Y-180.567
X69.595Y-185.567
X69.595Y-193.188
X70.91Y-38.012
X70.91Y-43.093
X70.91Y-48.172
X70.91Y-53.252
X70.91Y-132.887
X70.91Y-137.968
X70.91Y-143.047
X70.91Y-148.127
X72.135Y-158.207
X72.135Y-165.827
X72.135Y-172.947
X72.135Y-180.567
X72.135Y-185.567
X72.135Y-193.188
X73.595Y-63.872
X73.595Y-69.873
X73.595Y-74.953
X73.595Y-80.032
X73.595Y-85.112
X73.595Y-90.68
X73.595Y-98.3
X73.595Y-105.87
X73.595Y-110.95
X74.675Y-158.207
X74.675Y-165.827
X74.675Y-172.947
X74.675Y-180.567
X74.675Y-185.567
X74.675Y-193.188
X76.135Y-63.872
X77.215Y-158.207
X77.215Y-165.827
X77.215Y-172.947
X77.215Y-180.567
X77.215Y-185.567
X77.215Y-193.188
X78.53Y-38.012
X78.53Y-43.093
X78.53Y-48.172
X78.53Y-53.252
X78.53Y-132.887
X78.53Y-137.968
X78.53Y-143.047
X78.53Y-148.127
X78.675Y-63.872
X79.755Y-158.207
X79.755Y-165.827
X79.755Y-172.947
X79.755Y-180.567
X79.755Y-185.567
X79.755Y-193.188
X80.78Y-200.004
X80.78Y-207.623
X81.215Y-69.873
X81.215Y-74.953
X81.215Y-80.032
X81.215Y-85.112
X81.47Y-40.552
X81.47Y-45.633
X81.47Y-50.712
X81.47Y-55.792
X81.47Y-135.427
X81.47Y-140.507
X81.47Y-145.588
X81.47Y-150.667
X83.425Y-100.63
X83.425Y-115.87
X83.675Y-63.872
X85.09Y-123.807
X85.09Y-131.427
X85.965Y-100.63
X85.965Y-115.87
X86.215Y-63.872
X87.035Y-69.873
X87.035Y-72.412
X87.035Y-74.953
X87.035Y-80.032
X87.035Y-82.572
X87.035Y-85.112
X88.505Y-100.63
X88.505Y-115.87
X88.755Y-63.872
X89.09Y-40.552
X89.09Y-45.633
X89.09Y-50.712
X89.09Y-55.792
X89.09Y-123.807
X89.09Y-131.427
X89.09Y-135.427
X89.09Y-140.507
X89.09Y-145.588
X89.09Y-150.667
X91.045Y-100.63
X91.045Y-115.87
X92.47Y-123.565
X93.585Y-100.63
X93.585Y-115.87
X93.88Y-200.004
X93.88Y-207.623
X94.04Y-185.567
X94.04Y-188.067
X94.04Y-190.688
X94.04Y-193.188
X94.54Y-63.332
X94.54Y-70.953
X94.54Y-74.94
X94.54Y-82.56
X94.54Y-87.56
X94.54Y-90.06
X94.54Y-92.68
X94.54Y-95.18
X94.54Y-158.207
X94.54Y-165.827
X94.54Y-169.827
X94.54Y-177.447
X96.125Y-100.63
X96.125Y-115.87
X97.55Y-127.38
X98.04Y-185.567
X98.04Y-193.188
X98.54Y-87.56
X98.54Y-95.18
X98.665Y-100.63
X98.665Y-115.87
X100.09Y-123.565
X100.09Y-127.38
X100.58Y-185.567
X100.58Y-193.188
X101.08Y-87.56
X101.08Y-95.18
X101.205Y-100.63
X101.205Y-115.87
X101.245Y-118.98
X102.63Y-127.38
X103.12Y-185.567
X103.12Y-193.188
X103.62Y-87.56
X103.62Y-95.18
X103.745Y-100.63
X103.745Y-115.87
X103.745Y-118.98
X105.66Y-185.567
X105.66Y-193.188
X106.16Y-87.56
X106.16Y-95.18
X106.285Y-100.63
X106.285Y-115.87
X106.285Y-118.98
X106.98Y-200.004
X106.98Y-207.623
X107.037Y-123.565
X108.2Y-185.567
X108.2Y-193.188
X108.307Y-63.332
X108.307Y-70.953
X108.307Y-74.94
X108.307Y-82.56
X108.307Y-158.207
X108.307Y-165.827
X108.307Y-169.827
X108.307Y-177.447
X108.7Y-87.56
X108.7Y-95.18
X108.785Y-118.98
X108.825Y-100.63
X108.825Y-115.87
X110.74Y-185.567
X110.74Y-193.188
X111.24Y-87.56
X111.24Y-95.18
X111.365Y-100.63
X111.365Y-115.87
X112.117Y-127.38
X113.28Y-185.567
X113.28Y-193.188
X113.78Y-87.56
X113.78Y-95.18
X113.905Y-100.63
X113.905Y-115.87
X114.657Y-123.565
X114.657Y-127.38
X115.82Y-185.567
X115.82Y-193.188
X116.32Y-87.56
X116.32Y-95.18
X116.445Y-100.63
X116.445Y-115.87
X117.197Y-127.38
X118.985Y-100.63
X118.985Y-115.87
X120.08Y-200.004
X120.08Y-207.623
X121.525Y-100.63
X121.525Y-115.87
X121.603Y-123.565
X122.073Y-63.332
X122.073Y-70.953
X122.073Y-74.94
X122.073Y-82.56
X122.073Y-158.207
X122.073Y-165.827
X122.073Y-169.827
X122.073Y-177.447
X124.065Y-100.63
X124.065Y-115.87
X126.605Y-100.63
X126.605Y-115.87
X126.683Y-128.1
X129.145Y-100.63
X129.145Y-115.87
X129.223Y-123.565
X129.223Y-128.1
X131.685Y-100.63
X131.685Y-115.87
X131.763Y-128.1
X133.18Y-200.004
X133.18Y-207.623
X135.84Y-63.332
X135.84Y-70.953
X135.84Y-74.94
X135.84Y-82.56
X135.84Y-158.207
X135.84Y-165.827
X135.84Y-169.827
X135.84Y-177.447
X136.17Y-123.565
X136.765Y-100.63
X136.765Y-103.13
X136.765Y-108.01
X136.765Y-110.51
X141.25Y-128.1
X141.765Y-103.13
X141.765Y-108.01
X143.79Y-123.565
X143.79Y-128.1
X146.28Y-200.004
X146.28Y-207.623
X146.33Y-128.1
T3
X45.435Y-80.032
X45.435Y-91.348
X45.435Y-102.663
X45.435Y-113.979
X45.435Y-125.294
X45.435Y-136.61
X45.435Y-147.925
X45.435Y-159.241
X45.435Y-170.556
X45.435Y-181.872
X45.435Y-193.188
X45.435Y-204.504
X47.975Y-80.032
X47.975Y-91.348
X47.975Y-102.663
X47.975Y-113.979
X47.975Y-125.294
X47.975Y-136.61
X47.975Y-147.925
X47.975Y-159.241
X47.975Y-170.556
X47.975Y-181.872
X47.975Y-193.188
X47.975Y-204.504
X68.37Y-125.294
X70.91Y-125.294
X75.99Y-125.294
X78.53Y-125.294
T4
X57.975Y-89.112
X57.975Y-125.294
X60.515Y-89.112
X60.515Y-95.76
X60.515Y-98.3
X60.515Y-105.87
X60.515Y-108.41
X60.515Y-110.95
X60.515Y-113.49
X60.515Y-125.294
X63.055Y-89.112
X63.055Y-95.76
X63.055Y-98.3
X63.055Y-125.294
X65.595Y-89.112
X65.595Y-95.76
X65.595Y-98.3
X65.975Y-115.87
X68.515Y-115.87
X69.595Y-69.873
X69.595Y-72.412
X69.595Y-74.953
X69.595Y-77.492
X71.055Y-115.87
X71.135Y-58.166
X73.595Y-115.87
X73.675Y-58.166
X76.215Y-58.166
X86.86Y-180.567
X86.86Y-183.107
X86.86Y-185.647
X86.86Y-188.188
X86.86Y-190.727
X86.86Y-193.267
X92.56Y-35.472
X92.56Y-38.012
X92.56Y-40.552
X92.56Y-43.093
X92.56Y-45.633
X92.56Y-48.172
X92.56Y-50.712
X92.56Y-53.252
X92.56Y-55.792
X92.56Y-58.332
X92.56Y-130.347
X92.56Y-132.887
X92.56Y-135.427
X92.56Y-137.968
X92.56Y-140.507
X92.56Y-143.047
X92.56Y-145.588
X92.56Y-148.127
X92.56Y-150.667
X92.56Y-153.207
X115.59Y-38.372
X115.59Y-53.612
X115.59Y-132.887
X115.59Y-148.127
X118.13Y-38.372
X118.13Y-53.612
X118.13Y-132.887
X118.13Y-148.127
X120.67Y-38.372
X120.67Y-53.612
X120.67Y-132.887
X120.67Y-148.127
X121.525Y-95.18
X123.21Y-38.372
X123.21Y-53.612
X123.21Y-132.887
X123.21Y-148.127
X123.38Y-185.567
X123.38Y-188.107
X123.38Y-190.647
X123.38Y-193.188
X124.065Y-95.18
X125.75Y-38.372
X125.75Y-53.612
X125.75Y-132.887
X125.75Y-148.127
X126.605Y-95.18
X128.29Y-38.372
X128.29Y-53.612
X128.29Y-132.887
X128.29Y-148.127
X129.145Y-95.18
X131.685Y-95.18
X134.225Y-95.18
X136.765Y-95.18
T5
X46.736Y-54.696
X49.276Y-54.696
X51.816Y-54.696
X57.88Y-200.004
X57.88Y-204.504
X64.38Y-200.004
X64.38Y-204.504
X70.98Y-200.004
X70.98Y-204.504
X77.48Y-200.004
X77.48Y-204.504
X80.535Y-90.68
X80.535Y-95.18
X84.08Y-200.004
X84.08Y-204.504
X87.035Y-90.68
X87.035Y-95.18
X90.58Y-200.004
X90.58Y-204.504
X97.18Y-200.004
X97.18Y-204.504
X98.04Y-63.332
X98.04Y-67.832
X98.04Y-78.06
X98.04Y-82.56
X98.04Y-158.207
X98.04Y-162.707
X98.04Y-172.947
X98.04Y-177.447
X103.68Y-200.004
X103.68Y-204.504
X104.54Y-63.332
X104.54Y-67.832
X104.54Y-78.06
X104.54Y-82.56
X104.54Y-158.207
X104.54Y-162.707
X104.54Y-172.947
X104.54Y-177.447
X110.28Y-200.004
X110.28Y-204.504
X111.807Y-63.332
X111.807Y-67.832
X111.807Y-78.06
X111.807Y-82.56
X111.807Y-158.207
X111.807Y-162.707
X111.807Y-172.947
X111.807Y-177.447
X116.78Y-200.004
X116.78Y-204.504
X118.307Y-63.332
X118.307Y-67.832
X118.307Y-78.06
X118.307Y-82.56
X118.307Y-158.207
X118.307Y-162.707
X118.307Y-172.947
X118.307Y-177.447
X123.38Y-200.004
X123.38Y-204.504
X125.573Y-63.332
X125.573Y-67.832
X125.573Y-78.06
X125.573Y-82.56
X125.573Y-158.207
X125.573Y-162.707
X125.573Y-172.947
X125.573Y-177.447
X129.88Y-200.004
X129.88Y-204.504
X132.073Y-63.332
X132.073Y-67.832
X132.073Y-78.06
X132.073Y-82.56
X132.073Y-158.207
X132.073Y-162.707
X132.073Y-172.947
X132.073Y-177.447
X136.48Y-200.004
X136.48Y-204.504
X139.34Y-63.332
X139.34Y-67.832
X139.34Y-78.06
X139.34Y-82.56
X139.34Y-158.207
X139.34Y-162.707
X139.34Y-172.947
X139.34Y-177.447
X142.98Y-200.004
X142.98Y-204.504
X145.84Y-63.332
X145.84Y-67.832
X145.84Y-78.06
X145.84Y-82.56
X145.84Y-158.207
X145.84Y-162.707
X145.84Y-172.947
X145.84Y-177.447
X149.58Y-200.004
X149.58Y-204.504
X156.08Y-200.004
X156.08Y-204.504
T6
X36.7Y-50.266
X36.7Y-53.766
T7
X35.42Y-129.22
X37.893Y-29.848
X37.893Y-219.848
X151.765Y-108.01
X152.893Y-219.848
X152.893Y-29.848
T4
X39.71Y-63.04G85X39.71Y-65.04
G05
X41.71Y-68.74G85X43.71Y-68.74
G05
X45.71Y-63.04G85X45.71Y-65.04
G05
T0
M30
