M48
; DRILL file {KiCad (6.0.9)} date 2022-12-03T09:36:44 CET
; FORMAT={-:-/ absolute / metric / decimal}
; #@! TF.CreationDate,2022-12-03T09:36:44+01:00
; #@! TF.GenerationSoftware,Kicad,Pcbnew,(6.0.9)
; #@! TF.FileFunction,Plated,1,4,PTH
FMAT,2
METRIC
; #@! TA.AperFunction,Plated,PTH,ViaDrill
T1C0.400
; #@! TA.AperFunction,Plated,PTH,ComponentDrill
T2C0.800
; #@! TA.AperFunction,Plated,PTH,ComponentDrill
T3C0.900
; #@! TA.AperFunction,Plated,PTH,ComponentDrill
T4C0.920
; #@! TA.AperFunction,Plated,PTH,ComponentDrill
T5C1.000
; #@! TA.AperFunction,Plated,PTH,ComponentDrill
T6C1.100
; #@! TA.AperFunction,Plated,PTH,ComponentDrill
T7C1.200
; #@! TA.AperFunction,Plated,PTH,ComponentDrill
T8C2.330
; #@! TA.AperFunction,Plated,PTH,ComponentDrill
T9C3.200
%
G90
G05
T1
X47.71Y-61.74
X51.37Y-54.53
X51.98Y-64.66
X55.33Y-53.43
X55.33Y-54.46
X55.8Y-70.33
X55.8Y-75.52
X56.513Y-53.43
X56.513Y-54.46
X57.675Y-66.41
X57.69Y-55.54
X57.69Y-56.57
X57.697Y-53.43
X57.697Y-54.46
X58.31Y-64.66
X58.873Y-55.54
X58.873Y-56.57
X58.88Y-53.43
X58.88Y-54.46
X59.126Y-66.41
X59.692Y-72.588
X60.057Y-55.54
X60.057Y-56.57
X60.577Y-66.41
X61.24Y-55.54
X61.24Y-56.57
X62.028Y-66.41
X63.227Y-55.54
X63.479Y-66.41
X64.31Y-64.66
X64.93Y-66.41
X65.075Y-55.54
X66.581Y-72.925
X66.581Y-74.225
X66.581Y-76.175
X66.581Y-77.27
X66.922Y-55.54
X66.922Y-57.603
X66.922Y-59.667
X66.922Y-61.73
X68.33Y-73.27
X68.64Y-76.17
X68.77Y-55.54
X68.77Y-57.603
X68.77Y-59.667
X68.77Y-61.73
X71.586Y-79.157
X72.435Y-73.27
X73.18Y-83.34
X81.574Y-79.594
X81.574Y-80.622
X81.595Y-81.625
X89.832Y-97.298
X89.832Y-106.645
X90.556Y-98.022
X90.556Y-105.884
X90.556Y-108.512
X91.282Y-98.748
X92.006Y-99.47
X97.118Y-108.484
X102.084Y-118.5
X102.8Y-119.224
X103.85Y-119.224
X104.951Y-159.739
X123.174Y-159.015
X125.805Y-39.11
X127.59Y-53.721
X128.924Y-156.344
X136.152Y-36.12
X136.974Y-191.076
X143.6Y-135.674
X148.143Y-46.277
X151.95Y-191.801
X166.923Y-192.525
T2
X43.63Y-93.01
X43.63Y-103.01
X43.63Y-113.01
X43.63Y-123.01
X43.63Y-133.01
X43.63Y-143.01
X43.63Y-153.01
X43.63Y-163.01
X43.63Y-173.01
X43.63Y-183.01
X43.63Y-193.01
X43.63Y-203.01
X51.25Y-79.882
X51.25Y-83.164
X51.25Y-86.446
X51.25Y-89.728
X53.79Y-93.01
X53.79Y-103.01
X53.79Y-113.01
X53.79Y-123.01
X53.79Y-133.01
X53.79Y-143.01
X53.79Y-153.01
X53.79Y-163.01
X53.79Y-173.01
X53.79Y-183.01
X53.79Y-193.01
X53.79Y-203.01
X61.41Y-79.882
X61.41Y-83.164
X61.41Y-86.446
X61.41Y-89.728
X62.275Y-36.12
X62.275Y-41.2
X62.275Y-46.28
X70.9Y-104.156
X70.9Y-114.316
X71.96Y-147.534
X71.96Y-151.034
X71.96Y-154.534
X71.96Y-183.474
X71.96Y-186.974
X71.96Y-190.474
X72.435Y-36.12
X72.435Y-41.2
X72.435Y-46.28
X74.5Y-85.22
X74.5Y-89.03
X74.5Y-101.617
X74.5Y-116.856
X74.5Y-122.254
X74.5Y-126.254
X74.5Y-128.794
X74.5Y-131.334
X74.5Y-133.874
X74.5Y-136.414
X74.5Y-138.954
X74.5Y-141.494
X74.5Y-144.034
X74.5Y-158.194
X74.5Y-162.194
X74.5Y-164.734
X74.5Y-167.274
X74.5Y-169.814
X74.5Y-172.354
X74.5Y-174.894
X74.5Y-177.434
X74.5Y-179.974
X74.5Y-197.85
X74.5Y-208.01
X75.785Y-54.845
X77.0Y-122.254
X77.0Y-158.194
X77.04Y-29.58
X77.04Y-33.58
X77.04Y-36.12
X77.04Y-38.66
X77.04Y-41.2
X77.04Y-43.74
X77.04Y-46.28
X77.04Y-48.82
X77.04Y-51.36
X77.04Y-58.36
X77.04Y-62.36
X77.04Y-64.9
X77.04Y-67.44
X77.04Y-69.98
X77.04Y-72.52
X77.04Y-75.06
X77.04Y-77.6
X77.04Y-80.14
X79.54Y-29.58
X79.54Y-58.36
X79.62Y-122.254
X79.62Y-158.194
X82.12Y-122.254
X82.12Y-126.254
X82.12Y-128.794
X82.12Y-131.334
X82.12Y-133.874
X82.12Y-136.414
X82.12Y-138.954
X82.12Y-141.494
X82.12Y-144.034
X82.12Y-147.534
X82.12Y-151.034
X82.12Y-154.534
X82.12Y-158.194
X82.12Y-162.194
X82.12Y-164.734
X82.12Y-167.274
X82.12Y-169.814
X82.12Y-172.354
X82.12Y-174.894
X82.12Y-177.434
X82.12Y-179.974
X82.12Y-183.474
X82.12Y-186.974
X82.12Y-190.474
X82.16Y-29.58
X82.16Y-58.36
X84.66Y-29.58
X84.66Y-33.58
X84.66Y-36.12
X84.66Y-38.66
X84.66Y-41.2
X84.66Y-43.74
X84.66Y-46.28
X84.66Y-48.82
X84.66Y-51.36
X84.66Y-58.36
X84.66Y-62.36
X84.66Y-64.9
X84.66Y-67.44
X84.66Y-69.98
X84.66Y-72.52
X84.66Y-75.06
X84.66Y-77.6
X84.66Y-80.14
X84.66Y-85.22
X84.66Y-89.03
X84.66Y-101.617
X84.66Y-116.856
X85.945Y-54.845
X88.26Y-104.156
X88.26Y-114.316
X88.66Y-31.04
X88.66Y-36.12
X88.66Y-41.2
X88.66Y-46.28
X88.66Y-58.36
X88.66Y-122.254
X88.66Y-129.874
X88.66Y-133.874
X88.66Y-138.954
X88.66Y-144.034
X88.66Y-149.114
X88.75Y-197.85
X88.75Y-208.01
X90.35Y-158.194
X90.35Y-162.194
X90.35Y-164.734
X90.35Y-167.274
X90.35Y-169.814
X90.35Y-172.354
X90.35Y-174.894
X90.35Y-177.434
X90.35Y-179.974
X91.2Y-58.36
X91.2Y-122.254
X91.2Y-129.874
X92.85Y-158.194
X93.74Y-58.36
X93.74Y-64.9
X93.74Y-69.98
X93.74Y-75.06
X93.74Y-80.14
X93.74Y-122.254
X93.74Y-129.874
X95.47Y-158.194
X96.28Y-58.36
X96.28Y-122.254
X96.28Y-129.874
X97.97Y-158.194
X97.97Y-162.194
X97.97Y-164.734
X97.97Y-167.274
X97.97Y-169.814
X97.97Y-172.354
X97.97Y-174.894
X97.97Y-177.434
X97.97Y-179.974
X98.82Y-31.04
X98.82Y-36.12
X98.82Y-41.2
X98.82Y-46.28
X98.82Y-58.36
X98.82Y-122.254
X98.82Y-129.874
X98.82Y-133.874
X98.82Y-138.954
X98.82Y-144.034
X98.82Y-149.114
X101.36Y-58.36
X101.36Y-122.254
X101.36Y-129.874
X103.0Y-197.85
X103.0Y-208.01
X103.66Y-33.58
X103.66Y-38.66
X103.66Y-43.74
X103.66Y-48.82
X103.66Y-136.414
X103.66Y-141.494
X103.66Y-146.574
X103.66Y-151.654
X103.9Y-53.36
X103.9Y-58.36
X103.9Y-64.9
X103.9Y-69.98
X103.9Y-75.06
X103.9Y-80.14
X103.9Y-122.254
X103.9Y-129.874
X106.2Y-158.194
X106.2Y-162.194
X106.2Y-164.734
X106.2Y-167.274
X106.2Y-169.814
X106.2Y-172.354
X106.2Y-174.894
X106.2Y-177.434
X106.2Y-179.974
X106.44Y-53.36
X106.44Y-58.36
X106.44Y-122.254
X106.44Y-129.874
X108.7Y-158.194
X108.98Y-53.36
X108.98Y-58.36
X110.165Y-101.617
X110.165Y-116.856
X110.44Y-122.254
X110.44Y-124.754
X110.44Y-127.374
X110.44Y-129.874
X111.32Y-158.194
X112.705Y-101.617
X112.705Y-116.856
X112.743Y-58.36
X112.795Y-62.36
X112.795Y-64.9
X112.795Y-67.44
X112.795Y-69.98
X112.795Y-72.52
X112.795Y-75.06
X112.795Y-77.6
X112.795Y-80.14
X113.82Y-33.58
X113.82Y-38.66
X113.82Y-43.74
X113.82Y-48.82
X113.82Y-136.414
X113.82Y-141.494
X113.82Y-146.574
X113.82Y-151.654
X113.82Y-158.194
X113.82Y-162.194
X113.82Y-164.734
X113.82Y-167.274
X113.82Y-169.814
X113.82Y-172.354
X113.82Y-174.894
X113.82Y-177.434
X113.82Y-179.974
X115.243Y-58.36
X115.245Y-101.617
X115.245Y-116.856
X117.249Y-197.85
X117.249Y-208.01
X117.785Y-101.617
X117.785Y-116.856
X117.863Y-58.36
X119.21Y-124.551
X120.325Y-101.617
X120.325Y-116.856
X120.363Y-58.36
X120.415Y-62.36
X120.415Y-64.9
X120.415Y-67.44
X120.415Y-69.98
X120.415Y-72.52
X120.415Y-75.06
X120.415Y-77.6
X120.415Y-80.14
X120.415Y-83.58
X120.415Y-93.74
X122.865Y-101.617
X122.865Y-116.856
X124.29Y-128.367
X125.405Y-101.617
X125.405Y-116.856
X126.83Y-128.367
X127.945Y-101.617
X127.945Y-116.856
X127.985Y-119.966
X129.37Y-124.551
X129.37Y-128.367
X130.485Y-101.617
X130.485Y-116.856
X130.485Y-119.966
X131.499Y-197.85
X131.499Y-208.01
X133.025Y-101.617
X133.025Y-116.856
X133.025Y-119.966
X133.777Y-124.551
X134.983Y-58.36
X134.983Y-86.1
X134.983Y-158.194
X134.983Y-185.934
X135.525Y-119.966
X135.565Y-101.617
X135.565Y-116.856
X138.105Y-101.617
X138.105Y-116.856
X138.857Y-128.367
X140.645Y-101.617
X140.645Y-116.856
X141.397Y-128.367
X143.185Y-101.617
X143.185Y-116.856
X143.937Y-124.551
X143.937Y-128.367
X145.143Y-58.36
X145.143Y-86.1
X145.143Y-158.194
X145.143Y-185.934
X145.725Y-101.617
X145.725Y-116.856
X145.749Y-197.85
X145.749Y-208.01
X148.143Y-58.36
X148.143Y-86.1
X148.143Y-158.194
X148.143Y-185.934
X148.265Y-101.617
X148.265Y-116.856
X148.343Y-124.551
X150.805Y-101.617
X150.805Y-116.856
X153.345Y-101.617
X153.345Y-116.856
X153.423Y-129.087
X155.885Y-101.617
X155.885Y-116.856
X155.963Y-129.087
X158.303Y-58.36
X158.303Y-86.1
X158.303Y-158.194
X158.303Y-185.934
X158.425Y-101.617
X158.425Y-116.856
X158.503Y-124.551
X158.503Y-129.087
X159.999Y-197.85
X159.999Y-208.01
X161.303Y-58.36
X161.303Y-86.1
X161.303Y-158.194
X161.303Y-185.934
X162.91Y-124.551
X163.505Y-101.617
X163.505Y-104.117
X163.505Y-108.996
X163.505Y-111.496
X167.99Y-129.087
X168.505Y-104.117
X168.505Y-108.996
X170.53Y-129.087
X171.463Y-58.36
X171.463Y-86.1
X171.463Y-158.194
X171.463Y-185.934
X173.07Y-124.551
X173.07Y-129.087
X174.248Y-197.85
X174.248Y-208.01
X174.463Y-58.36
X174.463Y-86.1
X174.463Y-158.194
X174.463Y-185.934
X184.623Y-58.36
X184.623Y-86.1
X184.623Y-158.194
X184.623Y-185.934
T3
X51.25Y-98.01
X51.25Y-108.01
X51.25Y-118.01
X51.25Y-128.01
X51.25Y-138.01
X51.25Y-148.01
X51.25Y-158.01
X51.25Y-168.01
X51.25Y-178.01
X51.25Y-188.01
X51.25Y-198.01
X51.25Y-208.01
X53.79Y-98.01
X53.79Y-108.01
X53.79Y-118.01
X53.79Y-128.01
X53.79Y-138.01
X53.79Y-148.01
X53.79Y-158.01
X53.79Y-168.01
X53.79Y-178.01
X53.79Y-188.01
X53.79Y-198.01
X53.79Y-208.01
X74.5Y-109.236
X77.04Y-109.236
X82.12Y-109.236
X84.66Y-109.236
T4
X45.218Y-74.12
X45.218Y-76.62
X47.218Y-74.12
X47.218Y-76.62
T5
X72.435Y-50.74
X72.435Y-53.28
X72.435Y-55.82
X72.435Y-58.36
X77.04Y-93.14
X79.58Y-93.14
X82.12Y-93.14
X84.66Y-93.14
X86.1Y-167.274
X86.1Y-169.814
X86.1Y-172.354
X86.1Y-174.894
X86.1Y-177.434
X86.1Y-179.974
X86.235Y-154.574
X86.235Y-157.114
X86.235Y-159.654
X86.235Y-162.194
X88.66Y-51.36
X88.66Y-77.6
X88.66Y-80.14
X88.66Y-82.68
X88.66Y-85.22
X89.4Y-64.9
X89.4Y-67.44
X89.4Y-69.98
X89.4Y-72.52
X91.2Y-51.36
X93.74Y-51.36
X95.01Y-116.856
X96.37Y-88.06
X96.37Y-90.6
X96.37Y-93.14
X97.55Y-116.856
X98.91Y-88.06
X98.91Y-90.6
X98.91Y-93.14
X100.09Y-116.856
X108.147Y-64.9
X108.147Y-67.44
X108.147Y-69.98
X108.147Y-72.52
X108.147Y-75.06
X108.147Y-77.6
X108.147Y-80.14
X119.25Y-28.5
X119.25Y-31.04
X119.25Y-33.58
X119.25Y-36.12
X119.25Y-38.66
X119.25Y-41.2
X119.25Y-43.74
X119.25Y-46.28
X119.25Y-48.82
X119.25Y-51.36
X119.3Y-131.334
X119.3Y-133.874
X119.3Y-136.414
X119.3Y-138.954
X119.3Y-141.494
X119.3Y-144.034
X119.3Y-146.574
X119.3Y-149.114
X119.3Y-151.654
X119.3Y-154.194
X154.25Y-36.12
X154.25Y-51.36
X154.25Y-133.874
X154.25Y-149.114
X156.79Y-36.12
X156.79Y-51.36
X156.79Y-133.874
X156.79Y-149.114
X159.33Y-36.12
X159.33Y-51.36
X159.33Y-133.874
X159.33Y-149.114
X161.87Y-36.12
X161.87Y-51.36
X161.87Y-133.874
X161.87Y-149.114
X164.41Y-36.12
X164.41Y-51.36
X164.41Y-133.874
X164.41Y-149.114
X166.95Y-36.12
X166.95Y-51.36
X166.95Y-133.874
X166.95Y-149.114
T6
X78.375Y-197.85
X78.375Y-202.35
X84.875Y-197.85
X84.875Y-202.35
X92.625Y-197.85
X92.625Y-202.35
X99.125Y-197.85
X99.125Y-202.35
X106.295Y-88.06
X106.295Y-92.56
X106.874Y-197.85
X106.874Y-202.35
X112.795Y-88.06
X112.795Y-92.56
X113.374Y-197.85
X113.374Y-202.35
X121.124Y-197.85
X121.124Y-202.35
X127.624Y-197.85
X127.624Y-202.35
X135.374Y-197.85
X135.374Y-202.35
X138.643Y-62.36
X138.643Y-66.86
X138.643Y-77.6
X138.643Y-82.1
X138.643Y-162.194
X138.643Y-166.694
X138.643Y-177.434
X138.643Y-181.934
X141.874Y-197.85
X141.874Y-202.35
X145.143Y-62.36
X145.143Y-66.86
X145.143Y-77.6
X145.143Y-82.1
X145.143Y-162.194
X145.143Y-166.694
X145.143Y-177.434
X145.143Y-181.934
X149.624Y-197.85
X149.624Y-202.35
X151.803Y-62.36
X151.803Y-66.86
X151.803Y-77.6
X151.803Y-82.1
X151.803Y-162.194
X151.803Y-166.694
X151.803Y-177.434
X151.803Y-181.934
X156.124Y-197.85
X156.124Y-202.35
X158.303Y-62.36
X158.303Y-66.86
X158.303Y-77.6
X158.303Y-82.1
X158.303Y-162.194
X158.303Y-166.694
X158.303Y-177.434
X158.303Y-181.934
X163.874Y-197.85
X163.874Y-202.35
X164.963Y-62.36
X164.963Y-66.86
X164.963Y-77.6
X164.963Y-82.1
X164.963Y-162.194
X164.963Y-166.694
X164.963Y-177.434
X164.963Y-181.934
X170.374Y-197.85
X170.374Y-202.35
X171.463Y-62.36
X171.463Y-66.86
X171.463Y-77.6
X171.463Y-82.1
X171.463Y-162.194
X171.463Y-166.694
X171.463Y-177.434
X171.463Y-181.934
X178.123Y-62.36
X178.123Y-66.86
X178.123Y-77.6
X178.123Y-82.1
X178.123Y-162.194
X178.123Y-166.694
X178.123Y-177.434
X178.123Y-181.934
X178.123Y-197.85
X178.123Y-202.35
X184.623Y-62.36
X184.623Y-66.86
X184.623Y-77.6
X184.623Y-82.1
X184.623Y-162.194
X184.623Y-166.694
X184.623Y-177.434
X184.623Y-181.934
X184.623Y-197.85
X184.623Y-202.35
T7
X36.71Y-58.36
X36.71Y-61.86
T8
X42.508Y-69.35
X42.508Y-81.39
T9
X37.893Y-29.848
X37.893Y-124.848
X37.893Y-219.848
X182.893Y-124.848
X182.893Y-219.848
X182.893Y-29.848
T5
X39.77Y-40.052G85X39.77Y-42.052
G05
X41.77Y-45.752G85X43.77Y-45.752
G05
X45.77Y-40.052G85X45.77Y-42.052
G05
T0
M30
